999
Inkscape export via OpenSCAD DXF Export
  0
SECTION
  2
HEADER
  9
$ACADVER
  1
AC1014
  9
$HANDSEED
  5
FFFF
  9
$MEASUREMENT
 70
     1
  0
ENDSEC
  0
SECTION
  2
TABLES
  0
TABLE
  2
VPORT
  5
8
330
0
100
AcDbSymbolTable
 70
     4
  0
VPORT
  5
2E
330
8
100
AcDbSymbolTableRecord
100
AcDbViewportTableRecord
  2
*ACTIVE
 70
     0
 10
0.0
 20
0.0
 11
1.0
 21
1.0
 12
210.0
 22
148.5
 13
0.0
 23
0.0
 14
10.0
 24
10.0
 15
10.0
 25
10.0
 16
0.0
 26
0.0
 36
1.0
 17
0.0
 27
0.0
 37
0.0
 40
341.0
 41
1.24
 42
50.0
 43
0.0
 44
0.0
 50
0.0
 51
0.0
 71
     0
 72
   100
 73
     1
 74
     3
 75
     0
 76
     0
 77
     0
 78
     0
  0
ENDTAB
  0
TABLE
  2
LTYPE
  5
5
330
0
100
AcDbSymbolTable
 70
     1
  0
LTYPE
  5
14
330
5
100
AcDbSymbolTableRecord
100
AcDbLinetypeTableRecord
  2
BYBLOCK
 70
     0
  3

 72
    65
 73
     0
 40
0.0
  0
LTYPE
  5
15
330
5
100
AcDbSymbolTableRecord
100
AcDbLinetypeTableRecord
  2
BYLAYER
 70
     0
  3

 72
    65
 73
     0
 40
0.0
  0
LTYPE
  5
16
330
5
100
AcDbSymbolTableRecord
100
AcDbLinetypeTableRecord
  2
CONTINUOUS
 70
     0
  3
Solid line
 72
    65
 73
     0
 40
0.0
  0
ENDTAB
  0
TABLE
0
TABLE
2
LAYER
5
2
330
0
100
AcDbSymbolTable
70
1
0
LAYER
5
10
330
2
100
AcDbSymbolTableRecord
100
AcDbLayerTableRecord
2
Layer_1
70
0
62
7
6
CONTINUOUS
0
ENDTAB
0
ENDSEC
  0
ENDTAB
  0
TABLE
  2
STYLE
  5
3
330
0
100
AcDbSymbolTable
 70
     1
  0
STYLE
  5
11
330
3
100
AcDbSymbolTableRecord
100
AcDbTextStyleTableRecord
  2
STANDARD
 70
     0
 40
0.0
 41
1.0
 50
0.0
 71
     0
 42
2.5
  3
txt
  4

  0
ENDTAB
  0
TABLE
  2
VIEW
  5
6
330
0
100
AcDbSymbolTable
 70
     0
  0
ENDTAB
  0
TABLE
  2
UCS
  5
7
330
0
100
AcDbSymbolTable
 70
     0
  0
ENDTAB
  0
TABLE
  2
APPID
  5
9
330
0
100
AcDbSymbolTable
 70
     2
  0
APPID
  5
12
330
9
100
AcDbSymbolTableRecord
100
AcDbRegAppTableRecord
  2
ACAD
 70
     0
  0
ENDTAB
  0
TABLE
  2
DIMSTYLE
  5
A
330
0
100
AcDbSymbolTable
 70
     1
  0
DIMSTYLE
105
27
330
A
100
AcDbSymbolTableRecord
100
AcDbDimStyleTableRecord
  2
ISO-25
 70
     0
  3

  4

  5

  6

  7

 40
1.0
 41
2.5
 42
0.625
 43
3.75
 44
1.25
 45
0.0
 46
0.0
 47
0.0
 48
0.0
140
2.5
141
2.5
142
0.0
143
0.03937007874016
144
1.0
145
0.0
146
1.0
147
0.625
 71
     0
 72
     0
 73
     0
 74
     0
 75
     0
 76
     0
 77
     1
 78
     8
170
     0
171
     3
172
     1
173
     0
174
     0
175
     0
176
     0
177
     0
178
     0
270
     2
271
     2
272
     2
273
     2
274
     3
340
11
275
     0
280
     0
281
     0
282
     0
283
     0
284
     8
285
     0
286
     0
287
     3
288
     0
  0
ENDTAB
  0
TABLE
  2
BLOCK_RECORD
  5
1
330
0
100
AcDbSymbolTable
 70
     1
  0
BLOCK_RECORD
  5
1F
330
1
100
AcDbSymbolTableRecord
100
AcDbBlockTableRecord
  2
*MODEL_SPACE
  0
BLOCK_RECORD
  5
1B
330
1
100
AcDbSymbolTableRecord
100
AcDbBlockTableRecord
  2
*PAPER_SPACE
  0
ENDTAB
  0
ENDSEC
  0
SECTION
  2
BLOCKS
  0
BLOCK
  5
20
330
1F
100
AcDbEntity
  8
0
100
AcDbBlockBegin
  2
*MODEL_SPACE
 70
     0
 10
0.0
 20
0.0
 30
0.0
  3
*MODEL_SPACE
  1

  0
ENDBLK
  5
21
330
1F
100
AcDbEntity
  8
0
100
AcDbBlockEnd
  0
BLOCK
  5
1C
330
1B
100
AcDbEntity
 67
     1
  8
0
100
AcDbBlockBegin
  2
*PAPER_SPACE
  1

  0
ENDBLK
  5
1D
330
1B
100
AcDbEntity
 67
     1
  8
0
100
AcDbBlockEnd
  0
ENDSEC
  0
SECTION
  2
ENTITIES
0
DIMENSION
5
83
100
AcDbEntity
62
256
370
-1
6
ByLayer
1
total_width
3
Standard
70
0
71
5
72
1
41
1.0
100
AcDbAlignedDimension
13
9.000903
23
0.000000
33
0.0
14
136.518401
24
0.000000
34
0.0
50
0.000000
100
AcDbRotatedDimension
0
DIMENSION
5
83
100
AcDbEntity
62
256
370
-1
6
ByLayer
1
total_height
3
Standard
70
0
71
5
72
1
41
1.0
100
AcDbAlignedDimension
13
0.000000
23
2.809318
33
0.0
14
0.000000
24
141.541857
34
0.0
50
90.000000
100
AcDbRotatedDimension
0
DIMENSION
8
Layer_1
5
83
100
AcDbEntity
62
256
370
-1
6
ByLayer
1
Layer_1_width
3
Standard
70
0
71
5
72
1
41
1.0
100
AcDbAlignedDimension
13
9.000903
23
0.000000
33
0.0
14
136.518401
24
0.000000
34
0.0
50
0.000000
100
AcDbRotatedDimension
0
DIMENSION
8
Layer_1
5
83
100
AcDbEntity
62
256
370
-1
6
ByLayer
1
Layer_1_height
3
Standard
70
0
71
5
72
1
41
1.0
100
AcDbAlignedDimension
13
0.000000
23
2.809318
33
0.0
14
0.000000
24
141.541857
34
0.0
50
90.000000
100
AcDbRotatedDimension
62
0
0
LWPOLYLINE
100
AcDbPolyline
8
Layer_1
90
360
70
0
10
71.654235
20
3.345095
30
0.0
10
71.253010
20
3.888814
30
0.0
10
71.080988
20
4.403429
30
0.0
10
70.599748
20
8.669048
30
0.0
10
69.884987
20
12.506912
30
0.0
10
69.350388
20
13.479971
30
0.0
10
68.535954
20
14.157249
30
0.0
10
67.320736
20
15.070616
30
0.0
10
66.987991
20
15.533611
30
0.0
10
66.865432
20
15.971551
30
0.0
10
67.283937
20
16.687719
30
0.0
10
68.302736
20
17.918374
30
0.0
10
69.133473
20
18.863331
30
0.0
10
69.545780
20
19.506111
30
0.0
10
69.658819
20
20.135207
30
0.0
10
69.591753
20
21.039114
30
0.0
10
69.313482
20
22.374990
30
0.0
10
68.753053
20
23.675308
30
0.0
10
67.901156
20
24.957086
30
0.0
10
66.748482
20
26.237345
30
0.0
10
64.670274
20
27.922574
30
0.0
10
62.241736
20
29.348937
30
0.0
10
59.819775
20
30.338655
30
0.0
10
58.722794
20
30.614217
30
0.0
10
57.761296
20
30.713951
30
0.0
10
56.715657
20
30.591781
30
0.0
10
56.057827
20
30.100087
30
0.0
10
55.672222
20
29.070334
30
0.0
10
55.443258
20
27.333984
30
0.0
10
54.674993
20
21.252964
30
0.0
10
53.848392
20
16.680095
30
0.0
10
53.555374
20
16.032307
30
0.0
10
53.272374
20
15.762873
30
0.0
10
52.872284
20
16.227002
30
0.0
10
52.297751
20
17.342886
30
0.0
10
51.600319
20
19.776517
30
0.0
10
50.906339
20
24.435057
30
0.0
10
50.324692
20
28.439425
30
0.0
10
49.898932
20
30.326465
30
0.0
10
49.222985
20
30.719381
30
0.0
10
47.679094
20
30.903961
30
0.0
10
39.869223
20
30.734234
30
0.0
10
27.758593
20
30.245852
30
0.0
10
24.796201
20
30.176888
30
0.0
10
23.872116
20
30.245553
30
0.0
10
23.243597
20
30.418491
30
0.0
10
22.853764
20
30.722333
30
0.0
10
22.645736
20
31.183709
30
0.0
10
22.547570
20
32.685589
30
0.0
10
22.547570
20
34.327984
30
0.0
10
25.863681
20
35.531335
30
0.0
10
30.153697
20
37.232571
30
0.0
10
33.183550
20
38.812441
30
0.0
10
34.307394
20
39.608443
30
0.0
10
35.213969
20
40.435999
30
0.0
10
35.935867
20
41.315740
30
0.0
10
36.505679
20
42.268298
30
0.0
10
37.035333
20
43.576478
30
0.0
10
37.439387
20
45.122463
30
0.0
10
37.697060
20
46.804862
30
0.0
10
37.787569
20
48.522289
30
0.0
10
37.736815
20
49.513959
30
0.0
10
37.544213
20
50.109355
30
0.0
10
37.149248
20
50.399697
30
0.0
10
36.491410
20
50.476206
30
0.0
10
35.601337
20
50.690766
30
0.0
10
34.534028
20
51.238462
30
0.0
10
33.522486
20
51.975316
30
0.0
10
32.799714
20
52.757355
30
0.0
10
32.370634
20
53.562384
30
0.0
10
32.207325
20
54.586594
30
0.0
10
32.296885
20
56.310730
30
0.0
10
32.626416
20
59.215534
30
0.0
10
32.967595
20
60.854330
30
0.0
10
33.293113
20
61.277039
30
0.0
10
33.836458
20
61.667379
30
0.0
10
35.721548
20
63.027640
30
0.0
10
36.005097
20
63.439914
30
0.0
10
35.917107
20
63.741187
30
0.0
10
35.685841
20
63.849898
30
0.0
10
35.320419
20
63.799482
30
0.0
10
34.002670
20
63.165843
30
0.0
10
32.905940
20
62.432557
30
0.0
10
32.152469
20
61.651126
30
0.0
10
31.718101
20
60.788107
30
0.0
10
31.578680
20
59.810060
30
0.0
10
31.410078
20
59.046238
30
0.0
10
30.861564
20
58.486012
30
0.0
10
30.069704
20
58.186117
30
0.0
10
29.319884
20
58.434458
30
0.0
10
28.521601
20
59.295917
30
0.0
10
27.584349
20
60.835373
30
0.0
10
26.486482
20
62.636574
30
0.0
10
25.272355
20
64.196701
30
0.0
10
23.900684
20
65.542022
30
0.0
10
22.330187
20
66.698806
30
0.0
10
20.519577
20
67.693319
30
0.0
10
18.427572
20
68.551831
30
0.0
10
16.012886
20
69.300609
30
0.0
10
13.234237
20
69.965920
30
0.0
10
11.101653
20
70.474551
30
0.0
10
9.809903
20
70.955215
30
0.0
10
9.171987
20
71.508070
30
0.0
10
9.000903
20
72.233271
30
0.0
10
9.174162
20
72.956834
30
0.0
10
9.793981
20
73.513726
30
0.0
10
11.010428
20
73.988237
30
0.0
10
12.973571
20
74.464658
30
0.0
10
17.912067
20
75.732414
30
0.0
10
19.838100
20
76.437357
30
0.0
10
21.559792
20
77.240697
30
0.0
10
23.195837
20
78.222930
30
0.0
10
24.578736
20
79.354070
30
0.0
10
25.787751
20
80.710179
30
0.0
10
26.902143
20
82.367318
30
0.0
10
28.820193
20
85.276152
30
0.0
10
29.441988
20
85.864346
30
0.0
10
29.970264
20
86.031886
30
0.0
10
30.597986
20
85.948120
30
0.0
10
31.047323
20
85.672754
30
0.0
10
31.368163
20
85.154379
30
0.0
10
31.610390
20
84.341586
30
0.0
10
31.947389
20
83.289775
30
0.0
10
32.428855
20
82.395306
30
0.0
10
33.006522
20
81.729292
30
0.0
10
33.632123
20
81.362849
30
0.0
10
34.733456
20
80.756277
30
0.0
10
35.242435
20
80.503891
30
0.0
10
35.812397
20
80.532994
30
0.0
10
36.265829
20
80.776201
30
0.0
10
35.903179
20
81.294021
30
0.0
10
34.339784
20
82.398272
30
0.0
10
33.513326
20
82.936436
30
0.0
10
32.999228
20
83.478573
30
0.0
10
32.791420
20
84.067829
30
0.0
10
32.717141
20
84.715006
30
0.0
10
32.778001
20
85.275351
30
0.0
10
32.975606
20
85.604113
30
0.0
10
32.999231
20
86.006266
30
0.0
10
32.659309
20
86.760163
30
0.0
10
32.221798
20
87.860285
30
0.0
10
32.201127
20
89.271912
30
0.0
10
32.483378
20
90.687316
30
0.0
10
33.112826
20
91.815630
30
0.0
10
34.158355
20
92.741326
30
0.0
10
35.688849
20
93.548875
30
0.0
10
37.568624
20
94.361762
30
0.0
10
37.443783
20
97.218542
30
0.0
10
37.207692
20
99.792753
30
0.0
10
36.962937
20
100.588266
30
0.0
10
36.571504
20
101.350730
30
0.0
10
36.001953
20
102.147950
30
0.0
10
35.249225
20
102.893900
30
0.0
10
33.121277
20
104.269217
30
0.0
10
30.041732
20
105.551146
30
0.0
10
25.864663
20
106.814149
30
0.0
10
22.831771
20
107.626206
30
0.0
10
22.830924
20
109.524701
30
0.0
10
22.939453
20
111.166994
30
0.0
10
23.131574
20
111.554959
30
0.0
10
23.464936
20
111.833807
30
0.0
10
24.942047
20
112.299371
30
0.0
10
28.253328
20
112.746488
30
0.0
10
42.867710
20
113.843178
30
0.0
10
49.987527
20
114.421886
30
0.0
10
50.349913
20
114.709104
30
0.0
10
50.675607
20
115.448242
30
0.0
10
51.463386
20
119.056206
30
0.0
10
52.300645
20
122.626270
30
0.0
10
52.734434
20
123.905232
30
0.0
10
53.122209
20
124.657324
30
0.0
10
53.286682
20
124.759274
30
0.0
10
53.457083
20
124.666729
30
0.0
10
53.804697
20
123.932442
30
0.0
10
54.450372
20
120.507071
30
0.0
10
55.194350
20
116.304540
30
0.0
10
55.636332
20
114.540651
30
0.0
10
58.790086
20
114.540651
30
0.0
10
61.943841
20
114.540651
30
0.0
10
64.064789
20
115.933031
30
0.0
10
66.385651
20
117.687316
30
0.0
10
68.128815
20
119.521280
30
0.0
10
69.288608
20
121.427613
30
0.0
10
69.859356
20
123.399008
30
0.0
10
69.924286
20
124.111113
30
0.0
10
69.834370
20
124.637667
30
0.0
10
68.906362
20
125.869355
30
0.0
10
67.707861
20
127.317674
30
0.0
10
67.399756
20
127.867474
30
0.0
10
67.283928
20
128.341277
30
0.0
10
67.359015
20
128.769263
30
0.0
10
67.623653
20
129.181614
30
0.0
10
68.716130
20
130.080134
30
0.0
10
69.599115
20
130.819419
30
0.0
10
70.148891
20
131.851595
30
0.0
10
70.527894
20
133.676304
30
0.0
10
70.898557
20
136.793189
30
0.0
10
71.334976
20
139.939590
30
0.0
10
71.571925
20
140.690256
30
0.0
10
71.875743
20
141.134118
30
0.0
10
72.459628
20
141.488192
30
0.0
10
73.115238
20
141.541857
30
0.0
10
73.727420
20
141.311191
30
0.0
10
74.181022
20
140.812271
30
0.0
10
74.508521
20
139.298567
30
0.0
10
74.895476
20
136.407460
30
0.0
10
75.302705
20
133.455795
30
0.0
10
75.678953
20
131.796496
30
0.0
10
76.322249
20
130.983577
30
0.0
10
77.371535
20
130.066830
30
0.0
10
78.343870
20
129.195008
30
0.0
10
78.709932
20
128.520049
30
0.0
10
78.278423
20
127.690372
30
0.0
10
77.240968
20
126.476514
30
0.0
10
75.772002
20
124.989073
30
0.0
10
76.095154
20
123.102514
30
0.0
10
76.519412
20
121.518039
30
0.0
10
77.240973
20
120.068762
30
0.0
10
78.290264
20
118.706376
30
0.0
10
79.697710
20
117.382572
30
0.0
10
81.474773
20
116.193619
30
0.0
10
83.993058
20
114.797970
30
0.0
10
86.496482
20
113.587945
30
0.0
10
88.228960
20
112.955863
30
0.0
10
89.036186
20
112.938556
30
0.0
10
89.433219
20
113.549831
30
0.0
10
90.133111
20
117.219033
30
0.0
10
90.677977
20
120.431974
30
0.0
10
91.281485
20
122.913414
30
0.0
10
91.869099
20
124.414165
30
0.0
10
92.133654
20
124.718910
30
0.0
10
92.366284
20
124.685038
30
0.0
10
92.664022
20
123.935216
30
0.0
10
93.059036
20
122.307540
30
0.0
10
93.938186
20
117.362873
30
0.0
10
94.521771
20
113.605602
30
0.0
10
95.016808
20
111.640196
30
0.0
10
95.329869
20
111.095158
30
0.0
10
95.739288
20
110.716945
30
0.0
10
97.005199
20
110.086140
30
0.0
10
100.647453
20
108.734580
30
0.0
10
104.094351
20
107.875491
30
0.0
10
105.322518
20
107.477384
30
0.0
10
106.493239
20
106.641152
30
0.0
10
110.742154
20
103.516845
30
0.0
10
113.622743
20
101.356579
30
0.0
10
116.414960
20
98.859692
30
0.0
10
118.867323
20
96.270086
30
0.0
10
120.728351
20
93.831661
30
0.0
10
122.172154
20
91.335400
30
0.0
10
121.819817
20
91.347429
30
0.0
10
120.972710
20
91.759470
30
0.0
10
115.956223
20
94.422096
30
0.0
10
114.033902
20
95.284151
30
0.0
10
113.036988
20
95.576159
30
0.0
10
112.720368
20
95.465962
30
0.0
10
112.543300
20
95.227556
30
0.0
10
112.640341
20
94.260314
30
0.0
10
113.393157
20
92.462830
30
0.0
10
114.866793
20
89.623496
30
0.0
10
118.271792
20
83.312367
30
0.0
10
119.304702
20
81.593953
30
0.0
10
120.453617
20
80.104971
30
0.0
10
121.758291
20
78.820131
30
0.0
10
123.258476
20
77.714144
30
0.0
10
124.993927
20
76.761720
30
0.0
10
127.004396
20
75.937569
30
0.0
10
129.329636
20
75.216401
30
0.0
10
132.009402
20
74.572927
30
0.0
10
135.472896
20
73.685515
30
0.0
10
136.133647
20
73.284645
30
0.0
10
136.424281
20
72.772061
30
0.0
10
136.518401
20
72.260762
30
0.0
10
136.450185
20
71.806997
30
0.0
10
136.209999
20
71.404467
30
0.0
10
135.788207
20
71.046872
30
0.0
10
134.361267
20
70.441292
30
0.0
10
132.092285
20
69.939865
30
0.0
10
130.002011
20
69.465467
30
0.0
10
127.645058
20
68.752013
30
0.0
10
125.370769
20
67.916357
30
0.0
10
123.528486
20
67.075349
30
0.0
10
122.026888
20
66.083673
30
0.0
10
120.605261
20
64.773726
30
0.0
10
119.325194
20
63.210997
30
0.0
10
118.248275
20
61.460970
30
0.0
10
114.967326
20
55.528973
30
0.0
10
111.933859
20
50.765159
30
0.0
10
109.022360
20
46.989235
30
0.0
10
106.107317
20
44.020907
30
0.0
10
104.797014
20
42.753234
30
0.0
10
104.220034
20
41.855263
30
0.0
10
104.193389
20
41.500325
30
0.0
10
104.334294
20
41.184303
30
0.0
10
105.097710
20
40.597664
30
0.0
10
105.756100
20
40.136382
30
0.0
10
106.214793
20
39.610064
30
0.0
10
106.475631
20
39.050002
30
0.0
10
106.540456
20
38.487491
30
0.0
10
106.411110
20
37.953824
30
0.0
10
106.089435
20
37.480297
30
0.0
10
105.577272
20
37.098202
30
0.0
10
104.876465
20
36.838834
30
0.0
10
103.748854
20
36.743422
30
0.0
10
102.477576
20
37.025134
30
0.0
10
101.226891
20
37.314975
30
0.0
10
100.861156
20
37.159227
30
0.0
10
100.425600
20
36.773214
30
0.0
10
99.706233
20
36.287401
30
0.0
10
98.925250
20
36.104642
30
0.0
10
98.154278
20
36.227694
30
0.0
10
97.464945
20
36.659309
30
0.0
10
96.827904
20
37.074202
30
0.0
10
96.104693
20
36.895546
30
0.0
10
95.509526
20
36.430447
30
0.0
10
95.100554
20
35.377275
30
0.0
10
94.765528
20
33.257293
30
0.0
10
94.392200
20
29.591762
30
0.0
10
93.750892
20
23.401729
30
0.0
10
93.160524
20
19.197659
30
0.0
10
92.590208
20
16.803973
30
0.0
10
92.302917
20
16.231157
30
0.0
10
92.009056
20
16.045095
30
0.0
10
91.576317
20
16.570997
30
0.0
10
91.044025
20
17.929631
30
0.0
10
90.519940
20
19.792385
30
0.0
10
90.111820
20
21.830651
30
0.0
10
89.363533
20
27.898429
30
0.0
10
89.011043
20
31.426206
30
0.0
10
88.150965
20
31.390807
30
0.0
10
86.797485
20
30.972689
30
0.0
10
84.583813
20
29.989563
30
0.0
10
82.179197
20
28.761815
30
0.0
10
80.252886
20
27.609828
30
0.0
10
78.482953
20
26.100542
30
0.0
10
77.103299
20
24.333410
30
0.0
10
76.207144
20
22.457652
30
0.0
10
75.969510
20
21.525670
30
0.0
10
75.887710
20
20.622489
30
0.0
10
75.923602
20
19.855040
30
0.0
10
76.089255
20
19.284362
30
0.0
10
77.157710
20
18.020651
30
0.0
10
78.164855
20
16.841120
30
0.0
10
78.368827
20
16.357377
30
0.0
10
78.427710
20
15.850960
30
0.0
10
78.387725
20
15.351978
30
0.0
10
78.227353
20
14.989931
30
0.0
10
77.302947
20
14.353867
30
0.0
10
76.345736
20
13.745369
30
0.0
10
75.731854
20
12.951194
30
0.0
10
75.340454
20
11.728940
30
0.0
10
75.050687
20
9.836206
30
0.0
10
74.328524
20
4.803332
30
0.0
10
74.007929
20
3.788610
30
0.0
10
73.603976
20
3.274540
30
0.0
10
73.068036
20
2.917689
30
0.0
10
72.597062
20
2.809318
30
0.0
10
72.142146
20
2.951197
30
0.0
10
71.654376
20
3.345095
30
0.0
10
71.654235
20
3.345095
30
0.0
62
0
0
LWPOLYLINE
100
AcDbPolyline
8
Layer_1
90
198
70
0
10
26.780903
20
32.539249
30
0.0
10
31.437569
20
33.706130
30
0.0
10
36.392086
20
34.980825
30
0.0
10
39.632839
20
36.104855
30
0.0
10
40.243136
20
36.253745
30
0.0
10
40.921455
20
36.125317
30
0.0
10
41.764971
20
36.012740
30
0.0
10
42.894318
20
36.095785
30
0.0
10
43.987983
20
36.328749
30
0.0
10
44.724453
20
36.665927
30
0.0
10
45.127853
20
36.822121
30
0.0
10
45.601196
20
36.712641
30
0.0
10
50.544430
20
36.549177
30
0.0
10
62.167254
20
36.525276
30
0.0
10
78.221386
20
36.593963
30
0.0
10
78.917185
20
37.344353
30
0.0
10
79.594022
20
37.922271
30
0.0
10
79.841982
20
37.859517
30
0.0
10
80.170785
20
37.589940
30
0.0
10
80.770253
20
37.227532
30
0.0
10
81.576503
20
37.571765
30
0.0
10
82.509492
20
37.915453
30
0.0
10
83.561944
20
38.058403
30
0.0
10
84.813395
20
38.235100
30
0.0
10
86.518077
20
38.726755
30
0.0
10
90.775467
20
40.424317
30
0.0
10
95.310782
20
42.689848
30
0.0
10
99.100694
20
45.062106
30
0.0
10
100.874977
20
46.439243
30
0.0
10
101.926984
20
47.432440
30
0.0
10
102.313877
20
48.107993
30
0.0
10
102.275769
20
48.347370
30
0.0
10
102.092819
20
48.532195
30
0.0
10
102.037024
20
48.715378
30
0.0
10
102.646678
20
48.778527
30
0.0
10
103.433196
20
48.857875
30
0.0
10
104.077978
20
49.066892
30
0.0
10
104.514000
20
49.373595
30
0.0
10
104.674235
20
49.745999
30
0.0
10
104.811213
20
50.127240
30
0.0
10
105.140543
20
50.511845
30
0.0
10
106.690163
20
52.365278
30
0.0
10
107.318001
20
53.171698
30
0.0
10
107.809481
20
53.622726
30
0.0
10
108.342405
20
53.833168
30
0.0
10
109.094575
20
53.917833
30
0.0
10
109.963033
20
54.077437
30
0.0
10
110.510605
20
54.345588
30
0.0
10
110.587802
20
54.597782
30
0.0
10
110.045133
20
54.709514
30
0.0
10
107.444619
20
55.163884
30
0.0
10
106.232107
20
55.517255
30
0.0
10
105.812114
20
55.819924
30
0.0
10
106.187995
20
56.032678
30
0.0
10
107.363105
20
56.116305
30
0.0
10
108.536672
20
56.308070
30
0.0
10
109.402710
20
56.748197
30
0.0
10
109.723255
20
57.248155
30
0.0
10
109.604605
20
57.461655
30
0.0
10
109.260346
20
57.619415
30
0.0
10
109.018573
20
57.727137
30
0.0
10
109.410314
20
57.781221
30
0.0
10
109.925539
20
57.928409
30
0.0
10
110.201270
20
58.259047
30
0.0
10
110.211338
20
58.702280
30
0.0
10
109.929574
20
59.187249
30
0.0
10
109.507530
20
59.888739
30
0.0
10
109.694799
20
60.030769
30
0.0
10
110.157410
20
60.071762
30
0.0
10
110.764571
20
60.194861
30
0.0
10
111.261866
20
60.490822
30
0.0
10
111.715413
20
61.263977
30
0.0
10
112.252667
20
62.659157
30
0.0
10
113.267244
20
66.399148
30
0.0
10
113.910951
20
68.512190
30
0.0
10
114.183397
20
69.385095
30
0.0
10
114.424818
20
71.854540
30
0.0
10
114.623139
20
72.982472
30
0.0
10
114.899435
20
73.536092
30
0.0
10
115.272353
20
73.531158
30
0.0
10
115.760537
20
72.983429
30
0.0
10
116.191242
20
72.348429
30
0.0
10
116.500515
20
73.142912
30
0.0
10
116.795565
20
74.605943
30
0.0
10
116.697254
20
75.120071
30
0.0
10
116.437706
20
75.394154
30
0.0
10
114.814929
20
75.295529
30
0.0
10
113.282013
20
75.046151
30
0.0
10
113.149229
20
75.132637
30
0.0
10
113.517617
20
75.362202
30
0.0
10
115.083237
20
75.922378
30
0.0
10
116.320017
20
76.244238
30
0.0
10
116.159353
20
78.160637
30
0.0
10
115.832105
20
80.038813
30
0.0
10
115.244169
20
81.857175
30
0.0
10
113.598774
20
86.196342
30
0.0
10
112.860072
20
87.999317
30
0.0
10
111.741763
20
90.046487
30
0.0
10
107.336683
20
96.580878
30
0.0
10
106.628066
20
97.814511
30
0.0
10
106.346328
20
98.864456
30
0.0
10
106.496149
20
99.665085
30
0.0
10
107.082206
20
100.150772
30
0.0
10
107.919973
20
100.199005
30
0.0
10
109.189736
20
99.940303
30
0.0
10
110.733217
20
99.418574
30
0.0
10
112.392141
20
98.677724
30
0.0
10
113.213046
20
98.347246
30
0.0
10
113.662141
20
98.318481
30
0.0
10
113.577833
20
98.624158
30
0.0
10
112.948014
20
99.215390
30
0.0
10
109.871679
20
101.401033
30
0.0
10
107.057870
20
103.157708
30
0.0
10
104.122411
20
104.735593
30
0.0
10
101.019515
20
106.150672
30
0.0
10
97.703394
20
107.418929
30
0.0
10
94.128260
20
108.556350
30
0.0
10
90.248326
20
109.578918
30
0.0
10
86.017802
20
110.502617
30
0.0
10
81.390902
20
111.343432
30
0.0
10
79.227176
20
111.617674
30
0.0
10
76.059388
20
111.772457
30
0.0
10
61.776458
20
111.851465
30
0.0
10
48.447949
20
111.753580
30
0.0
10
40.750902
20
111.496718
30
0.0
10
28.835842
20
110.512939
30
0.0
10
25.990562
20
110.202760
30
0.0
10
24.960570
20
109.988940
30
0.0
10
24.847988
20
109.639704
30
0.0
10
25.330628
20
109.283171
30
0.0
10
28.350202
20
108.424210
30
0.0
10
30.440926
20
107.867867
30
0.0
10
32.392888
20
107.179766
30
0.0
10
34.175106
20
106.379547
30
0.0
10
35.756603
20
105.486848
30
0.0
10
37.106397
20
104.521309
30
0.0
10
38.193509
20
103.502568
30
0.0
10
38.986960
20
102.450265
30
0.0
10
39.455770
20
101.384038
30
0.0
10
39.671799
20
100.071396
30
0.0
10
39.764005
20
98.453984
30
0.0
10
39.945999
20
95.137873
30
0.0
10
40.123968
20
93.656206
30
0.0
10
41.213546
20
93.656206
30
0.0
10
42.303124
20
93.496875
30
0.0
10
41.475296
20
92.640971
30
0.0
10
40.777287
20
91.864216
30
0.0
10
40.342820
20
90.725489
30
0.0
10
40.084544
20
88.843952
30
0.0
10
39.915109
20
85.838769
30
0.0
10
39.736121
20
81.549110
30
0.0
10
40.626956
20
81.088442
30
0.0
10
41.517787
20
80.627773
30
0.0
10
40.744764
20
79.820908
30
0.0
10
39.971737
20
79.014043
30
0.0
10
40.096683
20
68.702171
30
0.0
10
40.373831
20
58.238094
30
0.0
10
42.032456
20
58.052711
30
0.0
10
44.137569
20
58.124172
30
0.0
10
44.424878
20
58.141975
30
0.0
10
44.611020
20
58.031834
30
0.0
10
44.793295
20
57.281947
30
0.0
10
44.781002
20
56.531050
30
0.0
10
44.637875
20
56.471983
30
0.0
10
44.369962
20
56.567344
30
0.0
10
43.489854
20
56.785487
30
0.0
10
42.457673
20
56.771068
30
0.0
10
41.487325
20
56.549316
30
0.0
10
40.792713
20
56.145455
30
0.0
10
40.469412
20
55.733448
30
0.0
10
40.287711
20
55.163593
30
0.0
10
40.195937
20
52.654262
30
0.0
10
40.249981
20
50.389458
30
0.0
10
40.462033
20
48.998520
30
0.0
10
40.934722
20
48.145056
30
0.0
10
41.770678
20
47.492674
30
0.0
10
42.491000
20
46.990679
30
0.0
10
42.703103
20
46.664633
30
0.0
10
42.395003
20
46.446619
30
0.0
10
41.554716
20
46.268716
30
0.0
10
40.957775
20
46.140031
30
0.0
10
40.607842
20
45.888364
30
0.0
10
40.382237
20
45.344045
30
0.0
10
40.158281
20
44.337407
30
0.0
10
39.669169
20
42.605906
30
0.0
10
38.929028
20
41.024872
30
0.0
10
37.919770
20
39.578374
30
0.0
10
36.623309
20
38.250478
30
0.0
10
35.021558
20
37.025252
30
0.0
10
33.096431
20
35.886762
30
0.0
10
30.829841
20
34.819075
30
0.0
10
28.203703
20
33.806260
30
0.0
10
26.088040
20
32.978618
30
0.0
10
25.146298
20
32.449056
30
0.0
10
25.128912
20
32.218462
30
0.0
10
25.340124
20
32.153571
30
0.0
10
26.780903
20
32.539249
30
0.0
10
26.780903
20
32.539249
30
0.0
62
0
0
LWPOLYLINE
100
AcDbPolyline
8
Layer_1
90
106
70
0
10
62.769490
20
42.039506
30
0.0
10
61.009229
20
42.359322
30
0.0
10
59.606146
20
42.926622
30
0.0
10
58.507858
20
43.770971
30
0.0
10
57.661979
20
44.921932
30
0.0
10
57.070490
20
45.976405
30
0.0
10
56.634936
20
44.867596
30
0.0
10
56.154476
20
43.991994
30
0.0
10
55.610952
20
43.443869
30
0.0
10
55.053726
20
43.322671
30
0.0
10
54.612529
20
43.921787
30
0.0
10
54.029804
20
45.531473
30
0.0
10
53.693507
20
48.043986
30
0.0
10
53.551819
20
52.180115
30
0.0
10
53.552920
20
58.660651
30
0.0
10
53.805709
20
73.209189
30
0.0
10
54.183331
20
80.950878
30
0.0
10
54.155431
20
81.162449
30
0.0
10
53.925828
20
81.343876
30
0.0
10
52.745346
20
81.674775
30
0.0
10
51.193124
20
81.980667
30
0.0
10
52.459836
20
82.385659
30
0.0
10
53.152300
20
82.636406
30
0.0
10
53.559074
20
82.904164
30
0.0
10
53.782580
20
83.296140
30
0.0
10
53.925239
20
83.919540
30
0.0
10
54.140193
20
87.222372
30
0.0
10
54.246772
20
88.966421
30
0.0
10
54.480172
20
90.106791
30
0.0
10
54.658180
20
90.766136
30
0.0
10
54.420254
20
91.279517
30
0.0
10
54.140894
20
92.185522
30
0.0
10
54.084296
20
94.039543
30
0.0
10
54.238183
20
96.065542
30
0.0
10
54.461146
20
96.537811
30
0.0
10
54.852152
20
96.914262
30
0.0
10
55.572330
20
97.491206
30
0.0
10
54.864392
20
98.450758
30
0.0
10
54.492427
20
99.031349
30
0.0
10
54.278113
20
99.641062
30
0.0
10
54.156458
20
101.712635
30
0.0
10
54.278443
20
103.524840
30
0.0
10
54.705212
20
104.838165
30
0.0
10
55.527984
20
105.820173
30
0.0
10
56.837978
20
106.638429
30
0.0
10
57.747368
20
107.037331
30
0.0
10
58.822935
20
107.244457
30
0.0
10
63.893124
20
107.315776
30
0.0
10
69.129319
20
107.170436
30
0.0
10
70.808219
20
106.938607
30
0.0
10
72.642013
20
106.530580
30
0.0
10
75.077126
20
105.856733
30
0.0
10
76.734490
20
105.189784
30
0.0
10
77.735556
20
104.466206
30
0.0
10
78.201777
20
103.622472
30
0.0
10
78.532318
20
102.921642
30
0.0
10
79.019132
20
102.537599
30
0.0
10
82.260573
20
100.808303
30
0.0
10
86.848346
20
97.910359
30
0.0
10
90.069235
20
95.890893
30
0.0
10
90.617364
20
95.506212
30
0.0
10
90.845346
20
95.072451
30
0.0
10
91.328755
20
93.987519
30
0.0
10
92.490993
20
92.037244
30
0.0
10
95.352040
20
86.977364
30
0.0
10
97.093064
20
83.457782
30
0.0
10
97.464280
20
82.536791
30
0.0
10
97.618680
20
81.763548
30
0.0
10
98.193967
20
79.120865
30
0.0
10
98.661191
20
76.753598
30
0.0
10
98.917060
20
73.618429
30
0.0
10
99.198163
20
69.604302
30
0.0
10
99.434052
20
68.960803
30
0.0
10
99.811278
20
68.807923
30
0.0
10
101.146458
20
68.431413
30
0.0
10
101.993124
20
68.067637
30
0.0
10
101.056299
20
67.580092
30
0.0
10
100.259606
20
66.882418
30
0.0
10
99.440017
20
65.573424
30
0.0
10
98.562434
20
63.584919
30
0.0
10
97.591759
20
60.848708
30
0.0
10
96.433145
20
57.822696
30
0.0
10
94.995507
20
54.999973
30
0.0
10
93.222559
20
52.283428
30
0.0
10
91.058015
20
49.575951
30
0.0
10
90.158838
20
48.469557
30
0.0
10
89.957134
20
48.076684
30
0.0
10
89.930780
20
47.739865
30
0.0
10
90.434399
20
47.081911
30
0.0
10
91.730257
20
46.190733
30
0.0
10
92.706487
20
45.503177
30
0.0
10
92.946487
20
45.214611
30
0.0
10
91.360258
20
45.933495
30
0.0
10
89.872983
20
46.620428
30
0.0
10
89.310429
20
46.603887
30
0.0
10
88.548357
20
46.400531
30
0.0
10
84.604747
20
44.728678
30
0.0
10
82.357910
20
43.744890
30
0.0
10
80.115541
20
42.980735
30
0.0
10
77.799220
20
42.413308
30
0.0
10
75.330527
20
42.019700
30
0.0
10
72.668459
20
41.832029
30
0.0
10
69.250742
20
41.773463
30
0.0
10
65.732658
20
41.842968
30
0.0
10
62.769490
20
42.039512
30
0.0
10
62.769490
20
42.039506
30
0.0
62
0
0
LWPOLYLINE
100
AcDbPolyline
8
Layer_1
90
30
70
0
10
73.532100
20
45.555081
30
0.0
10
74.255418
20
46.278399
30
0.0
10
74.118526
20
51.411192
30
0.0
10
73.615556
20
67.668007
30
0.0
10
73.391428
20
77.826258
30
0.0
10
73.602348
20
85.024674
30
0.0
10
74.037322
20
93.281650
30
0.0
10
74.084358
20
97.691664
30
0.0
10
73.937238
20
98.879857
30
0.0
10
73.662939
20
99.617267
30
0.0
10
73.251399
20
100.074210
30
0.0
10
72.692551
20
100.421008
30
0.0
10
71.962537
20
100.703695
30
0.0
10
71.497187
20
100.305043
30
0.0
10
71.174928
20
99.069145
30
0.0
10
71.100178
20
96.708851
30
0.0
10
71.269300
20
93.441104
30
0.0
10
71.678656
20
89.482845
30
0.0
10
71.999621
20
86.628528
30
0.0
10
72.138101
20
84.004049
30
0.0
10
71.956018
20
74.747318
30
0.0
10
71.215340
20
56.137838
30
0.0
10
70.949463
20
47.777192
30
0.0
10
71.144071
20
46.152307
30
0.0
10
71.588272
20
45.325651
30
0.0
10
72.025033
20
44.955850
30
0.0
10
72.466112
20
44.867460
30
0.0
10
72.954228
20
45.065523
30
0.0
10
73.532097
20
45.555081
30
0.0
10
73.532100
20
45.555081
30
0.0
62
0
0
LWPOLYLINE
100
AcDbPolyline
8
Layer_1
90
13
70
0
10
92.045327
20
69.743526
30
0.0
10
91.994582
20
78.865453
30
0.0
10
91.821000
20
84.060651
30
0.0
10
91.559956
20
86.459540
30
0.0
10
91.379667
20
83.355095
30
0.0
10
91.171062
20
69.631484
30
0.0
10
91.194337
20
61.952387
30
0.0
10
91.313751
20
57.994609
30
0.0
10
91.480137
20
57.220984
30
0.0
10
91.623620
20
57.064045
30
0.0
10
91.844861
20
58.648130
30
0.0
10
92.045327
20
69.743526
30
0.0
10
92.045327
20
69.743526
30
0.0
  0
ENDSEC
  0
SECTION
  2
OBJECTS
  0
DICTIONARY
  5
C
330
0
100
AcDbDictionary
  3
ACAD_GROUP
350
D
  3
ACAD_MLINESTYLE
350
17
  0
DICTIONARY
  5
D
330
C
100
AcDbDictionary
  0
DICTIONARY
  5
1A
330
C
100
AcDbDictionary
  0
DICTIONARY
  5
17
330
C
100
AcDbDictionary
  3
STANDARD
350
18
  0
DICTIONARY
  5
19
330
C
100
AcDbDictionary
  0
ENDSEC
  0
EOF
