999
Inkscape export via OpenSCAD DXF Export
  0
SECTION
  2
HEADER
  9
$ACADVER
  1
AC1014
  9
$HANDSEED
  5
FFFF
  9
$MEASUREMENT
 70
     1
  0
ENDSEC
  0
SECTION
  2
TABLES
  0
TABLE
  2
VPORT
  5
8
330
0
100
AcDbSymbolTable
 70
     4
  0
VPORT
  5
2E
330
8
100
AcDbSymbolTableRecord
100
AcDbViewportTableRecord
  2
*ACTIVE
 70
     0
 10
0.0
 20
0.0
 11
1.0
 21
1.0
 12
210.0
 22
148.5
 13
0.0
 23
0.0
 14
10.0
 24
10.0
 15
10.0
 25
10.0
 16
0.0
 26
0.0
 36
1.0
 17
0.0
 27
0.0
 37
0.0
 40
341.0
 41
1.24
 42
50.0
 43
0.0
 44
0.0
 50
0.0
 51
0.0
 71
     0
 72
   100
 73
     1
 74
     3
 75
     0
 76
     0
 77
     0
 78
     0
  0
ENDTAB
  0
TABLE
  2
LTYPE
  5
5
330
0
100
AcDbSymbolTable
 70
     1
  0
LTYPE
  5
14
330
5
100
AcDbSymbolTableRecord
100
AcDbLinetypeTableRecord
  2
BYBLOCK
 70
     0
  3

 72
    65
 73
     0
 40
0.0
  0
LTYPE
  5
15
330
5
100
AcDbSymbolTableRecord
100
AcDbLinetypeTableRecord
  2
BYLAYER
 70
     0
  3

 72
    65
 73
     0
 40
0.0
  0
LTYPE
  5
16
330
5
100
AcDbSymbolTableRecord
100
AcDbLinetypeTableRecord
  2
CONTINUOUS
 70
     0
  3
Solid line
 72
    65
 73
     0
 40
0.0
  0
ENDTAB
  0
TABLE
0
TABLE
2
LAYER
5
2
330
0
100
AcDbSymbolTable
70
1
0
LAYER
5
10
330
2
100
AcDbSymbolTableRecord
100
AcDbLayerTableRecord
2
Layer_1
70
0
62
7
6
CONTINUOUS
0
ENDTAB
0
ENDSEC
  0
ENDTAB
  0
TABLE
  2
STYLE
  5
3
330
0
100
AcDbSymbolTable
 70
     1
  0
STYLE
  5
11
330
3
100
AcDbSymbolTableRecord
100
AcDbTextStyleTableRecord
  2
STANDARD
 70
     0
 40
0.0
 41
1.0
 50
0.0
 71
     0
 42
2.5
  3
txt
  4

  0
ENDTAB
  0
TABLE
  2
VIEW
  5
6
330
0
100
AcDbSymbolTable
 70
     0
  0
ENDTAB
  0
TABLE
  2
UCS
  5
7
330
0
100
AcDbSymbolTable
 70
     0
  0
ENDTAB
  0
TABLE
  2
APPID
  5
9
330
0
100
AcDbSymbolTable
 70
     2
  0
APPID
  5
12
330
9
100
AcDbSymbolTableRecord
100
AcDbRegAppTableRecord
  2
ACAD
 70
     0
  0
ENDTAB
  0
TABLE
  2
DIMSTYLE
  5
A
330
0
100
AcDbSymbolTable
 70
     1
  0
DIMSTYLE
105
27
330
A
100
AcDbSymbolTableRecord
100
AcDbDimStyleTableRecord
  2
ISO-25
 70
     0
  3

  4

  5

  6

  7

 40
1.0
 41
2.5
 42
0.625
 43
3.75
 44
1.25
 45
0.0
 46
0.0
 47
0.0
 48
0.0
140
2.5
141
2.5
142
0.0
143
0.03937007874016
144
1.0
145
0.0
146
1.0
147
0.625
 71
     0
 72
     0
 73
     0
 74
     0
 75
     0
 76
     0
 77
     1
 78
     8
170
     0
171
     3
172
     1
173
     0
174
     0
175
     0
176
     0
177
     0
178
     0
270
     2
271
     2
272
     2
273
     2
274
     3
340
11
275
     0
280
     0
281
     0
282
     0
283
     0
284
     8
285
     0
286
     0
287
     3
288
     0
  0
ENDTAB
  0
TABLE
  2
BLOCK_RECORD
  5
1
330
0
100
AcDbSymbolTable
 70
     1
  0
BLOCK_RECORD
  5
1F
330
1
100
AcDbSymbolTableRecord
100
AcDbBlockTableRecord
  2
*MODEL_SPACE
  0
BLOCK_RECORD
  5
1B
330
1
100
AcDbSymbolTableRecord
100
AcDbBlockTableRecord
  2
*PAPER_SPACE
  0
ENDTAB
  0
ENDSEC
  0
SECTION
  2
BLOCKS
  0
BLOCK
  5
20
330
1F
100
AcDbEntity
  8
0
100
AcDbBlockBegin
  2
*MODEL_SPACE
 70
     0
 10
0.0
 20
0.0
 30
0.0
  3
*MODEL_SPACE
  1

  0
ENDBLK
  5
21
330
1F
100
AcDbEntity
  8
0
100
AcDbBlockEnd
  0
BLOCK
  5
1C
330
1B
100
AcDbEntity
 67
     1
  8
0
100
AcDbBlockBegin
  2
*PAPER_SPACE
  1

  0
ENDBLK
  5
1D
330
1B
100
AcDbEntity
 67
     1
  8
0
100
AcDbBlockEnd
  0
ENDSEC
  0
SECTION
  2
ENTITIES
0
DIMENSION
5
83
100
AcDbEntity
62
256
370
-1
6
ByLayer
1
total_width
3
Standard
70
0
71
5
72
1
41
1.0
100
AcDbAlignedDimension
13
0.176986
23
0.000000
33
0.0
14
127.694204
24
0.000000
34
0.0
50
0.000000
100
AcDbRotatedDimension
0
DIMENSION
5
83
100
AcDbEntity
62
256
370
-1
6
ByLayer
1
total_height
3
Standard
70
0
71
5
72
1
41
1.0
100
AcDbAlignedDimension
13
0.000000
23
5.323921
33
0.0
14
0.000000
24
144.056460
34
0.0
50
90.000000
100
AcDbRotatedDimension
0
DIMENSION
8
Layer_1
5
83
100
AcDbEntity
62
256
370
-1
6
ByLayer
1
Layer_1_width
3
Standard
70
0
71
5
72
1
41
1.0
100
AcDbAlignedDimension
13
0.176986
23
0.000000
33
0.0
14
127.694204
24
0.000000
34
0.0
50
0.000000
100
AcDbRotatedDimension
0
DIMENSION
8
Layer_1
5
83
100
AcDbEntity
62
256
370
-1
6
ByLayer
1
Layer_1_height
3
Standard
70
0
71
5
72
1
41
1.0
100
AcDbAlignedDimension
13
0.000000
23
5.323921
33
0.0
14
0.000000
24
144.056460
34
0.0
50
90.000000
100
AcDbRotatedDimension
62
0
0
LWPOLYLINE
100
AcDbPolyline
8
Layer_1
90
360
70
0
10
62.830321
20
5.859698
30
0.0
10
62.429095
20
6.403417
30
0.0
10
62.257074
20
6.918031
30
0.0
10
61.775834
20
11.183651
30
0.0
10
61.061072
20
15.021515
30
0.0
10
60.526474
20
15.994574
30
0.0
10
59.712039
20
16.671852
30
0.0
10
58.496822
20
17.585218
30
0.0
10
58.164076
20
18.048214
30
0.0
10
58.041517
20
18.486154
30
0.0
10
58.460022
20
19.202321
30
0.0
10
59.478822
20
20.432976
30
0.0
10
60.309558
20
21.377934
30
0.0
10
60.721865
20
22.020714
30
0.0
10
60.834904
20
22.649810
30
0.0
10
60.767838
20
23.553716
30
0.0
10
60.489567
20
24.889593
30
0.0
10
59.929138
20
26.189911
30
0.0
10
59.077241
20
27.471689
30
0.0
10
57.924567
20
28.751948
30
0.0
10
55.846359
20
30.437177
30
0.0
10
53.417821
20
31.863540
30
0.0
10
50.995860
20
32.853258
30
0.0
10
49.898879
20
33.128820
30
0.0
10
48.937381
20
33.228554
30
0.0
10
47.891743
20
33.106384
30
0.0
10
47.233912
20
32.614690
30
0.0
10
46.848307
20
31.584936
30
0.0
10
46.619343
20
29.848587
30
0.0
10
45.851078
20
23.767566
30
0.0
10
45.024477
20
19.194698
30
0.0
10
44.731459
20
18.546910
30
0.0
10
44.448459
20
18.277476
30
0.0
10
44.048369
20
18.741604
30
0.0
10
43.473836
20
19.857489
30
0.0
10
42.776405
20
22.291120
30
0.0
10
42.082424
20
26.949660
30
0.0
10
41.500777
20
30.954028
30
0.0
10
41.075017
20
32.841068
30
0.0
10
40.399070
20
33.233984
30
0.0
10
38.855179
20
33.418563
30
0.0
10
31.045308
20
33.248837
30
0.0
10
18.934675
20
32.760454
30
0.0
10
15.972283
20
32.691490
30
0.0
10
15.048198
20
32.760156
30
0.0
10
14.419680
20
32.933094
30
0.0
10
14.029847
20
33.236936
30
0.0
10
13.821819
20
33.698312
30
0.0
10
13.723653
20
35.200192
30
0.0
10
13.723653
20
36.842587
30
0.0
10
17.039764
20
38.045938
30
0.0
10
21.329781
20
39.747174
30
0.0
10
24.359635
20
41.327044
30
0.0
10
25.483478
20
42.123046
30
0.0
10
26.390053
20
42.950602
30
0.0
10
27.111952
20
43.830343
30
0.0
10
27.681764
20
44.782901
30
0.0
10
28.211418
20
46.091081
30
0.0
10
28.615472
20
47.637065
30
0.0
10
28.873145
20
49.319465
30
0.0
10
28.963654
20
51.036892
30
0.0
10
28.912900
20
52.028562
30
0.0
10
28.720298
20
52.623957
30
0.0
10
28.325334
20
52.914300
30
0.0
10
27.667495
20
52.990809
30
0.0
10
26.777422
20
53.205369
30
0.0
10
25.710113
20
53.753064
30
0.0
10
24.698570
20
54.489919
30
0.0
10
23.975799
20
55.271958
30
0.0
10
23.546718
20
56.076987
30
0.0
10
23.383409
20
57.101197
30
0.0
10
23.472969
20
58.825333
30
0.0
10
23.802500
20
61.730136
30
0.0
10
24.143680
20
63.368933
30
0.0
10
24.469197
20
63.791642
30
0.0
10
25.012542
20
64.181982
30
0.0
10
26.897633
20
65.542243
30
0.0
10
27.181182
20
65.954517
30
0.0
10
27.093191
20
66.255790
30
0.0
10
26.861925
20
66.364501
30
0.0
10
26.496503
20
66.314085
30
0.0
10
25.178754
20
65.680446
30
0.0
10
24.082024
20
64.947160
30
0.0
10
23.328553
20
64.165728
30
0.0
10
22.894185
20
63.302710
30
0.0
10
22.754764
20
62.324663
30
0.0
10
22.586162
20
61.560841
30
0.0
10
22.037649
20
61.000615
30
0.0
10
21.245788
20
60.700719
30
0.0
10
20.495969
20
60.949061
30
0.0
10
19.697685
20
61.810519
30
0.0
10
18.760434
20
63.349976
30
0.0
10
17.662565
20
65.151177
30
0.0
10
16.448438
20
66.711304
30
0.0
10
15.076767
20
68.056625
30
0.0
10
13.506269
20
69.213409
30
0.0
10
11.695659
20
70.207922
30
0.0
10
9.603653
20
71.066434
30
0.0
10
7.188968
20
71.815212
30
0.0
10
4.410320
20
72.480523
30
0.0
10
2.277736
20
72.989154
30
0.0
10
0.985986
20
73.469818
30
0.0
10
0.348069
20
74.022673
30
0.0
10
0.176986
20
74.747874
30
0.0
10
0.350244
20
75.471437
30
0.0
10
0.970062
20
76.028328
30
0.0
10
2.186509
20
76.502840
30
0.0
10
4.149651
20
76.979261
30
0.0
10
9.088148
20
78.247017
30
0.0
10
11.014182
20
78.951960
30
0.0
10
12.735875
20
79.755300
30
0.0
10
14.371919
20
80.737533
30
0.0
10
15.754817
20
81.868673
30
0.0
10
16.963832
20
83.224781
30
0.0
10
18.078226
20
84.881920
30
0.0
10
19.996277
20
87.790755
30
0.0
10
20.618072
20
88.378949
30
0.0
10
21.146349
20
88.546488
30
0.0
10
21.774070
20
88.462723
30
0.0
10
22.223408
20
88.187357
30
0.0
10
22.544248
20
87.668982
30
0.0
10
22.786475
20
86.856189
30
0.0
10
23.123473
20
85.804378
30
0.0
10
23.604939
20
84.909908
30
0.0
10
24.182606
20
84.243895
30
0.0
10
24.808207
20
83.877452
30
0.0
10
25.909540
20
83.270880
30
0.0
10
26.418519
20
83.018494
30
0.0
10
26.988481
20
83.047597
30
0.0
10
27.441914
20
83.290803
30
0.0
10
27.079264
20
83.808624
30
0.0
10
25.515868
20
84.912875
30
0.0
10
24.689410
20
85.451039
30
0.0
10
24.175313
20
85.993176
30
0.0
10
23.967504
20
86.582432
30
0.0
10
23.893226
20
87.229609
30
0.0
10
23.954086
20
87.789954
30
0.0
10
24.151691
20
88.118716
30
0.0
10
24.175315
20
88.520869
30
0.0
10
23.835393
20
89.274766
30
0.0
10
23.397882
20
90.374888
30
0.0
10
23.377211
20
91.786515
30
0.0
10
23.659462
20
93.201919
30
0.0
10
24.288911
20
94.330233
30
0.0
10
25.334440
20
95.255929
30
0.0
10
26.864933
20
96.063477
30
0.0
10
28.744709
20
96.876365
30
0.0
10
28.619868
20
99.733145
30
0.0
10
28.383777
20
102.307355
30
0.0
10
28.139022
20
103.102869
30
0.0
10
27.747589
20
103.865333
30
0.0
10
27.178038
20
104.662553
30
0.0
10
26.425310
20
105.408502
30
0.0
10
24.297361
20
106.783820
30
0.0
10
21.217814
20
108.065749
30
0.0
10
17.040743
20
109.328752
30
0.0
10
14.007851
20
110.140809
30
0.0
10
14.006722
20
112.039304
30
0.0
10
14.115252
20
113.681597
30
0.0
10
14.307373
20
114.069562
30
0.0
10
14.640734
20
114.348410
30
0.0
10
16.117845
20
114.813973
30
0.0
10
19.429128
20
115.261091
30
0.0
10
34.043513
20
116.357781
30
0.0
10
41.163330
20
116.936490
30
0.0
10
41.525716
20
117.223708
30
0.0
10
41.851410
20
117.962845
30
0.0
10
42.639189
20
121.570810
30
0.0
10
43.476448
20
125.140871
30
0.0
10
43.910237
20
126.419835
30
0.0
10
44.298012
20
127.171928
30
0.0
10
44.462485
20
127.273877
30
0.0
10
44.632886
20
127.181333
30
0.0
10
44.980500
20
126.447045
30
0.0
10
45.626175
20
123.021675
30
0.0
10
46.370153
20
118.819143
30
0.0
10
46.812135
20
117.055255
30
0.0
10
49.965889
20
117.055255
30
0.0
10
53.119644
20
117.055255
30
0.0
10
55.240592
20
118.447635
30
0.0
10
57.561454
20
120.201918
30
0.0
10
59.304618
20
122.035882
30
0.0
10
60.464410
20
123.942217
30
0.0
10
61.035159
20
125.913612
30
0.0
10
61.100089
20
126.625717
30
0.0
10
61.010173
20
127.152270
30
0.0
10
60.082165
20
128.383959
30
0.0
10
58.883664
20
129.832278
30
0.0
10
58.575559
20
130.382078
30
0.0
10
58.459731
20
130.855881
30
0.0
10
58.534818
20
131.283867
30
0.0
10
58.799456
20
131.696218
30
0.0
10
59.891933
20
132.594737
30
0.0
10
60.774918
20
133.334023
30
0.0
10
61.324694
20
134.366198
30
0.0
10
61.703697
20
136.190907
30
0.0
10
62.074360
20
139.307791
30
0.0
10
62.510779
20
142.454193
30
0.0
10
62.747728
20
143.204859
30
0.0
10
63.051546
20
143.648722
30
0.0
10
63.635431
20
144.002795
30
0.0
10
64.291041
20
144.056460
30
0.0
10
64.903223
20
143.825794
30
0.0
10
65.356825
20
143.326875
30
0.0
10
65.684324
20
141.813169
30
0.0
10
66.071279
20
138.922064
30
0.0
10
66.478508
20
135.970398
30
0.0
10
66.854756
20
134.311097
30
0.0
10
67.498052
20
133.498181
30
0.0
10
68.547338
20
132.581434
30
0.0
10
69.519673
20
131.709612
30
0.0
10
69.885735
20
131.034653
30
0.0
10
69.454226
20
130.204975
30
0.0
10
68.416771
20
128.991118
30
0.0
10
66.947804
20
127.503674
30
0.0
10
67.270957
20
125.617118
30
0.0
10
67.695215
20
124.032642
30
0.0
10
68.416776
20
122.583365
30
0.0
10
69.466067
20
121.220979
30
0.0
10
70.873513
20
119.897176
30
0.0
10
72.650576
20
118.708222
30
0.0
10
75.168861
20
117.312573
30
0.0
10
77.672285
20
116.102548
30
0.0
10
79.404763
20
115.470466
30
0.0
10
80.211989
20
115.453159
30
0.0
10
80.609022
20
116.064434
30
0.0
10
81.308914
20
119.733634
30
0.0
10
81.853780
20
122.946576
30
0.0
10
82.457288
20
125.428016
30
0.0
10
83.044902
20
126.928768
30
0.0
10
83.309456
20
127.233514
30
0.0
10
83.542087
20
127.199642
30
0.0
10
83.839825
20
126.449820
30
0.0
10
84.234839
20
124.822143
30
0.0
10
85.113989
20
119.877477
30
0.0
10
85.697574
20
116.120206
30
0.0
10
86.192611
20
114.154799
30
0.0
10
86.505671
20
113.609761
30
0.0
10
86.915091
20
113.231548
30
0.0
10
88.181002
20
112.600743
30
0.0
10
91.823256
20
111.249183
30
0.0
10
95.270153
20
110.390093
30
0.0
10
96.498321
20
109.991986
30
0.0
10
97.669042
20
109.155755
30
0.0
10
101.917957
20
106.031448
30
0.0
10
104.798546
20
103.871181
30
0.0
10
107.590763
20
101.374295
30
0.0
10
110.043125
20
98.784689
30
0.0
10
111.904153
20
96.346264
30
0.0
10
113.347957
20
93.850003
30
0.0
10
112.995620
20
93.862032
30
0.0
10
112.148513
20
94.274073
30
0.0
10
107.132025
20
96.936699
30
0.0
10
105.209705
20
97.798753
30
0.0
10
104.212791
20
98.090761
30
0.0
10
103.896171
20
97.980564
30
0.0
10
103.719103
20
97.742158
30
0.0
10
103.816144
20
96.774917
30
0.0
10
104.568959
20
94.977433
30
0.0
10
106.042595
20
92.138099
30
0.0
10
109.447595
20
85.826970
30
0.0
10
110.480505
20
84.108555
30
0.0
10
111.629420
20
82.619573
30
0.0
10
112.934094
20
81.334734
30
0.0
10
114.434279
20
80.228747
30
0.0
10
116.169730
20
79.276323
30
0.0
10
118.180199
20
78.452172
30
0.0
10
120.505439
20
77.731004
30
0.0
10
123.185205
20
77.087530
30
0.0
10
126.648699
20
76.200117
30
0.0
10
127.309449
20
75.799248
30
0.0
10
127.600083
20
75.286664
30
0.0
10
127.694204
20
74.775365
30
0.0
10
127.625988
20
74.321600
30
0.0
10
127.385802
20
73.919070
30
0.0
10
126.964010
20
73.561474
30
0.0
10
125.537070
20
72.955894
30
0.0
10
123.268088
20
72.454468
30
0.0
10
121.177814
20
71.980069
30
0.0
10
118.820861
20
71.266616
30
0.0
10
116.546572
20
70.430960
30
0.0
10
114.704289
20
69.589952
30
0.0
10
113.202691
20
68.598275
30
0.0
10
111.781064
20
67.288329
30
0.0
10
110.500997
20
65.725600
30
0.0
10
109.424078
20
63.975573
30
0.0
10
106.143129
20
58.043575
30
0.0
10
103.109662
20
53.279762
30
0.0
10
100.198163
20
49.503838
30
0.0
10
97.283120
20
46.535509
30
0.0
10
95.972817
20
45.267837
30
0.0
10
95.395837
20
44.369866
30
0.0
10
95.369192
20
44.014928
30
0.0
10
95.510096
20
43.698906
30
0.0
10
96.273513
20
43.112267
30
0.0
10
96.931903
20
42.650985
30
0.0
10
97.390596
20
42.124666
30
0.0
10
97.651434
20
41.564605
30
0.0
10
97.716259
20
41.002094
30
0.0
10
97.586913
20
40.468427
30
0.0
10
97.265237
20
39.994900
30
0.0
10
96.753075
20
39.612805
30
0.0
10
96.052267
20
39.353436
30
0.0
10
94.924657
20
39.258024
30
0.0
10
93.653379
20
39.539737
30
0.0
10
92.402694
20
39.829578
30
0.0
10
92.036959
20
39.673830
30
0.0
10
91.601403
20
39.287817
30
0.0
10
90.882036
20
38.802004
30
0.0
10
90.101053
20
38.619245
30
0.0
10
89.330081
20
38.742296
30
0.0
10
88.640748
20
39.173912
30
0.0
10
88.003707
20
39.588805
30
0.0
10
87.280496
20
39.410149
30
0.0
10
86.685329
20
38.945050
30
0.0
10
86.276357
20
37.891878
30
0.0
10
85.941331
20
35.771896
30
0.0
10
85.568003
20
32.106365
30
0.0
10
84.926695
20
25.916332
30
0.0
10
84.336327
20
21.712261
30
0.0
10
83.766011
20
19.318576
30
0.0
10
83.478720
20
18.745760
30
0.0
10
83.184859
20
18.559698
30
0.0
10
82.752120
20
19.085600
30
0.0
10
82.219828
20
20.444234
30
0.0
10
81.695743
20
22.306988
30
0.0
10
81.287623
20
24.345254
30
0.0
10
80.539336
20
30.413031
30
0.0
10
80.186846
20
33.940809
30
0.0
10
79.326768
20
33.905410
30
0.0
10
77.973288
20
33.487291
30
0.0
10
75.759616
20
32.504166
30
0.0
10
73.355000
20
31.276418
30
0.0
10
71.428689
20
30.124431
30
0.0
10
69.658756
20
28.615145
30
0.0
10
68.279102
20
26.848013
30
0.0
10
67.382947
20
24.972255
30
0.0
10
67.145313
20
24.040273
30
0.0
10
67.063513
20
23.137091
30
0.0
10
67.099405
20
22.369643
30
0.0
10
67.265058
20
21.798965
30
0.0
10
68.333513
20
20.535254
30
0.0
10
69.340658
20
19.355723
30
0.0
10
69.544630
20
18.871980
30
0.0
10
69.603513
20
18.365563
30
0.0
10
69.563528
20
17.866581
30
0.0
10
69.403155
20
17.504534
30
0.0
10
68.478750
20
16.868470
30
0.0
10
67.521539
20
16.259972
30
0.0
10
66.907657
20
15.465796
30
0.0
10
66.516257
20
14.243543
30
0.0
10
66.226490
20
12.350809
30
0.0
10
65.504327
20
7.317935
30
0.0
10
65.183732
20
6.303213
30
0.0
10
64.779779
20
5.789143
30
0.0
10
64.243839
20
5.432292
30
0.0
10
63.772865
20
5.323921
30
0.0
10
63.317949
20
5.465799
30
0.0
10
62.830179
20
5.859698
30
0.0
10
62.830321
20
5.859698
30
0.0
62
0
0
LWPOLYLINE
100
AcDbPolyline
8
Layer_1
90
198
70
0
10
17.956986
20
35.053851
30
0.0
10
22.613653
20
36.220733
30
0.0
10
27.568170
20
37.495428
30
0.0
10
30.808924
20
38.619458
30
0.0
10
31.419221
20
38.768347
30
0.0
10
32.097540
20
38.639919
30
0.0
10
32.941056
20
38.527343
30
0.0
10
34.070403
20
38.610388
30
0.0
10
35.164068
20
38.843352
30
0.0
10
35.900538
20
39.180530
30
0.0
10
36.303938
20
39.336724
30
0.0
10
36.777281
20
39.227244
30
0.0
10
41.720516
20
39.063780
30
0.0
10
53.343339
20
39.039879
30
0.0
10
69.397471
20
39.108566
30
0.0
10
70.093270
20
39.858956
30
0.0
10
70.770107
20
40.436874
30
0.0
10
71.018067
20
40.374120
30
0.0
10
71.346870
20
40.104543
30
0.0
10
71.946338
20
39.742135
30
0.0
10
72.752588
20
40.086367
30
0.0
10
73.685577
20
40.430056
30
0.0
10
74.738030
20
40.573006
30
0.0
10
75.989481
20
40.749703
30
0.0
10
77.694162
20
41.241358
30
0.0
10
81.951552
20
42.938920
30
0.0
10
86.486867
20
45.204450
30
0.0
10
90.276779
20
47.576709
30
0.0
10
92.051063
20
48.953846
30
0.0
10
93.103069
20
49.947043
30
0.0
10
93.489962
20
50.622596
30
0.0
10
93.451854
20
50.861972
30
0.0
10
93.268904
20
51.046798
30
0.0
10
93.213109
20
51.229981
30
0.0
10
93.822763
20
51.293130
30
0.0
10
94.609281
20
51.372478
30
0.0
10
95.254064
20
51.581495
30
0.0
10
95.690085
20
51.888198
30
0.0
10
95.850321
20
52.260602
30
0.0
10
95.987298
20
52.641843
30
0.0
10
96.316628
20
53.026448
30
0.0
10
97.866248
20
54.879881
30
0.0
10
98.494086
20
55.686301
30
0.0
10
98.985566
20
56.137328
30
0.0
10
99.518491
20
56.347771
30
0.0
10
100.270660
20
56.432436
30
0.0
10
101.139118
20
56.592039
30
0.0
10
101.686691
20
56.860191
30
0.0
10
101.763887
20
57.112385
30
0.0
10
101.221218
20
57.224117
30
0.0
10
98.620704
20
57.678487
30
0.0
10
97.408192
20
58.031858
30
0.0
10
96.988199
20
58.334527
30
0.0
10
97.364080
20
58.547281
30
0.0
10
98.539190
20
58.630907
30
0.0
10
99.712757
20
58.822673
30
0.0
10
100.578795
20
59.262800
30
0.0
10
100.899340
20
59.762758
30
0.0
10
100.780690
20
59.976258
30
0.0
10
100.436432
20
60.134017
30
0.0
10
100.194658
20
60.241740
30
0.0
10
100.586399
20
60.295824
30
0.0
10
101.101624
20
60.443011
30
0.0
10
101.377355
20
60.773650
30
0.0
10
101.387423
20
61.216883
30
0.0
10
101.105660
20
61.701852
30
0.0
10
100.683615
20
62.403342
30
0.0
10
100.870884
20
62.545372
30
0.0
10
101.333495
20
62.586365
30
0.0
10
101.940656
20
62.709464
30
0.0
10
102.437952
20
63.005425
30
0.0
10
102.891498
20
63.778580
30
0.0
10
103.428752
20
65.173759
30
0.0
10
104.443330
20
68.913750
30
0.0
10
105.087036
20
71.026793
30
0.0
10
105.359482
20
71.899698
30
0.0
10
105.600904
20
74.369143
30
0.0
10
105.799224
20
75.497075
30
0.0
10
106.075521
20
76.050695
30
0.0
10
106.448438
20
76.045761
30
0.0
10
106.936622
20
75.498031
30
0.0
10
107.367327
20
74.863031
30
0.0
10
107.676600
20
75.657515
30
0.0
10
107.971650
20
77.120545
30
0.0
10
107.873339
20
77.634674
30
0.0
10
107.613791
20
77.908757
30
0.0
10
105.991014
20
77.810131
30
0.0
10
104.458098
20
77.560754
30
0.0
10
104.325314
20
77.647240
30
0.0
10
104.693702
20
77.876805
30
0.0
10
106.259322
20
78.436981
30
0.0
10
107.496102
20
78.758841
30
0.0
10
107.335439
20
80.675240
30
0.0
10
107.008191
20
82.553416
30
0.0
10
106.420254
20
84.371778
30
0.0
10
104.774859
20
88.710945
30
0.0
10
104.036157
20
90.513920
30
0.0
10
102.917848
20
92.561090
30
0.0
10
98.512768
20
99.095481
30
0.0
10
97.804151
20
100.329114
30
0.0
10
97.522413
20
101.379058
30
0.0
10
97.672234
20
102.179687
30
0.0
10
98.258291
20
102.665375
30
0.0
10
99.096059
20
102.713608
30
0.0
10
100.365821
20
102.454906
30
0.0
10
101.909302
20
101.933177
30
0.0
10
103.568226
20
101.192327
30
0.0
10
104.389131
20
100.861848
30
0.0
10
104.838226
20
100.833084
30
0.0
10
104.753918
20
101.138761
30
0.0
10
104.124100
20
101.729993
30
0.0
10
101.047764
20
103.915636
30
0.0
10
98.233955
20
105.672311
30
0.0
10
95.298496
20
107.250195
30
0.0
10
92.195600
20
108.665274
30
0.0
10
88.879479
20
109.933532
30
0.0
10
85.304345
20
111.070953
30
0.0
10
81.424411
20
112.093521
30
0.0
10
77.193887
20
113.017220
30
0.0
10
72.566987
20
113.858034
30
0.0
10
70.403261
20
114.132277
30
0.0
10
67.235474
20
114.287059
30
0.0
10
52.952543
20
114.366068
30
0.0
10
39.624034
20
114.268183
30
0.0
10
31.926987
20
114.011321
30
0.0
10
20.011925
20
113.027541
30
0.0
10
17.166644
20
112.717363
30
0.0
10
16.136653
20
112.503543
30
0.0
10
16.024070
20
112.154306
30
0.0
10
16.506710
20
111.797773
30
0.0
10
19.526286
20
110.938812
30
0.0
10
21.617011
20
110.382470
30
0.0
10
23.568972
20
109.694369
30
0.0
10
25.351191
20
108.894150
30
0.0
10
26.932687
20
108.001451
30
0.0
10
28.282482
20
107.035912
30
0.0
10
29.369594
20
106.017171
30
0.0
10
30.163045
20
104.964868
30
0.0
10
30.631855
20
103.898641
30
0.0
10
30.847884
20
102.585999
30
0.0
10
30.940090
20
100.968587
30
0.0
10
31.122084
20
97.652476
30
0.0
10
31.300053
20
96.170809
30
0.0
10
32.389631
20
96.170809
30
0.0
10
33.479209
20
96.011478
30
0.0
10
32.651381
20
95.155574
30
0.0
10
31.953372
20
94.378819
30
0.0
10
31.518905
20
93.240092
30
0.0
10
31.260629
20
91.358555
30
0.0
10
31.091195
20
88.353372
30
0.0
10
30.912206
20
84.063713
30
0.0
10
31.803041
20
83.603044
30
0.0
10
32.693872
20
83.142376
30
0.0
10
31.920849
20
82.335511
30
0.0
10
31.147822
20
81.528646
30
0.0
10
31.272768
20
71.216774
30
0.0
10
31.549916
20
60.752696
30
0.0
10
33.208541
20
60.567314
30
0.0
10
35.313654
20
60.638775
30
0.0
10
35.600964
20
60.656578
30
0.0
10
35.787106
20
60.546437
30
0.0
10
35.969380
20
59.796550
30
0.0
10
35.957087
20
59.045653
30
0.0
10
35.813960
20
58.986586
30
0.0
10
35.546047
20
59.081947
30
0.0
10
34.665939
20
59.300089
30
0.0
10
33.633759
20
59.285671
30
0.0
10
32.663410
20
59.063919
30
0.0
10
31.968798
20
58.660058
30
0.0
10
31.645497
20
58.248051
30
0.0
10
31.463796
20
57.678196
30
0.0
10
31.372023
20
55.168865
30
0.0
10
31.426067
20
52.904061
30
0.0
10
31.638118
20
51.513123
30
0.0
10
32.110807
20
50.659659
30
0.0
10
32.946763
20
50.007277
30
0.0
10
33.667085
20
49.505282
30
0.0
10
33.879189
20
49.179236
30
0.0
10
33.571089
20
48.961222
30
0.0
10
32.730801
20
48.783319
30
0.0
10
32.133860
20
48.654634
30
0.0
10
31.783927
20
48.402966
30
0.0
10
31.558322
20
47.858648
30
0.0
10
31.334366
20
46.852010
30
0.0
10
30.845254
20
45.120509
30
0.0
10
30.105113
20
43.539475
30
0.0
10
29.095855
20
42.092977
30
0.0
10
27.799393
20
40.765081
30
0.0
10
26.197642
20
39.539854
30
0.0
10
24.272515
20
38.401364
30
0.0
10
22.005926
20
37.333678
30
0.0
10
19.379787
20
36.320863
30
0.0
10
17.264123
20
35.493221
30
0.0
10
16.322381
20
34.963659
30
0.0
10
16.304994
20
34.733065
30
0.0
10
16.516206
20
34.668174
30
0.0
10
17.956986
20
35.053851
30
0.0
10
17.956986
20
35.053851
30
0.0
62
0
0
LWPOLYLINE
100
AcDbPolyline
8
Layer_1
90
106
70
0
10
53.945576
20
44.554109
30
0.0
10
52.185314
20
44.873925
30
0.0
10
50.782232
20
45.441225
30
0.0
10
49.683943
20
46.285574
30
0.0
10
48.838064
20
47.436535
30
0.0
10
48.246575
20
48.491007
30
0.0
10
47.811021
20
47.382199
30
0.0
10
47.330561
20
46.506596
30
0.0
10
46.787037
20
45.958472
30
0.0
10
46.229811
20
45.837274
30
0.0
10
45.788614
20
46.436390
30
0.0
10
45.205889
20
48.046076
30
0.0
10
44.869592
20
50.558589
30
0.0
10
44.727904
20
54.694717
30
0.0
10
44.729005
20
61.175254
30
0.0
10
44.981794
20
75.723792
30
0.0
10
45.359416
20
83.465481
30
0.0
10
45.331516
20
83.677052
30
0.0
10
45.101913
20
83.858479
30
0.0
10
43.921432
20
84.189378
30
0.0
10
42.369209
20
84.495270
30
0.0
10
43.635922
20
84.900262
30
0.0
10
44.328385
20
85.151009
30
0.0
10
44.735159
20
85.418767
30
0.0
10
44.958665
20
85.810742
30
0.0
10
45.101324
20
86.434143
30
0.0
10
45.316278
20
89.736975
30
0.0
10
45.422857
20
91.481024
30
0.0
10
45.656257
20
92.621394
30
0.0
10
45.834265
20
93.280738
30
0.0
10
45.596339
20
93.794120
30
0.0
10
45.316979
20
94.700125
30
0.0
10
45.260381
20
96.554146
30
0.0
10
45.414268
20
98.580145
30
0.0
10
45.637232
20
99.052414
30
0.0
10
46.028237
20
99.428864
30
0.0
10
46.748415
20
100.005809
30
0.0
10
46.040477
20
100.965361
30
0.0
10
45.668512
20
101.545952
30
0.0
10
45.454199
20
102.155665
30
0.0
10
45.332543
20
104.227238
30
0.0
10
45.454528
20
106.039443
30
0.0
10
45.881297
20
107.352768
30
0.0
10
46.704069
20
108.334776
30
0.0
10
48.014063
20
109.153031
30
0.0
10
48.923453
20
109.551933
30
0.0
10
49.999020
20
109.759060
30
0.0
10
55.069209
20
109.830379
30
0.0
10
60.305404
20
109.685038
30
0.0
10
61.984304
20
109.453210
30
0.0
10
63.818098
20
109.045183
30
0.0
10
66.253212
20
108.371336
30
0.0
10
67.910575
20
107.704387
30
0.0
10
68.911641
20
106.980809
30
0.0
10
69.377862
20
106.137075
30
0.0
10
69.708403
20
105.436245
30
0.0
10
70.195217
20
105.052201
30
0.0
10
73.436659
20
103.322906
30
0.0
10
78.024431
20
100.424962
30
0.0
10
81.245321
20
98.405496
30
0.0
10
81.793449
20
98.020814
30
0.0
10
82.021432
20
97.587054
30
0.0
10
82.504840
20
96.502122
30
0.0
10
83.667078
20
94.551847
30
0.0
10
86.528125
20
89.491967
30
0.0
10
88.269149
20
85.972385
30
0.0
10
88.640365
20
85.051394
30
0.0
10
88.794765
20
84.278151
30
0.0
10
89.370052
20
81.635467
30
0.0
10
89.837277
20
79.268201
30
0.0
10
90.093145
20
76.133031
30
0.0
10
90.374248
20
72.118904
30
0.0
10
90.610137
20
71.475406
30
0.0
10
90.987364
20
71.322525
30
0.0
10
92.322543
20
70.946016
30
0.0
10
93.169209
20
70.582240
30
0.0
10
92.232384
20
70.094695
30
0.0
10
91.435691
20
69.397021
30
0.0
10
90.616102
20
68.088027
30
0.0
10
89.738519
20
66.099522
30
0.0
10
88.767844
20
63.363311
30
0.0
10
87.609230
20
60.337299
30
0.0
10
86.171592
20
57.514576
30
0.0
10
84.398644
20
54.798031
30
0.0
10
82.234100
20
52.090554
30
0.0
10
81.334923
20
50.984160
30
0.0
10
81.133219
20
50.591286
30
0.0
10
81.106865
20
50.254468
30
0.0
10
81.610485
20
49.596514
30
0.0
10
82.906342
20
48.705335
30
0.0
10
83.882572
20
48.017779
30
0.0
10
84.122572
20
47.729214
30
0.0
10
82.536343
20
48.448098
30
0.0
10
81.049068
20
49.135030
30
0.0
10
80.486514
20
49.118490
30
0.0
10
79.724442
20
48.915134
30
0.0
10
75.780832
20
47.243280
30
0.0
10
73.533995
20
46.259492
30
0.0
10
71.291626
20
45.495338
30
0.0
10
68.975305
20
44.927910
30
0.0
10
66.506612
20
44.534303
30
0.0
10
63.844544
20
44.346632
30
0.0
10
60.426827
20
44.288065
30
0.0
10
56.908743
20
44.357571
30
0.0
10
53.945576
20
44.554115
30
0.0
10
53.945576
20
44.554109
30
0.0
62
0
0
LWPOLYLINE
100
AcDbPolyline
8
Layer_1
90
30
70
0
10
64.708185
20
48.069683
30
0.0
10
65.431503
20
48.793002
30
0.0
10
65.294612
20
53.925795
30
0.0
10
64.791641
20
70.182610
30
0.0
10
64.567513
20
80.340861
30
0.0
10
64.778433
20
87.539277
30
0.0
10
65.213407
20
95.796253
30
0.0
10
65.260443
20
100.206267
30
0.0
10
65.113323
20
101.394460
30
0.0
10
64.839024
20
102.131869
30
0.0
10
64.427484
20
102.588813
30
0.0
10
63.868636
20
102.935611
30
0.0
10
63.138622
20
103.218298
30
0.0
10
62.673272
20
102.819646
30
0.0
10
62.351013
20
101.583748
30
0.0
10
62.276263
20
99.223454
30
0.0
10
62.445385
20
95.955707
30
0.0
10
62.854741
20
91.997448
30
0.0
10
63.175707
20
89.143130
30
0.0
10
63.314186
20
86.518652
30
0.0
10
63.132104
20
77.261920
30
0.0
10
62.391425
20
58.652441
30
0.0
10
62.125548
20
50.291795
30
0.0
10
62.320156
20
48.666910
30
0.0
10
62.764357
20
47.840254
30
0.0
10
63.201118
20
47.470453
30
0.0
10
63.642197
20
47.382063
30
0.0
10
64.130313
20
47.580126
30
0.0
10
64.708182
20
48.069683
30
0.0
10
64.708185
20
48.069683
30
0.0
62
0
0
LWPOLYLINE
100
AcDbPolyline
8
Layer_1
90
13
70
0
10
83.221412
20
72.258129
30
0.0
10
83.170667
20
81.380056
30
0.0
10
82.997085
20
86.575254
30
0.0
10
82.736041
20
88.974143
30
0.0
10
82.555752
20
85.869698
30
0.0
10
82.347147
20
72.146087
30
0.0
10
82.370422
20
64.466990
30
0.0
10
82.489836
20
60.509212
30
0.0
10
82.656222
20
59.735587
30
0.0
10
82.799705
20
59.578648
30
0.0
10
83.020946
20
61.162733
30
0.0
10
83.221412
20
72.258129
30
0.0
10
83.221412
20
72.258129
30
0.0
  0
ENDSEC
  0
SECTION
  2
OBJECTS
  0
DICTIONARY
  5
C
330
0
100
AcDbDictionary
  3
ACAD_GROUP
350
D
  3
ACAD_MLINESTYLE
350
17
  0
DICTIONARY
  5
D
330
C
100
AcDbDictionary
  0
DICTIONARY
  5
1A
330
C
100
AcDbDictionary
  0
DICTIONARY
  5
17
330
C
100
AcDbDictionary
  3
STANDARD
350
18
  0
DICTIONARY
  5
19
330
C
100
AcDbDictionary
  0
ENDSEC
  0
EOF
