999
Inkscape export via OpenSCAD DXF Export
  0
SECTION
  2
HEADER
  9
$ACADVER
  1
AC1014
  9
$HANDSEED
  5
FFFF
  9
$MEASUREMENT
 70
     1
  0
ENDSEC
  0
SECTION
  2
TABLES
  0
TABLE
  2
VPORT
  5
8
330
0
100
AcDbSymbolTable
 70
     4
  0
VPORT
  5
2E
330
8
100
AcDbSymbolTableRecord
100
AcDbViewportTableRecord
  2
*ACTIVE
 70
     0
 10
0.0
 20
0.0
 11
1.0
 21
1.0
 12
210.0
 22
148.5
 13
0.0
 23
0.0
 14
10.0
 24
10.0
 15
10.0
 25
10.0
 16
0.0
 26
0.0
 36
1.0
 17
0.0
 27
0.0
 37
0.0
 40
341.0
 41
1.24
 42
50.0
 43
0.0
 44
0.0
 50
0.0
 51
0.0
 71
     0
 72
   100
 73
     1
 74
     3
 75
     0
 76
     0
 77
     0
 78
     0
  0
ENDTAB
  0
TABLE
  2
LTYPE
  5
5
330
0
100
AcDbSymbolTable
 70
     1
  0
LTYPE
  5
14
330
5
100
AcDbSymbolTableRecord
100
AcDbLinetypeTableRecord
  2
BYBLOCK
 70
     0
  3

 72
    65
 73
     0
 40
0.0
  0
LTYPE
  5
15
330
5
100
AcDbSymbolTableRecord
100
AcDbLinetypeTableRecord
  2
BYLAYER
 70
     0
  3

 72
    65
 73
     0
 40
0.0
  0
LTYPE
  5
16
330
5
100
AcDbSymbolTableRecord
100
AcDbLinetypeTableRecord
  2
CONTINUOUS
 70
     0
  3
Solid line
 72
    65
 73
     0
 40
0.0
  0
ENDTAB
  0
TABLE
0
TABLE
2
LAYER
5
2
330
0
100
AcDbSymbolTable
70
1
0
LAYER
5
10
330
2
100
AcDbSymbolTableRecord
100
AcDbLayerTableRecord
2
Layer_1
70
0
62
7
6
CONTINUOUS
0
ENDTAB
0
ENDSEC
  0
ENDTAB
  0
TABLE
  2
STYLE
  5
3
330
0
100
AcDbSymbolTable
 70
     1
  0
STYLE
  5
11
330
3
100
AcDbSymbolTableRecord
100
AcDbTextStyleTableRecord
  2
STANDARD
 70
     0
 40
0.0
 41
1.0
 50
0.0
 71
     0
 42
2.5
  3
txt
  4

  0
ENDTAB
  0
TABLE
  2
VIEW
  5
6
330
0
100
AcDbSymbolTable
 70
     0
  0
ENDTAB
  0
TABLE
  2
UCS
  5
7
330
0
100
AcDbSymbolTable
 70
     0
  0
ENDTAB
  0
TABLE
  2
APPID
  5
9
330
0
100
AcDbSymbolTable
 70
     2
  0
APPID
  5
12
330
9
100
AcDbSymbolTableRecord
100
AcDbRegAppTableRecord
  2
ACAD
 70
     0
  0
ENDTAB
  0
TABLE
  2
DIMSTYLE
  5
A
330
0
100
AcDbSymbolTable
 70
     1
  0
DIMSTYLE
105
27
330
A
100
AcDbSymbolTableRecord
100
AcDbDimStyleTableRecord
  2
ISO-25
 70
     0
  3

  4

  5

  6

  7

 40
1.0
 41
2.5
 42
0.625
 43
3.75
 44
1.25
 45
0.0
 46
0.0
 47
0.0
 48
0.0
140
2.5
141
2.5
142
0.0
143
0.03937007874016
144
1.0
145
0.0
146
1.0
147
0.625
 71
     0
 72
     0
 73
     0
 74
     0
 75
     0
 76
     0
 77
     1
 78
     8
170
     0
171
     3
172
     1
173
     0
174
     0
175
     0
176
     0
177
     0
178
     0
270
     2
271
     2
272
     2
273
     2
274
     3
340
11
275
     0
280
     0
281
     0
282
     0
283
     0
284
     8
285
     0
286
     0
287
     3
288
     0
  0
ENDTAB
  0
TABLE
  2
BLOCK_RECORD
  5
1
330
0
100
AcDbSymbolTable
 70
     1
  0
BLOCK_RECORD
  5
1F
330
1
100
AcDbSymbolTableRecord
100
AcDbBlockTableRecord
  2
*MODEL_SPACE
  0
BLOCK_RECORD
  5
1B
330
1
100
AcDbSymbolTableRecord
100
AcDbBlockTableRecord
  2
*PAPER_SPACE
  0
ENDTAB
  0
ENDSEC
  0
SECTION
  2
BLOCKS
  0
BLOCK
  5
20
330
1F
100
AcDbEntity
  8
0
100
AcDbBlockBegin
  2
*MODEL_SPACE
 70
     0
 10
0.0
 20
0.0
 30
0.0
  3
*MODEL_SPACE
  1

  0
ENDBLK
  5
21
330
1F
100
AcDbEntity
  8
0
100
AcDbBlockEnd
  0
BLOCK
  5
1C
330
1B
100
AcDbEntity
 67
     1
  8
0
100
AcDbBlockBegin
  2
*PAPER_SPACE
  1

  0
ENDBLK
  5
1D
330
1B
100
AcDbEntity
 67
     1
  8
0
100
AcDbBlockEnd
  0
ENDSEC
  0
SECTION
  2
ENTITIES
0
DIMENSION
5
83
100
AcDbEntity
62
256
370
-1
6
ByLayer
1
total_width
3
Standard
70
0
71
5
72
1
41
1.0
100
AcDbAlignedDimension
13
5.602637
23
0.000000
33
0.0
14
328.557467
24
0.000000
34
0.0
50
0.000000
100
AcDbRotatedDimension
0
DIMENSION
5
83
100
AcDbEntity
62
256
370
-1
6
ByLayer
1
total_height
3
Standard
70
0
71
5
72
1
41
1.0
100
AcDbAlignedDimension
13
0.000000
23
3.759793
33
0.0
14
0.000000
24
282.926209
34
0.0
50
90.000000
100
AcDbRotatedDimension
0
DIMENSION
8
Layer_1
5
83
100
AcDbEntity
62
256
370
-1
6
ByLayer
1
Layer_1_width
3
Standard
70
0
71
5
72
1
41
1.0
100
AcDbAlignedDimension
13
5.602637
23
0.000000
33
0.0
14
328.557467
24
0.000000
34
0.0
50
0.000000
100
AcDbRotatedDimension
0
DIMENSION
8
Layer_1
5
83
100
AcDbEntity
62
256
370
-1
6
ByLayer
1
Layer_1_height
3
Standard
70
0
71
5
72
1
41
1.0
100
AcDbAlignedDimension
13
0.000000
23
3.759793
33
0.0
14
0.000000
24
282.926209
34
0.0
50
90.000000
100
AcDbRotatedDimension
62
0
0
LWPOLYLINE
100
AcDbPolyline
8
Layer_1
90
11
70
0
10
6.402043
20
5.142738
30
0.0
10
87.070339
20
144.820818
30
0.0
10
143.534881
20
242.436030
30
0.0
10
167.133744
20
282.926209
30
0.0
10
279.187972
20
89.131995
30
0.0
10
328.002392
20
4.677015
30
0.0
10
328.557467
20
3.759793
30
0.0
10
167.080063
20
3.759793
30
0.0
10
5.602637
20
3.759793
30
0.0
10
6.402043
20
5.142738
30
0.0
10
6.402043
20
5.142738
30
0.0
62
0
0
LWPOLYLINE
100
AcDbPolyline
8
Layer_1
90
36
70
0
10
141.680339
20
16.997048
30
0.0
10
135.718905
20
19.143688
30
0.0
10
130.450233
20
21.440961
30
0.0
10
125.491071
20
24.073599
30
0.0
10
120.458171
20
27.226333
30
0.0
10
117.224892
20
29.499788
30
0.0
10
114.115144
20
31.913107
30
0.0
10
111.132428
20
34.461248
30
0.0
10
108.280248
20
37.139165
30
0.0
10
105.562103
20
39.941817
30
0.0
10
102.981497
20
42.864158
30
0.0
10
100.541931
20
45.901145
30
0.0
10
98.246907
20
49.047734
30
0.0
10
96.099928
20
52.298883
30
0.0
10
94.104494
20
55.649545
30
0.0
10
92.264108
20
59.094679
30
0.0
10
90.582272
20
62.629241
30
0.0
10
89.062488
20
66.248186
30
0.0
10
87.708258
20
69.946470
30
0.0
10
86.523083
20
73.719051
30
0.0
10
85.510466
20
77.560884
30
0.0
10
84.536010
20
82.315484
30
0.0
10
83.844615
20
87.200146
30
0.0
10
83.436139
20
92.168606
30
0.0
10
83.310437
20
97.174601
30
0.0
10
83.467363
20
102.171867
30
0.0
10
83.906775
20
107.114142
30
0.0
10
84.628526
20
111.955161
30
0.0
10
85.632473
20
116.648662
30
0.0
10
86.245598
20
119.392652
30
0.0
10
26.595214
20
16.276873
30
0.0
10
26.233422
20
15.613115
30
0.0
10
86.002992
20
15.626944
30
0.0
10
145.772561
20
15.640772
30
0.0
10
141.680339
20
16.997020
30
0.0
10
141.680339
20
16.997048
30
0.0
62
0
0
LWPOLYLINE
100
AcDbPolyline
8
Layer_1
90
34
70
0
10
307.577123
20
16.000493
30
0.0
10
277.726174
20
67.876075
30
0.0
10
247.880906
20
119.367156
30
0.0
10
248.507194
20
116.624300
30
0.0
10
249.465150
20
112.269960
30
0.0
10
250.170623
20
107.768250
30
0.0
10
250.623080
20
103.153994
30
0.0
10
250.821992
20
98.462015
30
0.0
10
250.766827
20
93.727138
30
0.0
10
250.457054
20
88.984185
30
0.0
10
249.892142
20
84.267981
30
0.0
10
249.071559
20
79.613348
30
0.0
10
247.727696
20
74.101870
30
0.0
10
245.986007
20
68.665891
30
0.0
10
243.864504
20
63.339953
30
0.0
10
241.381199
20
58.158595
30
0.0
10
238.554102
20
53.156358
30
0.0
10
235.401226
20
48.367782
30
0.0
10
231.940582
20
43.827408
30
0.0
10
228.190182
20
39.569777
30
0.0
10
224.338868
20
35.736786
30
0.0
10
220.330992
20
32.204541
30
0.0
10
216.157348
20
28.967224
30
0.0
10
211.808727
20
26.019015
30
0.0
10
207.275924
20
23.354096
30
0.0
10
202.549729
20
20.966647
30
0.0
10
197.620937
20
18.850850
30
0.0
10
192.480339
20
17.000886
30
0.0
10
188.388117
20
15.660895
30
0.0
10
248.028254
20
15.636906
30
0.0
10
296.738656
20
15.688228
30
0.0
10
305.395301
20
15.802593
30
0.0
10
307.577123
20
16.000408
30
0.0
10
307.577123
20
16.000493
30
0.0
62
0
0
LWPOLYLINE
100
AcDbPolyline
8
Layer_1
90
55
70
0
10
161.435895
20
96.751995
30
0.0
10
161.435895
20
166.884217
30
0.0
10
160.696004
20
166.884217
30
0.0
10
156.345727
20
166.337841
30
0.0
10
150.570339
20
165.192151
30
0.0
10
145.340026
20
163.716862
30
0.0
10
140.237317
20
161.830723
30
0.0
10
135.291807
20
159.551757
30
0.0
10
130.533091
20
156.897987
30
0.0
10
125.990763
20
153.887436
30
0.0
10
121.694418
20
150.538127
30
0.0
10
117.673651
20
146.868083
30
0.0
10
113.958057
20
142.895328
30
0.0
10
110.855451
20
139.032303
30
0.0
10
108.030962
20
134.964166
30
0.0
10
105.494785
20
130.712853
30
0.0
10
103.257116
20
126.300303
30
0.0
10
101.328152
20
121.748450
30
0.0
10
99.718088
20
117.079230
30
0.0
10
98.437120
20
112.314582
30
0.0
10
97.495445
20
107.476440
30
0.0
10
97.108762
20
103.631512
30
0.0
10
96.893251
20
98.680479
30
0.0
10
96.873982
20
93.685402
30
0.0
10
97.076026
20
89.708344
30
0.0
10
97.506922
20
86.396878
30
0.0
10
98.117167
20
83.032127
30
0.0
10
98.895129
20
79.652524
30
0.0
10
99.829177
20
76.296497
30
0.0
10
100.907681
20
73.002480
30
0.0
10
102.119010
20
69.808903
30
0.0
10
103.451534
20
66.754196
30
0.0
10
104.893621
20
63.876792
30
0.0
10
106.702362
20
60.709128
30
0.0
10
108.658852
20
57.653955
30
0.0
10
110.758136
20
54.715220
30
0.0
10
112.995261
20
51.896869
30
0.0
10
115.365274
20
49.202849
30
0.0
10
117.863222
20
46.637107
30
0.0
10
120.484151
20
44.203589
30
0.0
10
123.223109
20
41.906240
30
0.0
10
126.075142
20
39.749009
30
0.0
10
129.035296
20
37.735840
30
0.0
10
132.098619
20
35.870682
30
0.0
10
135.260157
20
34.157479
30
0.0
10
138.514957
20
32.600178
30
0.0
10
141.858065
20
31.202727
30
0.0
10
145.284529
20
29.969071
30
0.0
10
148.789396
20
28.903157
30
0.0
10
154.427033
20
27.655477
30
0.0
10
159.883673
20
26.817224
30
0.0
10
161.224228
20
26.667223
30
0.0
10
161.373718
20
47.235102
30
0.0
10
161.435895
20
96.751995
30
0.0
10
161.435895
20
96.751995
30
0.0
62
0
0
LWPOLYLINE
100
AcDbPolyline
8
Layer_1
90
49
70
0
10
175.688117
20
27.049973
30
0.0
10
178.502304
20
27.456663
30
0.0
10
181.798775
20
28.105339
30
0.0
10
185.157955
20
28.904716
30
0.0
10
188.160271
20
29.763511
30
0.0
10
192.908824
20
31.464972
30
0.0
10
197.477799
20
33.469778
30
0.0
10
201.856599
20
35.765541
30
0.0
10
206.034627
20
38.339872
30
0.0
10
210.001284
20
41.180383
30
0.0
10
213.745974
20
44.274686
30
0.0
10
217.258100
20
47.610393
30
0.0
10
220.527063
20
51.175116
30
0.0
10
223.542266
20
54.956467
30
0.0
10
226.293113
20
58.942057
30
0.0
10
228.769005
20
63.119498
30
0.0
10
230.959345
20
67.476402
30
0.0
10
232.853536
20
72.000380
30
0.0
10
234.440980
20
76.679046
30
0.0
10
235.711081
20
81.500010
30
0.0
10
236.653239
20
86.450884
30
0.0
10
237.203951
20
91.966959
30
0.0
10
237.303062
20
98.065902
30
0.0
10
236.961165
20
104.213447
30
0.0
10
236.188851
20
109.875328
30
0.0
10
234.781836
20
115.846007
30
0.0
10
232.839915
20
121.688471
30
0.0
10
230.391741
20
127.354470
30
0.0
10
227.465968
20
132.795754
30
0.0
10
224.091250
20
137.964072
30
0.0
10
220.296241
20
142.811174
30
0.0
10
216.109593
20
147.288807
30
0.0
10
211.559961
20
151.348722
30
0.0
10
208.454520
20
153.718160
30
0.0
10
205.162889
20
155.939933
30
0.0
10
201.717299
20
157.998150
30
0.0
10
198.149984
20
159.876915
30
0.0
10
194.493175
20
161.560335
30
0.0
10
190.779106
20
163.032517
30
0.0
10
187.040010
20
164.277566
30
0.0
10
183.308117
20
165.279589
30
0.0
10
177.737170
20
166.356907
30
0.0
10
173.464674
20
166.884217
30
0.0
10
172.724784
20
166.884217
30
0.0
10
172.724784
20
96.746619
30
0.0
10
172.724784
20
26.609029
30
0.0
10
173.359784
20
26.740657
30
0.0
10
175.688117
20
27.049973
30
0.0
10
175.688117
20
27.049973
30
0.0
62
0
0
LWPOLYLINE
100
AcDbPolyline
8
Layer_1
90
20
70
0
10
114.595614
20
162.180854
30
0.0
10
119.466518
20
165.807177
30
0.0
10
124.625308
20
169.076778
30
0.0
10
130.032093
20
171.973522
30
0.0
10
135.646982
20
174.481273
30
0.0
10
141.430086
20
176.583897
30
0.0
10
147.341515
20
178.265258
30
0.0
10
153.341377
20
179.509221
30
0.0
10
159.389784
20
180.299651
30
0.0
10
161.435895
20
180.488169
30
0.0
10
161.435895
20
215.096403
30
0.0
10
161.435895
20
249.704637
30
0.0
10
160.205059
20
247.593872
30
0.0
10
107.577771
20
156.441995
30
0.0
10
107.238971
20
155.797359
30
0.0
10
107.228652
20
155.684645
30
0.0
10
107.349773
20
155.728200
30
0.0
10
109.529443
20
157.713118
30
0.0
10
114.595614
20
162.180854
30
0.0
10
114.595614
20
162.180854
30
0.0
62
0
0
LWPOLYLINE
100
AcDbPolyline
8
Layer_1
90
20
70
0
10
200.361098
20
201.766718
30
0.0
10
173.267980
20
248.587551
30
0.0
10
173.094258
20
248.773204
30
0.0
10
172.962956
20
248.455204
30
0.0
10
172.803579
20
244.807580
30
0.0
10
172.729539
20
214.961193
30
0.0
10
172.724798
20
180.488169
30
0.0
10
174.770909
20
180.299651
30
0.0
10
181.655600
20
179.364943
30
0.0
10
188.452653
20
177.850526
30
0.0
10
195.107736
20
175.780878
30
0.0
10
201.566523
20
173.180478
30
0.0
10
207.774683
20
170.073803
30
0.0
10
213.677886
20
166.485330
30
0.0
10
219.221805
20
162.439539
30
0.0
10
221.842055
20
160.252798
30
0.0
10
224.352110
20
157.960907
30
0.0
10
226.845447
20
155.721465
30
0.0
10
200.361113
20
201.766718
30
0.0
10
200.361098
20
201.766718
30
0.0
  0
ENDSEC
  0
SECTION
  2
OBJECTS
  0
DICTIONARY
  5
C
330
0
100
AcDbDictionary
  3
ACAD_GROUP
350
D
  3
ACAD_MLINESTYLE
350
17
  0
DICTIONARY
  5
D
330
C
100
AcDbDictionary
  0
DICTIONARY
  5
1A
330
C
100
AcDbDictionary
  0
DICTIONARY
  5
17
330
C
100
AcDbDictionary
  3
STANDARD
350
18
  0
DICTIONARY
  5
19
330
C
100
AcDbDictionary
  0
ENDSEC
  0
EOF
