999
Inkscape export via OpenSCAD DXF Export
  0
SECTION
  2
HEADER
  9
$ACADVER
  1
AC1014
  9
$HANDSEED
  5
FFFF
  9
$MEASUREMENT
 70
     1
  0
ENDSEC
  0
SECTION
  2
TABLES
  0
TABLE
  2
VPORT
  5
8
330
0
100
AcDbSymbolTable
 70
     4
  0
VPORT
  5
2E
330
8
100
AcDbSymbolTableRecord
100
AcDbViewportTableRecord
  2
*ACTIVE
 70
     0
 10
0.0
 20
0.0
 11
1.0
 21
1.0
 12
210.0
 22
148.5
 13
0.0
 23
0.0
 14
10.0
 24
10.0
 15
10.0
 25
10.0
 16
0.0
 26
0.0
 36
1.0
 17
0.0
 27
0.0
 37
0.0
 40
341.0
 41
1.24
 42
50.0
 43
0.0
 44
0.0
 50
0.0
 51
0.0
 71
     0
 72
   100
 73
     1
 74
     3
 75
     0
 76
     0
 77
     0
 78
     0
  0
ENDTAB
  0
TABLE
  2
LTYPE
  5
5
330
0
100
AcDbSymbolTable
 70
     1
  0
LTYPE
  5
14
330
5
100
AcDbSymbolTableRecord
100
AcDbLinetypeTableRecord
  2
BYBLOCK
 70
     0
  3

 72
    65
 73
     0
 40
0.0
  0
LTYPE
  5
15
330
5
100
AcDbSymbolTableRecord
100
AcDbLinetypeTableRecord
  2
BYLAYER
 70
     0
  3

 72
    65
 73
     0
 40
0.0
  0
LTYPE
  5
16
330
5
100
AcDbSymbolTableRecord
100
AcDbLinetypeTableRecord
  2
CONTINUOUS
 70
     0
  3
Solid line
 72
    65
 73
     0
 40
0.0
  0
ENDTAB
  0
TABLE
0
TABLE
2
LAYER
5
2
330
0
100
AcDbSymbolTable
70
1
0
LAYER
5
10
330
2
100
AcDbSymbolTableRecord
100
AcDbLayerTableRecord
2
Layer_1
70
0
62
7
6
CONTINUOUS
0
ENDTAB
0
ENDSEC
  0
ENDTAB
  0
TABLE
  2
STYLE
  5
3
330
0
100
AcDbSymbolTable
 70
     1
  0
STYLE
  5
11
330
3
100
AcDbSymbolTableRecord
100
AcDbTextStyleTableRecord
  2
STANDARD
 70
     0
 40
0.0
 41
1.0
 50
0.0
 71
     0
 42
2.5
  3
txt
  4

  0
ENDTAB
  0
TABLE
  2
VIEW
  5
6
330
0
100
AcDbSymbolTable
 70
     0
  0
ENDTAB
  0
TABLE
  2
UCS
  5
7
330
0
100
AcDbSymbolTable
 70
     0
  0
ENDTAB
  0
TABLE
  2
APPID
  5
9
330
0
100
AcDbSymbolTable
 70
     2
  0
APPID
  5
12
330
9
100
AcDbSymbolTableRecord
100
AcDbRegAppTableRecord
  2
ACAD
 70
     0
  0
ENDTAB
  0
TABLE
  2
DIMSTYLE
  5
A
330
0
100
AcDbSymbolTable
 70
     1
  0
DIMSTYLE
105
27
330
A
100
AcDbSymbolTableRecord
100
AcDbDimStyleTableRecord
  2
ISO-25
 70
     0
  3

  4

  5

  6

  7

 40
1.0
 41
2.5
 42
0.625
 43
3.75
 44
1.25
 45
0.0
 46
0.0
 47
0.0
 48
0.0
140
2.5
141
2.5
142
0.0
143
0.03937007874016
144
1.0
145
0.0
146
1.0
147
0.625
 71
     0
 72
     0
 73
     0
 74
     0
 75
     0
 76
     0
 77
     1
 78
     8
170
     0
171
     3
172
     1
173
     0
174
     0
175
     0
176
     0
177
     0
178
     0
270
     2
271
     2
272
     2
273
     2
274
     3
340
11
275
     0
280
     0
281
     0
282
     0
283
     0
284
     8
285
     0
286
     0
287
     3
288
     0
  0
ENDTAB
  0
TABLE
  2
BLOCK_RECORD
  5
1
330
0
100
AcDbSymbolTable
 70
     1
  0
BLOCK_RECORD
  5
1F
330
1
100
AcDbSymbolTableRecord
100
AcDbBlockTableRecord
  2
*MODEL_SPACE
  0
BLOCK_RECORD
  5
1B
330
1
100
AcDbSymbolTableRecord
100
AcDbBlockTableRecord
  2
*PAPER_SPACE
  0
ENDTAB
  0
ENDSEC
  0
SECTION
  2
BLOCKS
  0
BLOCK
  5
20
330
1F
100
AcDbEntity
  8
0
100
AcDbBlockBegin
  2
*MODEL_SPACE
 70
     0
 10
0.0
 20
0.0
 30
0.0
  3
*MODEL_SPACE
  1

  0
ENDBLK
  5
21
330
1F
100
AcDbEntity
  8
0
100
AcDbBlockEnd
  0
BLOCK
  5
1C
330
1B
100
AcDbEntity
 67
     1
  8
0
100
AcDbBlockBegin
  2
*PAPER_SPACE
  1

  0
ENDBLK
  5
1D
330
1B
100
AcDbEntity
 67
     1
  8
0
100
AcDbBlockEnd
  0
ENDSEC
  0
SECTION
  2
ENTITIES
0
DIMENSION
5
83
100
AcDbEntity
62
256
370
-1
6
ByLayer
1
total_width
3
Standard
70
0
71
5
72
1
41
1.0
100
AcDbAlignedDimension
13
3.200113
23
0.000000
33
0.0
14
259.879388
24
0.000000
34
0.0
50
0.000000
100
AcDbRotatedDimension
0
DIMENSION
5
83
100
AcDbEntity
62
256
370
-1
6
ByLayer
1
total_height
3
Standard
70
0
71
5
72
1
41
1.0
100
AcDbAlignedDimension
13
0.000000
23
3.029955
33
0.0
14
0.000000
24
284.565002
34
0.0
50
90.000000
100
AcDbRotatedDimension
0
DIMENSION
8
Layer_1
5
83
100
AcDbEntity
62
256
370
-1
6
ByLayer
1
Layer_1_width
3
Standard
70
0
71
5
72
1
41
1.0
100
AcDbAlignedDimension
13
3.200113
23
0.000000
33
0.0
14
259.879388
24
0.000000
34
0.0
50
0.000000
100
AcDbRotatedDimension
0
DIMENSION
8
Layer_1
5
83
100
AcDbEntity
62
256
370
-1
6
ByLayer
1
Layer_1_height
3
Standard
70
0
71
5
72
1
41
1.0
100
AcDbAlignedDimension
13
0.000000
23
3.029955
33
0.0
14
0.000000
24
284.565002
34
0.0
50
90.000000
100
AcDbRotatedDimension
62
0
0
LWPOLYLINE
100
AcDbPolyline
8
Layer_1
90
461
70
0
10
177.634065
20
4.229044
30
0.0
10
176.002117
20
13.045552
30
0.0
10
174.897169
20
20.456319
30
0.0
10
174.208223
20
25.227614
30
0.0
10
172.785456
20
33.528514
30
0.0
10
171.411559
20
41.533782
30
0.0
10
170.840115
20
45.594304
30
0.0
10
170.294843
20
49.441635
30
0.0
10
168.983866
20
56.934331
30
0.0
10
167.595446
20
64.861943
30
0.0
10
166.863976
20
69.754869
30
0.0
10
166.145760
20
74.570927
30
0.0
10
164.789211
20
82.313743
30
0.0
10
162.796059
20
94.257439
30
0.0
10
160.816239
20
106.110772
30
0.0
10
158.849862
20
117.681883
30
0.0
10
158.540492
20
120.675900
30
0.0
10
158.399711
20
121.835474
30
0.0
10
160.505606
20
119.688122
30
0.0
10
165.146592
20
114.950263
30
0.0
10
166.986383
20
113.170094
30
0.0
10
167.849790
20
112.527853
30
0.0
10
167.992199
20
113.040567
30
0.0
10
167.977473
20
114.208227
30
0.0
10
167.451425
20
118.912019
30
0.0
10
166.889004
20
124.634554
30
0.0
10
166.123812
20
131.399901
30
0.0
10
164.076467
20
144.916327
30
0.0
10
162.807568
20
153.974721
30
0.0
10
161.909725
20
160.130833
30
0.0
10
159.533071
20
173.330162
30
0.0
10
158.917311
20
176.547332
30
0.0
10
158.655215
20
177.496144
30
0.0
10
158.348914
20
178.104959
30
0.0
10
157.942361
20
178.448666
30
0.0
10
157.379511
20
178.602154
30
0.0
10
155.560736
20
178.638031
30
0.0
10
152.873360
20
178.424595
30
0.0
10
149.682023
20
177.827978
30
0.0
10
146.335443
20
176.928003
30
0.0
10
143.182337
20
175.804491
30
0.0
10
140.698006
20
174.971699
30
0.0
10
139.678069
20
174.589951
30
0.0
10
138.931111
20
174.108435
30
0.0
10
138.751120
20
173.807442
30
0.0
10
138.617319
20
172.943120
30
0.0
10
138.470352
20
167.301466
30
0.0
10
138.533457
20
124.804988
30
0.0
10
138.725699
20
87.937792
30
0.0
10
138.988004
20
73.372994
30
0.0
10
139.405343
20
70.589441
30
0.0
10
140.031277
20
67.877238
30
0.0
10
140.876120
20
65.198575
30
0.0
10
141.950189
20
62.515643
30
0.0
10
143.193072
20
60.077422
30
0.0
10
144.600521
20
58.134623
30
0.0
10
146.331396
20
56.506487
30
0.0
10
148.544559
20
55.012257
30
0.0
10
150.307274
20
53.821808
30
0.0
10
150.629984
20
53.378862
30
0.0
10
150.747022
20
52.875665
30
0.0
10
150.750196
20
52.234480
30
0.0
10
150.597813
20
51.745903
30
0.0
10
150.257312
20
51.403492
30
0.0
10
149.696133
20
51.200811
30
0.0
10
147.781503
20
51.188875
30
0.0
10
144.593448
20
51.658582
30
0.0
10
141.182087
20
52.140850
30
0.0
10
137.537893
20
52.492521
30
0.0
10
129.635671
20
53.177897
30
0.0
10
123.291744
20
53.710472
30
0.0
10
116.771845
20
54.022066
30
0.0
10
110.451550
20
54.101251
30
0.0
10
104.706431
20
53.936595
30
0.0
10
96.484118
20
53.332837
30
0.0
10
95.322687
20
53.215843
30
0.0
10
94.608197
20
53.328114
30
0.0
10
94.203357
20
53.733082
30
0.0
10
93.970876
20
54.494182
30
0.0
10
93.684472
20
55.335264
30
0.0
10
93.238563
20
56.144025
30
0.0
10
92.891967
20
56.711908
30
0.0
10
92.894577
20
56.954524
30
0.0
10
93.065312
20
57.226932
30
0.0
10
94.063727
20
58.033157
30
0.0
10
96.192337
20
59.474642
30
0.0
10
98.550722
20
61.256302
30
0.0
10
100.496590
20
63.188573
30
0.0
10
102.108945
20
65.362632
30
0.0
10
103.466790
20
67.869652
30
0.0
10
104.620865
20
70.722118
30
0.0
10
105.503057
20
73.741291
30
0.0
10
106.122312
20
76.964369
30
0.0
10
106.487575
20
80.428550
30
0.0
10
107.041815
20
88.048550
30
0.0
10
107.581033
20
97.576186
30
0.0
10
107.862237
20
108.732330
30
0.0
10
107.876763
20
120.835472
30
0.0
10
107.615945
20
133.204105
30
0.0
10
106.979736
20
146.881002
30
0.0
10
106.630268
20
152.110554
30
0.0
10
106.375544
20
154.300527
30
0.0
10
104.043508
20
152.763169
30
0.0
10
101.380585
20
151.047760
30
0.0
10
97.766858
20
149.053637
30
0.0
10
94.136373
20
147.268133
30
0.0
10
91.423174
20
146.178580
30
0.0
10
85.326782
20
144.136384
30
0.0
10
81.503982
20
142.940018
30
0.0
10
78.535462
20
142.258776
30
0.0
10
75.744809
20
141.679165
30
0.0
10
75.584160
20
138.831461
30
0.0
10
75.525753
20
131.531862
30
0.0
10
75.653049
20
109.428781
30
0.0
10
76.001466
20
87.073533
30
0.0
10
76.219460
20
79.458725
30
0.0
10
76.445773
20
76.169729
30
0.0
10
77.425325
20
74.078366
30
0.0
10
78.396860
20
72.760733
30
0.0
10
81.002039
20
70.750436
30
0.0
10
82.865805
20
69.405693
30
0.0
10
84.106484
20
68.730176
30
0.0
10
84.911443
20
68.429723
30
0.0
10
85.466493
20
67.982270
30
0.0
10
85.787724
20
67.368335
30
0.0
10
85.891226
20
66.568439
30
0.0
10
85.891226
20
65.495825
30
0.0
10
84.783301
20
65.886703
30
0.0
10
81.076055
20
66.886617
30
0.0
10
76.232398
20
67.667334
30
0.0
10
70.226174
20
68.232099
30
0.0
10
63.031226
20
68.584154
30
0.0
10
40.376598
20
69.268070
30
0.0
10
30.787337
20
69.418460
30
0.0
10
25.213447
20
69.421846
30
0.0
10
25.213447
20
70.951406
30
0.0
10
25.213447
20
72.480938
30
0.0
10
26.582013
20
72.935513
30
0.0
10
28.524426
20
73.869069
30
0.0
10
31.083705
20
75.446792
30
0.0
10
33.635400
20
77.254993
30
0.0
10
35.555058
20
78.879985
30
0.0
10
37.040878
20
80.688417
30
0.0
10
38.380537
20
83.126315
30
0.0
10
39.086914
20
84.695249
30
0.0
10
39.522945
20
85.984917
30
0.0
10
40.060457
20
89.547830
30
0.0
10
40.438432
20
95.486817
30
0.0
10
40.698371
20
104.459150
30
0.0
10
40.814628
20
115.125995
30
0.0
10
40.761556
20
126.148521
30
0.0
10
40.594559
20
138.425188
30
0.0
10
36.925671
20
140.327230
30
0.0
10
32.902929
20
142.232230
30
0.0
10
29.057027
20
144.057616
30
0.0
10
24.137009
20
146.422626
30
0.0
10
22.080307
20
147.458277
30
0.0
10
19.140702
20
149.186313
30
0.0
10
17.095135
20
150.497708
30
0.0
10
15.680562
20
151.577385
30
0.0
10
14.397377
20
152.863467
30
0.0
10
12.745972
20
154.794077
30
0.0
10
10.539012
20
157.600424
30
0.0
10
9.201887
20
159.591855
30
0.0
10
7.368504
20
162.648358
30
0.0
10
5.683965
20
165.611691
30
0.0
10
4.157614
20
169.081820
30
0.0
10
3.200113
20
171.510333
30
0.0
10
3.991886
20
172.108695
30
0.0
10
5.891161
20
173.023450
30
0.0
10
8.183870
20
173.942265
30
0.0
10
10.155948
20
174.552808
30
0.0
10
18.349028
20
176.213360
30
0.0
10
24.968614
20
177.396055
30
0.0
10
26.028812
20
177.461107
30
0.0
10
26.639896
20
177.319733
30
0.0
10
26.870907
20
176.928247
30
0.0
10
26.790889
20
176.242966
30
0.0
10
26.587184
20
175.867257
30
0.0
10
26.139636
20
175.432509
30
0.0
10
24.435984
20
174.323098
30
0.0
10
20.573384
20
172.049279
30
0.0
10
18.519051
20
171.021855
30
0.0
10
15.399184
20
169.243221
30
0.0
10
11.868721
20
166.847255
30
0.0
10
11.627729
20
166.560858
30
0.0
10
11.676796
20
166.223662
30
0.0
10
12.997610
20
164.738358
30
0.0
10
14.481327
20
163.392816
30
0.0
10
15.756110
20
162.492868
30
0.0
10
18.154999
20
160.858392
30
0.0
10
21.403447
20
158.728647
30
0.0
10
25.495669
20
156.344301
30
0.0
10
28.882337
20
154.545476
30
0.0
10
32.603384
20
152.668896
30
0.0
10
34.657742
20
151.606199
30
0.0
10
36.568218
20
150.798096
30
0.0
10
38.168016
20
150.306350
30
0.0
10
39.290340
20
150.192726
30
0.0
10
40.030115
20
150.278521
30
0.0
10
39.987911
20
160.861855
30
0.0
10
39.625365
20
179.522410
30
0.0
10
38.330530
20
214.342966
30
0.0
10
37.631593
20
237.281570
30
0.0
10
37.631311
20
242.722394
30
0.0
10
36.808802
20
244.351776
30
0.0
10
35.316410
20
246.742055
30
0.0
10
33.411519
20
248.838136
30
0.0
10
31.123786
20
250.612641
30
0.0
10
28.482866
20
252.038191
30
0.0
10
27.472971
20
252.599382
30
0.0
10
27.364918
20
252.836401
30
0.0
10
27.453586
20
253.115408
30
0.0
10
27.690188
20
253.511121
30
0.0
10
28.056547
20
253.808642
30
0.0
10
28.760020
20
254.023593
30
0.0
10
30.007966
20
254.171597
30
0.0
10
34.966699
20
254.329250
30
0.0
10
44.591602
20
254.406578
30
0.0
10
67.405755
20
254.803044
30
0.0
10
76.860200
20
255.150411
30
0.0
10
79.541311
20
255.202377
30
0.0
10
79.442237
20
253.822671
30
0.0
10
79.277016
20
252.817350
30
0.0
10
79.018903
20
252.337762
30
0.0
10
78.186767
20
251.677755
30
0.0
10
76.914454
20
250.319675
30
0.0
10
75.613461
20
248.734223
30
0.0
10
74.695287
20
247.392103
30
0.0
10
73.896866
20
245.951855
30
0.0
10
73.910949
20
218.152966
30
0.0
10
74.026335
20
193.681429
30
0.0
10
74.411690
20
178.077410
30
0.0
10
75.123919
20
161.953601
30
0.0
10
75.569222
20
155.285417
30
0.0
10
76.139525
20
155.365104
30
0.0
10
77.412538
20
155.803125
30
0.0
10
81.027837
20
157.359452
30
0.0
10
84.022342
20
158.604077
30
0.0
10
85.358032
20
159.244634
30
0.0
10
88.847468
20
161.444466
30
0.0
10
90.910664
20
162.555188
30
0.0
10
93.777720
20
164.408581
30
0.0
10
97.122310
20
166.596850
30
0.0
10
100.752741
20
169.047343
30
0.0
10
105.073374
20
172.150744
30
0.0
10
106.527019
20
173.138521
30
0.0
10
106.396674
20
195.151855
30
0.0
10
106.273145
20
208.943010
30
0.0
10
106.041617
20
219.387478
30
0.0
10
105.621275
20
228.967746
30
0.0
10
104.931309
20
240.166299
30
0.0
10
103.917802
20
253.572190
30
0.0
10
103.512741
20
256.650225
30
0.0
10
103.059560
20
258.443541
30
0.0
10
102.660914
20
259.478689
30
0.0
10
102.240947
20
260.155190
30
0.0
10
101.593250
20
260.711348
30
0.0
10
100.511415
20
261.385471
30
0.0
10
98.667977
20
262.761801
30
0.0
10
97.642652
20
264.077246
30
0.0
10
97.479910
20
264.622211
30
0.0
10
97.573448
20
265.044043
30
0.0
10
97.940517
20
265.306774
30
0.0
10
98.598369
20
265.374433
30
0.0
10
105.223533
20
264.992541
30
0.0
10
113.088575
20
264.777838
30
0.0
10
123.270619
20
264.801616
30
0.0
10
133.265286
20
265.032291
30
0.0
10
140.568197
20
265.438280
30
0.0
10
144.294262
20
265.739326
30
0.0
10
146.055571
20
265.636926
30
0.0
10
146.312927
20
265.390126
30
0.0
10
146.215274
20
264.989294
30
0.0
10
145.136517
20
263.654644
30
0.0
10
143.973922
20
262.136267
30
0.0
10
142.698143
20
260.005799
30
0.0
10
141.318125
20
257.279602
30
0.0
10
139.842813
20
253.974033
30
0.0
10
138.962667
20
251.483749
30
0.0
10
138.415426
20
248.360154
30
0.0
10
138.067034
20
243.392121
30
0.0
10
137.783437
20
235.368521
30
0.0
10
137.669320
20
223.114815
30
0.0
10
137.739198
20
205.952086
30
0.0
10
137.937571
20
190.606316
30
0.0
10
138.208938
20
183.803488
30
0.0
10
139.671780
20
183.987421
30
0.0
10
142.963228
20
184.655240
30
0.0
10
147.492478
20
185.537980
30
0.0
10
151.931311
20
186.238645
30
0.0
10
155.341757
20
186.588544
30
0.0
10
157.897002
20
186.571528
30
0.0
10
160.029128
20
186.146886
30
0.0
10
162.170212
20
185.273905
30
0.0
10
164.531413
20
184.286299
30
0.0
10
166.360354
20
183.274490
30
0.0
10
169.658630
20
181.219402
30
0.0
10
170.817149
20
180.608013
30
0.0
10
171.333911
20
180.452601
30
0.0
10
171.156780
20
183.639395
30
0.0
10
170.839426
20
188.487781
30
0.0
10
170.676805
20
191.205536
30
0.0
10
170.202183
20
195.628227
30
0.0
10
168.406561
20
208.839633
30
0.0
10
166.898216
20
220.834077
30
0.0
10
166.187239
20
226.956535
30
0.0
10
164.818986
20
236.920744
30
0.0
10
162.797973
20
252.301855
30
0.0
10
160.658957
20
268.517019
30
0.0
10
158.704644
20
283.308038
30
0.0
10
158.704644
20
284.565002
30
0.0
10
165.266311
20
284.375775
30
0.0
10
178.036878
20
283.871192
30
0.0
10
185.158896
20
283.688921
30
0.0
10
193.667163
20
283.708680
30
0.0
10
203.088559
20
283.861526
30
0.0
10
202.886121
20
277.183358
30
0.0
10
202.796981
20
272.253294
30
0.0
10
202.866930
20
269.778017
30
0.0
10
203.050177
20
269.050846
30
0.0
10
206.347972
20
269.933894
30
0.0
10
209.837678
20
271.019331
30
0.0
10
213.596878
20
272.388981
30
0.0
10
221.462905
20
275.229689
30
0.0
10
224.628661
20
276.199986
30
0.0
10
226.374997
20
276.572965
30
0.0
10
226.879190
20
276.476481
30
0.0
10
227.472619
20
276.134229
30
0.0
10
229.361726
20
274.395646
30
0.0
10
231.517989
20
271.993966
30
0.0
10
233.493544
20
269.638969
30
0.0
10
235.469100
20
267.221919
30
0.0
10
236.962422
20
265.333683
30
0.0
10
240.030319
20
261.756299
30
0.0
10
242.414786
20
258.934077
30
0.0
10
243.959106
20
256.958521
30
0.0
10
245.857305
20
254.639702
30
0.0
10
247.778109
20
252.240813
30
0.0
10
250.186565
20
249.257639
30
0.0
10
251.837989
20
247.194634
30
0.0
10
253.214556
20
245.441072
30
0.0
10
255.168377
20
243.122102
30
0.0
10
257.943866
20
239.100812
30
0.0
10
259.243119
20
236.890344
30
0.0
10
259.743287
20
235.064478
30
0.0
10
259.879388
20
233.283163
30
0.0
10
259.878345
20
230.676952
30
0.0
10
259.418834
20
222.365504
30
0.0
10
258.272766
20
208.881460
30
0.0
10
256.348154
20
188.976150
30
0.0
10
255.948178
20
183.562336
30
0.0
10
255.789100
20
178.447491
30
0.0
10
255.789100
20
173.530099
30
0.0
10
253.108948
20
170.935421
30
0.0
10
250.396373
20
168.466848
30
0.0
10
247.776829
20
166.480359
30
0.0
10
244.851769
20
164.705599
30
0.0
10
241.222651
20
162.872211
30
0.0
10
236.120384
20
160.579633
30
0.0
10
230.823129
20
159.034632
30
0.0
10
226.985054
20
157.950403
30
0.0
10
223.559890
20
157.160847
30
0.0
10
220.882359
20
156.732750
30
0.0
10
219.287183
20
156.732899
30
0.0
10
218.560641
20
157.218543
30
0.0
10
217.637481
20
158.292681
30
0.0
10
216.610626
20
159.830833
30
0.0
10
215.572998
20
161.708521
30
0.0
10
213.592080
20
164.954077
30
0.0
10
211.619854
20
168.199633
30
0.0
10
209.465172
20
171.658455
30
0.0
10
207.283143
20
175.045122
30
0.0
10
205.292856
20
178.359633
30
0.0
10
204.104333
20
180.194077
30
0.0
10
205.463939
20
180.415875
30
0.0
10
208.534047
20
180.831473
30
0.0
10
209.138759
20
180.733396
30
0.0
10
209.627676
20
180.433543
30
0.0
10
210.435826
20
179.628303
30
0.0
10
211.358996
20
178.424880
30
0.0
10
212.319804
20
177.189730
30
0.0
10
213.218446
20
176.308213
30
0.0
10
214.111358
20
175.469683
30
0.0
10
215.058394
20
174.337887
30
0.0
10
216.608821
20
172.464270
30
0.0
10
218.440601
20
170.557772
30
0.0
10
220.082982
20
169.077325
30
0.0
10
221.065211
20
168.481858
30
0.0
10
221.641623
20
168.674925
30
0.0
10
222.306347
20
169.196612
30
0.0
10
222.970235
20
169.960644
30
0.0
10
223.544138
20
170.880746
30
0.0
10
225.186531
20
173.073433
30
0.0
10
226.222124
20
174.403294
30
0.0
10
227.017899
20
175.710469
30
0.0
10
227.642852
20
177.001489
30
0.0
10
227.481759
20
194.684452
30
0.0
10
227.278027
20
208.789645
30
0.0
10
227.014456
20
217.870744
30
0.0
10
226.068669
20
231.712063
30
0.0
10
225.026426
20
243.129633
30
0.0
10
224.041499
20
251.596299
30
0.0
10
223.111464
20
258.880274
30
0.0
10
222.577580
20
261.856541
30
0.0
10
222.240692
20
262.406937
30
0.0
10
221.686128
20
262.802900
30
0.0
10
220.878251
20
263.202578
30
0.0
10
219.993229
20
263.330719
30
0.0
10
218.743733
20
263.184951
30
0.0
10
216.842433
20
262.762901
30
0.0
10
213.365794
20
262.181610
30
0.0
10
209.739485
20
261.532565
30
0.0
10
204.813078
20
260.181062
30
0.0
10
203.823067
20
259.837771
30
0.0
10
203.289917
20
259.535396
30
0.0
10
203.044920
20
259.117850
30
0.0
10
202.919367
20
258.429046
30
0.0
10
202.826075
20
245.740843
30
0.0
10
202.903344
20
219.201660
30
0.0
10
203.088086
20
191.800205
30
0.0
10
203.317215
20
176.525188
30
0.0
10
204.196793
20
161.172925
30
0.0
10
205.841862
20
136.731855
30
0.0
10
206.592029
20
125.509818
30
0.0
10
206.917923
20
118.885679
30
0.0
10
206.853509
20
115.567991
30
0.0
10
206.685550
20
114.745491
30
0.0
10
206.432751
20
114.265312
30
0.0
10
205.900875
20
113.608462
30
0.0
10
205.043174
20
114.960894
30
0.0
10
203.387856
20
118.197035
30
0.0
10
201.522338
20
122.056299
30
0.0
10
199.744480
20
125.584077
30
0.0
10
197.143435
20
130.881876
30
0.0
10
195.252433
20
134.627453
30
0.0
10
195.070964
20
126.084099
30
0.0
10
194.877332
20
88.090070
30
0.0
10
194.741442
20
58.515707
30
0.0
10
193.759534
20
59.114131
30
0.0
10
192.970841
20
59.948662
30
0.0
10
192.171131
20
61.095381
30
0.0
10
191.435450
20
62.432863
30
0.0
10
190.838844
20
63.839688
30
0.0
10
190.087082
20
65.466975
30
0.0
10
188.950044
20
67.508577
30
0.0
10
186.937941
20
71.369293
30
0.0
10
185.285434
20
74.647609
30
0.0
10
184.402953
20
76.141510
30
0.0
10
183.953497
20
76.698407
30
0.0
10
183.478256
20
71.485781
30
0.0
10
182.974609
20
61.660735
30
0.0
10
181.793781
20
43.556353
30
0.0
10
179.857408
20
20.738513
30
0.0
10
178.898276
20
9.449618
30
0.0
10
178.545946
20
5.455440
30
0.0
10
178.242025
20
3.382349
30
0.0
10
178.086477
20
3.041982
30
0.0
10
177.961803
20
3.029955
30
0.0
10
177.634149
20
4.229015
30
0.0
10
177.634065
20
4.229044
30
0.0
  0
ENDSEC
  0
SECTION
  2
OBJECTS
  0
DICTIONARY
  5
C
330
0
100
AcDbDictionary
  3
ACAD_GROUP
350
D
  3
ACAD_MLINESTYLE
350
17
  0
DICTIONARY
  5
D
330
C
100
AcDbDictionary
  0
DICTIONARY
  5
1A
330
C
100
AcDbDictionary
  0
DICTIONARY
  5
17
330
C
100
AcDbDictionary
  3
STANDARD
350
18
  0
DICTIONARY
  5
19
330
C
100
AcDbDictionary
  0
ENDSEC
  0
EOF
