999
Inkscape export via OpenSCAD DXF Export
  0
SECTION
  2
HEADER
  9
$ACADVER
  1
AC1014
  9
$HANDSEED
  5
FFFF
  9
$MEASUREMENT
 70
     1
  0
ENDSEC
  0
SECTION
  2
TABLES
  0
TABLE
  2
VPORT
  5
8
330
0
100
AcDbSymbolTable
 70
     4
  0
VPORT
  5
2E
330
8
100
AcDbSymbolTableRecord
100
AcDbViewportTableRecord
  2
*ACTIVE
 70
     0
 10
0.0
 20
0.0
 11
1.0
 21
1.0
 12
210.0
 22
148.5
 13
0.0
 23
0.0
 14
10.0
 24
10.0
 15
10.0
 25
10.0
 16
0.0
 26
0.0
 36
1.0
 17
0.0
 27
0.0
 37
0.0
 40
341.0
 41
1.24
 42
50.0
 43
0.0
 44
0.0
 50
0.0
 51
0.0
 71
     0
 72
   100
 73
     1
 74
     3
 75
     0
 76
     0
 77
     0
 78
     0
  0
ENDTAB
  0
TABLE
  2
LTYPE
  5
5
330
0
100
AcDbSymbolTable
 70
     1
  0
LTYPE
  5
14
330
5
100
AcDbSymbolTableRecord
100
AcDbLinetypeTableRecord
  2
BYBLOCK
 70
     0
  3

 72
    65
 73
     0
 40
0.0
  0
LTYPE
  5
15
330
5
100
AcDbSymbolTableRecord
100
AcDbLinetypeTableRecord
  2
BYLAYER
 70
     0
  3

 72
    65
 73
     0
 40
0.0
  0
LTYPE
  5
16
330
5
100
AcDbSymbolTableRecord
100
AcDbLinetypeTableRecord
  2
CONTINUOUS
 70
     0
  3
Solid line
 72
    65
 73
     0
 40
0.0
  0
ENDTAB
  0
TABLE
0
TABLE
2
LAYER
5
2
330
0
100
AcDbSymbolTable
70
1
0
LAYER
5
10
330
2
100
AcDbSymbolTableRecord
100
AcDbLayerTableRecord
2
Layer_1
70
0
62
7
6
CONTINUOUS
0
ENDTAB
0
ENDSEC
  0
ENDTAB
  0
TABLE
  2
STYLE
  5
3
330
0
100
AcDbSymbolTable
 70
     1
  0
STYLE
  5
11
330
3
100
AcDbSymbolTableRecord
100
AcDbTextStyleTableRecord
  2
STANDARD
 70
     0
 40
0.0
 41
1.0
 50
0.0
 71
     0
 42
2.5
  3
txt
  4

  0
ENDTAB
  0
TABLE
  2
VIEW
  5
6
330
0
100
AcDbSymbolTable
 70
     0
  0
ENDTAB
  0
TABLE
  2
UCS
  5
7
330
0
100
AcDbSymbolTable
 70
     0
  0
ENDTAB
  0
TABLE
  2
APPID
  5
9
330
0
100
AcDbSymbolTable
 70
     2
  0
APPID
  5
12
330
9
100
AcDbSymbolTableRecord
100
AcDbRegAppTableRecord
  2
ACAD
 70
     0
  0
ENDTAB
  0
TABLE
  2
DIMSTYLE
  5
A
330
0
100
AcDbSymbolTable
 70
     1
  0
DIMSTYLE
105
27
330
A
100
AcDbSymbolTableRecord
100
AcDbDimStyleTableRecord
  2
ISO-25
 70
     0
  3

  4

  5

  6

  7

 40
1.0
 41
2.5
 42
0.625
 43
3.75
 44
1.25
 45
0.0
 46
0.0
 47
0.0
 48
0.0
140
2.5
141
2.5
142
0.0
143
0.03937007874016
144
1.0
145
0.0
146
1.0
147
0.625
 71
     0
 72
     0
 73
     0
 74
     0
 75
     0
 76
     0
 77
     1
 78
     8
170
     0
171
     3
172
     1
173
     0
174
     0
175
     0
176
     0
177
     0
178
     0
270
     2
271
     2
272
     2
273
     2
274
     3
340
11
275
     0
280
     0
281
     0
282
     0
283
     0
284
     8
285
     0
286
     0
287
     3
288
     0
  0
ENDTAB
  0
TABLE
  2
BLOCK_RECORD
  5
1
330
0
100
AcDbSymbolTable
 70
     1
  0
BLOCK_RECORD
  5
1F
330
1
100
AcDbSymbolTableRecord
100
AcDbBlockTableRecord
  2
*MODEL_SPACE
  0
BLOCK_RECORD
  5
1B
330
1
100
AcDbSymbolTableRecord
100
AcDbBlockTableRecord
  2
*PAPER_SPACE
  0
ENDTAB
  0
ENDSEC
  0
SECTION
  2
BLOCKS
  0
BLOCK
  5
20
330
1F
100
AcDbEntity
  8
0
100
AcDbBlockBegin
  2
*MODEL_SPACE
 70
     0
 10
0.0
 20
0.0
 30
0.0
  3
*MODEL_SPACE
  1

  0
ENDBLK
  5
21
330
1F
100
AcDbEntity
  8
0
100
AcDbBlockEnd
  0
BLOCK
  5
1C
330
1B
100
AcDbEntity
 67
     1
  8
0
100
AcDbBlockBegin
  2
*PAPER_SPACE
  1

  0
ENDBLK
  5
1D
330
1B
100
AcDbEntity
 67
     1
  8
0
100
AcDbBlockEnd
  0
ENDSEC
  0
SECTION
  2
ENTITIES
0
DIMENSION
5
83
100
AcDbEntity
62
256
370
-1
6
ByLayer
1
total_width
3
Standard
70
0
71
5
72
1
41
1.0
100
AcDbAlignedDimension
13
1.895742
23
0.000000
33
0.0
14
250.367952
24
0.000000
34
0.0
50
0.000000
100
AcDbRotatedDimension
0
DIMENSION
5
83
100
AcDbEntity
62
256
370
-1
6
ByLayer
1
total_height
3
Standard
70
0
71
5
72
1
41
1.0
100
AcDbAlignedDimension
13
0.000000
23
1.821099
33
0.0
14
0.000000
24
250.395336
34
0.0
50
90.000000
100
AcDbRotatedDimension
0
DIMENSION
8
Layer_1
5
83
100
AcDbEntity
62
256
370
-1
6
ByLayer
1
Layer_1_width
3
Standard
70
0
71
5
72
1
41
1.0
100
AcDbAlignedDimension
13
1.895742
23
0.000000
33
0.0
14
250.367952
24
0.000000
34
0.0
50
0.000000
100
AcDbRotatedDimension
0
DIMENSION
8
Layer_1
5
83
100
AcDbEntity
62
256
370
-1
6
ByLayer
1
Layer_1_height
3
Standard
70
0
71
5
72
1
41
1.0
100
AcDbAlignedDimension
13
0.000000
23
1.821099
33
0.0
14
0.000000
24
250.395336
34
0.0
50
90.000000
100
AcDbRotatedDimension
62
0
0
LWPOLYLINE
100
AcDbPolyline
8
Layer_1
90
122
70
0
10
120.402342
20
1.968125
30
0.0
10
112.487510
20
2.595747
30
0.0
10
104.682704
20
3.714000
30
0.0
10
97.007921
20
5.310735
30
0.0
10
89.483154
20
7.373805
30
0.0
10
82.128400
20
9.891060
30
0.0
10
74.963655
20
12.850352
30
0.0
10
68.008915
20
16.239532
30
0.0
10
61.284174
20
20.046453
30
0.0
10
54.809428
20
24.258965
30
0.0
10
48.604674
20
28.864920
30
0.0
10
42.689906
20
33.852170
30
0.0
10
37.085120
20
39.208566
30
0.0
10
31.810313
20
44.921961
30
0.0
10
26.885479
20
50.980204
30
0.0
10
22.330614
20
57.371148
30
0.0
10
18.165714
20
64.082645
30
0.0
10
14.699516
20
70.530941
30
0.0
10
11.640370
20
77.154091
30
0.0
10
8.991382
20
83.941346
30
0.0
10
6.755662
20
90.881957
30
0.0
10
4.936317
20
97.965174
30
0.0
10
3.536457
20
105.180247
30
0.0
10
2.559190
20
112.516427
30
0.0
10
2.007623
20
119.962964
30
0.0
10
1.895742
20
128.353555
30
0.0
10
2.312361
20
136.648332
30
0.0
10
3.246743
20
144.825909
30
0.0
10
4.688148
20
152.864896
30
0.0
10
6.625839
20
160.743908
30
0.0
10
9.049079
20
168.441556
30
0.0
10
11.947129
20
175.936454
30
0.0
10
15.309252
20
183.207214
30
0.0
10
19.124708
20
190.232450
30
0.0
10
23.382762
20
196.990772
30
0.0
10
28.072674
20
203.460795
30
0.0
10
33.183707
20
209.621131
30
0.0
10
38.705122
20
215.450393
30
0.0
10
44.626182
20
220.927193
30
0.0
10
50.936150
20
226.030144
30
0.0
10
57.624286
20
230.737859
30
0.0
10
62.407236
20
233.710702
30
0.0
10
67.314830
20
236.446799
30
0.0
10
72.338331
20
238.944321
30
0.0
10
77.469000
20
241.201436
30
0.0
10
82.698100
20
243.216316
30
0.0
10
88.016892
20
244.987132
30
0.0
10
93.416638
20
246.512053
30
0.0
10
98.888601
20
247.789250
30
0.0
10
104.424043
20
248.816893
30
0.0
10
110.014226
20
249.593153
30
0.0
10
115.650411
20
250.116200
30
0.0
10
121.323862
20
250.384204
30
0.0
10
127.025839
20
250.395336
30
0.0
10
132.747606
20
250.147766
30
0.0
10
138.480424
20
249.639664
30
0.0
10
144.215556
20
248.869202
30
0.0
10
150.754545
20
247.659700
30
0.0
10
157.199006
20
246.108266
30
0.0
10
163.536287
20
244.223090
30
0.0
10
169.753737
20
242.012361
30
0.0
10
175.838704
20
239.484269
30
0.0
10
181.778538
20
236.647002
30
0.0
10
187.560588
20
233.508752
30
0.0
10
193.172202
20
230.077706
30
0.0
10
198.600729
20
226.362056
30
0.0
10
203.833518
20
222.369989
30
0.0
10
208.857917
20
218.109696
30
0.0
10
213.661277
20
213.589367
30
0.0
10
218.230945
20
208.817190
30
0.0
10
222.554270
20
203.801355
30
0.0
10
226.618602
20
198.550052
30
0.0
10
230.411288
20
193.071471
30
0.0
10
234.395936
20
186.537284
30
0.0
10
237.962552
20
179.777954
30
0.0
10
241.101874
20
172.820374
30
0.0
10
243.804641
20
165.691441
30
0.0
10
246.061592
20
158.418050
30
0.0
10
247.863465
20
151.027097
30
0.0
10
249.201000
20
143.545476
30
0.0
10
250.064933
20
136.000084
30
0.0
10
250.292178
20
131.355283
30
0.0
10
250.367952
20
125.559759
30
0.0
10
250.292251
20
119.798563
30
0.0
10
250.065074
20
115.256750
30
0.0
10
249.569724
20
110.468531
30
0.0
10
248.909428
20
105.744233
30
0.0
10
248.084475
20
101.084570
30
0.0
10
247.095151
20
96.490258
30
0.0
10
245.941744
20
91.962011
30
0.0
10
244.624542
20
87.500546
30
0.0
10
243.143832
20
83.106575
30
0.0
10
241.499902
20
78.780816
30
0.0
10
239.693039
20
74.523982
30
0.0
10
237.723530
20
70.336788
30
0.0
10
235.591665
20
66.219950
30
0.0
10
233.297729
20
62.174183
30
0.0
10
230.842010
20
58.200202
30
0.0
10
228.224796
20
54.298721
30
0.0
10
225.446375
20
50.470455
30
0.0
10
222.507034
20
46.716120
30
0.0
10
219.084593
20
42.827043
30
0.0
10
214.663263
20
38.231630
30
0.0
10
210.070976
20
33.762490
30
0.0
10
206.135661
20
30.252230
30
0.0
10
201.568863
20
26.652569
30
0.0
10
196.863030
20
23.286111
30
0.0
10
192.025343
20
20.155226
30
0.0
10
187.062977
20
17.262279
30
0.0
10
181.983111
20
14.609640
30
0.0
10
176.792922
20
12.199676
30
0.0
10
171.499588
20
10.034755
30
0.0
10
166.110286
20
8.117246
30
0.0
10
160.632194
20
6.449516
30
0.0
10
155.072489
20
5.033932
30
0.0
10
149.438349
20
3.872864
30
0.0
10
143.736952
20
2.968678
30
0.0
10
137.975475
20
2.323744
30
0.0
10
132.161096
20
1.940428
30
0.0
10
126.300992
20
1.821099
30
0.0
10
120.402342
20
1.968125
30
0.0
10
120.402342
20
1.968125
30
0.0
62
0
0
LWPOLYLINE
100
AcDbPolyline
8
Layer_1
90
128
70
0
10
139.841111
20
13.072816
30
0.0
10
144.821216
20
13.781105
30
0.0
10
149.719972
20
14.681655
30
0.0
10
154.534819
20
15.773206
30
0.0
10
159.263199
20
17.054498
30
0.0
10
163.902553
20
18.524273
30
0.0
10
168.450320
20
20.181271
30
0.0
10
172.903943
20
22.024233
30
0.0
10
177.260862
20
24.051899
30
0.0
10
181.518518
20
26.263011
30
0.0
10
185.674351
20
28.656308
30
0.0
10
189.725802
20
31.230533
30
0.0
10
193.670313
20
33.984426
30
0.0
10
197.505324
20
36.916726
30
0.0
10
201.228276
20
40.026176
30
0.0
10
204.836610
20
43.311516
30
0.0
10
208.327766
20
46.771487
30
0.0
10
211.487363
20
50.172098
30
0.0
10
214.488245
20
53.677817
30
0.0
10
217.329270
20
57.286215
30
0.0
10
220.009297
20
60.994864
30
0.0
10
222.527184
20
64.801338
30
0.0
10
224.881791
20
68.703206
30
0.0
10
227.071977
20
72.698043
30
0.0
10
229.096598
20
76.783420
30
0.0
10
230.954515
20
80.956909
30
0.0
10
232.644586
20
85.216082
30
0.0
10
234.165670
20
89.558511
30
0.0
10
235.516625
20
93.981769
30
0.0
10
236.696309
20
98.483428
30
0.0
10
237.703583
20
103.061059
30
0.0
10
238.537303
20
107.712235
30
0.0
10
239.196330
20
112.434528
30
0.0
10
239.718955
20
119.171107
30
0.0
10
239.832406
20
126.718369
30
0.0
10
239.545346
20
134.320377
30
0.0
10
238.866440
20
141.221195
30
0.0
10
237.960452
20
146.730794
30
0.0
10
236.779929
20
152.174946
30
0.0
10
235.330478
20
157.544162
30
0.0
10
233.617705
20
162.828952
30
0.0
10
231.647217
20
168.019826
30
0.0
10
229.424621
20
173.107293
30
0.0
10
226.955522
20
178.081865
30
0.0
10
224.245526
20
182.934050
30
0.0
10
221.300241
20
187.654361
30
0.0
10
218.125273
20
192.233305
30
0.0
10
214.726228
20
196.661394
30
0.0
10
211.108713
20
200.929138
30
0.0
10
207.278333
20
205.027047
30
0.0
10
203.240696
20
208.945631
30
0.0
10
199.001408
20
212.675399
30
0.0
10
194.566074
20
216.206863
30
0.0
10
189.212755
20
220.020312
30
0.0
10
183.631669
20
223.537666
30
0.0
10
177.856117
20
226.743890
30
0.0
10
171.919402
20
229.623946
30
0.0
10
165.854823
20
232.162799
30
0.0
10
159.695682
20
234.345412
30
0.0
10
153.475279
20
236.156749
30
0.0
10
147.226917
20
237.581774
30
0.0
10
141.324157
20
238.650471
30
0.0
10
136.308097
20
239.294396
30
0.0
10
131.130273
20
239.612497
30
0.0
10
124.742222
20
239.703718
30
0.0
10
119.022703
20
239.667014
30
0.0
10
114.719942
20
239.489176
30
0.0
10
110.795058
20
239.098405
30
0.0
10
106.209166
20
238.422907
30
0.0
10
98.974789
20
237.023224
30
0.0
10
91.921701
20
235.166485
30
0.0
10
85.044609
20
232.850283
30
0.0
10
78.338215
20
230.072213
30
0.0
10
71.797226
20
226.829868
30
0.0
10
65.416347
20
223.120841
30
0.0
10
59.190282
20
218.942728
30
0.0
10
53.113737
20
214.293120
30
0.0
10
49.813965
20
211.358863
30
0.0
10
45.746379
20
207.411972
30
0.0
10
41.792147
20
203.333954
30
0.0
10
38.832437
20
200.006320
30
0.0
10
33.683702
20
193.245059
30
0.0
10
29.099786
20
186.272130
30
0.0
10
25.074008
20
179.071728
30
0.0
10
23.268332
20
175.381287
30
0.0
10
21.599685
20
171.628051
30
0.0
10
20.067232
20
167.810046
30
0.0
10
18.670137
20
163.925296
30
0.0
10
16.278682
20
155.947659
30
0.0
10
14.418638
20
147.679338
30
0.0
10
13.083324
20
139.104528
30
0.0
10
12.678072
20
133.301462
30
0.0
10
12.542452
20
125.817057
30
0.0
10
12.676633
20
118.379443
30
0.0
10
13.080784
20
112.716750
30
0.0
10
14.392752
20
104.486861
30
0.0
10
16.178157
20
96.587037
30
0.0
10
18.448544
20
88.989771
30
0.0
10
21.215457
20
81.667552
30
0.0
10
24.490441
20
74.592873
30
0.0
10
28.285040
20
67.738222
30
0.0
10
32.610799
20
61.076092
30
0.0
10
37.479264
20
54.578972
30
0.0
10
41.010660
20
50.545248
30
0.0
10
45.581048
20
45.824437
30
0.0
10
50.347952
20
41.254788
30
0.0
10
54.468900
20
37.674550
30
0.0
10
57.980681
20
34.975681
30
0.0
10
61.561976
20
32.427264
30
0.0
10
65.212708
20
30.029329
30
0.0
10
68.932802
20
27.781906
30
0.0
10
72.722183
20
25.685024
30
0.0
10
76.580775
20
23.738712
30
0.0
10
80.508502
20
21.943001
30
0.0
10
84.505290
20
20.297918
30
0.0
10
88.571062
20
18.803494
30
0.0
10
92.705742
20
17.459758
30
0.0
10
96.909256
20
16.266740
30
0.0
10
101.181527
20
15.224468
30
0.0
10
105.522481
20
14.332973
30
0.0
10
109.932041
20
13.592284
30
0.0
10
114.410132
20
13.002430
30
0.0
10
118.956678
20
12.563441
30
0.0
10
123.116619
20
12.472624
30
0.0
10
129.319276
20
12.559815
30
0.0
10
135.561746
20
12.776162
30
0.0
10
139.841122
20
13.072816
30
0.0
10
139.841111
20
13.072816
30
0.0
62
0
0
LWPOLYLINE
100
AcDbPolyline
8
Layer_1
90
408
70
0
10
122.202222
20
29.244033
30
0.0
10
118.309388
20
29.487687
30
0.0
10
114.316989
20
29.941682
30
0.0
10
110.243362
20
30.598819
30
0.0
10
106.106845
20
31.451901
30
0.0
10
101.925774
20
32.493730
30
0.0
10
97.718486
20
33.717107
30
0.0
10
93.503316
20
35.114836
30
0.0
10
89.298603
20
36.679718
30
0.0
10
85.122683
20
38.404556
30
0.0
10
80.993892
20
40.282151
30
0.0
10
76.930567
20
42.305306
30
0.0
10
72.951045
20
44.466823
30
0.0
10
69.073662
20
46.759505
30
0.0
10
65.316756
20
49.176152
30
0.0
10
61.698662
20
51.709568
30
0.0
10
58.237718
20
54.352554
30
0.0
10
53.196248
20
58.690807
30
0.0
10
48.542345
20
63.342871
30
0.0
10
44.284338
20
68.296458
30
0.0
10
40.430557
20
73.539278
30
0.0
10
36.989331
20
79.059043
30
0.0
10
33.968989
20
84.843465
30
0.0
10
31.377862
20
90.880254
30
0.0
10
29.224278
20
97.157122
30
0.0
10
27.634042
20
103.430656
30
0.0
10
27.044602
20
106.340245
30
0.0
10
26.813316
20
108.095542
30
0.0
10
26.949381
20
108.021692
30
0.0
10
27.318323
20
107.325257
30
0.0
10
28.529497
20
104.532306
30
0.0
10
32.194961
20
96.076640
30
0.0
10
33.943499
20
92.547587
30
0.0
10
35.685137
20
89.400671
30
0.0
10
37.456795
20
86.573108
30
0.0
10
39.295396
20
84.002110
30
0.0
10
41.237861
20
81.624891
30
0.0
10
43.321111
20
79.378666
30
0.0
10
45.331258
20
77.488259
30
0.0
10
47.390711
20
75.781630
30
0.0
10
49.053492
20
74.604316
30
0.0
10
49.596762
20
74.322133
30
0.0
10
49.873622
20
74.301855
30
0.0
10
48.012085
20
76.871395
30
0.0
10
45.496903
20
80.198154
30
0.0
10
43.073403
20
83.782610
30
0.0
10
40.767781
20
87.574277
30
0.0
10
38.606235
20
91.522668
30
0.0
10
36.614964
20
95.577296
30
0.0
10
34.820165
20
99.687675
30
0.0
10
33.248036
20
103.803318
30
0.0
10
31.924775
20
107.873738
30
0.0
10
30.448340
20
113.408643
30
0.0
10
29.458600
20
118.553307
30
0.0
10
28.867649
20
123.890660
30
0.0
10
28.587581
20
130.003635
30
0.0
10
28.602267
20
136.469679
30
0.0
10
28.956243
20
142.571983
30
0.0
10
29.655283
20
148.335488
30
0.0
10
30.705161
20
153.785134
30
0.0
10
32.111651
20
158.945863
30
0.0
10
33.880528
20
163.842616
30
0.0
10
36.017564
20
168.500333
30
0.0
10
38.528535
20
172.943955
30
0.0
10
39.902302
20
175.117918
30
0.0
10
40.547917
20
175.957197
30
0.0
10
40.639533
20
175.901898
30
0.0
10
40.599351
20
175.543609
30
0.0
10
40.190578
20
173.958972
30
0.0
10
38.076969
20
165.415398
30
0.0
10
36.694041
20
157.670255
30
0.0
10
36.277392
20
154.102944
30
0.0
10
36.044386
20
150.742260
30
0.0
10
35.995348
20
147.590542
30
0.0
10
36.130600
20
144.650130
30
0.0
10
36.492542
20
141.348494
30
0.0
10
37.043394
20
138.052060
30
0.0
10
37.775303
20
134.775231
30
0.0
10
38.680416
20
131.532412
30
0.0
10
39.750881
20
128.338004
30
0.0
10
40.978844
20
125.206412
30
0.0
10
42.356453
20
122.152040
30
0.0
10
43.875856
20
119.189290
30
0.0
10
45.529199
20
116.332566
30
0.0
10
47.308631
20
113.596271
30
0.0
10
49.206298
20
110.994810
30
0.0
10
51.214347
20
108.542585
30
0.0
10
53.324927
20
106.254000
30
0.0
10
55.530183
20
104.143458
30
0.0
10
57.822265
20
102.225364
30
0.0
10
60.193318
20
100.514119
30
0.0
10
62.190245
20
99.259698
30
0.0
10
63.110336
20
98.827457
30
0.0
10
62.851293
20
99.386604
30
0.0
10
62.013287
20
100.515736
30
0.0
10
59.387231
20
104.004063
30
0.0
10
56.832907
20
107.901067
30
0.0
10
54.406759
20
112.089850
30
0.0
10
52.165232
20
116.453511
30
0.0
10
50.164771
20
120.875153
30
0.0
10
48.461820
20
125.237876
30
0.0
10
47.112824
20
129.424782
30
0.0
10
46.174228
20
133.318972
30
0.0
10
45.530211
20
137.351708
30
0.0
10
45.087034
20
141.667185
30
0.0
10
44.843783
20
146.187523
30
0.0
10
44.799545
20
150.834845
30
0.0
10
44.953406
20
155.531273
30
0.0
10
45.304452
20
160.198927
30
0.0
10
45.851770
20
164.759929
30
0.0
10
46.594446
20
169.136401
30
0.0
10
47.392428
20
172.788474
30
0.0
10
48.316761
20
176.280575
30
0.0
10
49.375930
20
179.633862
30
0.0
10
50.578422
20
182.869494
30
0.0
10
51.932722
20
186.008629
30
0.0
10
53.447318
20
189.072425
30
0.0
10
55.130695
20
192.082042
30
0.0
10
56.991340
20
195.058637
30
0.0
10
59.210508
20
198.248831
30
0.0
10
61.620336
20
201.369511
30
0.0
10
64.201516
20
204.400965
30
0.0
10
66.934740
20
207.323480
30
0.0
10
69.800701
20
210.117344
30
0.0
10
72.780089
20
212.762846
30
0.0
10
75.853598
20
215.240274
30
0.0
10
79.001919
20
217.529915
30
0.0
10
81.272504
20
218.973417
30
0.0
10
78.790343
20
216.221750
30
0.0
10
75.592193
20
212.664002
30
0.0
10
72.949152
20
209.156588
30
0.0
10
70.829615
20
205.614368
30
0.0
10
69.201976
20
201.952199
30
0.0
10
68.034631
20
198.084939
30
0.0
10
67.295974
20
193.927447
30
0.0
10
66.954399
20
189.394579
30
0.0
10
66.978301
20
184.401195
30
0.0
10
67.457763
20
178.541798
30
0.0
10
68.460150
20
172.857083
30
0.0
10
69.998731
20
167.316904
30
0.0
10
72.086774
20
161.891114
30
0.0
10
74.737545
20
156.549566
30
0.0
10
77.964314
20
151.262113
30
0.0
10
81.780347
20
145.998610
30
0.0
10
86.198913
20
140.728909
30
0.0
10
88.658195
20
137.978845
30
0.0
10
87.682578
20
136.777798
30
0.0
10
85.221064
20
133.278131
30
0.0
10
82.739073
20
128.930442
30
0.0
10
80.491038
20
124.221877
30
0.0
10
78.731395
20
119.639585
30
0.0
10
77.513024
20
115.443162
30
0.0
10
76.608685
20
111.230006
30
0.0
10
76.018335
20
106.998600
30
0.0
10
75.741931
20
102.747429
30
0.0
10
75.779431
20
98.474979
30
0.0
10
76.130793
20
94.179732
30
0.0
10
76.795973
20
89.860173
30
0.0
10
77.774930
20
85.514787
30
0.0
10
78.744495
20
82.084776
30
0.0
10
79.813146
20
78.935615
30
0.0
10
81.085024
20
75.787086
30
0.0
10
82.664272
20
72.358972
30
0.0
10
85.077940
20
67.772323
30
0.0
10
87.784094
20
63.404956
30
0.0
10
90.782090
20
59.257587
30
0.0
10
94.071284
20
55.330931
30
0.0
10
97.651032
20
51.625703
30
0.0
10
101.520691
20
48.142618
30
0.0
10
105.679617
20
44.882391
30
0.0
10
110.127167
20
41.845738
30
0.0
10
116.066609
20
38.513556
30
0.0
10
118.813849
20
37.147887
30
0.0
10
120.054023
20
36.688412
30
0.0
10
120.311634
20
56.229163
30
0.0
10
120.284460
20
75.604528
30
0.0
10
113.488004
20
69.042861
30
0.0
10
106.886045
20
62.481195
30
0.0
10
108.172518
20
64.880084
30
0.0
10
112.966621
20
73.628972
30
0.0
10
116.474251
20
79.978972
30
0.0
10
115.739903
20
80.170553
30
0.0
10
107.244444
20
81.239606
30
0.0
10
95.356509
20
82.754235
30
0.0
10
91.345693
20
83.384269
30
0.0
10
89.661464
20
83.779532
30
0.0
10
90.148430
20
83.980017
30
0.0
10
91.637019
20
84.169857
30
0.0
10
111.016889
20
85.461864
30
0.0
10
116.442377
20
85.837274
30
0.0
10
112.922761
20
94.106311
30
0.0
10
108.259293
20
104.911506
30
0.0
10
105.363363
20
112.152306
30
0.0
10
105.085865
20
113.067023
30
0.0
10
105.521179
20
112.716750
30
0.0
10
106.893134
20
110.933619
30
0.0
10
109.329228
20
107.413884
30
0.0
10
115.782750
20
97.546374
30
0.0
10
120.138963
20
90.944974
30
0.0
10
120.650793
20
114.864238
30
0.0
10
121.848219
20
179.364906
30
0.0
10
122.772294
20
216.151195
30
0.0
10
123.046112
20
225.817306
30
0.0
10
123.118320
20
226.764073
30
0.0
10
123.288177
20
227.157862
30
0.0
10
123.481381
20
226.472475
30
0.0
10
123.691649
20
223.530997
30
0.0
10
124.448968
20
205.567861
30
0.0
10
126.309605
20
153.899373
30
0.0
10
127.986434
20
102.133417
30
0.0
10
128.307925
20
93.752066
30
0.0
10
128.476942
20
90.591829
30
0.0
10
131.152107
20
94.880955
30
0.0
10
137.933017
20
105.322014
30
0.0
10
142.784150
20
112.293417
30
0.0
10
143.655082
20
113.281195
30
0.0
10
142.985092
20
111.446750
30
0.0
10
138.752846
20
101.082719
30
0.0
10
133.093316
20
88.190632
30
0.0
10
132.183643
20
85.849031
30
0.0
10
137.479007
20
85.468183
30
0.0
10
152.969606
20
84.497525
30
0.0
10
157.488753
20
84.082810
30
0.0
10
158.652743
20
83.915749
30
0.0
10
158.976229
20
83.784178
30
0.0
10
156.108540
20
83.202761
30
0.0
10
149.705834
20
82.255629
30
0.0
10
142.096214
20
81.264771
30
0.0
10
135.607778
20
80.552180
30
0.0
10
133.047065
20
80.238932
30
0.0
10
132.517615
20
80.072126
30
0.0
10
132.362222
20
79.872013
30
0.0
10
135.698264
20
73.597945
30
0.0
10
140.393019
20
65.021195
30
0.0
10
141.751733
20
62.481195
30
0.0
10
135.092059
20
69.100536
30
0.0
10
128.307877
20
75.591647
30
0.0
10
128.247476
20
69.413517
30
0.0
10
128.343683
20
56.040553
30
0.0
10
128.522080
20
42.709690
30
0.0
10
128.708246
20
36.657861
30
0.0
10
132.772116
20
38.606383
30
0.0
10
137.842300
20
41.436278
30
0.0
10
142.689780
20
44.673989
30
0.0
10
147.281208
20
48.286424
30
0.0
10
151.583233
20
52.240495
30
0.0
10
155.562507
20
56.503113
30
0.0
10
159.185680
20
61.041188
30
0.0
10
162.419402
20
65.821631
30
0.0
10
165.230325
20
70.811353
30
0.0
10
168.039504
20
76.955165
30
0.0
10
170.214568
20
83.103192
30
0.0
10
171.064072
20
86.176330
30
0.0
10
171.754765
20
89.247573
30
0.0
10
172.286553
20
92.315939
30
0.0
10
172.659341
20
95.380444
30
0.0
10
172.873036
20
98.440107
30
0.0
10
172.927543
20
101.493944
30
0.0
10
172.822768
20
104.540972
30
0.0
10
172.558617
20
107.580209
30
0.0
10
172.134996
20
110.610671
30
0.0
10
171.551811
20
113.631377
30
0.0
10
170.808968
20
116.641342
30
0.0
10
169.906371
20
119.639585
30
0.0
10
168.146735
20
124.221877
30
0.0
10
165.898703
20
128.930442
30
0.0
10
163.416713
20
133.278131
30
0.0
10
160.955200
20
136.777798
30
0.0
10
159.979583
20
137.978845
30
0.0
10
162.438865
20
140.728909
30
0.0
10
165.641214
20
144.484941
30
0.0
10
168.553135
20
148.265487
30
0.0
10
171.172743
20
152.067232
30
0.0
10
173.498151
20
155.886859
30
0.0
10
175.527472
20
159.721052
30
0.0
10
177.258820
20
163.566495
30
0.0
10
178.690307
20
167.419870
30
0.0
10
179.820048
20
171.277861
30
0.0
10
180.584715
20
174.598393
30
0.0
10
181.117099
20
177.706451
30
0.0
10
181.461332
20
180.920281
30
0.0
10
181.661548
20
184.558127
30
0.0
10
181.663468
20
189.738166
30
0.0
10
181.282132
20
194.434113
30
0.0
10
180.522997
20
198.603560
30
0.0
10
179.391522
20
202.204100
30
0.0
10
177.712136
20
205.787042
30
0.0
10
175.539940
20
209.333571
30
0.0
10
172.860003
20
212.865469
30
0.0
10
169.657395
20
216.404520
30
0.0
10
166.986181
20
219.255639
30
0.0
10
169.565711
20
217.576183
30
0.0
10
173.848875
20
214.432952
30
0.0
10
176.681797
20
212.039062
30
0.0
10
180.062893
20
208.893127
30
0.0
10
183.368985
20
205.595615
30
0.0
10
185.976895
20
202.746991
30
0.0
10
188.186644
20
200.016724
30
0.0
10
190.243935
20
197.227507
30
0.0
10
192.150148
20
194.375233
30
0.0
10
193.906663
20
191.455792
30
0.0
10
195.514864
20
188.465076
30
0.0
10
196.976129
20
185.398975
30
0.0
10
198.291842
20
182.253381
30
0.0
10
199.463381
20
179.024184
30
0.0
10
200.492130
20
175.707277
30
0.0
10
201.379468
20
172.298549
30
0.0
10
202.126777
20
168.793892
30
0.0
10
202.735438
20
165.189197
30
0.0
10
203.542340
20
157.663259
30
0.0
10
203.811223
20
149.687861
30
0.0
10
203.736189
20
145.088255
30
0.0
10
203.493245
20
140.881354
30
0.0
10
203.061974
20
136.967782
30
0.0
10
202.421959
20
133.248166
30
0.0
10
201.552785
20
129.623133
30
0.0
10
200.434035
20
125.993307
30
0.0
10
199.045293
20
122.259315
30
0.0
10
197.366142
20
118.321782
30
0.0
10
195.053091
20
113.602706
30
0.0
10
192.387065
20
108.870961
30
0.0
10
189.577550
20
104.475725
30
0.0
10
186.834032
20
100.766180
30
0.0
10
185.848096
20
99.460109
30
0.0
10
185.520485
20
98.834400
30
0.0
10
186.227219
20
99.127280
30
0.0
10
187.728084
20
100.029727
30
0.0
10
191.451542
20
102.729079
30
0.0
10
194.939988
20
105.851924
30
0.0
10
198.181114
20
109.380517
30
0.0
10
201.162610
20
113.297117
30
0.0
10
203.872167
20
117.583978
30
0.0
10
206.297476
20
122.223357
30
0.0
10
208.426229
20
127.197510
30
0.0
10
210.246115
20
132.488694
30
0.0
10
211.238969
20
136.043345
30
0.0
10
211.874929
20
139.222547
30
0.0
10
212.242004
20
142.601752
30
0.0
10
212.428201
20
146.756411
30
0.0
10
212.370494
20
153.086782
30
0.0
10
211.764908
20
159.197821
30
0.0
10
210.494308
20
165.888794
30
0.0
10
208.441558
20
173.958972
30
0.0
10
208.034142
20
175.549999
30
0.0
10
207.996118
20
175.906395
30
0.0
10
208.092580
20
175.954476
30
0.0
10
208.761046
20
175.078978
30
0.0
10
210.183716
20
172.830084
30
0.0
10
212.101365
20
169.501225
30
0.0
10
213.817279
20
165.996716
30
0.0
10
215.331011
20
162.318010
30
0.0
10
216.642114
20
158.466556
30
0.0
10
217.750143
20
154.443808
30
0.0
10
218.654652
20
150.251216
30
0.0
10
219.355194
20
145.890231
30
0.0
10
219.851323
20
141.362306
30
0.0
10
220.054666
20
137.350049
30
0.0
10
220.120926
20
132.386775
30
0.0
10
220.050550
20
127.526659
30
0.0
10
219.843985
20
123.823874
30
0.0
10
219.217508
20
118.980217
30
0.0
10
218.302441
20
114.089219
30
0.0
10
217.126173
20
109.277935
30
0.0
10
215.716090
20
104.673417
30
0.0
10
214.317330
20
100.879340
30
0.0
10
212.694842
20
97.033878
30
0.0
10
210.880612
20
93.195292
30
0.0
10
208.906625
20
89.421842
30
0.0
10
206.804869
20
85.771789
30
0.0
10
204.607328
20
82.303394
30
0.0
10
202.345991
20
79.074918
30
0.0
10
200.052841
20
76.144620
30
0.0
10
198.752869
20
74.313184
30
0.0
10
199.453855
20
74.570764
30
0.0
10
200.893634
20
75.522969
30
0.0
10
204.300568
20
78.298043
30
0.0
10
206.419796
20
80.449147
30
0.0
10
208.445626
20
82.824832
30
0.0
10
210.397118
20
85.456337
30
0.0
10
212.293334
20
88.374901
30
0.0
10
214.153337
20
91.611763
30
0.0
10
215.996188
20
95.198162
30
0.0
10
219.706684
20
103.544528
30
0.0
10
221.756661
20
108.342306
30
0.0
10
221.812339
20
107.999730
30
0.0
10
221.648810
20
106.760031
30
0.0
10
220.797840
20
102.415639
30
0.0
10
219.342875
20
96.977821
30
0.0
10
217.327988
20
91.153731
30
0.0
10
214.938091
20
85.428214
30
0.0
10
212.358097
20
80.286112
30
0.0
10
208.653032
20
74.221160
30
0.0
10
204.491717
20
68.507320
30
0.0
10
199.865792
20
63.136968
30
0.0
10
194.766900
20
58.102479
30
0.0
10
189.186682
20
53.396229
30
0.0
10
183.116780
20
49.010594
30
0.0
10
176.548834
20
44.937948
30
0.0
10
169.474487
20
41.170668
30
0.0
10
163.332863
20
38.334259
30
0.0
10
157.143636
20
35.853524
30
0.0
10
150.963836
20
33.742853
30
0.0
10
144.850492
20
32.016632
30
0.0
10
138.860635
20
30.689252
30
0.0
10
133.051293
20
29.775099
30
0.0
10
127.479498
20
29.288564
30
0.0
10
122.202279
20
29.244033
30
0.0
10
122.202222
20
29.244033
30
0.0
  0
ENDSEC
  0
SECTION
  2
OBJECTS
  0
DICTIONARY
  5
C
330
0
100
AcDbDictionary
  3
ACAD_GROUP
350
D
  3
ACAD_MLINESTYLE
350
17
  0
DICTIONARY
  5
D
330
C
100
AcDbDictionary
  0
DICTIONARY
  5
1A
330
C
100
AcDbDictionary
  0
DICTIONARY
  5
17
330
C
100
AcDbDictionary
  3
STANDARD
350
18
  0
DICTIONARY
  5
19
330
C
100
AcDbDictionary
  0
ENDSEC
  0
EOF
