999
Inkscape export via OpenSCAD DXF Export
  0
SECTION
  2
HEADER
  9
$ACADVER
  1
AC1014
  9
$HANDSEED
  5
FFFF
  9
$MEASUREMENT
 70
     1
  0
ENDSEC
  0
SECTION
  2
TABLES
  0
TABLE
  2
VPORT
  5
8
330
0
100
AcDbSymbolTable
 70
     4
  0
VPORT
  5
2E
330
8
100
AcDbSymbolTableRecord
100
AcDbViewportTableRecord
  2
*ACTIVE
 70
     0
 10
0.0
 20
0.0
 11
1.0
 21
1.0
 12
210.0
 22
148.5
 13
0.0
 23
0.0
 14
10.0
 24
10.0
 15
10.0
 25
10.0
 16
0.0
 26
0.0
 36
1.0
 17
0.0
 27
0.0
 37
0.0
 40
341.0
 41
1.24
 42
50.0
 43
0.0
 44
0.0
 50
0.0
 51
0.0
 71
     0
 72
   100
 73
     1
 74
     3
 75
     0
 76
     0
 77
     0
 78
     0
  0
ENDTAB
  0
TABLE
  2
LTYPE
  5
5
330
0
100
AcDbSymbolTable
 70
     1
  0
LTYPE
  5
14
330
5
100
AcDbSymbolTableRecord
100
AcDbLinetypeTableRecord
  2
BYBLOCK
 70
     0
  3

 72
    65
 73
     0
 40
0.0
  0
LTYPE
  5
15
330
5
100
AcDbSymbolTableRecord
100
AcDbLinetypeTableRecord
  2
BYLAYER
 70
     0
  3

 72
    65
 73
     0
 40
0.0
  0
LTYPE
  5
16
330
5
100
AcDbSymbolTableRecord
100
AcDbLinetypeTableRecord
  2
CONTINUOUS
 70
     0
  3
Solid line
 72
    65
 73
     0
 40
0.0
  0
ENDTAB
  0
TABLE
0
TABLE
2
LAYER
5
2
330
0
100
AcDbSymbolTable
70
1
0
LAYER
5
10
330
2
100
AcDbSymbolTableRecord
100
AcDbLayerTableRecord
2
Layer_1
70
0
62
7
6
CONTINUOUS
0
ENDTAB
0
ENDSEC
  0
ENDTAB
  0
TABLE
  2
STYLE
  5
3
330
0
100
AcDbSymbolTable
 70
     1
  0
STYLE
  5
11
330
3
100
AcDbSymbolTableRecord
100
AcDbTextStyleTableRecord
  2
STANDARD
 70
     0
 40
0.0
 41
1.0
 50
0.0
 71
     0
 42
2.5
  3
txt
  4

  0
ENDTAB
  0
TABLE
  2
VIEW
  5
6
330
0
100
AcDbSymbolTable
 70
     0
  0
ENDTAB
  0
TABLE
  2
UCS
  5
7
330
0
100
AcDbSymbolTable
 70
     0
  0
ENDTAB
  0
TABLE
  2
APPID
  5
9
330
0
100
AcDbSymbolTable
 70
     2
  0
APPID
  5
12
330
9
100
AcDbSymbolTableRecord
100
AcDbRegAppTableRecord
  2
ACAD
 70
     0
  0
ENDTAB
  0
TABLE
  2
DIMSTYLE
  5
A
330
0
100
AcDbSymbolTable
 70
     1
  0
DIMSTYLE
105
27
330
A
100
AcDbSymbolTableRecord
100
AcDbDimStyleTableRecord
  2
ISO-25
 70
     0
  3

  4

  5

  6

  7

 40
1.0
 41
2.5
 42
0.625
 43
3.75
 44
1.25
 45
0.0
 46
0.0
 47
0.0
 48
0.0
140
2.5
141
2.5
142
0.0
143
0.03937007874016
144
1.0
145
0.0
146
1.0
147
0.625
 71
     0
 72
     0
 73
     0
 74
     0
 75
     0
 76
     0
 77
     1
 78
     8
170
     0
171
     3
172
     1
173
     0
174
     0
175
     0
176
     0
177
     0
178
     0
270
     2
271
     2
272
     2
273
     2
274
     3
340
11
275
     0
280
     0
281
     0
282
     0
283
     0
284
     8
285
     0
286
     0
287
     3
288
     0
  0
ENDTAB
  0
TABLE
  2
BLOCK_RECORD
  5
1
330
0
100
AcDbSymbolTable
 70
     1
  0
BLOCK_RECORD
  5
1F
330
1
100
AcDbSymbolTableRecord
100
AcDbBlockTableRecord
  2
*MODEL_SPACE
  0
BLOCK_RECORD
  5
1B
330
1
100
AcDbSymbolTableRecord
100
AcDbBlockTableRecord
  2
*PAPER_SPACE
  0
ENDTAB
  0
ENDSEC
  0
SECTION
  2
BLOCKS
  0
BLOCK
  5
20
330
1F
100
AcDbEntity
  8
0
100
AcDbBlockBegin
  2
*MODEL_SPACE
 70
     0
 10
0.0
 20
0.0
 30
0.0
  3
*MODEL_SPACE
  1

  0
ENDBLK
  5
21
330
1F
100
AcDbEntity
  8
0
100
AcDbBlockEnd
  0
BLOCK
  5
1C
330
1B
100
AcDbEntity
 67
     1
  8
0
100
AcDbBlockBegin
  2
*PAPER_SPACE
  1

  0
ENDBLK
  5
1D
330
1B
100
AcDbEntity
 67
     1
  8
0
100
AcDbBlockEnd
  0
ENDSEC
  0
SECTION
  2
ENTITIES
0
DIMENSION
5
83
100
AcDbEntity
62
256
370
-1
6
ByLayer
1
total_width
3
Standard
70
0
71
5
72
1
41
1.0
100
AcDbAlignedDimension
13
12.339905
23
0.000000
33
0.0
14
453.446755
24
0.000000
34
0.0
50
0.000000
100
AcDbRotatedDimension
0
DIMENSION
5
83
100
AcDbEntity
62
256
370
-1
6
ByLayer
1
total_height
3
Standard
70
0
71
5
72
1
41
1.0
100
AcDbAlignedDimension
13
0.000000
23
11.963026
33
0.0
14
0.000000
24
476.371981
34
0.0
50
90.000000
100
AcDbRotatedDimension
0
DIMENSION
8
Layer_1
5
83
100
AcDbEntity
62
256
370
-1
6
ByLayer
1
Layer_1_width
3
Standard
70
0
71
5
72
1
41
1.0
100
AcDbAlignedDimension
13
12.339905
23
0.000000
33
0.0
14
453.446755
24
0.000000
34
0.0
50
0.000000
100
AcDbRotatedDimension
0
DIMENSION
8
Layer_1
5
83
100
AcDbEntity
62
256
370
-1
6
ByLayer
1
Layer_1_height
3
Standard
70
0
71
5
72
1
41
1.0
100
AcDbAlignedDimension
13
0.000000
23
11.963026
33
0.0
14
0.000000
24
476.371981
34
0.0
50
90.000000
100
AcDbRotatedDimension
62
0
0
LWPOLYLINE
100
AcDbPolyline
8
Layer_1
90
955
70
0
10
222.292150
20
12.572577
30
0.0
10
221.684967
20
13.049356
30
0.0
10
221.130740
20
13.671135
30
0.0
10
220.016754
20
15.733289
30
0.0
10
218.621390
20
19.526231
30
0.0
10
216.615843
20
25.817153
30
0.0
10
194.509966
20
96.634328
30
0.0
10
181.311079
20
138.191720
30
0.0
10
178.996735
20
145.212336
30
0.0
10
177.518009
20
143.585184
30
0.0
10
175.373501
20
140.857827
30
0.0
10
172.294065
20
136.585537
30
0.0
10
169.180085
20
132.297075
30
0.0
10
166.952521
20
129.530856
30
0.0
10
165.356196
20
127.848670
30
0.0
10
163.915773
20
127.987072
30
0.0
10
162.728152
20
128.230623
30
0.0
10
161.917024
20
128.630765
30
0.0
10
160.704001
20
131.050291
30
0.0
10
157.534390
20
138.856674
30
0.0
10
141.737072
20
179.713354
30
0.0
10
122.556250
20
229.236611
30
0.0
10
117.852092
20
240.845681
30
0.0
10
115.150731
20
246.855039
30
0.0
10
114.048741
20
248.765433
30
0.0
10
112.776006
20
250.622548
30
0.0
10
111.594149
20
252.287388
30
0.0
10
110.655164
20
253.957319
30
0.0
10
109.928693
20
255.786301
30
0.0
10
109.384376
20
257.928296
30
0.0
10
108.991853
20
260.537262
30
0.0
10
108.720765
20
263.767160
30
0.0
10
108.421458
20
272.705593
30
0.0
10
108.247819
20
280.100258
30
0.0
10
107.923476
20
284.381070
30
0.0
10
107.635842
20
285.823651
30
0.0
10
107.227796
20
287.051613
30
0.0
10
105.940146
20
289.615471
30
0.0
10
104.403872
20
292.597231
30
0.0
10
103.263542
20
295.238439
30
0.0
10
102.520137
20
297.536525
30
0.0
10
102.174635
20
299.488922
30
0.0
10
102.148250
20
300.678882
30
0.0
10
102.322023
20
302.133829
30
0.0
10
103.591343
20
307.701148
30
0.0
10
104.841070
20
312.468778
30
0.0
10
106.064052
20
316.571969
30
0.0
10
107.229456
20
319.914605
30
0.0
10
108.306452
20
322.400572
30
0.0
10
108.883101
20
323.672148
30
0.0
10
109.094698
20
324.576365
30
0.0
10
108.947644
20
325.271869
30
0.0
10
108.448342
20
325.917309
30
0.0
10
107.882581
20
326.350763
30
0.0
10
107.267987
20
326.580349
30
0.0
10
106.617511
20
326.610990
30
0.0
10
105.944100
20
326.447608
30
0.0
10
105.260704
20
326.095127
30
0.0
10
104.580273
20
325.558470
30
0.0
10
103.280100
20
323.952322
30
0.0
10
101.928680
20
321.583118
30
0.0
10
100.666997
20
318.770721
30
0.0
10
99.294665
20
315.015499
30
0.0
10
97.611303
20
309.817815
30
0.0
10
95.545228
20
303.643901
30
0.0
10
94.966863
20
302.694555
30
0.0
10
94.334844
20
302.357996
30
0.0
10
90.937738
20
301.912026
30
0.0
10
88.665332
20
301.672365
30
0.0
10
86.839128
20
301.262069
30
0.0
10
85.192151
20
300.598600
30
0.0
10
83.457423
20
299.599421
30
0.0
10
81.768645
20
298.666082
30
0.0
10
80.324301
20
298.280930
30
0.0
10
78.859375
20
298.421703
30
0.0
10
77.108849
20
299.066139
30
0.0
10
74.964523
20
300.165733
30
0.0
10
73.513703
20
301.311617
30
0.0
10
72.555390
20
302.716620
30
0.0
10
71.888584
20
304.593566
30
0.0
10
71.407490
20
305.989027
30
0.0
10
70.736282
20
307.364445
30
0.0
10
69.907973
20
308.681658
30
0.0
10
68.955576
20
309.902502
30
0.0
10
67.912106
20
310.988816
30
0.0
10
66.810575
20
311.902436
30
0.0
10
65.683999
20
312.605200
30
0.0
10
64.565389
20
313.058945
30
0.0
10
63.601838
20
313.177666
30
0.0
10
62.623983
20
313.003793
30
0.0
10
61.655403
20
312.558391
30
0.0
10
60.719679
20
311.862520
30
0.0
10
59.840392
20
310.937242
30
0.0
10
59.041123
20
309.803621
30
0.0
10
58.345453
20
308.482717
30
0.0
10
57.776962
20
306.995593
30
0.0
10
57.281389
20
305.660735
30
0.0
10
56.664403
20
304.463666
30
0.0
10
55.852893
20
303.282674
30
0.0
10
54.773748
20
301.996049
30
0.0
10
53.537590
20
300.476539
30
0.0
10
52.798876
20
299.314102
30
0.0
10
52.478731
20
298.020234
30
0.0
10
52.472091
20
296.312921
30
0.0
10
52.786762
20
294.092621
30
0.0
10
53.430551
20
291.259791
30
0.0
10
54.077723
20
288.486663
30
0.0
10
54.265206
20
286.605030
30
0.0
10
53.976191
20
285.045129
30
0.0
10
53.193868
20
283.237201
30
0.0
10
52.250267
20
281.627629
30
0.0
10
51.088528
20
280.158130
30
0.0
10
49.809629
20
278.939906
30
0.0
10
48.514548
20
278.084159
30
0.0
10
47.104327
20
277.528329
30
0.0
10
45.640367
20
277.313714
30
0.0
10
43.920585
20
277.434348
30
0.0
10
41.742899
20
277.884266
30
0.0
10
39.364964
20
278.375122
30
0.0
10
38.173048
20
278.354169
30
0.0
10
37.576610
20
278.005438
30
0.0
10
37.051238
20
277.428381
30
0.0
10
36.591070
20
276.603648
30
0.0
10
36.190246
20
275.511890
30
0.0
10
35.543183
20
272.449897
30
0.0
10
35.063156
20
268.087602
30
0.0
10
34.644201
20
264.031755
30
0.0
10
34.049993
20
260.883252
30
0.0
10
33.122740
20
258.018453
30
0.0
10
31.704653
20
254.813717
30
0.0
10
29.662087
20
250.819743
30
0.0
10
27.993669
20
248.246510
30
0.0
10
27.243645
20
247.422098
30
0.0
10
26.519815
20
246.868183
30
0.0
10
25.799729
20
246.556536
30
0.0
10
25.060939
20
246.458926
30
0.0
10
24.308881
20
246.542794
30
0.0
10
23.738999
20
246.811817
30
0.0
10
23.347207
20
247.292126
30
0.0
10
23.129419
20
248.009848
30
0.0
10
23.081549
20
248.991114
30
0.0
10
23.199512
20
250.262054
30
0.0
10
23.916593
20
253.777471
30
0.0
10
25.146628
20
259.778451
30
0.0
10
25.747538
20
265.367815
30
0.0
10
25.990552
20
268.597206
30
0.0
10
26.347017
20
271.442990
30
0.0
10
27.724767
20
278.067815
30
0.0
10
28.730829
20
282.440936
30
0.0
10
29.419959
20
286.045863
30
0.0
10
30.546384
20
295.193407
30
0.0
10
32.371863
20
309.676704
30
0.0
10
33.250361
20
315.987285
30
0.0
10
33.754874
20
320.580552
30
0.0
10
33.946788
20
324.178530
30
0.0
10
33.887492
20
327.503242
30
0.0
10
33.863436
20
330.962390
30
0.0
10
34.116823
20
334.427442
30
0.0
10
34.640057
20
337.870481
30
0.0
10
35.425538
20
341.263588
30
0.0
10
36.465670
20
344.578844
30
0.0
10
37.752854
20
347.788332
30
0.0
10
39.279494
20
350.864132
30
0.0
10
41.037990
20
353.778326
30
0.0
10
42.558159
20
355.706277
30
0.0
10
44.018650
20
356.866337
30
0.0
10
44.700737
20
357.144423
30
0.0
10
45.336969
20
357.213754
30
0.0
10
45.917035
20
357.068737
30
0.0
10
46.430621
20
356.703777
30
0.0
10
46.787370
20
355.954269
30
0.0
10
46.981732
20
354.669391
30
0.0
10
46.922693
20
350.981969
30
0.0
10
46.332306
20
346.618406
30
0.0
10
45.862482
20
344.488350
30
0.0
10
45.289371
20
342.555593
30
0.0
10
44.676118
20
340.479615
30
0.0
10
44.421326
20
338.821862
30
0.0
10
44.524661
20
337.575936
30
0.0
10
44.985790
20
336.735440
30
0.0
10
45.606039
20
336.305258
30
0.0
10
46.404434
20
336.585848
30
0.0
10
47.823882
20
337.717726
30
0.0
10
49.801820
20
339.747800
30
0.0
10
51.857413
20
342.147946
30
0.0
10
53.509824
20
344.390037
30
0.0
10
55.505025
20
347.158203
30
0.0
10
56.854907
20
347.920985
30
0.0
10
59.054185
20
348.630344
30
0.0
10
62.143734
20
349.296914
30
0.0
10
66.164429
20
349.931330
30
0.0
10
67.061886
20
350.224197
30
0.0
10
67.934468
20
350.807979
30
0.0
10
68.690589
20
351.605030
30
0.0
10
69.238664
20
352.537703
30
0.0
10
69.588594
20
353.944505
30
0.0
10
69.668880
20
355.698625
30
0.0
10
69.486735
20
357.545046
30
0.0
10
69.049375
20
359.228751
30
0.0
10
67.645555
20
363.208767
30
0.0
10
67.119551
20
365.577775
30
0.0
10
66.663765
20
371.342260
30
0.0
10
66.281811
20
376.823964
30
0.0
10
65.676048
20
381.311511
30
0.0
10
64.858264
20
384.739357
30
0.0
10
64.373548
20
386.035409
30
0.0
10
63.840247
20
387.041957
30
0.0
10
63.085328
20
387.875806
30
0.0
10
62.053767
20
388.585333
30
0.0
10
60.911845
20
389.078526
30
0.0
10
59.825842
20
389.263371
30
0.0
10
58.927633
20
389.053851
30
0.0
10
58.036025
20
388.473444
30
0.0
10
57.234790
20
387.594373
30
0.0
10
56.607704
20
386.488864
30
0.0
10
56.103827
20
384.537137
30
0.0
10
55.655345
20
381.506247
30
0.0
10
55.155085
20
378.205680
30
0.0
10
54.521811
20
375.549976
30
0.0
10
53.089067
20
371.901696
30
0.0
10
51.265126
20
368.327610
30
0.0
10
49.376873
20
365.400218
30
0.0
10
48.510780
20
364.357937
30
0.0
10
47.751190
20
363.692017
30
0.0
10
47.057979
20
363.354592
30
0.0
10
46.549141
20
363.681010
30
0.0
10
46.310595
20
364.121516
30
0.0
10
46.265996
20
365.172127
30
0.0
10
46.847938
20
371.415115
30
0.0
10
47.893481
20
382.399935
30
0.0
10
48.251491
20
385.758257
30
0.0
10
48.722483
20
388.608824
30
0.0
10
49.831236
20
394.547104
30
0.0
10
50.713081
20
401.963365
30
0.0
10
51.777355
20
412.052825
30
0.0
10
52.100446
20
414.217410
30
0.0
10
52.449453
20
415.776766
30
0.0
10
52.889605
20
417.199552
30
0.0
10
53.397388
20
418.230797
30
0.0
10
53.989234
20
418.871772
30
0.0
10
54.681578
20
419.123749
30
0.0
10
55.490853
20
418.988001
30
0.0
10
56.433493
20
418.465799
30
0.0
10
57.525932
20
417.558415
30
0.0
10
58.784603
20
416.267121
30
0.0
10
60.950805
20
413.658267
30
0.0
10
62.874029
20
410.796376
30
0.0
10
64.622829
20
407.499383
30
0.0
10
66.265758
20
403.585222
30
0.0
10
67.871369
20
398.871828
30
0.0
10
69.508217
20
393.177134
30
0.0
10
71.244853
20
386.319076
30
0.0
10
73.149833
20
378.115587
30
0.0
10
75.434012
20
368.543496
30
0.0
10
76.081999
20
366.469490
30
0.0
10
76.500081
20
365.838921
30
0.0
10
80.529935
20
367.105274
30
0.0
10
84.017325
20
368.179947
30
0.0
10
87.036126
20
368.842610
30
0.0
10
89.897671
20
369.144323
30
0.0
10
92.913293
20
369.136143
30
0.0
10
95.880361
20
368.879545
30
0.0
10
98.605056
20
368.357450
30
0.0
10
101.339696
20
367.506394
30
0.0
10
104.336599
20
366.262914
30
0.0
10
108.717738
20
364.426514
30
0.0
10
110.029274
20
363.937709
30
0.0
10
111.399544
20
363.213825
30
0.0
10
115.773293
20
360.184903
30
0.0
10
120.087845
20
357.288242
30
0.0
10
121.895571
20
356.310135
30
0.0
10
123.527188
20
355.625684
30
0.0
10
125.025389
20
355.220019
30
0.0
10
126.432867
20
355.078271
30
0.0
10
127.792315
20
355.185567
30
0.0
10
129.146427
20
355.527040
30
0.0
10
130.254791
20
355.988075
30
0.0
10
131.362242
20
356.627791
30
0.0
10
133.511655
20
358.381580
30
0.0
10
135.469166
20
360.665036
30
0.0
10
137.109271
20
363.354784
30
0.0
10
137.922923
20
364.966620
30
0.0
10
136.560763
20
366.741115
30
0.0
10
135.632384
20
367.838256
30
0.0
10
134.644541
20
368.679300
30
0.0
10
133.325576
20
369.454593
30
0.0
10
131.403829
20
370.354482
30
0.0
10
130.779985
20
370.726326
30
0.0
10
130.414798
20
371.196580
30
0.0
10
130.319547
20
371.793951
30
0.0
10
130.505513
20
372.547144
30
0.0
10
130.983976
20
373.484865
30
0.0
10
131.766214
20
374.635821
30
0.0
10
134.287139
20
377.692260
30
0.0
10
140.850022
20
385.594482
30
0.0
10
152.120449
20
399.268972
30
0.0
10
163.210632
20
411.907579
30
0.0
10
174.352740
20
423.766125
30
0.0
10
185.778944
20
435.100434
30
0.0
10
192.022615
20
440.976381
30
0.0
10
197.782777
20
446.164993
30
0.0
10
203.152324
20
450.737098
30
0.0
10
208.224152
20
454.763526
30
0.0
10
213.091157
20
458.315106
30
0.0
10
217.846234
20
461.462669
30
0.0
10
222.582279
20
464.277045
30
0.0
10
227.392188
20
466.829062
30
0.0
10
232.481921
20
469.233499
30
0.0
10
237.455158
20
471.284776
30
0.0
10
242.325919
20
472.986390
30
0.0
10
247.108225
20
474.341840
30
0.0
10
251.816096
20
475.354626
30
0.0
10
256.463551
20
476.028246
30
0.0
10
261.064612
20
476.366198
30
0.0
10
265.633299
20
476.371981
30
0.0
10
270.384621
20
476.088095
30
0.0
10
274.604185
20
475.531005
30
0.0
10
278.887866
20
474.596165
30
0.0
10
283.831538
20
473.179026
30
0.0
10
290.579452
20
470.811990
30
0.0
10
296.778063
20
468.077548
30
0.0
10
299.617487
20
466.599098
30
0.0
10
302.254916
20
465.060653
30
0.0
10
304.668792
20
463.472832
30
0.0
10
306.837560
20
461.846256
30
0.0
10
312.506655
20
456.922743
30
0.0
10
318.829394
20
450.878036
30
0.0
10
324.851502
20
444.660052
30
0.0
10
329.618707
20
439.216704
30
0.0
10
332.080640
20
435.885352
30
0.0
10
334.632953
20
431.906609
30
0.0
10
337.202373
20
427.401841
30
0.0
10
339.715630
20
422.492413
30
0.0
10
342.866427
20
415.571730
30
0.0
10
345.548278
20
408.718061
30
0.0
10
347.853707
20
401.673562
30
0.0
10
349.875235
20
394.180390
30
0.0
10
351.053710
20
389.736328
30
0.0
10
351.892588
20
387.198382
30
0.0
10
353.530348
20
385.121065
30
0.0
10
356.629518
20
381.784482
30
0.0
10
361.679437
20
376.412976
30
0.0
10
365.894225
20
371.060037
30
0.0
10
368.402982
20
367.922160
30
0.0
10
370.705955
20
365.568456
30
0.0
10
373.103431
20
363.731178
30
0.0
10
375.895701
20
362.142580
30
0.0
10
378.805091
20
360.943952
30
0.0
10
382.102660
20
360.165669
30
0.0
10
386.172775
20
359.745194
30
0.0
10
391.399804
20
359.619987
30
0.0
10
395.613459
20
359.712768
30
0.0
10
399.182181
20
360.010044
30
0.0
10
402.367596
20
360.544030
30
0.0
10
405.431329
20
361.346939
30
0.0
10
407.540190
20
361.913054
30
0.0
10
409.053831
20
361.996190
30
0.0
10
410.447579
20
361.534445
30
0.0
10
412.196760
20
360.465923
30
0.0
10
414.777380
20
358.356764
30
0.0
10
417.631969
20
355.310336
30
0.0
10
420.729895
20
351.373278
30
0.0
10
424.040529
20
346.592233
30
0.0
10
427.533240
20
341.013839
30
0.0
10
431.177398
20
334.684738
30
0.0
10
434.942372
20
327.651570
30
0.0
10
438.797531
20
319.960975
30
0.0
10
442.780672
20
311.268171
30
0.0
10
444.206772
20
307.623509
30
0.0
10
445.313717
20
304.248940
30
0.0
10
446.144876
20
300.996164
30
0.0
10
446.743619
20
297.716881
30
0.0
10
447.153314
20
294.262790
30
0.0
10
447.417331
20
290.485593
30
0.0
10
447.485297
20
287.422247
30
0.0
10
447.349283
20
286.771824
30
0.0
10
447.068504
20
286.334849
30
0.0
10
446.430715
20
285.781235
30
0.0
10
445.741012
20
285.535401
30
0.0
10
445.029904
20
285.601269
30
0.0
10
444.327901
20
285.982757
30
0.0
10
443.528956
20
286.878938
30
0.0
10
442.611383
20
288.546664
30
0.0
10
439.769137
20
295.565593
30
0.0
10
437.418810
20
301.599809
30
0.0
10
435.133368
20
307.075558
30
0.0
10
432.877965
20
312.059789
30
0.0
10
430.617757
20
316.619455
30
0.0
10
428.317898
20
320.821505
30
0.0
10
425.943544
20
324.732890
30
0.0
10
423.459849
20
328.420562
30
0.0
10
420.831970
20
331.951471
30
0.0
10
415.424754
20
338.370118
30
0.0
10
412.766739
20
341.228730
30
0.0
10
410.617698
20
343.320836
30
0.0
10
408.258428
20
345.131424
30
0.0
10
407.036483
20
345.758602
30
0.0
10
405.636973
20
346.241607
30
0.0
10
403.947878
20
346.611368
30
0.0
10
401.857179
20
346.898813
30
0.0
10
396.022886
20
347.350475
30
0.0
10
389.500437
20
347.810289
30
0.0
10
384.737864
20
348.340548
30
0.0
10
380.984793
20
349.050540
30
0.0
10
377.490849
20
350.049550
30
0.0
10
374.390286
20
351.198814
30
0.0
10
371.579330
20
352.620776
30
0.0
10
368.517053
20
354.631603
30
0.0
10
364.662522
20
357.547458
30
0.0
10
361.990207
20
359.581503
30
0.0
10
360.204695
20
360.774729
30
0.0
10
359.135760
20
361.225159
30
0.0
10
358.816813
20
361.202458
30
0.0
10
358.613174
20
361.030816
30
0.0
10
358.389672
20
359.988580
30
0.0
10
358.387325
20
357.944564
30
0.0
10
359.039809
20
350.999030
30
0.0
10
359.927137
20
342.957515
30
0.0
10
360.560766
20
335.211886
30
0.0
10
360.940696
20
327.774926
30
0.0
10
361.066934
20
320.659419
30
0.0
10
360.939481
20
313.878148
30
0.0
10
360.558340
20
307.443897
30
0.0
10
359.923516
20
301.369449
30
0.0
10
359.035011
20
295.667588
30
0.0
10
358.052848
20
290.873856
30
0.0
10
356.805770
20
286.131175
30
0.0
10
354.984192
20
280.380923
30
0.0
10
352.278527
20
272.564482
30
0.0
10
350.333056
20
266.448304
30
0.0
10
349.651673
20
263.675869
30
0.0
10
349.143909
20
260.962423
30
0.0
10
348.794301
20
258.209384
30
0.0
10
348.587387
20
255.318166
30
0.0
10
348.539788
20
248.726861
30
0.0
10
348.718017
20
244.170950
30
0.0
10
349.088960
20
240.671295
30
0.0
10
349.768318
20
237.492160
30
0.0
10
350.871790
20
233.897805
30
0.0
10
352.404472
20
229.749430
30
0.0
10
354.453239
20
225.077091
30
0.0
10
357.288528
20
219.302309
30
0.0
10
361.180775
20
211.846603
30
0.0
10
363.681486
20
206.928011
30
0.0
10
364.297153
20
205.510970
30
0.0
10
364.464120
20
204.843315
30
0.0
10
363.167817
20
201.238894
30
0.0
10
362.105914
20
198.150793
30
0.0
10
361.862335
20
197.059926
30
0.0
10
361.812847
20
196.234643
30
0.0
10
361.959334
20
195.647537
30
0.0
10
362.303677
20
195.271204
30
0.0
10
362.847760
20
195.078239
30
0.0
10
363.593465
20
195.041238
30
0.0
10
364.333287
20
195.159165
30
0.0
10
365.169187
20
195.455492
30
0.0
10
367.095148
20
196.549371
30
0.0
10
369.303198
20
198.254932
30
0.0
10
371.725186
20
200.504236
30
0.0
10
374.292965
20
203.229340
30
0.0
10
376.938383
20
206.362302
30
0.0
10
379.593290
20
209.835182
30
0.0
10
382.189538
20
213.580037
30
0.0
10
385.138812
20
218.182843
30
0.0
10
387.576187
20
222.308891
30
0.0
10
389.558981
20
226.103461
30
0.0
10
391.144513
20
229.711833
30
0.0
10
392.390100
20
233.279285
30
0.0
10
393.353061
20
236.951099
30
0.0
10
394.090713
20
240.872553
30
0.0
10
394.660374
20
245.188926
30
0.0
10
394.903630
20
248.734360
30
0.0
10
395.078355
20
253.972413
30
0.0
10
395.221379
20
267.229701
30
0.0
10
395.087781
20
280.367435
30
0.0
10
394.916728
20
285.456046
30
0.0
10
394.675896
20
288.792260
30
0.0
10
393.952065
20
293.789363
30
0.0
10
392.948086
20
298.582375
30
0.0
10
391.448632
20
304.054218
30
0.0
10
389.238377
20
311.087815
30
0.0
10
387.531024
20
316.556678
30
0.0
10
386.671749
20
320.020078
30
0.0
10
386.530550
20
321.167038
30
0.0
10
386.565861
20
322.013404
30
0.0
10
386.765844
20
322.626098
30
0.0
10
387.118662
20
323.072046
30
0.0
10
387.602006
20
323.373413
30
0.0
10
388.155046
20
323.469813
30
0.0
10
388.774924
20
323.364757
30
0.0
10
389.458781
20
323.061756
30
0.0
10
391.007001
20
321.875968
30
0.0
10
392.776837
20
319.940539
30
0.0
10
394.745423
20
317.283560
30
0.0
10
396.889892
20
313.933123
30
0.0
10
399.187375
20
309.917319
30
0.0
10
401.615007
20
305.264239
30
0.0
10
403.105135
20
302.149322
30
0.0
10
403.912546
20
299.903836
30
0.0
10
404.208184
20
297.863607
30
0.0
10
404.162994
20
295.364464
30
0.0
10
404.074735
20
293.410998
30
0.0
10
404.122421
20
292.190663
30
0.0
10
404.373683
20
291.204265
30
0.0
10
404.896151
20
289.952608
30
0.0
10
405.664726
20
287.742429
30
0.0
10
406.178371
20
285.299178
30
0.0
10
407.276836
20
280.184482
30
0.0
10
407.953542
20
277.135598
30
0.0
10
408.557391
20
273.372112
30
0.0
10
409.380845
20
268.678893
30
0.0
10
409.802301
20
267.470585
30
0.0
10
410.219708
20
267.061148
30
0.0
10
410.732477
20
267.268530
30
0.0
10
411.378545
20
267.803600
30
0.0
10
412.024724
20
268.535747
30
0.0
10
412.537825
20
269.334361
30
0.0
10
412.935728
20
270.516406
30
0.0
10
413.082772
20
272.164614
30
0.0
10
412.981663
20
274.514881
30
0.0
10
412.635107
20
277.803105
30
0.0
10
412.367768
20
280.560226
30
0.0
10
412.360015
20
282.562160
30
0.0
10
412.628237
20
284.027103
30
0.0
10
413.188827
20
285.173251
30
0.0
10
413.775295
20
285.850631
30
0.0
10
414.418403
20
286.154368
30
0.0
10
415.195733
20
286.097969
30
0.0
10
416.184870
20
285.694941
30
0.0
10
417.409959
20
284.770662
30
0.0
10
418.722306
20
283.207790
30
0.0
10
420.114222
20
281.016990
30
0.0
10
421.578024
20
278.208926
30
0.0
10
422.840702
20
275.424769
30
0.0
10
423.816286
20
272.891677
30
0.0
10
424.557619
20
270.456734
30
0.0
10
425.117542
20
267.967028
30
0.0
10
425.406181
20
265.324354
30
0.0
10
425.424773
20
261.956779
30
0.0
10
425.176966
20
257.981192
30
0.0
10
424.666410
20
253.514482
30
0.0
10
424.103207
20
248.041386
30
0.0
10
424.136249
20
247.249686
30
0.0
10
424.308020
20
246.672631
30
0.0
10
424.721138
20
246.109676
30
0.0
10
425.478222
20
245.360275
30
0.0
10
430.233212
20
240.725596
30
0.0
10
431.253027
20
239.494994
30
0.0
10
431.923924
20
238.387176
30
0.0
10
432.853890
20
236.239800
30
0.0
10
433.436962
20
233.975939
30
0.0
10
433.676170
20
231.622836
30
0.0
10
433.574543
20
229.207738
30
0.0
10
433.135112
20
226.757890
30
0.0
10
432.360907
20
224.300538
30
0.0
10
431.254958
20
221.862927
30
0.0
10
429.820296
20
219.472304
30
0.0
10
428.319983
20
217.029634
30
0.0
10
427.572957
20
215.193292
30
0.0
10
427.473535
20
214.467757
30
0.0
10
427.552365
20
213.852121
30
0.0
10
427.806091
20
213.332489
30
0.0
10
428.231356
20
212.894966
30
0.0
10
429.034774
20
212.486682
30
0.0
10
430.026057
20
212.322746
30
0.0
10
431.094397
20
212.407420
30
0.0
10
432.128986
20
212.744970
30
0.0
10
433.357308
20
213.532799
30
0.0
10
434.795810
20
214.766615
30
0.0
10
436.241032
20
216.254399
30
0.0
10
437.489515
20
217.804136
30
0.0
10
439.838782
20
221.628165
30
0.0
10
441.951385
20
226.045010
30
0.0
10
443.610312
20
230.541782
30
0.0
10
444.201831
20
232.659864
30
0.0
10
444.598552
20
234.605593
30
0.0
10
444.954332
20
240.163160
30
0.0
10
445.266657
20
251.680037
30
0.0
10
445.522940
20
262.116628
30
0.0
10
445.847699
20
268.292000
30
0.0
10
446.066689
20
270.130232
30
0.0
10
446.339914
20
271.321363
30
0.0
10
446.679747
20
272.004795
30
0.0
10
447.098561
20
272.319928
30
0.0
10
447.737484
20
272.396980
30
0.0
10
448.477164
20
272.200723
30
0.0
10
449.272369
20
271.750214
30
0.0
10
450.077868
20
271.064510
30
0.0
10
450.633654
20
270.435898
30
0.0
10
451.034852
20
269.751885
30
0.0
10
451.707165
20
267.484482
30
0.0
10
452.469899
20
263.158105
30
0.0
10
453.011120
20
257.657519
30
0.0
10
453.335262
20
250.920054
30
0.0
10
453.446755
20
242.883044
30
0.0
10
453.257458
20
233.927273
30
0.0
10
452.665521
20
225.570011
30
0.0
10
451.656151
20
217.747752
30
0.0
10
450.214552
20
210.396991
30
0.0
10
448.325931
20
203.454221
30
0.0
10
445.975492
20
196.855936
30
0.0
10
443.148441
20
190.538631
30
0.0
10
439.829984
20
184.438798
30
0.0
10
438.121232
20
181.766172
30
0.0
10
436.033862
20
178.850231
30
0.0
10
430.920430
20
172.517428
30
0.0
10
424.884009
20
165.898441
30
0.0
10
418.318922
20
159.451322
30
0.0
10
413.958239
20
155.554128
30
0.0
10
409.979082
20
152.341305
30
0.0
10
406.017404
20
149.536988
30
0.0
10
401.709156
20
146.865312
30
0.0
10
396.909629
20
144.251790
30
0.0
10
391.875375
20
141.896195
30
0.0
10
386.619895
20
139.802635
30
0.0
10
381.156690
20
137.975220
30
0.0
10
375.499259
20
136.418058
30
0.0
10
369.661103
20
135.135258
30
0.0
10
363.655723
20
134.130930
30
0.0
10
357.496618
20
133.409182
30
0.0
10
346.636142
20
132.897372
30
0.0
10
337.892334
20
132.582243
30
0.0
10
332.329423
20
122.845576
30
0.0
10
326.700698
20
112.632511
30
0.0
10
325.650422
20
110.264186
30
0.0
10
325.475578
20
109.582879
30
0.0
10
325.499702
20
109.167591
30
0.0
10
325.938216
20
108.832279
30
0.0
10
326.987228
20
108.760824
30
0.0
10
331.459784
20
109.433727
30
0.0
10
337.436989
20
110.450870
30
0.0
10
339.030984
20
110.545104
30
0.0
10
340.084636
20
110.407055
30
0.0
10
341.202554
20
109.859164
30
0.0
10
341.509327
20
109.459035
30
0.0
10
341.649533
20
108.959784
30
0.0
10
341.434912
20
107.618921
30
0.0
10
340.568026
20
105.746578
30
0.0
10
336.760531
20
99.402196
30
0.0
10
330.425623
20
89.449549
30
0.0
10
313.695031
20
63.999749
30
0.0
10
297.419173
20
39.957749
30
0.0
10
291.652682
20
31.764852
30
0.0
10
288.640972
20
27.884120
30
0.0
10
287.984153
20
27.390322
30
0.0
10
287.449218
20
27.281837
30
0.0
10
287.039398
20
27.558087
30
0.0
10
286.757928
20
28.218497
30
0.0
10
286.773038
20
28.923830
30
0.0
10
287.091718
20
30.280844
30
0.0
10
288.924541
20
35.739010
30
0.0
10
299.365331
20
63.155576
30
0.0
10
305.005500
20
78.333060
30
0.0
10
306.213973
20
82.228837
30
0.0
10
306.424847
20
83.281505
30
0.0
10
306.377114
20
83.748033
30
0.0
10
305.732742
20
83.710814
30
0.0
10
303.998143
20
83.277054
30
0.0
10
296.677729
20
81.058935
30
0.0
10
288.336867
20
78.589445
30
0.0
10
286.115627
20
78.110245
30
0.0
10
284.763605
20
78.025188
30
0.0
10
284.162276
20
78.098691
30
0.0
10
283.832127
20
78.259160
30
0.0
10
283.677465
20
78.606907
30
0.0
10
283.602599
20
79.242243
30
0.0
10
283.634868
20
80.371132
30
0.0
10
283.842883
20
81.500020
30
0.0
10
287.011558
20
89.966811
30
0.0
10
293.568826
20
106.194465
30
0.0
10
302.999764
20
129.482885
30
0.0
10
305.647800
20
136.396359
30
0.0
10
307.071663
20
140.548106
30
0.0
10
307.508741
20
142.022830
30
0.0
10
306.749902
20
142.544941
30
0.0
10
305.896910
20
143.054944
30
0.0
10
304.924792
20
143.462477
30
0.0
10
302.085671
20
144.155753
30
0.0
10
300.047931
20
144.407607
30
0.0
10
297.596504
20
144.528522
30
0.0
10
295.281623
20
144.507023
30
0.0
10
293.653520
20
144.331634
30
0.0
10
292.718316
20
143.425204
30
0.0
10
290.404389
20
140.259177
30
0.0
10
278.829530
20
123.127798
30
0.0
10
264.154285
20
101.267267
30
0.0
10
254.636591
20
87.348445
30
0.0
10
249.070561
20
79.642510
30
0.0
10
247.392579
20
77.579119
30
0.0
10
246.250305
20
76.420641
30
0.0
10
245.647274
20
76.017026
30
0.0
10
245.087115
20
75.834014
30
0.0
10
244.590748
20
75.854587
30
0.0
10
244.179090
20
76.061729
30
0.0
10
243.873059
20
76.438422
30
0.0
10
243.693573
20
76.967650
30
0.0
10
243.661549
20
77.632396
30
0.0
10
243.797907
20
78.415642
30
0.0
10
245.972901
20
84.562982
30
0.0
10
250.593084
20
96.594126
30
0.0
10
263.967793
20
130.104134
30
0.0
10
269.161077
20
143.337788
30
0.0
10
269.085227
20
143.581660
30
0.0
10
268.764784
20
143.703721
30
0.0
10
266.832743
20
143.659380
30
0.0
10
264.548572
20
143.313227
30
0.0
10
261.703915
20
142.555359
30
0.0
10
258.434269
20
141.427566
30
0.0
10
254.875129
20
139.971639
30
0.0
10
250.855965
20
138.012984
30
0.0
10
249.166169
20
136.978803
30
0.0
10
247.566004
20
135.809831
30
0.0
10
244.263882
20
132.772854
30
0.0
10
240.208237
20
128.312728
30
0.0
10
237.602716
20
125.406165
30
0.0
10
235.779557
20
123.624259
30
0.0
10
234.421863
20
122.697110
30
0.0
10
233.212739
20
122.354820
30
0.0
10
232.083878
20
122.386362
30
0.0
10
231.260833
20
123.109567
30
0.0
10
230.521697
20
124.195829
30
0.0
10
230.114683
20
125.374605
30
0.0
10
230.012253
20
126.785907
30
0.0
10
230.186865
20
128.569748
30
0.0
10
231.418324
20
134.390077
30
0.0
10
233.226257
20
141.190020
30
0.0
10
234.337957
20
144.563574
30
0.0
10
235.626288
20
147.890451
30
0.0
10
237.066302
20
151.124357
30
0.0
10
238.633053
20
154.218996
30
0.0
10
240.301593
20
157.128074
30
0.0
10
242.046975
20
159.805295
30
0.0
10
243.844251
20
162.204365
30
0.0
10
245.668475
20
164.278987
30
0.0
10
247.698158
20
166.207458
30
0.0
10
248.308357
20
166.518779
30
0.0
10
248.923739
20
166.590020
30
0.0
10
249.943726
20
166.390701
30
0.0
10
250.947922
20
165.714116
30
0.0
10
251.652472
20
164.995557
30
0.0
10
251.945521
20
164.497935
30
0.0
10
251.510281
20
163.880669
30
0.0
10
250.463854
20
162.874424
30
0.0
10
249.523479
20
161.941507
30
0.0
10
248.641396
20
160.846073
30
0.0
10
247.174441
20
158.417154
30
0.0
10
246.307668
20
156.086671
30
0.0
10
246.175811
20
155.114281
30
0.0
10
246.285752
20
154.353627
30
0.0
10
246.533142
20
153.888611
30
0.0
10
246.872894
20
153.628088
30
0.0
10
247.342193
20
153.588394
30
0.0
10
247.978221
20
153.785866
30
0.0
10
249.899200
20
154.957655
30
0.0
10
252.933299
20
157.274147
30
0.0
10
255.806706
20
159.484168
30
0.0
10
258.352473
20
161.264498
30
0.0
10
260.812284
20
162.773973
30
0.0
10
263.427817
20
164.171432
30
0.0
10
267.107621
20
165.830910
30
0.0
10
270.863245
20
167.151837
30
0.0
10
274.679486
20
168.132382
30
0.0
10
278.541138
20
168.770716
30
0.0
10
282.432996
20
169.065010
30
0.0
10
286.339855
20
169.013434
30
0.0
10
290.246511
20
168.614159
30
0.0
10
294.137757
20
167.865354
30
0.0
10
297.319926
20
166.970244
30
0.0
10
301.007554
20
165.762545
30
0.0
10
304.545824
20
164.662826
30
0.0
10
305.793192
20
164.412231
30
0.0
10
306.696812
20
164.361421
30
0.0
10
307.259759
20
164.510603
30
0.0
10
307.485106
20
164.859984
30
0.0
10
307.375926
20
165.409770
30
0.0
10
306.935293
20
166.160168
30
0.0
10
305.652711
20
167.602911
30
0.0
10
303.963646
20
168.911868
30
0.0
10
301.889148
20
170.079457
30
0.0
10
299.450266
20
171.098094
30
0.0
10
296.668051
20
171.960196
30
0.0
10
293.563551
20
172.658182
30
0.0
10
290.157816
20
173.184469
30
0.0
10
286.471896
20
173.531474
30
0.0
10
283.317894
20
173.899548
30
0.0
10
283.202697
20
174.492472
30
0.0
10
283.424432
20
175.907023
30
0.0
10
283.803690
20
177.714283
30
0.0
10
283.787364
20
178.232336
30
0.0
10
283.541320
20
178.548415
30
0.0
10
282.996246
20
178.703829
30
0.0
10
282.082830
20
178.739889
30
0.0
10
278.873726
20
178.619178
30
0.0
10
274.152605
20
178.324929
30
0.0
10
272.311680
20
178.067811
30
0.0
10
270.639307
20
177.687944
30
0.0
10
269.002084
20
177.148263
30
0.0
10
267.266609
20
176.411704
30
0.0
10
262.967287
20
174.199691
30
0.0
10
257.958304
20
171.707316
30
0.0
10
256.478051
20
171.228240
30
0.0
10
255.420551
20
171.155670
30
0.0
10
254.853475
20
171.333164
30
0.0
10
254.578246
20
171.689907
30
0.0
10
254.585124
20
172.208643
30
0.0
10
254.864366
20
172.872118
30
0.0
10
256.200970
20
174.564255
30
0.0
10
258.510123
20
176.628270
30
0.0
10
262.277854
20
179.337611
30
0.0
10
266.713783
20
182.091069
30
0.0
10
271.183933
20
184.519756
30
0.0
10
275.054328
20
186.254785
30
0.0
10
276.157442
20
186.623411
30
0.0
10
277.277738
20
186.819321
30
0.0
10
281.404328
20
186.870989
30
0.0
10
284.454741
20
186.879451
30
0.0
10
286.314859
20
187.101582
30
0.0
10
287.516892
20
187.675784
30
0.0
10
288.593050
20
188.740457
30
0.0
10
289.428875
20
189.846595
30
0.0
10
290.318349
20
191.462674
30
0.0
10
293.191579
20
198.130527
30
0.0
10
295.738141
20
204.116782
30
0.0
10
297.647928
20
208.062454
30
0.0
10
299.066040
20
210.234261
30
0.0
10
299.636061
20
210.738317
30
0.0
10
300.137576
20
210.898926
30
0.0
10
300.703088
20
210.707587
30
0.0
10
301.711783
20
210.014302
30
0.0
10
305.991091
20
206.406310
30
0.0
10
313.304629
20
199.776561
30
0.0
10
315.807361
20
197.311392
30
0.0
10
317.108925
20
195.823727
30
0.0
10
317.512912
20
195.140538
30
0.0
10
317.722550
20
194.453157
30
0.0
10
317.756907
20
191.851111
30
0.0
10
317.779100
20
189.378795
30
0.0
10
317.928615
20
188.773670
30
0.0
10
318.203185
20
188.330784
30
0.0
10
318.606390
20
187.980391
30
0.0
10
319.077202
20
187.833484
30
0.0
10
319.608857
20
187.886239
30
0.0
10
320.194591
20
188.134830
30
0.0
10
321.501236
20
189.204218
30
0.0
10
322.943022
20
191.011048
30
0.0
10
323.566690
20
192.049085
30
0.0
10
323.924147
20
193.023766
30
0.0
10
323.994120
20
193.991463
30
0.0
10
323.755332
20
195.008549
30
0.0
10
323.186510
20
196.131398
30
0.0
10
322.266378
20
197.416380
30
0.0
10
319.287088
20
200.698241
30
0.0
10
315.676550
20
204.212174
30
0.0
10
311.618940
20
207.831771
30
0.0
10
307.199275
20
211.484100
30
0.0
10
302.502570
20
215.096231
30
0.0
10
295.916265
20
220.047960
30
0.0
10
291.852431
20
223.337366
30
0.0
10
289.385681
20
225.776132
30
0.0
10
287.590625
20
228.175941
30
0.0
10
286.420755
20
230.167582
30
0.0
10
285.787553
20
232.177457
30
0.0
10
285.561391
20
234.922877
30
0.0
10
285.612642
20
239.121148
30
0.0
10
285.797088
20
243.089744
30
0.0
10
286.123578
20
246.297512
30
0.0
10
286.630365
20
249.016528
30
0.0
10
287.355703
20
251.518869
30
0.0
10
288.207724
20
254.371867
30
0.0
10
288.709326
20
257.233823
30
0.0
10
288.944418
20
260.841650
30
0.0
10
288.996910
20
265.932260
30
0.0
10
288.920939
20
271.482398
30
0.0
10
288.692054
20
275.975065
30
0.0
10
288.275145
20
279.865470
30
0.0
10
287.635103
20
283.608822
30
0.0
10
286.685354
20
287.452755
30
0.0
10
285.415420
20
291.013242
30
0.0
10
283.798740
20
294.326874
30
0.0
10
281.808749
20
297.430245
30
0.0
10
279.418884
20
300.359944
30
0.0
10
276.602582
20
303.152565
30
0.0
10
273.333278
20
305.844700
30
0.0
10
269.584410
20
308.472939
30
0.0
10
259.971244
20
314.925569
30
0.0
10
256.749274
20
317.340412
30
0.0
10
253.356632
20
320.092928
30
0.0
10
249.340297
20
323.620598
30
0.0
10
246.288620
20
326.728819
30
0.0
10
244.240735
20
329.373446
30
0.0
10
243.605444
20
330.508116
30
0.0
10
243.235776
20
331.510332
30
0.0
10
242.212072
20
337.481805
30
0.0
10
241.405589
20
341.876484
30
0.0
10
240.959019
20
343.305234
30
0.0
10
240.431736
20
344.291429
30
0.0
10
239.784870
20
344.887449
30
0.0
10
238.979549
20
345.145671
30
0.0
10
237.976903
20
345.118476
30
0.0
10
236.738061
20
344.858241
30
0.0
10
235.691428
20
344.513739
30
0.0
10
234.600343
20
343.978520
30
0.0
10
231.880262
20
341.995380
30
0.0
10
227.768694
20
338.227709
30
0.0
10
221.456518
20
331.994391
30
0.0
10
213.590169
20
323.952190
30
0.0
10
206.634087
20
316.477902
30
0.0
10
200.514159
20
309.475657
30
0.0
10
195.156273
20
302.849584
30
0.0
10
190.486316
20
296.503812
30
0.0
10
186.430176
20
290.342473
30
0.0
10
182.913741
20
284.269694
30
0.0
10
179.862898
20
278.189605
30
0.0
10
176.647078
20
271.704368
30
0.0
10
175.197649
20
269.196767
30
0.0
10
173.660841
20
266.825484
30
0.0
10
172.376838
20
264.765274
30
0.0
10
170.982386
20
262.229607
30
0.0
10
168.149615
20
256.372804
30
0.0
10
165.737492
20
250.536874
30
0.0
10
164.868850
20
248.027299
30
0.0
10
164.320982
20
246.003617
30
0.0
10
164.147621
20
244.924923
30
0.0
10
164.142426
20
243.727301
30
0.0
10
164.754896
20
239.089173
30
0.0
10
169.247571
20
212.697330
30
0.0
10
173.384233
20
190.226132
30
0.0
10
173.751604
20
188.880725
30
0.0
10
174.029669
20
188.321132
30
0.0
10
178.875380
20
193.079822
30
0.0
10
182.501938
20
196.655013
30
0.0
10
183.829186
20
197.791946
30
0.0
10
184.907348
20
198.538419
30
0.0
10
185.792625
20
198.926921
30
0.0
10
186.541218
20
198.989937
30
0.0
10
187.209329
20
198.759956
30
0.0
10
187.853159
20
198.269465
30
0.0
10
188.309990
20
197.734422
30
0.0
10
188.686937
20
196.964730
30
0.0
10
189.541949
20
193.824465
30
0.0
10
196.744420
20
161.087353
30
0.0
10
207.323598
20
111.089687
30
0.0
10
217.729684
20
60.796354
30
0.0
10
224.412881
20
27.172243
30
0.0
10
225.867693
20
19.155859
30
0.0
10
226.461080
20
14.899107
30
0.0
10
226.463098
20
13.766235
30
0.0
10
226.283789
20
13.076040
30
0.0
10
225.934497
20
12.662781
30
0.0
10
225.426566
20
12.360712
30
0.0
10
224.607388
20
12.037589
30
0.0
10
223.843981
20
11.963026
30
0.0
10
223.088262
20
12.140272
30
0.0
10
222.292150
20
12.572577
30
0.0
10
222.292150
20
12.572577
30
0.0
62
0
0
LWPOLYLINE
100
AcDbPolyline
8
Layer_1
90
75
70
0
10
126.572992
20
88.687910
30
0.0
10
125.979072
20
89.328900
30
0.0
10
125.216382
20
90.674864
30
0.0
10
122.078663
20
97.699378
30
0.0
10
102.374481
20
144.280460
30
0.0
10
80.141326
20
197.493354
30
0.0
10
77.276961
20
204.547752
30
0.0
10
75.765445
20
208.739462
30
0.0
10
75.418738
20
210.086628
30
0.0
10
75.292323
20
211.107906
30
0.0
10
75.346892
20
211.933223
30
0.0
10
75.543139
20
212.692508
30
0.0
10
76.017716
20
213.617955
30
0.0
10
76.728585
20
214.396149
30
0.0
10
77.564404
20
214.932460
30
0.0
10
78.413827
20
215.132260
30
0.0
10
79.191878
20
214.938321
30
0.0
10
80.551075
20
214.376566
30
0.0
10
84.784386
20
212.269984
30
0.0
10
90.656730
20
209.053263
30
0.0
10
97.711071
20
204.967151
30
0.0
10
109.313380
20
198.150263
30
0.0
10
113.500196
20
195.849042
30
0.0
10
113.844795
20
196.104531
30
0.0
10
114.281811
20
196.787798
30
0.0
10
114.575426
20
197.741797
30
0.0
10
114.745126
20
199.260016
30
0.0
10
114.698817
20
204.281009
30
0.0
10
114.114959
20
212.434567
30
0.0
10
112.965628
20
224.304482
30
0.0
10
112.340993
20
232.403471
30
0.0
10
112.358410
20
234.743144
30
0.0
10
112.598663
20
235.848155
30
0.0
10
112.984424
20
236.170688
30
0.0
10
113.337904
20
236.180373
30
0.0
10
114.011846
20
235.207994
30
0.0
10
115.190392
20
232.828500
30
0.0
10
119.006356
20
223.980955
30
0.0
10
124.675914
20
209.903309
30
0.0
10
132.089184
20
190.861132
30
0.0
10
136.567504
20
179.096597
30
0.0
10
138.860988
20
172.447483
30
0.0
10
139.368090
20
170.429156
30
0.0
10
139.544589
20
168.955223
30
0.0
10
139.462355
20
167.780862
30
0.0
10
139.193256
20
166.661253
30
0.0
10
138.535945
20
165.080036
30
0.0
10
137.613161
20
163.558107
30
0.0
10
136.327147
20
162.177635
30
0.0
10
134.622874
20
160.784402
30
0.0
10
132.796085
20
159.594735
30
0.0
10
131.142520
20
158.824958
30
0.0
10
129.704085
20
158.508626
30
0.0
10
127.994831
20
158.821007
30
0.0
10
126.123989
20
159.460143
30
0.0
10
123.983836
20
160.513494
30
0.0
10
121.445874
20
162.052260
30
0.0
10
118.381602
20
164.147641
30
0.0
10
113.444960
20
167.409424
30
0.0
10
112.397420
20
167.863933
30
0.0
10
112.264997
20
167.760679
30
0.0
10
112.245515
20
167.440977
30
0.0
10
112.857255
20
164.023182
30
0.0
10
115.157953
20
154.325853
30
0.0
10
127.619105
20
104.693381
30
0.0
10
130.138683
20
94.367294
30
0.0
10
130.630163
20
91.905434
30
0.0
10
130.709151
20
90.795912
30
0.0
10
130.322658
20
89.897807
30
0.0
10
129.608227
20
89.035767
30
0.0
10
128.751242
20
88.387917
30
0.0
10
127.937088
20
88.132384
30
0.0
10
127.265094
20
88.295611
30
0.0
10
126.572992
20
88.688051
30
0.0
10
126.572992
20
88.687910
30
0.0
62
0
0
LWPOLYLINE
100
AcDbPolyline
8
Layer_1
90
132
70
0
10
21.415483
20
214.005832
30
0.0
10
19.593891
20
214.605293
30
0.0
10
17.897367
20
215.412024
30
0.0
10
16.287013
20
216.447697
30
0.0
10
14.723930
20
217.733984
30
0.0
10
13.576001
20
218.874613
30
0.0
10
12.842289
20
219.856674
30
0.0
10
12.453392
20
220.799150
30
0.0
10
12.339905
20
221.821022
30
0.0
10
12.510583
20
223.032694
30
0.0
10
13.117730
20
224.041246
30
0.0
10
14.307825
20
225.007676
30
0.0
10
16.227347
20
226.092983
30
0.0
10
18.145103
20
227.181333
30
0.0
10
19.572300
20
228.244080
30
0.0
10
20.588390
20
229.351803
30
0.0
10
21.272823
20
230.575081
30
0.0
10
22.530972
20
235.171750
30
0.0
10
23.323787
20
238.114673
30
0.0
10
23.741963
20
239.143433
30
0.0
10
24.243448
20
239.968704
30
0.0
10
24.879837
20
240.659218
30
0.0
10
25.702728
20
241.283708
30
0.0
10
28.114400
20
242.609551
30
0.0
10
30.545455
20
243.740284
30
0.0
10
32.357078
20
244.287210
30
0.0
10
34.008197
20
244.328252
30
0.0
10
35.957741
20
243.941338
30
0.0
10
37.958877
20
243.534409
30
0.0
10
39.842743
20
243.362153
30
0.0
10
41.599796
20
243.422082
30
0.0
10
43.220487
20
243.711708
30
0.0
10
44.695270
20
244.228545
30
0.0
10
46.014600
20
244.970106
30
0.0
10
47.168929
20
245.933903
30
0.0
10
48.148711
20
247.117449
30
0.0
10
49.779599
20
249.865941
30
0.0
10
51.111219
20
252.986019
30
0.0
10
52.199844
20
256.635068
30
0.0
10
53.101745
20
260.970474
30
0.0
10
54.068815
20
265.569300
30
0.0
10
55.213101
20
269.054209
30
0.0
10
55.888754
20
270.466939
30
0.0
10
56.653175
20
271.706784
30
0.0
10
57.521185
20
272.808942
30
0.0
10
58.507605
20
273.808611
30
0.0
10
59.748887
20
274.780420
30
0.0
10
61.062301
20
275.483647
30
0.0
10
62.463307
20
275.918620
30
0.0
10
63.967364
20
276.085669
30
0.0
10
65.589932
20
275.985122
30
0.0
10
67.346470
20
275.617308
30
0.0
10
69.252437
20
274.982556
30
0.0
10
71.323293
20
274.081195
30
0.0
10
73.423598
20
273.132238
30
0.0
10
75.086442
20
272.539120
30
0.0
10
76.551989
20
272.232792
30
0.0
10
78.060406
20
272.144202
30
0.0
10
80.537260
20
272.277420
30
0.0
10
83.192336
20
272.633226
30
0.0
10
85.572430
20
273.134480
30
0.0
10
87.224339
20
273.704044
30
0.0
10
88.130330
20
274.091371
30
0.0
10
88.999321
20
274.308367
30
0.0
10
89.840628
20
274.352525
30
0.0
10
90.663563
20
274.221342
30
0.0
10
91.477441
20
273.912313
30
0.0
10
92.291575
20
273.422931
30
0.0
10
93.957865
20
271.893095
30
0.0
10
95.651754
20
269.527338
30
0.0
10
97.073652
20
266.651555
30
0.0
10
98.052347
20
263.682601
30
0.0
10
98.321990
20
262.293452
30
0.0
10
98.416626
20
261.037330
30
0.0
10
98.318146
20
260.140565
30
0.0
10
98.043490
20
259.229392
30
0.0
10
97.090350
20
257.528998
30
0.0
10
95.806611
20
256.266503
30
0.0
10
95.118706
20
255.902703
30
0.0
10
94.441679
20
255.772260
30
0.0
10
93.696930
20
255.849122
30
0.0
10
92.984986
20
256.087817
30
0.0
10
92.293937
20
256.500503
30
0.0
10
91.611877
20
257.099341
30
0.0
10
90.227089
20
258.904113
30
0.0
10
88.735360
20
261.599412
30
0.0
10
87.268849
20
264.550175
30
0.0
10
80.495515
20
264.365861
30
0.0
10
74.836291
20
264.307414
30
0.0
10
71.464404
20
264.507373
30
0.0
10
67.871340
20
264.994796
30
0.0
10
66.536054
20
265.156394
30
0.0
10
64.801922
20
263.384160
30
0.0
10
63.417478
20
261.784848
30
0.0
10
62.463474
20
260.189869
30
0.0
10
61.851723
20
258.409093
30
0.0
10
61.494041
20
256.252393
30
0.0
10
61.250237
20
254.544695
30
0.0
10
60.830420
20
253.441567
30
0.0
10
60.013086
20
252.593691
30
0.0
10
58.576726
20
251.651750
30
0.0
10
57.394581
20
250.841992
30
0.0
10
56.293324
20
249.895729
30
0.0
10
55.268670
20
248.806826
30
0.0
10
54.316333
20
247.569145
30
0.0
10
52.611473
20
244.622903
30
0.0
10
51.144464
20
241.007908
30
0.0
10
49.536742
20
236.814075
30
0.0
10
48.879030
20
235.772827
30
0.0
10
48.076626
20
234.957868
30
0.0
10
47.019257
20
234.265050
30
0.0
10
45.624049
20
233.807165
30
0.0
10
43.753751
20
233.554341
30
0.0
10
41.271108
20
233.476704
30
0.0
10
38.992835
20
233.397545
30
0.0
10
37.631257
20
233.207227
30
0.0
10
37.070594
20
232.790215
30
0.0
10
36.660900
20
231.908279
30
0.0
10
36.343976
20
230.367354
30
0.0
10
36.061622
20
227.973371
30
0.0
10
35.631515
20
225.253210
30
0.0
10
34.665336
20
222.893371
30
0.0
10
33.409212
20
220.781163
30
0.0
10
31.955503
20
218.877219
30
0.0
10
30.341260
20
217.381298
30
0.0
10
28.178969
20
215.686375
30
0.0
10
26.153519
20
214.296893
30
0.0
10
24.949800
20
213.717296
30
0.0
10
24.051072
20
213.585036
30
0.0
10
23.044035
20
213.655675
30
0.0
10
21.415483
20
214.005832
30
0.0
10
21.415483
20
214.005832
30
0.0
62
0
0
LWPOLYLINE
100
AcDbPolyline
8
Layer_1
90
30
70
0
10
359.291523
20
229.645252
30
0.0
10
358.548930
20
230.416776
30
0.0
10
357.820042
20
231.441965
30
0.0
10
356.428361
20
234.193652
30
0.0
10
355.166448
20
237.780947
30
0.0
10
354.084269
20
242.084482
30
0.0
10
353.611717
20
245.274196
30
0.0
10
353.344632
20
249.049761
30
0.0
10
353.308724
20
252.774750
30
0.0
10
353.529702
20
255.812736
30
0.0
10
354.618775
20
261.314787
30
0.0
10
356.162645
20
266.844694
30
0.0
10
357.777202
20
271.200260
30
0.0
10
358.490952
20
272.561979
30
0.0
10
359.078332
20
273.179289
30
0.0
10
359.489930
20
273.282321
30
0.0
10
359.950814
20
273.141900
30
0.0
10
360.598318
20
272.581913
30
0.0
10
361.569773
20
271.426245
30
0.0
10
365.033866
20
266.623410
30
0.0
10
371.441754
20
257.324482
30
0.0
10
375.508746
20
251.397815
30
0.0
10
374.429443
20
249.375507
30
0.0
10
371.022024
20
243.586373
30
0.0
10
366.616855
20
236.755845
30
0.0
10
362.666283
20
231.061003
30
0.0
10
361.315328
20
229.319801
30
0.0
10
360.622652
20
228.678926
30
0.0
10
359.291523
20
229.645252
30
0.0
10
359.291523
20
229.645252
30
0.0
  0
ENDSEC
  0
SECTION
  2
OBJECTS
  0
DICTIONARY
  5
C
330
0
100
AcDbDictionary
  3
ACAD_GROUP
350
D
  3
ACAD_MLINESTYLE
350
17
  0
DICTIONARY
  5
D
330
C
100
AcDbDictionary
  0
DICTIONARY
  5
1A
330
C
100
AcDbDictionary
  0
DICTIONARY
  5
17
330
C
100
AcDbDictionary
  3
STANDARD
350
18
  0
DICTIONARY
  5
19
330
C
100
AcDbDictionary
  0
ENDSEC
  0
EOF
