999
Inkscape export via OpenSCAD DXF Export
  0
SECTION
  2
HEADER
  9
$ACADVER
  1
AC1014
  9
$HANDSEED
  5
FFFF
  9
$MEASUREMENT
 70
     1
  0
ENDSEC
  0
SECTION
  2
TABLES
  0
TABLE
  2
VPORT
  5
8
330
0
100
AcDbSymbolTable
 70
     4
  0
VPORT
  5
2E
330
8
100
AcDbSymbolTableRecord
100
AcDbViewportTableRecord
  2
*ACTIVE
 70
     0
 10
0.0
 20
0.0
 11
1.0
 21
1.0
 12
210.0
 22
148.5
 13
0.0
 23
0.0
 14
10.0
 24
10.0
 15
10.0
 25
10.0
 16
0.0
 26
0.0
 36
1.0
 17
0.0
 27
0.0
 37
0.0
 40
341.0
 41
1.24
 42
50.0
 43
0.0
 44
0.0
 50
0.0
 51
0.0
 71
     0
 72
   100
 73
     1
 74
     3
 75
     0
 76
     0
 77
     0
 78
     0
  0
ENDTAB
  0
TABLE
  2
LTYPE
  5
5
330
0
100
AcDbSymbolTable
 70
     1
  0
LTYPE
  5
14
330
5
100
AcDbSymbolTableRecord
100
AcDbLinetypeTableRecord
  2
BYBLOCK
 70
     0
  3

 72
    65
 73
     0
 40
0.0
  0
LTYPE
  5
15
330
5
100
AcDbSymbolTableRecord
100
AcDbLinetypeTableRecord
  2
BYLAYER
 70
     0
  3

 72
    65
 73
     0
 40
0.0
  0
LTYPE
  5
16
330
5
100
AcDbSymbolTableRecord
100
AcDbLinetypeTableRecord
  2
CONTINUOUS
 70
     0
  3
Solid line
 72
    65
 73
     0
 40
0.0
  0
ENDTAB
  0
TABLE
0
TABLE
2
LAYER
5
2
330
0
100
AcDbSymbolTable
70
1
0
LAYER
5
10
330
2
100
AcDbSymbolTableRecord
100
AcDbLayerTableRecord
2
Layer_1
70
0
62
7
6
CONTINUOUS
0
ENDTAB
0
ENDSEC
  0
ENDTAB
  0
TABLE
  2
STYLE
  5
3
330
0
100
AcDbSymbolTable
 70
     1
  0
STYLE
  5
11
330
3
100
AcDbSymbolTableRecord
100
AcDbTextStyleTableRecord
  2
STANDARD
 70
     0
 40
0.0
 41
1.0
 50
0.0
 71
     0
 42
2.5
  3
txt
  4

  0
ENDTAB
  0
TABLE
  2
VIEW
  5
6
330
0
100
AcDbSymbolTable
 70
     0
  0
ENDTAB
  0
TABLE
  2
UCS
  5
7
330
0
100
AcDbSymbolTable
 70
     0
  0
ENDTAB
  0
TABLE
  2
APPID
  5
9
330
0
100
AcDbSymbolTable
 70
     2
  0
APPID
  5
12
330
9
100
AcDbSymbolTableRecord
100
AcDbRegAppTableRecord
  2
ACAD
 70
     0
  0
ENDTAB
  0
TABLE
  2
DIMSTYLE
  5
A
330
0
100
AcDbSymbolTable
 70
     1
  0
DIMSTYLE
105
27
330
A
100
AcDbSymbolTableRecord
100
AcDbDimStyleTableRecord
  2
ISO-25
 70
     0
  3

  4

  5

  6

  7

 40
1.0
 41
2.5
 42
0.625
 43
3.75
 44
1.25
 45
0.0
 46
0.0
 47
0.0
 48
0.0
140
2.5
141
2.5
142
0.0
143
0.03937007874016
144
1.0
145
0.0
146
1.0
147
0.625
 71
     0
 72
     0
 73
     0
 74
     0
 75
     0
 76
     0
 77
     1
 78
     8
170
     0
171
     3
172
     1
173
     0
174
     0
175
     0
176
     0
177
     0
178
     0
270
     2
271
     2
272
     2
273
     2
274
     3
340
11
275
     0
280
     0
281
     0
282
     0
283
     0
284
     8
285
     0
286
     0
287
     3
288
     0
  0
ENDTAB
  0
TABLE
  2
BLOCK_RECORD
  5
1
330
0
100
AcDbSymbolTable
 70
     1
  0
BLOCK_RECORD
  5
1F
330
1
100
AcDbSymbolTableRecord
100
AcDbBlockTableRecord
  2
*MODEL_SPACE
  0
BLOCK_RECORD
  5
1B
330
1
100
AcDbSymbolTableRecord
100
AcDbBlockTableRecord
  2
*PAPER_SPACE
  0
ENDTAB
  0
ENDSEC
  0
SECTION
  2
BLOCKS
  0
BLOCK
  5
20
330
1F
100
AcDbEntity
  8
0
100
AcDbBlockBegin
  2
*MODEL_SPACE
 70
     0
 10
0.0
 20
0.0
 30
0.0
  3
*MODEL_SPACE
  1

  0
ENDBLK
  5
21
330
1F
100
AcDbEntity
  8
0
100
AcDbBlockEnd
  0
BLOCK
  5
1C
330
1B
100
AcDbEntity
 67
     1
  8
0
100
AcDbBlockBegin
  2
*PAPER_SPACE
  1

  0
ENDBLK
  5
1D
330
1B
100
AcDbEntity
 67
     1
  8
0
100
AcDbBlockEnd
  0
ENDSEC
  0
SECTION
  2
ENTITIES
0
DIMENSION
5
83
100
AcDbEntity
62
256
370
-1
6
ByLayer
1
total_width
3
Standard
70
0
71
5
72
1
41
1.0
100
AcDbAlignedDimension
13
6.959009
23
0.000000
33
0.0
14
1017.022324
24
0.000000
34
0.0
50
0.000000
100
AcDbRotatedDimension
0
DIMENSION
5
83
100
AcDbEntity
62
256
370
-1
6
ByLayer
1
total_height
3
Standard
70
0
71
5
72
1
41
1.0
100
AcDbAlignedDimension
13
0.000000
23
-10.743579
33
0.0
14
0.000000
24
1089.348279
34
0.0
50
90.000000
100
AcDbRotatedDimension
0
DIMENSION
8
Layer_1
5
83
100
AcDbEntity
62
256
370
-1
6
ByLayer
1
Layer_1_width
3
Standard
70
0
71
5
72
1
41
1.0
100
AcDbAlignedDimension
13
6.959009
23
0.000000
33
0.0
14
1017.022324
24
0.000000
34
0.0
50
0.000000
100
AcDbRotatedDimension
0
DIMENSION
8
Layer_1
5
83
100
AcDbEntity
62
256
370
-1
6
ByLayer
1
Layer_1_height
3
Standard
70
0
71
5
72
1
41
1.0
100
AcDbAlignedDimension
13
0.000000
23
-10.743579
33
0.0
14
0.000000
24
1089.348279
34
0.0
50
90.000000
100
AcDbRotatedDimension
62
0
0
LWPOLYLINE
100
AcDbPolyline
8
Layer_1
90
442
70
0
10
14.431360
20
-10.503577
30
0.0
10
20.767249
20
-6.075708
30
0.0
10
35.541881
20
4.365256
30
0.0
10
48.872853
20
14.265949
30
0.0
10
60.120386
20
23.137725
30
0.0
10
64.762930
20
27.035067
30
0.0
10
68.644697
20
30.491938
30
0.0
10
75.156345
20
36.923547
30
0.0
10
85.516400
20
47.673288
30
0.0
10
99.094518
20
62.078767
30
0.0
10
115.260357
20
79.477588
30
0.0
10
117.611233
20
81.847327
30
0.0
10
119.041909
20
82.933286
30
0.0
10
120.857851
20
83.239517
30
0.0
10
122.900176
20
83.005119
30
0.0
10
125.081132
20
82.250645
30
0.0
10
127.312968
20
80.996649
30
0.0
10
128.760389
20
79.873785
30
0.0
10
130.545108
20
78.250594
30
0.0
10
134.741377
20
73.924340
30
0.0
10
139.131655
20
68.860104
30
0.0
10
142.945821
20
63.900106
30
0.0
10
144.860924
20
61.227010
30
0.0
10
146.022946
20
61.665499
30
0.0
10
178.388360
20
79.430090
30
0.0
10
193.205027
20
87.544543
30
0.0
10
213.807249
20
98.826405
30
0.0
10
231.798916
20
108.686261
30
0.0
10
233.835205
20
109.996732
30
0.0
10
230.341718
20
112.513533
30
0.0
10
222.509790
20
117.873676
30
0.0
10
214.545448
20
123.582830
30
0.0
10
206.522058
20
129.582786
30
0.0
10
198.512988
20
135.815331
30
0.0
10
190.591605
20
142.222255
30
0.0
10
182.831275
20
148.745347
30
0.0
10
175.305368
20
155.326397
30
0.0
10
168.087249
20
161.907192
30
0.0
10
156.679682
20
172.981426
30
0.0
10
145.269893
20
184.554199
30
0.0
10
135.234280
20
195.442984
30
0.0
10
125.521830
20
206.639911
30
0.0
10
116.066068
20
218.223982
30
0.0
10
106.800520
20
230.274199
30
0.0
10
97.363893
20
243.348102
30
0.0
10
88.362265
20
256.710222
30
0.0
10
79.801304
20
270.346575
30
0.0
10
71.686675
20
284.243178
30
0.0
10
64.024046
20
298.386047
30
0.0
10
56.819084
20
312.761200
30
0.0
10
50.077455
20
327.354652
30
0.0
10
43.804826
20
342.152422
30
0.0
10
38.006864
20
357.140524
30
0.0
10
32.689236
20
372.304977
30
0.0
10
27.857608
20
387.631796
30
0.0
10
23.517646
20
403.106998
30
0.0
10
19.675019
20
418.716601
30
0.0
10
16.335392
20
434.446621
30
0.0
10
13.504433
20
450.283073
30
0.0
10
11.187807
20
466.211976
30
0.0
10
9.634908
20
479.645135
30
0.0
10
8.437345
20
493.066864
30
0.0
10
7.593352
20
506.471246
30
0.0
10
7.101162
20
519.852358
30
0.0
10
6.959009
20
533.204282
30
0.0
10
7.165127
20
546.521097
30
0.0
10
7.717750
20
559.796884
30
0.0
10
8.615111
20
573.025721
30
0.0
10
9.855445
20
586.201689
30
0.0
10
11.436985
20
599.318868
30
0.0
10
13.357965
20
612.371338
30
0.0
10
15.616619
20
625.353178
30
0.0
10
18.211181
20
638.258469
30
0.0
10
21.139884
20
651.081290
30
0.0
10
24.400962
20
663.815722
30
0.0
10
27.992649
20
676.455844
30
0.0
10
31.913178
20
688.995736
30
0.0
10
36.160785
20
701.429478
30
0.0
10
40.733701
20
713.751149
30
0.0
10
45.630162
20
725.954831
30
0.0
10
50.848401
20
738.034602
30
0.0
10
56.386652
20
749.984543
30
0.0
10
62.243148
20
761.798734
30
0.0
10
68.416123
20
773.471254
30
0.0
10
74.903812
20
784.996183
30
0.0
10
81.704448
20
796.367601
30
0.0
10
88.816264
20
807.579589
30
0.0
10
96.237495
20
818.626225
30
0.0
10
103.966374
20
829.501591
30
0.0
10
112.001135
20
840.199765
30
0.0
10
120.340013
20
850.714828
30
0.0
10
128.981240
20
861.040860
30
0.0
10
135.186446
20
868.137327
30
0.0
10
141.221856
20
874.753692
30
0.0
10
147.667904
20
881.511926
30
0.0
10
155.105027
20
889.034002
30
0.0
10
164.215216
20
897.971260
30
0.0
10
172.609225
20
905.844830
30
0.0
10
180.929469
20
913.241631
30
0.0
10
189.818360
20
920.748583
30
0.0
10
199.200024
20
928.342679
30
0.0
10
208.492554
20
935.534724
30
0.0
10
217.806864
20
942.400380
30
0.0
10
227.253873
20
949.015308
30
0.0
10
236.944497
20
955.455171
30
0.0
10
246.989652
20
961.795630
30
0.0
10
257.500254
20
968.112347
30
0.0
10
268.587220
20
974.480985
30
0.0
10
270.232473
20
975.553444
30
0.0
10
271.175226
20
976.437011
30
0.0
10
285.385905
20
996.930860
30
0.0
10
298.156577
20
1014.446498
30
0.0
10
309.751458
20
1029.518883
30
0.0
10
315.057071
20
1036.074799
30
0.0
10
320.007649
20
1041.943033
30
0.0
10
324.582828
20
1047.097962
30
0.0
10
328.762247
20
1051.513964
30
0.0
10
336.874984
20
1059.183392
30
0.0
10
348.001227
20
1069.071580
30
0.0
10
359.024668
20
1078.465641
30
0.0
10
363.523993
20
1082.129599
30
0.0
10
366.829001
20
1084.652694
30
0.0
10
369.842724
20
1086.499470
30
0.0
10
373.100762
20
1087.991129
30
0.0
10
376.242479
20
1088.987466
30
0.0
10
377.657018
20
1089.256075
30
0.0
10
378.907238
20
1089.348279
30
0.0
10
380.129805
20
1089.203409
30
0.0
10
381.309397
20
1088.808931
30
0.0
10
382.325788
20
1088.218693
30
0.0
10
383.058755
20
1087.486543
30
0.0
10
383.708538
20
1086.350803
30
0.0
10
384.085391
20
1085.062639
30
0.0
10
384.232008
20
1083.379701
30
0.0
10
384.191087
20
1081.059638
30
0.0
10
383.802939
20
1077.243963
30
0.0
10
382.601357
20
1072.046929
30
0.0
10
381.299447
20
1066.427244
30
0.0
10
380.705177
20
1062.343466
30
0.0
10
380.667997
20
1060.802932
30
0.0
10
380.801235
20
1059.556844
30
0.0
10
381.102729
20
1058.575358
30
0.0
10
381.570315
20
1057.828630
30
0.0
10
382.111222
20
1057.383164
30
0.0
10
382.772386
20
1057.156981
30
0.0
10
383.546129
20
1057.147509
30
0.0
10
384.424770
20
1057.352179
30
0.0
10
386.466034
20
1058.393657
30
0.0
10
388.834743
20
1060.260849
30
0.0
10
390.570410
20
1061.831529
30
0.0
10
390.393456
20
1059.578972
30
0.0
10
388.508572
20
1036.874138
30
0.0
10
387.878745
20
1032.412894
30
0.0
10
386.966968
20
1028.031015
30
0.0
10
385.992596
20
1023.182430
30
0.0
10
385.710204
20
1021.114933
30
0.0
10
392.221156
20
1022.575151
30
0.0
10
402.276382
20
1024.928804
30
0.0
10
412.415643
20
1027.072629
30
0.0
10
422.631143
20
1029.006060
30
0.0
10
432.915088
20
1030.728525
30
0.0
10
443.259684
20
1032.239457
30
0.0
10
453.657136
20
1033.538287
30
0.0
10
464.099649
20
1034.624445
30
0.0
10
474.579428
20
1035.497362
30
0.0
10
485.088679
20
1036.156471
30
0.0
10
495.619608
20
1036.601200
30
0.0
10
506.164419
20
1036.830982
30
0.0
10
516.715319
20
1036.845248
30
0.0
10
527.264511
20
1036.643429
30
0.0
10
537.804203
20
1036.224955
30
0.0
10
548.326599
20
1035.589258
30
0.0
10
558.823904
20
1034.735768
30
0.0
10
568.632222
20
1033.738637
30
0.0
10
578.402037
20
1032.552673
30
0.0
10
588.131072
20
1031.178844
30
0.0
10
597.817052
20
1029.618121
30
0.0
10
607.457699
20
1027.871473
30
0.0
10
617.050736
20
1025.939871
30
0.0
10
626.593887
20
1023.824284
30
0.0
10
636.084875
20
1021.525683
30
0.0
10
645.521424
20
1019.045036
30
0.0
10
654.901257
20
1016.383315
30
0.0
10
664.222097
20
1013.541488
30
0.0
10
673.481668
20
1010.520526
30
0.0
10
682.677693
20
1007.321398
30
0.0
10
691.807895
20
1003.945075
30
0.0
10
700.869997
20
1000.392526
30
0.0
10
709.861723
20
996.664721
30
0.0
10
718.780797
20
992.762629
30
0.0
10
727.624941
20
988.687222
30
0.0
10
736.391879
20
984.439468
30
0.0
10
745.079334
20
980.020338
30
0.0
10
753.685030
20
975.430801
30
0.0
10
762.206690
20
970.671827
30
0.0
10
770.642037
20
965.744387
30
0.0
10
778.988794
20
960.649449
30
0.0
10
787.244686
20
955.387984
30
0.0
10
795.407434
20
949.960962
30
0.0
10
803.474764
20
944.369352
30
0.0
10
811.444397
20
938.614124
30
0.0
10
819.314057
20
932.696249
30
0.0
10
827.081468
20
926.616696
30
0.0
10
834.744353
20
920.376435
30
0.0
10
842.300435
20
913.976435
30
0.0
10
848.833284
20
908.227108
30
0.0
10
855.347281
20
902.283330
30
0.0
10
861.809951
20
896.177391
30
0.0
10
868.188820
20
889.941576
30
0.0
10
874.451416
20
883.608173
30
0.0
10
880.565265
20
877.209471
30
0.0
10
886.497893
20
870.777756
30
0.0
10
892.216825
20
864.345315
30
0.0
10
896.596209
20
859.324187
30
0.0
10
897.607834
20
860.275078
30
0.0
10
920.915015
20
882.476258
30
0.0
10
925.775588
20
887.125644
30
0.0
10
927.813938
20
889.058471
30
0.0
10
928.119697
20
888.243554
30
0.0
10
928.976384
20
886.580334
30
0.0
10
930.114952
20
885.298855
30
0.0
10
931.446835
20
884.474607
30
0.0
10
932.883467
20
884.183082
30
0.0
10
933.802564
20
884.272826
30
0.0
10
934.731919
20
884.555031
30
0.0
10
935.695878
20
885.049157
30
0.0
10
936.718789
20
885.774667
30
0.0
10
939.038855
20
887.997678
30
0.0
10
941.886892
20
891.379749
30
0.0
10
944.558920
20
894.566003
30
0.0
10
947.156194
20
897.297838
30
0.0
10
949.631956
20
899.544298
30
0.0
10
951.939450
20
901.274428
30
0.0
10
954.031917
20
902.457271
30
0.0
10
955.862599
20
903.061871
30
0.0
10
956.665159
20
903.137657
30
0.0
10
957.384739
20
903.057273
30
0.0
10
958.015493
20
902.816851
30
0.0
10
958.551578
20
902.412521
30
0.0
10
958.972835
20
901.924488
30
0.0
10
959.193782
20
901.316225
30
0.0
10
959.284509
20
898.357157
30
0.0
10
959.112844
20
895.060043
30
0.0
10
958.381511
20
891.803082
30
0.0
10
956.408334
20
885.578116
30
0.0
10
953.706423
20
878.578396
30
0.0
10
950.324979
20
870.901116
30
0.0
10
946.313202
20
862.643470
30
0.0
10
941.720291
20
853.902651
30
0.0
10
936.595447
20
844.775853
30
0.0
10
930.987869
20
835.360271
30
0.0
10
924.946757
20
825.753097
30
0.0
10
924.178735
20
824.373641
30
0.0
10
924.150860
20
824.000255
30
0.0
10
924.312096
20
823.679921
30
0.0
10
924.547862
20
823.414504
30
0.0
10
924.807826
20
823.361451
30
0.0
10
925.904817
20
823.990930
30
0.0
10
928.322106
20
825.452026
30
0.0
10
931.026681
20
826.846848
30
0.0
10
933.425245
20
827.891749
30
0.0
10
934.924498
20
828.303082
30
0.0
10
935.264892
20
828.191286
30
0.0
10
935.167781
20
827.793294
30
0.0
10
933.441759
20
825.763088
30
0.0
10
932.054492
20
824.112723
30
0.0
10
930.766942
20
822.324520
30
0.0
10
929.655007
20
820.805427
30
0.0
10
928.689927
20
819.802018
30
0.0
10
927.829460
20
818.950836
30
0.0
10
932.195720
20
812.210607
30
0.0
10
939.721280
20
800.622148
30
0.0
10
946.916597
20
788.845874
30
0.0
10
953.778761
20
776.889275
30
0.0
10
960.304863
20
764.759842
30
0.0
10
966.491992
20
752.465065
30
0.0
10
972.337239
20
740.012433
30
0.0
10
977.837695
20
727.409438
30
0.0
10
982.990449
20
714.663569
30
0.0
10
987.792593
20
701.782316
30
0.0
10
992.241217
20
688.773170
30
0.0
10
996.333411
20
675.643620
30
0.0
10
1000.066266
20
662.401157
30
0.0
10
1003.436872
20
649.053271
30
0.0
10
1006.442319
20
635.607452
30
0.0
10
1009.079698
20
622.071191
30
0.0
10
1011.346099
20
608.451976
30
0.0
10
1013.274316
20
594.483945
30
0.0
10
1014.805576
20
580.460940
30
0.0
10
1015.958561
20
566.186015
30
0.0
10
1016.751953
20
551.462222
30
0.0
10
1017.022324
20
537.747640
30
0.0
10
1016.889885
20
521.714712
30
0.0
10
1016.399302
20
505.663534
30
0.0
10
1015.595237
20
491.894199
30
0.0
10
1014.250096
20
477.562907
30
0.0
10
1012.507764
20
463.310350
30
0.0
10
1010.370479
20
449.143637
30
0.0
10
1007.840478
20
435.069879
30
0.0
10
1004.920000
20
421.096188
30
0.0
10
1001.611282
20
407.229675
30
0.0
10
997.916561
20
393.477450
30
0.0
10
993.838077
20
379.846625
30
0.0
10
989.378065
20
366.344310
30
0.0
10
984.538765
20
352.977616
30
0.0
10
979.322415
20
339.753655
30
0.0
10
973.731251
20
326.679538
30
0.0
10
967.767511
20
313.762374
30
0.0
10
961.433434
20
301.009276
30
0.0
10
954.731258
20
288.427354
30
0.0
10
947.663219
20
276.023719
30
0.0
10
941.263686
20
265.451369
30
0.0
10
934.619330
20
255.052455
30
0.0
10
927.733113
20
244.830313
30
0.0
10
920.607999
20
234.788277
30
0.0
10
913.246950
20
224.929685
30
0.0
10
905.652930
20
215.257871
30
0.0
10
897.828901
20
205.776171
30
0.0
10
889.777826
20
196.487919
30
0.0
10
881.502668
20
187.396453
30
0.0
10
873.006390
20
178.505107
30
0.0
10
864.291955
20
169.817218
30
0.0
10
855.362326
20
161.336119
30
0.0
10
846.220465
20
153.065148
30
0.0
10
836.869337
20
145.007639
30
0.0
10
827.311903
20
137.166927
30
0.0
10
817.551126
20
129.546350
30
0.0
10
814.312185
20
127.001489
30
0.0
10
812.965015
20
125.787037
30
0.0
10
820.094393
20
114.924343
30
0.0
10
830.743661
20
99.323088
30
0.0
10
838.411548
20
88.661712
30
0.0
10
844.767431
20
80.297616
30
0.0
10
850.047296
20
73.932061
30
0.0
10
854.487129
20
69.266308
30
0.0
10
861.930571
20
62.310123
30
0.0
10
867.409075
20
57.075104
30
0.0
10
873.599073
20
50.916805
30
0.0
10
879.267964
20
45.081795
30
0.0
10
883.183146
20
40.816643
30
0.0
10
887.126986
20
35.950677
30
0.0
10
888.415375
20
34.184373
30
0.0
10
888.826716
20
33.415139
30
0.0
10
884.670940
20
35.675471
30
0.0
10
876.182793
20
40.748430
30
0.0
10
866.417092
20
46.960080
30
0.0
10
856.896407
20
53.415844
30
0.0
10
848.305305
20
59.636588
30
0.0
10
841.328349
20
65.143182
30
0.0
10
837.461904
20
68.683138
30
0.0
10
831.732793
20
74.198706
30
0.0
10
827.176536
20
78.578370
30
0.0
10
823.307363
20
82.104861
30
0.0
10
820.158200
20
84.749227
30
0.0
10
817.761975
20
86.482513
30
0.0
10
813.562339
20
88.799585
30
0.0
10
811.696468
20
89.853737
30
0.0
10
809.806314
20
91.164615
30
0.0
10
803.591399
20
96.343414
30
0.0
10
797.660665
20
101.587783
30
0.0
10
793.026664
20
105.896946
30
0.0
10
789.316063
20
109.540125
30
0.0
10
786.958887
20
108.004892
30
0.0
10
776.094352
20
101.129650
30
0.0
10
765.047752
20
94.535811
30
0.0
10
753.828080
20
88.226879
30
0.0
10
742.444330
20
82.206359
30
0.0
10
730.905495
20
76.477753
30
0.0
10
719.220569
20
71.044565
30
0.0
10
707.398545
20
65.910299
30
0.0
10
695.448416
20
61.078459
30
0.0
10
683.379175
20
56.552549
30
0.0
10
671.199817
20
52.336071
30
0.0
10
658.919333
20
48.432531
30
0.0
10
646.546718
20
44.845431
30
0.0
10
634.090965
20
41.578275
30
0.0
10
621.561068
20
38.634567
30
0.0
10
608.966019
20
36.017811
30
0.0
10
596.314812
20
33.731510
30
0.0
10
585.709252
20
32.063708
30
0.0
10
575.244938
20
30.634546
30
0.0
10
564.861715
20
29.439072
30
0.0
10
554.499427
20
28.472331
30
0.0
10
544.097917
20
27.729371
30
0.0
10
533.597029
20
27.205238
30
0.0
10
522.936606
20
26.894980
30
0.0
10
512.056493
20
26.793642
30
0.0
10
499.210105
20
26.942109
30
0.0
10
486.572434
20
27.387083
30
0.0
10
474.098097
20
28.133004
30
0.0
10
461.741711
20
29.184311
30
0.0
10
449.457891
20
30.545441
30
0.0
10
437.201256
20
32.220836
30
0.0
10
424.926422
20
34.214933
30
0.0
10
412.588004
20
36.532171
30
0.0
10
400.273444
20
39.150237
30
0.0
10
388.158481
20
42.035995
30
0.0
10
376.189847
20
45.205745
30
0.0
10
364.314274
20
48.675791
30
0.0
10
352.478495
20
52.462435
30
0.0
10
340.629241
20
56.581978
30
0.0
10
328.713244
20
61.050725
30
0.0
10
316.677238
20
65.884975
30
0.0
10
308.347555
20
69.453273
30
0.0
10
299.784897
20
73.341750
30
0.0
10
291.080125
20
77.503820
30
0.0
10
282.324102
20
81.892895
30
0.0
10
273.607693
20
86.462386
30
0.0
10
265.021758
20
91.165706
30
0.0
10
256.657163
20
95.956268
30
0.0
10
248.604769
20
100.787482
30
0.0
10
245.443400
20
102.731090
30
0.0
10
231.953658
20
95.349653
30
0.0
10
215.782804
20
86.477094
30
0.0
10
174.578360
20
63.904283
30
0.0
10
156.616976
20
54.067400
30
0.0
10
150.085563
20
50.481032
30
0.0
10
150.489621
20
49.149282
30
0.0
10
151.683581
20
44.837887
30
0.0
10
152.696874
20
40.417955
30
0.0
10
153.482995
20
36.114915
30
0.0
10
153.995442
20
32.154199
30
0.0
10
154.271880
20
28.313096
30
0.0
10
154.193869
20
25.551627
30
0.0
10
153.714363
20
23.460259
30
0.0
10
152.786317
20
21.629455
30
0.0
10
151.787128
20
20.299940
30
0.0
10
150.444978
20
19.202337
30
0.0
10
148.437657
20
18.260791
30
0.0
10
145.442955
20
17.399448
30
0.0
10
141.138662
20
16.542453
30
0.0
10
135.202568
20
15.613953
30
0.0
10
117.146138
20
13.239016
30
0.0
10
96.532147
20
10.491368
30
0.0
10
91.842237
20
9.647952
30
0.0
10
89.065027
20
8.873321
30
0.0
10
82.818034
20
6.974757
30
0.0
10
71.055746
20
3.770940
30
0.0
10
30.527312
20
-6.674076
30
0.0
10
14.313645
20
-10.743579
30
0.0
10
14.431360
20
-10.503577
30
0.0
10
14.431360
20
-10.503577
30
0.0
62
0
0
LWPOLYLINE
100
AcDbPolyline
8
Layer_1
90
69
70
0
10
533.541845
20
96.648637
30
0.0
10
533.986983
20
98.708563
30
0.0
10
534.672512
20
103.274199
30
0.0
10
536.750565
20
119.875854
30
0.0
10
538.541177
20
136.679477
30
0.0
10
540.033250
20
153.505915
30
0.0
10
541.215689
20
170.176017
30
0.0
10
542.077400
20
186.510632
30
0.0
10
542.607285
20
202.330607
30
0.0
10
542.794250
20
217.456791
30
0.0
10
542.627199
20
231.710032
30
0.0
10
542.036141
20
249.324199
30
0.0
10
541.313666
20
260.717510
30
0.0
10
541.046343
20
263.505336
30
0.0
10
540.836132
20
264.423088
30
0.0
10
533.546798
20
260.555835
30
0.0
10
511.833904
20
248.688070
30
0.0
10
472.040571
20
226.883750
30
0.0
10
435.210571
20
206.702519
30
0.0
10
423.639460
20
200.355652
30
0.0
10
410.375015
20
193.082898
30
0.0
10
406.494460
20
190.979608
30
0.0
10
405.436126
20
190.286555
30
0.0
10
408.789632
20
184.882254
30
0.0
10
416.834905
20
171.954308
30
0.0
10
425.275079
20
157.822455
30
0.0
10
434.103407
20
142.498210
30
0.0
10
443.313143
20
125.993088
30
0.0
10
445.687619
20
121.500956
30
0.0
10
446.975794
20
118.984353
30
0.0
10
444.338738
20
121.241397
30
0.0
10
431.847537
20
131.792585
30
0.0
10
424.738320
20
137.628263
30
0.0
10
429.422786
20
124.579747
30
0.0
10
434.132200
20
111.556207
30
0.0
10
430.264965
20
115.920181
30
0.0
10
401.686751
20
148.595045
30
0.0
10
386.921242
20
165.267039
30
0.0
10
378.482437
20
174.629036
30
0.0
10
377.860306
20
175.287206
30
0.0
10
370.552105
20
171.279030
30
0.0
10
361.550571
20
166.344628
30
0.0
10
325.637793
20
146.671848
30
0.0
10
317.382793
20
141.971070
30
0.0
10
318.300015
20
141.388225
30
0.0
10
324.579460
20
138.385409
30
0.0
10
337.019399
20
132.672801
30
0.0
10
350.261682
20
127.126182
30
0.0
10
358.955367
20
123.765039
30
0.0
10
367.659985
20
120.602468
30
0.0
10
376.382080
20
117.637071
30
0.0
10
385.128191
20
114.867455
30
0.0
10
393.904863
20
112.292223
30
0.0
10
402.718635
20
109.909981
30
0.0
10
411.576051
20
107.719332
30
0.0
10
420.483651
20
105.718882
30
0.0
10
429.447978
20
103.907234
30
0.0
10
438.475573
20
102.282995
30
0.0
10
447.572979
20
100.844767
30
0.0
10
456.746737
20
99.591157
30
0.0
10
466.003389
20
98.520768
30
0.0
10
475.349477
20
97.632205
30
0.0
10
484.791542
20
96.924073
30
0.0
10
494.336126
20
96.394976
30
0.0
10
502.519972
20
96.301804
30
0.0
10
515.703301
20
96.338365
30
0.0
10
528.004473
20
96.466647
30
0.0
10
533.541845
20
96.648637
30
0.0
10
533.541845
20
96.648637
30
0.0
62
0
0
LWPOLYLINE
100
AcDbPolyline
8
Layer_1
90
118
70
0
10
556.645205
20
98.352074
30
0.0
10
572.673914
20
100.284032
30
0.0
10
588.580611
20
102.799170
30
0.0
10
604.352536
20
105.894238
30
0.0
10
619.976927
20
109.565987
30
0.0
10
635.441020
20
113.811166
30
0.0
10
650.732056
20
118.626524
30
0.0
10
665.837271
20
124.008813
30
0.0
10
680.743904
20
129.954782
30
0.0
10
694.075221
20
135.813906
30
0.0
10
707.837238
20
142.513812
30
0.0
10
719.249143
20
148.467941
30
0.0
10
729.781610
20
154.292416
30
0.0
10
737.436723
20
158.847088
30
0.0
10
739.560922
20
160.291949
30
0.0
10
740.087922
20
160.743910
30
0.0
10
740.216565
20
160.991804
30
0.0
10
736.623001
20
164.846564
30
0.0
10
733.235403
20
168.345245
30
0.0
10
730.696334
20
169.009540
30
0.0
10
727.381220
20
169.975527
30
0.0
10
723.857480
20
171.173549
30
0.0
10
720.421935
20
172.496095
30
0.0
10
717.371410
20
173.835653
30
0.0
10
714.469242
20
175.309641
30
0.0
10
711.831232
20
176.882304
30
0.0
10
709.332779
20
178.668272
30
0.0
10
706.849280
20
180.782175
30
0.0
10
704.256134
20
183.338643
30
0.0
10
701.428739
20
186.452305
30
0.0
10
694.572793
20
194.809731
30
0.0
10
691.375744
20
198.746597
30
0.0
10
689.633904
20
200.687488
30
0.0
10
688.417593
20
201.291791
30
0.0
10
686.324171
20
201.910724
30
0.0
10
678.909460
20
203.340039
30
0.0
10
671.923782
20
204.630754
30
0.0
10
670.508847
20
205.541524
30
0.0
10
668.396005
20
207.327302
30
0.0
10
664.913795
20
210.297628
30
0.0
10
663.662608
20
211.111847
30
0.0
10
662.569019
20
211.602772
30
0.0
10
660.944722
20
211.897261
30
0.0
10
659.307860
20
211.622287
30
0.0
10
657.536362
20
210.736274
30
0.0
10
655.508158
20
209.197646
30
0.0
10
653.856646
20
207.895438
30
0.0
10
652.453628
20
207.094762
30
0.0
10
651.055145
20
206.690701
30
0.0
10
649.417238
20
206.578341
30
0.0
10
648.283841
20
206.620982
30
0.0
10
647.275968
20
206.797592
30
0.0
10
644.511171
20
207.844842
30
0.0
10
642.032021
20
208.854205
30
0.0
10
640.401585
20
209.282940
30
0.0
10
639.211660
20
209.177905
30
0.0
10
638.054040
20
208.585957
30
0.0
10
636.614894
20
207.772025
30
0.0
10
635.132129
20
207.211799
30
0.0
10
633.340427
20
206.828861
30
0.0
10
630.974467
20
206.546789
30
0.0
10
626.115902
20
205.866587
30
0.0
10
624.375678
20
205.417064
30
0.0
10
623.051699
20
204.885544
30
0.0
10
621.367464
20
203.763206
30
0.0
10
618.855252
20
201.849002
30
0.0
10
615.516128
20
199.346058
30
0.0
10
612.660573
20
197.588625
30
0.0
10
610.123280
20
196.489126
30
0.0
10
607.738942
20
195.959984
30
0.0
10
606.405740
20
195.662941
30
0.0
10
605.397983
20
194.945628
30
0.0
10
604.452884
20
193.519623
30
0.0
10
603.307658
20
191.096505
30
0.0
10
601.005910
20
186.513837
30
0.0
10
599.439244
20
184.555653
30
0.0
10
597.432451
20
182.797778
30
0.0
10
595.133553
20
181.350402
30
0.0
10
592.690571
20
180.323716
30
0.0
10
590.187119
20
179.410965
30
0.0
10
587.934303
20
178.332029
30
0.0
10
585.924588
20
177.079985
30
0.0
10
584.150442
20
175.647907
30
0.0
10
582.604329
20
174.028873
30
0.0
10
581.278716
20
172.215956
30
0.0
10
580.166069
20
170.202235
30
0.0
10
579.258853
20
167.980783
30
0.0
10
577.853584
20
163.152864
30
0.0
10
576.782388
20
159.702464
30
0.0
10
576.181364
20
158.361586
30
0.0
10
575.475583
20
157.189170
30
0.0
10
574.619193
20
156.119402
30
0.0
10
573.566338
20
155.086467
30
0.0
10
570.687821
20
152.867840
30
0.0
10
568.262677
20
151.061362
30
0.0
10
566.421259
20
149.464384
30
0.0
10
565.160555
20
148.073999
30
0.0
10
564.477549
20
146.887297
30
0.0
10
564.010796
20
144.304822
30
0.0
10
563.470552
20
139.694835
30
0.0
10
562.702101
20
133.140697
30
0.0
10
561.812419
20
128.100864
30
0.0
10
560.759404
20
124.385620
30
0.0
10
560.158490
20
122.965433
30
0.0
10
559.500955
20
121.805248
30
0.0
10
558.146081
20
120.312138
30
0.0
10
555.854644
20
118.509994
30
0.0
10
553.521503
20
116.690722
30
0.0
10
551.787314
20
115.064342
30
0.0
10
550.440656
20
113.179973
30
0.0
10
549.059439
20
110.608681
30
0.0
10
547.729910
20
107.530226
30
0.0
10
546.538319
20
104.124365
30
0.0
10
544.677205
20
98.792199
30
0.0
10
544.002468
20
97.266506
30
0.0
10
546.897645
20
97.460139
30
0.0
10
556.645205
20
98.352074
30
0.0
10
556.645205
20
98.352074
30
0.0
62
0
0
LWPOLYLINE
100
AcDbPolyline
8
Layer_1
90
236
70
0
10
305.609950
20
149.105902
30
0.0
10
361.409460
20
179.691312
30
0.0
10
369.243441
20
184.061410
30
0.0
10
369.383809
20
184.161016
30
0.0
10
369.416379
20
184.310807
30
0.0
10
368.664730
20
185.334166
30
0.0
10
360.440534
20
194.288495
30
0.0
10
344.195535
20
211.530721
30
0.0
10
330.214404
20
225.742902
30
0.0
10
324.168901
20
231.617749
30
0.0
10
318.804700
20
236.621111
30
0.0
10
314.160245
20
240.714999
30
0.0
10
310.273982
20
243.861421
30
0.0
10
302.610943
20
249.023773
30
0.0
10
292.406126
20
255.527895
30
0.0
10
269.534100
20
270.357923
30
0.0
10
259.920180
20
276.808405
30
0.0
10
251.355143
20
282.732632
30
0.0
10
243.714605
20
288.218178
30
0.0
10
236.874181
20
293.352618
30
0.0
10
230.709487
20
298.223528
30
0.0
10
225.096138
20
302.918481
30
0.0
10
221.658126
20
306.044144
30
0.0
10
217.885138
20
309.721151
30
0.0
10
214.439984
20
313.284642
30
0.0
10
211.985476
20
316.069754
30
0.0
10
209.058468
20
320.022552
30
0.0
10
206.072116
20
324.627352
30
0.0
10
203.037217
20
329.862681
30
0.0
10
199.964570
20
335.707062
30
0.0
10
196.864971
20
342.139021
30
0.0
10
193.749217
20
349.137082
30
0.0
10
190.628106
20
356.679769
30
0.0
10
187.512435
20
364.745609
30
0.0
10
183.534231
20
376.066805
30
0.0
10
181.176208
20
383.439444
30
0.0
10
184.206484
20
382.847878
30
0.0
10
187.205631
20
382.225183
30
0.0
10
186.305963
20
384.258594
30
0.0
10
185.005352
20
387.413823
30
0.0
10
184.248405
20
390.666280
30
0.0
10
183.981566
20
394.380383
30
0.0
10
184.151281
20
398.920547
30
0.0
10
184.596261
20
405.215880
30
0.0
10
184.827345
20
407.128359
30
0.0
10
187.926258
20
403.615680
30
0.0
10
190.178347
20
400.903617
30
0.0
10
191.324767
20
399.694245
30
0.0
10
191.600009
20
399.563048
30
0.0
10
191.738825
20
399.699500
30
0.0
10
191.793831
20
400.631321
30
0.0
10
192.527214
20
420.995038
30
0.0
10
192.694628
20
423.614765
30
0.0
10
194.502064
20
422.604015
30
0.0
10
196.309471
20
421.593236
30
0.0
10
196.309471
20
426.404842
30
0.0
10
196.458626
20
431.216421
30
0.0
10
198.321631
20
430.351269
30
0.0
10
200.109904
20
429.575158
30
0.0
10
199.828359
20
438.554199
30
0.0
10
199.559260
20
447.536768
30
0.0
10
201.943078
20
446.304444
30
0.0
10
204.320151
20
445.082986
30
0.0
10
203.743487
20
454.640865
30
0.0
10
203.155307
20
464.969070
30
0.0
10
203.223916
20
465.842802
30
0.0
10
206.135518
20
463.910736
30
0.0
10
209.103423
20
461.978643
30
0.0
10
207.688107
20
466.423643
30
0.0
10
205.933300
20
472.259003
30
0.0
10
204.600020
20
477.896283
30
0.0
10
203.684618
20
483.353493
30
0.0
10
203.183445
20
488.648643
30
0.0
10
203.057676
20
490.851238
30
0.0
10
203.098104
20
491.415594
30
0.0
10
203.272313
20
491.634367
30
0.0
10
203.628983
20
491.516844
30
0.0
10
204.216792
20
491.072307
30
0.0
10
206.280552
20
489.239334
30
0.0
10
207.723464
20
488.009806
30
0.0
10
208.186861
20
487.715468
30
0.0
10
208.524659
20
487.640648
30
0.0
10
208.771691
20
487.789772
30
0.0
10
208.962788
20
488.167268
30
0.0
10
209.316501
20
489.625076
30
0.0
10
209.522829
20
491.725845
30
0.0
10
209.235252
20
493.660769
30
0.0
10
208.459112
20
495.411330
30
0.0
10
207.199749
20
496.959015
30
0.0
10
206.446111
20
497.775580
30
0.0
10
206.222728
20
498.301677
30
0.0
10
206.534591
20
498.582881
30
0.0
10
207.386693
20
498.664766
30
0.0
10
208.615466
20
498.492996
30
0.0
10
210.000980
20
498.008974
30
0.0
10
211.488427
20
497.251698
30
0.0
10
213.022996
20
496.260162
30
0.0
10
214.549875
20
495.073364
30
0.0
10
216.014256
20
493.730300
30
0.0
10
217.361327
20
492.269966
30
0.0
10
218.536277
20
490.731358
30
0.0
10
220.027278
20
488.927995
30
0.0
10
221.903268
20
487.270569
30
0.0
10
224.100159
20
485.788265
30
0.0
10
226.553861
20
484.510267
30
0.0
10
229.200288
20
483.465760
30
0.0
10
231.975350
20
482.683928
30
0.0
10
234.814959
20
482.193956
30
0.0
10
237.655027
20
482.025029
30
0.0
10
241.113118
20
482.279492
30
0.0
10
244.200906
20
483.040499
30
0.0
10
245.608284
20
483.611826
30
0.0
10
246.925904
20
484.310830
30
0.0
10
248.154703
20
485.137860
30
0.0
10
249.295621
20
486.093262
30
0.0
10
250.414915
20
487.217312
30
0.0
10
251.468429
20
488.648160
30
0.0
10
255.305487
20
495.421976
30
0.0
10
261.859759
20
507.120342
30
0.0
10
265.730721
20
514.047693
30
0.0
10
268.450718
20
519.490452
30
0.0
10
270.994874
20
525.585927
30
0.0
10
274.338316
20
534.471428
30
0.0
10
278.304244
20
544.771580
30
0.0
10
278.808609
20
546.121785
30
0.0
10
279.106328
20
547.556997
30
0.0
10
279.194498
20
549.082735
30
0.0
10
279.070218
20
550.704516
30
0.0
10
278.730587
20
552.427855
30
0.0
10
278.172702
20
554.258270
30
0.0
10
277.393663
20
556.201277
30
0.0
10
276.390567
20
558.262395
30
0.0
10
273.700599
20
562.761026
30
0.0
10
270.079586
20
567.798299
30
0.0
10
265.504314
20
573.418349
30
0.0
10
259.951570
20
579.665310
30
0.0
10
252.340313
20
587.599665
30
0.0
10
243.130385
20
596.427496
30
0.0
10
230.759691
20
607.596245
30
0.0
10
213.666138
20
622.553351
30
0.0
10
198.164801
20
636.317950
30
0.0
10
192.226781
20
641.903445
30
0.0
10
187.284851
20
646.845152
30
0.0
10
183.179756
20
651.308632
30
0.0
10
179.752240
20
655.459444
30
0.0
10
176.843047
20
659.463150
30
0.0
10
174.292920
20
663.485310
30
0.0
10
172.513056
20
666.697218
30
0.0
10
170.939581
20
669.997214
30
0.0
10
169.571064
20
673.409212
30
0.0
10
168.406072
20
676.957127
30
0.0
10
167.443172
20
680.664874
30
0.0
10
166.680933
20
684.556368
30
0.0
10
166.117922
20
688.655524
30
0.0
10
165.752707
20
692.986256
30
0.0
10
165.583854
20
697.572480
30
0.0
10
165.609933
20
702.438109
30
0.0
10
165.829509
20
707.607059
30
0.0
10
166.241152
20
713.103245
30
0.0
10
167.634906
20
725.172984
30
0.0
10
169.779736
20
738.838643
30
0.0
10
172.775126
20
754.665877
30
0.0
10
175.691247
20
768.279924
30
0.0
10
179.269969
20
781.757833
30
0.0
10
183.676076
20
796.062207
30
0.0
10
188.898199
20
811.158325
30
0.0
10
194.924974
20
827.011464
30
0.0
10
197.060493
20
832.726153
30
0.0
10
194.891005
20
830.562279
30
0.0
10
188.375725
20
823.505310
30
0.0
10
180.819866
20
814.907381
30
0.0
10
172.747556
20
805.128223
30
0.0
10
164.724078
20
794.871497
30
0.0
10
157.314714
20
784.840865
30
0.0
10
150.295033
20
774.714670
30
0.0
10
143.579674
20
764.425982
30
0.0
10
137.170568
20
753.979426
30
0.0
10
131.069645
20
743.379626
30
0.0
10
125.278836
20
732.631205
30
0.0
10
119.800071
20
721.738787
30
0.0
10
114.635282
20
710.706996
30
0.0
10
109.786400
20
699.540455
30
0.0
10
105.255354
20
688.243787
30
0.0
10
101.044076
20
676.821618
30
0.0
10
97.154497
20
665.278570
30
0.0
10
93.588547
20
653.619266
30
0.0
10
90.348157
20
641.848332
30
0.0
10
87.435257
20
629.970389
30
0.0
10
84.851780
20
617.990063
30
0.0
10
82.599654
20
605.911976
30
0.0
10
80.452818
20
592.026397
30
0.0
10
78.753830
20
577.959617
30
0.0
10
77.504718
20
563.762460
30
0.0
10
76.707510
20
549.485746
30
0.0
10
76.364235
20
535.180297
30
0.0
10
76.476921
20
520.896934
30
0.0
10
77.047595
20
506.686480
30
0.0
10
78.078285
20
492.599754
30
0.0
10
79.410195
20
479.858518
30
0.0
10
81.102454
20
467.208610
30
0.0
10
83.153798
20
454.653814
30
0.0
10
85.562960
20
442.197911
30
0.0
10
88.328674
20
429.844684
30
0.0
10
91.449676
20
417.597915
30
0.0
10
94.924699
20
405.461387
30
0.0
10
98.752477
20
393.438881
30
0.0
10
102.931746
20
381.534180
30
0.0
10
107.461239
20
369.751067
30
0.0
10
112.339691
20
358.093324
30
0.0
10
117.565835
20
346.564732
30
0.0
10
123.138407
20
335.169075
30
0.0
10
129.056141
20
323.910134
30
0.0
10
135.317771
20
312.791693
30
0.0
10
141.922032
20
301.817532
30
0.0
10
148.647200
20
291.340054
30
0.0
10
155.674020
20
281.060030
30
0.0
10
162.995274
20
270.984684
30
0.0
10
170.603747
20
261.121239
30
0.0
10
178.492221
20
251.476920
30
0.0
10
186.653481
20
242.058950
30
0.0
10
195.080310
20
232.874552
30
0.0
10
203.765491
20
223.930951
30
0.0
10
212.701810
20
215.235369
30
0.0
10
221.882048
20
206.795031
30
0.0
10
231.298990
20
198.617159
30
0.0
10
240.945419
20
190.708978
30
0.0
10
250.814119
20
183.077712
30
0.0
10
260.897874
20
175.730583
30
0.0
10
271.189467
20
168.674816
30
0.0
10
281.681682
20
161.917634
30
0.0
10
289.185299
20
157.339019
30
0.0
10
296.433233
20
153.079044
30
0.0
10
302.037734
20
149.936950
30
0.0
10
304.611052
20
148.711976
30
0.0
10
305.609950
20
149.105902
30
0.0
10
305.609950
20
149.105902
30
0.0
62
0
0
LWPOLYLINE
100
AcDbPolyline
8
Layer_1
90
71
70
0
10
777.263904
20
186.075207
30
0.0
10
785.741017
20
192.800280
30
0.0
10
794.197238
20
199.765130
30
0.0
10
804.262032
20
208.620900
30
0.0
10
814.024661
20
217.741861
30
0.0
10
823.481358
20
227.122773
30
0.0
10
832.628355
20
236.758397
30
0.0
10
841.461884
20
246.643493
30
0.0
10
849.978178
20
256.772822
30
0.0
10
858.173468
20
267.141145
30
0.0
10
866.043988
20
277.743221
30
0.0
10
873.585969
20
288.573813
30
0.0
10
880.795645
20
299.627679
30
0.0
10
887.669246
20
310.899582
30
0.0
10
894.203007
20
322.384281
30
0.0
10
900.393158
20
334.076537
30
0.0
10
906.235932
20
345.971110
30
0.0
10
911.727562
20
358.062762
30
0.0
10
916.864280
20
370.346252
30
0.0
10
920.397140
20
379.479380
30
0.0
10
923.730831
20
388.740868
30
0.0
10
926.863508
20
398.124481
30
0.0
10
929.793324
20
407.623984
30
0.0
10
932.518435
20
417.233140
30
0.0
10
935.036996
20
426.945715
30
0.0
10
937.347159
20
436.755473
30
0.0
10
939.447081
20
446.656178
30
0.0
10
940.246310
20
450.931777
30
0.0
10
940.482357
20
452.806506
30
0.0
10
938.179318
20
451.665926
30
0.0
10
932.873956
20
448.691931
30
0.0
10
916.822793
20
439.467357
30
0.0
10
880.598668
20
418.586835
30
0.0
10
878.946736
20
417.593498
30
0.0
10
875.095334
20
417.775192
30
0.0
10
847.814972
20
418.956095
30
0.0
10
824.386069
20
419.955303
30
0.0
10
814.794972
20
414.686101
30
0.0
10
793.491682
20
403.007858
30
0.0
10
773.619202
20
392.122773
30
0.0
10
765.458944
20
387.646700
30
0.0
10
775.925776
20
385.513241
30
0.0
10
786.531800
20
383.238643
30
0.0
10
779.187033
20
379.387869
30
0.0
10
761.332911
20
370.327767
30
0.0
10
735.994859
20
357.558001
30
0.0
10
726.149368
20
358.114007
30
0.0
10
717.809039
20
358.586228
30
0.0
10
713.596748
20
358.622240
30
0.0
10
712.356486
20
358.418849
30
0.0
10
711.329678
20
358.037022
30
0.0
10
708.825015
20
356.645549
30
0.0
10
694.431682
20
348.737202
30
0.0
10
683.491726
20
342.717614
30
0.0
10
682.181833
20
341.934304
30
0.0
10
682.015682
20
341.713425
30
0.0
10
684.314467
20
338.467869
30
0.0
10
687.378717
20
334.232389
30
0.0
10
690.209249
20
329.899850
30
0.0
10
693.364130
20
324.569291
30
0.0
10
697.401422
20
317.339754
30
0.0
10
712.585069
20
290.495397
30
0.0
10
730.491808
20
259.625310
30
0.0
10
745.664212
20
234.041978
30
0.0
10
760.135555
20
209.954199
30
0.0
10
772.368926
20
189.935005
30
0.0
10
774.909993
20
186.029740
30
0.0
10
775.528365
20
185.218520
30
0.0
10
775.804053
20
185.021700
30
0.0
10
777.263904
20
186.075207
30
0.0
10
777.263904
20
186.075207
30
0.0
62
0
0
LWPOLYLINE
100
AcDbPolyline
8
Layer_1
90
85
70
0
10
410.248608
20
206.462574
30
0.0
10
501.250571
20
256.312868
30
0.0
10
539.576574
20
277.390606
30
0.0
10
539.522684
20
279.231975
30
0.0
10
539.075771
20
283.360424
30
0.0
10
538.040984
20
290.935017
30
0.0
10
536.879345
20
298.272038
30
0.0
10
535.591396
20
305.369905
30
0.0
10
534.177678
20
312.227038
30
0.0
10
532.638735
20
318.841854
30
0.0
10
530.975109
20
325.212770
30
0.0
10
529.187341
20
331.338205
30
0.0
10
527.275975
20
337.216577
30
0.0
10
525.241553
20
342.846304
30
0.0
10
523.084616
20
348.225804
30
0.0
10
520.805708
20
353.353494
30
0.0
10
518.405370
20
358.227794
30
0.0
10
515.884145
20
362.847120
30
0.0
10
513.242576
20
367.209891
30
0.0
10
510.481203
20
371.314525
30
0.0
10
507.600571
20
375.159439
30
0.0
10
505.483904
20
377.833636
30
0.0
10
494.053904
20
377.676805
30
0.0
10
482.992992
20
377.619694
30
0.0
10
471.392604
20
377.734702
30
0.0
10
459.515108
20
378.010781
30
0.0
10
447.622874
20
378.436882
30
0.0
10
435.978268
20
379.001958
30
0.0
10
424.843659
20
379.694958
30
0.0
10
414.481415
20
380.504835
30
0.0
10
405.153904
20
381.420539
30
0.0
10
397.501587
20
382.334794
30
0.0
10
390.491293
20
383.318011
30
0.0
10
384.056967
20
384.384313
30
0.0
10
378.132552
20
385.547821
30
0.0
10
372.651991
20
386.822657
30
0.0
10
367.549228
20
388.222945
30
0.0
10
362.758207
20
389.762806
30
0.0
10
358.212870
20
391.456362
30
0.0
10
353.829862
20
393.088450
30
0.0
10
349.777711
20
394.348722
30
0.0
10
346.042529
20
395.238603
30
0.0
10
342.610426
20
395.759517
30
0.0
10
339.467512
20
395.912887
30
0.0
10
336.599899
20
395.700138
30
0.0
10
333.993696
20
395.122694
30
0.0
10
331.635015
20
394.181979
30
0.0
10
330.118308
20
393.304677
30
0.0
10
328.725846
20
392.255186
30
0.0
10
327.457922
20
391.034597
30
0.0
10
326.314832
20
389.644002
30
0.0
10
325.296869
20
388.084490
30
0.0
10
324.404328
20
386.357153
30
0.0
10
323.637502
20
384.463081
30
0.0
10
322.996687
20
382.403364
30
0.0
10
322.482176
20
380.179094
30
0.0
10
322.094263
20
377.791361
30
0.0
10
321.699408
20
372.529868
30
0.0
10
321.814478
20
366.627612
30
0.0
10
322.441824
20
360.093316
30
0.0
10
323.558381
20
353.299059
30
0.0
10
325.318071
20
345.001391
30
0.0
10
327.620590
20
335.636426
30
0.0
10
330.365636
20
325.640277
30
0.0
10
332.534388
20
318.404848
30
0.0
10
334.828306
20
311.298458
30
0.0
10
337.245786
20
304.324343
30
0.0
10
339.785226
20
297.485737
30
0.0
10
342.445020
20
290.785875
30
0.0
10
345.223565
20
284.227993
30
0.0
10
348.119257
20
277.815325
30
0.0
10
351.130493
20
271.551107
30
0.0
10
354.255667
20
265.438574
30
0.0
10
357.493177
20
259.480960
30
0.0
10
360.841418
20
253.681501
30
0.0
10
364.298786
20
248.043431
30
0.0
10
367.863678
20
242.569987
30
0.0
10
371.534490
20
237.264403
30
0.0
10
375.309617
20
232.129913
30
0.0
10
379.187456
20
227.169754
30
0.0
10
387.308439
20
216.508288
30
0.0
10
396.234751
20
203.956976
30
0.0
10
398.908129
20
200.358643
30
0.0
10
410.248608
20
206.462574
30
0.0
10
410.248608
20
206.462574
30
0.0
62
0
0
LWPOLYLINE
100
AcDbPolyline
8
Layer_1
90
203
70
0
10
690.009090
20
359.738902
30
0.0
10
701.249832
20
365.897442
30
0.0
10
707.681536
20
378.718685
30
0.0
10
714.113267
20
391.539928
30
0.0
10
726.215238
20
396.709420
30
0.0
10
765.023958
20
413.261623
30
0.0
10
774.155509
20
417.053437
30
0.0
10
767.652008
20
407.940651
30
0.0
10
761.150257
20
398.834892
30
0.0
10
770.377089
20
403.776434
30
0.0
10
800.604783
20
420.348241
30
0.0
10
821.687912
20
431.896322
30
0.0
10
823.293107
20
435.013580
30
0.0
10
827.436242
20
443.069754
30
0.0
10
831.589650
20
451.113088
30
0.0
10
839.337327
20
466.140377
30
0.0
10
845.938928
20
478.611297
30
0.0
10
852.130259
20
481.587195
30
0.0
10
867.763000
20
488.779234
30
0.0
10
913.012793
20
509.259360
30
0.0
10
926.700571
20
515.452219
30
0.0
10
941.903148
20
522.320943
30
0.0
10
946.343961
20
524.425256
30
0.0
10
947.276356
20
525.020781
30
0.0
10
947.650519
20
525.476865
30
0.0
10
947.792030
20
528.607653
30
0.0
10
947.761634
20
535.453837
30
0.0
10
947.293988
20
552.148643
30
0.0
10
946.630517
20
563.337556
30
0.0
10
945.690511
20
574.464501
30
0.0
10
944.474315
20
585.528121
30
0.0
10
942.982276
20
596.527057
30
0.0
10
941.214739
20
607.459954
30
0.0
10
939.172053
20
618.325454
30
0.0
10
936.854562
20
629.122199
30
0.0
10
934.262613
20
639.848832
30
0.0
10
931.396553
20
650.503996
30
0.0
10
928.256728
20
661.086333
30
0.0
10
924.843485
20
671.594486
30
0.0
10
921.157169
20
682.027098
30
0.0
10
917.198128
20
692.382812
30
0.0
10
912.966708
20
702.660270
30
0.0
10
908.463254
20
712.858114
30
0.0
10
903.688114
20
722.974988
30
0.0
10
897.384170
20
735.327836
30
0.0
10
890.407530
20
747.981049
30
0.0
10
883.171118
20
760.211690
30
0.0
10
876.087854
20
771.296823
30
0.0
10
874.066126
20
774.319988
30
0.0
10
867.857238
20
769.260929
30
0.0
10
861.734779
20
764.354164
30
0.0
10
856.181911
20
760.099161
30
0.0
10
850.998036
20
756.368359
30
0.0
10
845.982553
20
753.034195
30
0.0
10
840.934862
20
749.969107
30
0.0
10
835.654363
20
747.045533
30
0.0
10
829.940458
20
744.135910
30
0.0
10
823.592545
20
741.112677
30
0.0
10
820.531166
20
739.617437
30
0.0
10
817.970897
20
738.205118
30
0.0
10
815.922110
20
736.881878
30
0.0
10
814.395176
20
735.653878
30
0.0
10
812.868785
20
733.803947
30
0.0
10
810.806072
20
730.856100
30
0.0
10
808.496428
20
727.637236
30
0.0
10
806.022102
20
724.779735
30
0.0
10
803.377844
20
722.280045
30
0.0
10
800.558407
20
720.134612
30
0.0
10
797.558542
20
718.339882
30
0.0
10
794.373002
20
716.892300
30
0.0
10
790.996539
20
715.788312
30
0.0
10
787.423904
20
715.024365
30
0.0
10
784.149252
20
714.330691
30
0.0
10
783.081643
20
713.642455
30
0.0
10
782.058059
20
712.349689
30
0.0
10
780.997989
20
710.324174
30
0.0
10
779.820922
20
707.437696
30
0.0
10
778.015615
20
703.095549
30
0.0
10
776.099088
20
699.513569
30
0.0
10
773.881466
20
696.383493
30
0.0
10
771.172871
20
693.397055
30
0.0
10
768.726313
20
691.182489
30
0.0
10
766.088331
20
689.305214
30
0.0
10
762.999822
20
687.603284
30
0.0
10
759.201682
20
685.914752
30
0.0
10
756.450868
20
684.714520
30
0.0
10
753.949018
20
683.462785
30
0.0
10
751.670045
20
682.140389
30
0.0
10
749.587867
20
680.728170
30
0.0
10
747.676397
20
679.206970
30
0.0
10
745.909552
20
677.557628
30
0.0
10
744.261248
20
675.760984
30
0.0
10
742.705398
20
673.797879
30
0.0
10
740.999527
20
671.214805
30
0.0
10
738.938268
20
667.762500
30
0.0
10
736.429415
20
663.834558
30
0.0
10
735.056464
20
662.099498
30
0.0
10
733.517534
20
660.429228
30
0.0
10
729.680849
20
657.019606
30
0.0
10
724.397586
20
653.078789
30
0.0
10
722.237785
20
651.444306
30
0.0
10
721.088502
20
650.381450
30
0.0
10
720.641337
20
649.504934
30
0.0
10
720.283354
20
648.218774
30
0.0
10
719.542235
20
643.024989
30
0.0
10
719.076579
20
639.683189
30
0.0
10
718.499545
20
636.647955
30
0.0
10
717.794432
20
633.874995
30
0.0
10
716.944542
20
631.320020
30
0.0
10
715.933173
20
628.938738
30
0.0
10
714.743627
20
626.686860
30
0.0
10
713.359204
20
624.520094
30
0.0
10
711.763203
20
622.394149
30
0.0
10
707.971573
20
618.038302
30
0.0
10
702.919455
20
612.669830
30
0.0
10
697.709387
20
607.428612
30
0.0
10
693.443904
20
603.454526
30
0.0
10
690.302430
20
600.893128
30
0.0
10
687.343188
20
598.785315
30
0.0
10
684.645348
20
597.183005
30
0.0
10
682.288083
20
596.138113
30
0.0
10
680.855844
20
595.583795
30
0.0
10
679.721576
20
594.978359
30
0.0
10
678.847591
20
594.250828
30
0.0
10
678.196200
20
593.330224
30
0.0
10
677.729715
20
592.145570
30
0.0
10
677.410450
20
590.625888
30
0.0
10
677.062823
20
586.297532
30
0.0
10
676.713955
20
581.779869
30
0.0
10
676.048563
20
578.430044
30
0.0
10
675.565778
20
577.087655
30
0.0
10
674.966192
20
575.910726
30
0.0
10
674.237248
20
574.857090
30
0.0
10
673.366390
20
573.884580
30
0.0
10
670.795867
20
571.724737
30
0.0
10
666.400694
20
568.316928
30
0.0
10
662.193204
20
565.030673
30
0.0
10
658.853017
20
562.174676
30
0.0
10
656.374444
20
559.743774
30
0.0
10
654.751802
20
557.732805
30
0.0
10
653.628822
20
555.651575
30
0.0
10
652.360533
20
552.804640
30
0.0
10
650.996834
20
549.633547
30
0.0
10
649.534554
20
546.814784
30
0.0
10
647.572629
20
543.647194
30
0.0
10
644.709997
20
539.429621
30
0.0
10
639.715789
20
532.507362
30
0.0
10
635.367333
20
527.094178
30
0.0
10
631.664430
20
523.189834
30
0.0
10
630.054997
20
521.803403
30
0.0
10
628.606876
20
520.794093
30
0.0
10
624.635823
20
518.175039
30
0.0
10
620.576356
20
515.202142
30
0.0
10
619.318319
20
513.997085
30
0.0
10
618.681460
20
512.637532
30
0.0
10
617.909554
20
510.592856
30
0.0
10
616.729201
20
508.208813
30
0.0
10
615.119102
20
505.446113
30
0.0
10
613.057956
20
502.265470
30
0.0
10
609.663331
20
497.044359
30
0.0
10
609.042877
20
495.616675
30
0.0
10
608.596294
20
494.037803
30
0.0
10
608.293417
20
492.168948
30
0.0
10
608.104081
20
489.871314
30
0.0
10
607.967673
20
487.807281
30
0.0
10
607.769969
20
486.464561
30
0.0
10
607.394798
20
485.343550
30
0.0
10
606.725990
20
483.944648
30
0.0
10
605.304137
20
481.496278
30
0.0
10
603.540971
20
478.911976
30
0.0
10
600.681426
20
474.967675
30
0.0
10
598.721388
20
471.915511
30
0.0
10
597.412939
20
469.327691
30
0.0
10
596.508163
20
466.776421
30
0.0
10
595.553391
20
464.138096
30
0.0
10
594.972947
20
463.054797
30
0.0
10
594.271806
20
462.064276
30
0.0
10
592.351453
20
460.168182
30
0.0
10
589.480378
20
458.063036
30
0.0
10
587.134463
20
456.444231
30
0.0
10
585.949316
20
455.482639
30
0.0
10
585.632790
20
454.872482
30
0.0
10
585.892741
20
454.307984
30
0.0
10
586.206444
20
453.689792
30
0.0
10
586.312448
20
452.961682
30
0.0
10
586.185138
20
452.061487
30
0.0
10
585.798898
20
450.927040
30
0.0
10
584.147169
20
447.706715
30
0.0
10
581.152339
20
442.803365
30
0.0
10
577.939182
20
437.400164
30
0.0
10
584.365015
20
432.325300
30
0.0
10
597.342342
20
422.156005
30
0.0
10
610.039230
20
411.810081
30
0.0
10
622.309276
20
401.419186
30
0.0
10
634.006077
20
391.114975
30
0.0
10
644.983230
20
381.029105
30
0.0
10
655.094332
20
371.293232
30
0.0
10
664.192979
20
362.039012
30
0.0
10
672.132768
20
353.398102
30
0.0
10
674.182266
20
351.074228
30
0.0
10
676.475293
20
352.327295
30
0.0
10
690.009090
20
359.738902
30
0.0
10
690.009090
20
359.738902
30
0.0
62
0
0
LWPOLYLINE
100
AcDbPolyline
8
Layer_1
90
10
70
0
10
943.163666
20
468.258088
30
0.0
10
945.205600
20
484.374924
30
0.0
10
945.399458
20
486.310093
30
0.0
10
944.728334
20
485.891812
30
0.0
10
936.296126
20
481.238814
30
0.0
10
907.532969
20
465.467615
30
0.0
10
925.065912
20
465.365310
30
0.0
10
942.716428
20
465.365310
30
0.0
10
943.163666
20
468.258088
30
0.0
10
943.163666
20
468.258088
30
0.0
62
0
0
LWPOLYLINE
100
AcDbPolyline
8
Layer_1
90
19
70
0
10
906.089318
20
478.136486
30
0.0
10
911.601682
20
481.164646
30
0.0
10
922.185015
20
486.957370
30
0.0
10
937.001682
20
495.080713
30
0.0
10
944.656254
20
499.279870
30
0.0
10
946.666382
20
500.371082
30
0.0
10
946.855922
20
503.399862
30
0.0
10
947.382154
20
513.227560
30
0.0
10
947.575730
20
520.257532
30
0.0
10
947.579964
20
523.926421
30
0.0
10
943.549040
20
519.834199
30
0.0
10
914.288353
20
489.636421
30
0.0
10
902.728813
20
477.683661
30
0.0
10
901.048946
20
475.927190
30
0.0
10
900.725430
20
475.501069
30
0.0
10
900.806770
20
475.384520
30
0.0
10
902.365756
20
476.104626
30
0.0
10
906.089374
20
478.136486
30
0.0
10
906.089318
20
478.136486
30
0.0
62
0
0
LWPOLYLINE
100
AcDbPolyline
8
Layer_1
90
241
70
0
10
501.067211
20
665.570734
30
0.0
10
516.394079
20
673.803598
30
0.0
10
535.399460
20
683.803052
30
0.0
10
542.737238
20
687.623353
30
0.0
10
576.462793
20
704.471060
30
0.0
10
591.178882
20
711.395292
30
0.0
10
603.229997
20
716.700134
30
0.0
10
614.160814
20
721.033388
30
0.0
10
625.516007
20
725.042859
30
0.0
10
641.903713
20
730.665794
30
0.0
10
660.198578
20
737.250268
30
0.0
10
673.701786
20
742.038422
30
0.0
10
676.718790
20
742.842689
30
0.0
10
679.332793
20
743.240350
30
0.0
10
687.867937
20
744.361990
30
0.0
10
689.981922
20
744.759076
30
0.0
10
691.554709
20
745.189687
30
0.0
10
693.834397
20
746.104772
30
0.0
10
696.266126
20
747.339600
30
0.0
10
698.474277
20
748.548588
30
0.0
10
700.545983
20
749.526400
30
0.0
10
702.601913
20
750.300919
30
0.0
10
704.762737
20
750.900027
30
0.0
10
707.149123
20
751.351608
30
0.0
10
709.881741
20
751.683543
30
0.0
10
716.868349
20
752.100011
30
0.0
10
722.533829
20
752.422295
30
0.0
10
726.253987
20
752.933809
30
0.0
10
728.833307
20
753.562110
30
0.0
10
731.548082
20
754.419292
30
0.0
10
734.395909
20
755.503784
30
0.0
10
737.374384
20
756.814021
30
0.0
10
743.713664
20
760.105453
30
0.0
10
750.546688
20
764.281043
30
0.0
10
757.854228
20
769.328250
30
0.0
10
765.617050
20
775.234528
30
0.0
10
773.815924
20
781.987335
30
0.0
10
782.431619
20
789.574127
30
0.0
10
794.338349
20
800.772987
30
0.0
10
805.539639
20
811.361122
30
0.0
10
811.011727
20
816.207523
30
0.0
10
812.790404
20
817.635003
30
0.0
10
813.491416
20
814.643504
30
0.0
10
814.354847
20
811.655561
30
0.0
10
816.360770
20
813.137227
30
0.0
10
825.595363
20
820.514065
30
0.0
10
832.986424
20
826.412786
30
0.0
10
832.117462
20
827.428503
30
0.0
10
824.717313
20
835.197460
30
0.0
10
816.577745
20
843.389238
30
0.0
10
808.218426
20
851.360873
30
0.0
10
799.646540
20
859.107567
30
0.0
10
790.869268
20
866.624519
30
0.0
10
781.893792
20
873.906931
30
0.0
10
772.727293
20
880.950004
30
0.0
10
763.376955
20
887.748937
30
0.0
10
753.849958
20
894.298932
30
0.0
10
744.153486
20
900.595189
30
0.0
10
734.294719
20
906.632909
30
0.0
10
724.280839
20
912.407293
30
0.0
10
714.119030
20
917.913541
30
0.0
10
703.816472
20
923.146854
30
0.0
10
693.380347
20
928.102432
30
0.0
10
682.817838
20
932.775477
30
0.0
10
672.136126
20
937.161188
30
0.0
10
663.553732
20
940.447970
30
0.0
10
654.935418
20
943.544404
30
0.0
10
646.278833
20
946.450983
30
0.0
10
637.581626
20
949.168201
30
0.0
10
628.841444
20
951.696552
30
0.0
10
620.055937
20
954.036531
30
0.0
10
611.222751
20
956.188631
30
0.0
10
602.339537
20
958.153346
30
0.0
10
593.403942
20
959.931171
30
0.0
10
584.413614
20
961.522599
30
0.0
10
575.366202
20
962.928124
30
0.0
10
566.259354
20
964.148240
30
0.0
10
557.090718
20
965.183441
30
0.0
10
547.857944
20
966.034222
30
0.0
10
538.558679
20
966.701076
30
0.0
10
529.190571
20
967.184496
30
0.0
10
520.064885
20
967.362772
30
0.0
10
508.048966
20
967.358014
30
0.0
10
496.232182
20
967.192315
30
0.0
10
487.703904
20
966.887768
30
0.0
10
473.733833
20
965.823257
30
0.0
10
460.048450
20
964.395003
30
0.0
10
446.619548
20
962.597921
30
0.0
10
433.418918
20
960.426929
30
0.0
10
420.418353
20
957.876943
30
0.0
10
407.589645
20
954.942882
30
0.0
10
394.904586
20
951.619662
30
0.0
10
382.334968
20
947.902199
30
0.0
10
379.878056
20
947.072960
30
0.0
10
379.294270
20
946.794396
30
0.0
10
379.146961
20
946.590857
30
0.0
10
379.441153
20
946.450587
30
0.0
10
380.181869
20
946.361828
30
0.0
10
383.022969
20
946.291811
30
0.0
10
386.585347
20
946.119797
30
0.0
10
386.369789
20
945.373089
30
0.0
10
385.637871
20
943.791463
30
0.0
10
384.849911
20
941.939507
30
0.0
10
384.424400
20
940.213017
30
0.0
10
384.363354
20
938.606074
30
0.0
10
384.668787
20
937.112755
30
0.0
10
385.342714
20
935.727143
30
0.0
10
386.387151
20
934.443315
30
0.0
10
387.804112
20
933.255351
30
0.0
10
389.595614
20
932.157332
30
0.0
10
390.772435
20
931.456224
30
0.0
10
391.749641
20
930.698821
30
0.0
10
392.543920
20
929.853775
30
0.0
10
393.171962
20
928.889742
30
0.0
10
393.650457
20
927.775375
30
0.0
10
393.996093
20
926.479329
30
0.0
10
394.355546
20
923.216814
30
0.0
10
394.302794
20
919.406834
30
0.0
10
393.706283
20
915.115096
30
0.0
10
392.428380
20
909.623218
30
0.0
10
390.331452
20
902.212820
30
0.0
10
389.142635
20
897.976028
30
0.0
10
388.541242
20
895.123776
30
0.0
10
388.468398
20
893.242751
30
0.0
10
388.865223
20
891.919640
30
0.0
10
389.901278
20
890.537478
30
0.0
10
391.758706
20
888.437808
30
0.0
10
393.747032
20
886.098658
30
0.0
10
394.950244
20
884.229028
30
0.0
10
395.357158
20
883.264622
30
0.0
10
395.581417
20
882.330148
30
0.0
10
395.691275
20
879.103082
30
0.0
10
395.521169
20
875.580109
30
0.0
10
394.619395
20
872.078853
30
0.0
10
392.395070
20
863.923601
30
0.0
10
391.643267
20
860.407138
30
0.0
10
391.133693
20
857.279818
30
0.0
10
390.867842
20
854.552916
30
0.0
10
390.847206
20
852.237707
30
0.0
10
391.073277
20
850.345465
30
0.0
10
391.547548
20
848.887468
30
0.0
10
392.257173
20
847.732774
30
0.0
10
393.167217
20
847.058184
30
0.0
10
394.526964
20
846.756483
30
0.0
10
396.585694
20
846.720453
30
0.0
10
398.603700
20
846.687769
30
0.0
10
399.915059
20
846.382594
30
0.0
10
400.800741
20
845.675469
30
0.0
10
401.541714
20
844.436936
30
0.0
10
401.890108
20
843.617759
30
0.0
10
402.079866
20
842.721141
30
0.0
10
402.147080
20
839.309749
30
0.0
10
401.932324
20
835.581274
30
0.0
10
401.308337
20
830.983093
30
0.0
10
400.186669
20
824.977944
30
0.0
10
398.478869
20
817.028564
30
0.0
10
396.970832
20
809.779376
30
0.0
10
396.678957
20
807.695397
30
0.0
10
396.586851
20
806.007532
30
0.0
10
396.604842
20
804.560798
30
0.0
10
396.741522
20
803.321028
30
0.0
10
397.065204
20
802.174367
30
0.0
10
397.644197
20
801.006960
30
0.0
10
398.546812
20
799.704953
30
0.0
10
399.841361
20
798.154491
30
0.0
10
403.879502
20
793.852785
30
0.0
10
406.760415
20
790.744934
30
0.0
10
409.195956
20
787.825165
30
0.0
10
411.244593
20
784.985147
30
0.0
10
412.964796
20
782.116550
30
0.0
10
414.415032
20
779.111042
30
0.0
10
415.653771
20
775.860294
30
0.0
10
416.739480
20
772.255975
30
0.0
10
417.730630
20
768.189754
30
0.0
10
419.220908
20
762.383529
30
0.0
10
419.855732
20
760.762989
30
0.0
10
420.486671
20
759.785092
30
0.0
10
420.892250
20
759.429534
30
0.0
10
421.487088
20
759.241084
30
0.0
10
424.484179
20
759.176903
30
0.0
10
427.745369
20
759.054792
30
0.0
10
429.059925
20
758.844330
30
0.0
10
430.233737
20
758.509052
30
0.0
10
431.319269
20
758.030053
30
0.0
10
432.368982
20
757.388425
30
0.0
10
434.570801
20
755.541655
30
0.0
10
436.621676
20
753.269265
30
0.0
10
437.394329
20
752.104823
30
0.0
10
438.017239
20
750.878465
30
0.0
10
438.504490
20
749.557878
30
0.0
10
438.870168
20
748.110746
30
0.0
10
439.293141
20
744.707595
30
0.0
10
439.472536
20
742.781121
30
0.0
10
439.773956
20
741.180055
30
0.0
10
440.251007
20
739.834790
30
0.0
10
440.957293
20
738.675720
30
0.0
10
441.946418
20
737.633236
30
0.0
10
443.271988
20
736.637734
30
0.0
10
447.146878
20
734.509241
30
0.0
10
449.566293
20
733.246449
30
0.0
10
451.457699
20
732.077978
30
0.0
10
452.967474
20
730.902961
30
0.0
10
454.242001
20
729.620532
30
0.0
10
455.836609
20
727.510868
30
0.0
10
456.978777
20
725.212891
30
0.0
10
457.776367
20
722.444897
30
0.0
10
458.337243
20
718.925184
30
0.0
10
459.114721
20
714.001104
30
0.0
10
459.583940
20
712.076072
30
0.0
10
460.112812
20
710.493891
30
0.0
10
460.705839
20
709.243194
30
0.0
10
461.367522
20
708.312616
30
0.0
10
462.102362
20
707.690790
30
0.0
10
462.914859
20
707.366350
30
0.0
10
465.664303
20
706.615339
30
0.0
10
466.656430
20
706.143836
30
0.0
10
467.624866
20
705.517512
30
0.0
10
468.946142
20
704.400700
30
0.0
10
470.196044
20
703.015189
30
0.0
10
471.314279
20
701.436446
30
0.0
10
472.240554
20
699.739943
30
0.0
10
472.678921
20
698.720215
30
0.0
10
472.905109
20
697.783127
30
0.0
10
472.950201
20
694.447007
30
0.0
10
472.981630
20
691.575374
30
0.0
10
473.166920
20
689.741374
30
0.0
10
473.802930
20
688.498489
30
0.0
10
475.001816
20
687.265086
30
0.0
10
476.691662
20
686.100856
30
0.0
10
478.800555
20
685.065488
30
0.0
10
480.743189
20
684.151992
30
0.0
10
481.880813
20
683.420105
30
0.0
10
482.558897
20
682.452602
30
0.0
10
482.948195
20
680.851378
30
0.0
10
483.149603
20
677.826235
30
0.0
10
483.264012
20
672.586976
30
0.0
10
483.399084
20
664.049754
30
0.0
10
490.871454
20
664.049754
30
0.0
10
498.343851
20
664.049754
30
0.0
10
501.067211
20
665.570734
30
0.0
10
501.067211
20
665.570734
30
0.0
  0
ENDSEC
  0
SECTION
  2
OBJECTS
  0
DICTIONARY
  5
C
330
0
100
AcDbDictionary
  3
ACAD_GROUP
350
D
  3
ACAD_MLINESTYLE
350
17
  0
DICTIONARY
  5
D
330
C
100
AcDbDictionary
  0
DICTIONARY
  5
1A
330
C
100
AcDbDictionary
  0
DICTIONARY
  5
17
330
C
100
AcDbDictionary
  3
STANDARD
350
18
  0
DICTIONARY
  5
19
330
C
100
AcDbDictionary
  0
ENDSEC
  0
EOF
