999
Inkscape export via OpenSCAD DXF Export
  0
SECTION
  2
HEADER
  9
$ACADVER
  1
AC1014
  9
$HANDSEED
  5
FFFF
  9
$MEASUREMENT
 70
     1
  0
ENDSEC
  0
SECTION
  2
TABLES
  0
TABLE
  2
VPORT
  5
8
330
0
100
AcDbSymbolTable
 70
     4
  0
VPORT
  5
2E
330
8
100
AcDbSymbolTableRecord
100
AcDbViewportTableRecord
  2
*ACTIVE
 70
     0
 10
0.0
 20
0.0
 11
1.0
 21
1.0
 12
210.0
 22
148.5
 13
0.0
 23
0.0
 14
10.0
 24
10.0
 15
10.0
 25
10.0
 16
0.0
 26
0.0
 36
1.0
 17
0.0
 27
0.0
 37
0.0
 40
341.0
 41
1.24
 42
50.0
 43
0.0
 44
0.0
 50
0.0
 51
0.0
 71
     0
 72
   100
 73
     1
 74
     3
 75
     0
 76
     0
 77
     0
 78
     0
  0
ENDTAB
  0
TABLE
  2
LTYPE
  5
5
330
0
100
AcDbSymbolTable
 70
     1
  0
LTYPE
  5
14
330
5
100
AcDbSymbolTableRecord
100
AcDbLinetypeTableRecord
  2
BYBLOCK
 70
     0
  3

 72
    65
 73
     0
 40
0.0
  0
LTYPE
  5
15
330
5
100
AcDbSymbolTableRecord
100
AcDbLinetypeTableRecord
  2
BYLAYER
 70
     0
  3

 72
    65
 73
     0
 40
0.0
  0
LTYPE
  5
16
330
5
100
AcDbSymbolTableRecord
100
AcDbLinetypeTableRecord
  2
CONTINUOUS
 70
     0
  3
Solid line
 72
    65
 73
     0
 40
0.0
  0
ENDTAB
  0
TABLE
0
TABLE
2
LAYER
5
2
330
0
100
AcDbSymbolTable
70
1
0
LAYER
5
10
330
2
100
AcDbSymbolTableRecord
100
AcDbLayerTableRecord
2
Layer_1
70
0
62
7
6
CONTINUOUS
0
ENDTAB
0
ENDSEC
  0
ENDTAB
  0
TABLE
  2
STYLE
  5
3
330
0
100
AcDbSymbolTable
 70
     1
  0
STYLE
  5
11
330
3
100
AcDbSymbolTableRecord
100
AcDbTextStyleTableRecord
  2
STANDARD
 70
     0
 40
0.0
 41
1.0
 50
0.0
 71
     0
 42
2.5
  3
txt
  4

  0
ENDTAB
  0
TABLE
  2
VIEW
  5
6
330
0
100
AcDbSymbolTable
 70
     0
  0
ENDTAB
  0
TABLE
  2
UCS
  5
7
330
0
100
AcDbSymbolTable
 70
     0
  0
ENDTAB
  0
TABLE
  2
APPID
  5
9
330
0
100
AcDbSymbolTable
 70
     2
  0
APPID
  5
12
330
9
100
AcDbSymbolTableRecord
100
AcDbRegAppTableRecord
  2
ACAD
 70
     0
  0
ENDTAB
  0
TABLE
  2
DIMSTYLE
  5
A
330
0
100
AcDbSymbolTable
 70
     1
  0
DIMSTYLE
105
27
330
A
100
AcDbSymbolTableRecord
100
AcDbDimStyleTableRecord
  2
ISO-25
 70
     0
  3

  4

  5

  6

  7

 40
1.0
 41
2.5
 42
0.625
 43
3.75
 44
1.25
 45
0.0
 46
0.0
 47
0.0
 48
0.0
140
2.5
141
2.5
142
0.0
143
0.03937007874016
144
1.0
145
0.0
146
1.0
147
0.625
 71
     0
 72
     0
 73
     0
 74
     0
 75
     0
 76
     0
 77
     1
 78
     8
170
     0
171
     3
172
     1
173
     0
174
     0
175
     0
176
     0
177
     0
178
     0
270
     2
271
     2
272
     2
273
     2
274
     3
340
11
275
     0
280
     0
281
     0
282
     0
283
     0
284
     8
285
     0
286
     0
287
     3
288
     0
  0
ENDTAB
  0
TABLE
  2
BLOCK_RECORD
  5
1
330
0
100
AcDbSymbolTable
 70
     1
  0
BLOCK_RECORD
  5
1F
330
1
100
AcDbSymbolTableRecord
100
AcDbBlockTableRecord
  2
*MODEL_SPACE
  0
BLOCK_RECORD
  5
1B
330
1
100
AcDbSymbolTableRecord
100
AcDbBlockTableRecord
  2
*PAPER_SPACE
  0
ENDTAB
  0
ENDSEC
  0
SECTION
  2
BLOCKS
  0
BLOCK
  5
20
330
1F
100
AcDbEntity
  8
0
100
AcDbBlockBegin
  2
*MODEL_SPACE
 70
     0
 10
0.0
 20
0.0
 30
0.0
  3
*MODEL_SPACE
  1

  0
ENDBLK
  5
21
330
1F
100
AcDbEntity
  8
0
100
AcDbBlockEnd
  0
BLOCK
  5
1C
330
1B
100
AcDbEntity
 67
     1
  8
0
100
AcDbBlockBegin
  2
*PAPER_SPACE
  1

  0
ENDBLK
  5
1D
330
1B
100
AcDbEntity
 67
     1
  8
0
100
AcDbBlockEnd
  0
ENDSEC
  0
SECTION
  2
ENTITIES
0
DIMENSION
5
83
100
AcDbEntity
62
256
370
-1
6
ByLayer
1
total_width
3
Standard
70
0
71
5
72
1
41
1.0
100
AcDbAlignedDimension
13
0.884869
23
0.000000
33
0.0
14
177.372378
24
0.000000
34
0.0
50
0.000000
100
AcDbRotatedDimension
0
DIMENSION
5
83
100
AcDbEntity
62
256
370
-1
6
ByLayer
1
total_height
3
Standard
70
0
71
5
72
1
41
1.0
100
AcDbAlignedDimension
13
0.000000
23
38.009892
33
0.0
14
0.000000
24
175.212798
34
0.0
50
90.000000
100
AcDbRotatedDimension
0
DIMENSION
8
Layer_1
5
83
100
AcDbEntity
62
256
370
-1
6
ByLayer
1
Layer_1_width
3
Standard
70
0
71
5
72
1
41
1.0
100
AcDbAlignedDimension
13
0.884869
23
0.000000
33
0.0
14
177.372378
24
0.000000
34
0.0
50
0.000000
100
AcDbRotatedDimension
0
DIMENSION
8
Layer_1
5
83
100
AcDbEntity
62
256
370
-1
6
ByLayer
1
Layer_1_height
3
Standard
70
0
71
5
72
1
41
1.0
100
AcDbAlignedDimension
13
0.000000
23
38.009892
33
0.0
14
0.000000
24
175.212798
34
0.0
50
90.000000
100
AcDbRotatedDimension
62
0
0
LWPOLYLINE
100
AcDbPolyline
8
Layer_1
90
61
70
0
10
91.188870
20
39.859198
30
0.0
10
84.838870
20
42.618640
30
0.0
10
75.878315
20
46.476711
30
0.0
10
69.034426
20
49.404733
30
0.0
10
69.034426
20
112.308764
30
0.0
10
69.034426
20
175.212798
30
0.0
10
70.092759
20
175.027784
30
0.0
10
79.231064
20
173.003328
30
0.0
10
89.507766
20
170.340486
30
0.0
10
96.189379
20
168.280961
30
0.0
10
102.303158
20
166.107992
30
0.0
10
108.048684
20
163.745248
30
0.0
10
113.625537
20
161.116397
30
0.0
10
118.595257
20
158.472881
30
0.0
10
122.698287
20
155.931048
30
0.0
10
126.184655
20
153.321179
30
0.0
10
129.304387
20
150.473554
30
0.0
10
130.920034
20
148.740265
30
0.0
10
132.322666
20
146.971677
30
0.0
10
133.534549
20
145.120270
30
0.0
10
134.577950
20
143.138525
30
0.0
10
135.475136
20
140.978922
30
0.0
10
136.248376
20
138.593939
30
0.0
10
136.919936
20
135.936059
30
0.0
10
137.512084
20
132.957759
30
0.0
10
137.890995
20
129.560705
30
0.0
10
138.016314
20
125.516311
30
0.0
10
137.888269
20
121.495765
30
0.0
10
137.507088
20
118.170257
30
0.0
10
136.865337
20
115.323230
30
0.0
10
136.021015
20
112.587260
30
0.0
10
134.998724
20
110.007123
30
0.0
10
133.823067
20
107.627595
30
0.0
10
132.518645
20
105.493451
30
0.0
10
131.110062
20
103.649467
30
0.0
10
129.621919
20
102.140419
30
0.0
10
128.078820
20
101.011081
30
0.0
10
127.323410
20
100.610941
30
0.0
10
126.539158
20
100.413416
30
0.0
10
123.281042
20
100.433084
30
0.0
10
119.526606
20
100.824880
30
0.0
10
117.862089
20
101.205727
30
0.0
10
116.320001
20
101.717423
30
0.0
10
114.885813
20
102.365631
30
0.0
10
113.544995
20
103.156012
30
0.0
10
112.283018
20
104.094229
30
0.0
10
111.085353
20
105.185944
30
0.0
10
109.674426
20
106.596860
30
0.0
10
109.674426
20
126.453559
30
0.0
10
109.674426
20
146.310257
30
0.0
10
108.474981
20
146.740112
30
0.0
10
105.158870
20
148.066435
30
0.0
10
100.784426
20
149.895885
30
0.0
10
97.504163
20
151.266011
30
0.0
10
96.730048
20
151.522764
30
0.0
10
96.304718
20
151.526198
30
0.0
10
96.127759
20
127.736380
30
0.0
10
95.931925
20
70.499937
30
0.0
10
95.587233
20
38.009892
30
0.0
10
91.188870
20
39.859198
30
0.0
10
91.188870
20
39.859198
30
0.0
62
0
0
LWPOLYLINE
100
AcDbPolyline
8
Layer_1
90
62
70
0
10
102.901092
20
47.846423
30
0.0
10
102.976052
20
53.678673
30
0.0
10
103.084640
20
54.921982
30
0.0
10
103.253870
20
55.330877
30
0.0
10
123.503315
20
62.380862
30
0.0
10
134.792204
20
66.355767
30
0.0
10
147.774426
20
70.908424
30
0.0
10
154.759426
20
73.331157
30
0.0
10
158.216648
20
74.678904
30
0.0
10
154.477204
20
76.503030
30
0.0
10
147.407114
20
79.654121
30
0.0
10
144.076471
20
81.145750
30
0.0
10
137.670447
20
79.627922
30
0.0
10
125.619981
20
76.802313
30
0.0
10
117.153315
20
74.819589
30
0.0
10
103.312364
20
71.639111
30
0.0
10
103.174598
20
75.316702
30
0.0
10
103.146688
20
81.624703
30
0.0
10
103.183315
20
84.760534
30
0.0
10
104.806092
20
85.391077
30
0.0
10
110.869265
20
87.566548
30
0.0
10
116.777177
20
89.292392
30
0.0
10
122.855520
20
90.652460
30
0.0
10
129.429981
20
91.730601
30
0.0
10
137.554276
20
92.701865
30
0.0
10
140.738498
20
92.907876
30
0.0
10
143.531462
20
92.921282
30
0.0
10
146.078685
20
92.737437
30
0.0
10
148.525686
20
92.351697
30
0.0
10
151.017982
20
91.759418
30
0.0
10
153.701092
20
90.955955
30
0.0
10
158.182504
20
89.241584
30
0.0
10
162.849959
20
87.006108
30
0.0
10
167.105759
20
84.562914
30
0.0
10
170.352204
20
82.225391
30
0.0
10
172.691689
20
80.130202
30
0.0
10
174.408918
20
78.361365
30
0.0
10
175.657259
20
76.743743
30
0.0
10
176.590079
20
75.102204
30
0.0
10
177.166229
20
73.642684
30
0.0
10
177.372378
20
72.334005
30
0.0
10
177.170950
20
71.127472
30
0.0
10
176.524366
20
69.974387
30
0.0
10
175.395051
20
68.826053
30
0.0
10
173.745428
20
67.633776
30
0.0
10
171.537919
20
66.348857
30
0.0
10
168.734949
20
64.922600
30
0.0
10
164.874084
20
63.107759
30
0.0
10
162.822450
20
62.246535
30
0.0
10
159.627759
20
60.838850
30
0.0
10
146.222204
20
55.604238
30
0.0
10
141.001092
20
53.650859
30
0.0
10
137.191092
20
52.257040
30
0.0
10
130.699981
20
49.983418
30
0.0
10
123.785537
20
47.580987
30
0.0
10
116.871092
20
45.196289
30
0.0
10
107.557759
20
42.029719
30
0.0
10
103.253870
20
40.603585
30
0.0
10
103.082040
20
40.877466
30
0.0
10
102.973740
20
42.016309
30
0.0
10
102.901092
20
47.846423
30
0.0
10
102.901092
20
47.846423
30
0.0
62
0
0
LWPOLYLINE
100
AcDbPolyline
8
Layer_1
90
68
70
0
10
25.289982
20
52.923556
30
0.0
10
20.530340
20
53.724069
30
0.0
10
16.332466
20
54.679573
30
0.0
10
12.675216
20
55.800231
30
0.0
10
9.537445
20
57.096211
30
0.0
10
6.898009
20
58.577676
30
0.0
10
4.735762
20
60.254794
30
0.0
10
3.029559
20
62.137730
30
0.0
10
1.758257
20
64.236648
30
0.0
10
1.038747
20
66.122280
30
0.0
10
0.884869
20
68.187759
30
0.0
10
1.008891
20
69.784316
30
0.0
10
1.401465
20
71.226194
30
0.0
10
2.110624
20
72.637804
30
0.0
10
3.184402
20
74.143560
30
0.0
10
4.330147
20
75.428742
30
0.0
10
5.721738
20
76.725499
30
0.0
10
9.204837
20
79.336468
30
0.0
10
13.558462
20
81.941940
30
0.0
10
18.707372
20
84.507385
30
0.0
10
24.576330
20
86.998273
30
0.0
10
31.090095
20
89.380077
30
0.0
10
38.173429
20
91.618268
30
0.0
10
45.751092
20
93.678316
30
0.0
10
55.911638
20
95.944461
30
0.0
10
59.911404
20
96.681885
30
0.0
10
61.637161
20
96.845763
30
0.0
10
61.798788
20
94.571288
30
0.0
10
61.914476
20
89.727593
30
0.0
10
61.947112
20
84.767605
30
0.0
10
61.859586
20
82.144249
30
0.0
10
61.589791
20
81.735751
30
0.0
10
60.595787
20
81.293492
30
0.0
10
53.935537
20
79.461402
30
0.0
10
47.585537
20
77.784283
30
0.0
10
41.658870
20
76.223808
30
0.0
10
33.976484
20
74.224193
30
0.0
10
30.273497
20
73.127786
30
0.0
10
29.410450
20
72.728668
30
0.0
10
28.937656
20
72.327810
30
0.0
10
28.356707
20
71.217485
30
0.0
10
27.771458
20
69.817099
30
0.0
10
27.501346
20
68.585517
30
0.0
10
27.551221
20
67.572185
30
0.0
10
27.925934
20
66.826548
30
0.0
10
28.830653
20
66.187883
30
0.0
10
30.319511
20
65.819392
30
0.0
10
32.690624
20
65.682005
30
0.0
10
36.242109
20
65.736651
30
0.0
10
42.276423
20
66.066750
30
0.0
10
47.900105
20
66.675316
30
0.0
10
53.443890
20
67.607996
30
0.0
10
59.238512
20
68.910434
30
0.0
10
62.131290
20
69.598870
30
0.0
10
62.254745
20
65.129163
30
0.0
10
62.075306
20
58.647779
30
0.0
10
61.807364
20
56.610470
30
0.0
10
61.563534
20
56.197607
30
0.0
10
61.159774
20
55.931401
30
0.0
10
59.562616
20
55.325131
30
0.0
10
57.085178
20
54.621782
30
0.0
10
50.972204
20
53.305967
30
0.0
10
48.511393
20
52.923687
30
0.0
10
46.075483
20
52.697836
30
0.0
10
37.848870
20
52.506502
30
0.0
10
29.845017
20
52.527546
30
0.0
10
25.289982
20
52.923556
30
0.0
10
25.289982
20
52.923556
30
0.0
  0
ENDSEC
  0
SECTION
  2
OBJECTS
  0
DICTIONARY
  5
C
330
0
100
AcDbDictionary
  3
ACAD_GROUP
350
D
  3
ACAD_MLINESTYLE
350
17
  0
DICTIONARY
  5
D
330
C
100
AcDbDictionary
  0
DICTIONARY
  5
1A
330
C
100
AcDbDictionary
  0
DICTIONARY
  5
17
330
C
100
AcDbDictionary
  3
STANDARD
350
18
  0
DICTIONARY
  5
19
330
C
100
AcDbDictionary
  0
ENDSEC
  0
EOF
