999
Inkscape export via OpenSCAD DXF Export
  0
SECTION
  2
HEADER
  9
$ACADVER
  1
AC1014
  9
$HANDSEED
  5
FFFF
  9
$MEASUREMENT
 70
     1
  0
ENDSEC
  0
SECTION
  2
TABLES
  0
TABLE
  2
VPORT
  5
8
330
0
100
AcDbSymbolTable
 70
     4
  0
VPORT
  5
2E
330
8
100
AcDbSymbolTableRecord
100
AcDbViewportTableRecord
  2
*ACTIVE
 70
     0
 10
0.0
 20
0.0
 11
1.0
 21
1.0
 12
210.0
 22
148.5
 13
0.0
 23
0.0
 14
10.0
 24
10.0
 15
10.0
 25
10.0
 16
0.0
 26
0.0
 36
1.0
 17
0.0
 27
0.0
 37
0.0
 40
341.0
 41
1.24
 42
50.0
 43
0.0
 44
0.0
 50
0.0
 51
0.0
 71
     0
 72
   100
 73
     1
 74
     3
 75
     0
 76
     0
 77
     0
 78
     0
  0
ENDTAB
  0
TABLE
  2
LTYPE
  5
5
330
0
100
AcDbSymbolTable
 70
     1
  0
LTYPE
  5
14
330
5
100
AcDbSymbolTableRecord
100
AcDbLinetypeTableRecord
  2
BYBLOCK
 70
     0
  3

 72
    65
 73
     0
 40
0.0
  0
LTYPE
  5
15
330
5
100
AcDbSymbolTableRecord
100
AcDbLinetypeTableRecord
  2
BYLAYER
 70
     0
  3

 72
    65
 73
     0
 40
0.0
  0
LTYPE
  5
16
330
5
100
AcDbSymbolTableRecord
100
AcDbLinetypeTableRecord
  2
CONTINUOUS
 70
     0
  3
Solid line
 72
    65
 73
     0
 40
0.0
  0
ENDTAB
  0
TABLE
0
TABLE
2
LAYER
5
2
330
0
100
AcDbSymbolTable
70
1
0
LAYER
5
10
330
2
100
AcDbSymbolTableRecord
100
AcDbLayerTableRecord
2
Layer_1
70
0
62
7
6
CONTINUOUS
0
ENDTAB
0
ENDSEC
  0
ENDTAB
  0
TABLE
  2
STYLE
  5
3
330
0
100
AcDbSymbolTable
 70
     1
  0
STYLE
  5
11
330
3
100
AcDbSymbolTableRecord
100
AcDbTextStyleTableRecord
  2
STANDARD
 70
     0
 40
0.0
 41
1.0
 50
0.0
 71
     0
 42
2.5
  3
txt
  4

  0
ENDTAB
  0
TABLE
  2
VIEW
  5
6
330
0
100
AcDbSymbolTable
 70
     0
  0
ENDTAB
  0
TABLE
  2
UCS
  5
7
330
0
100
AcDbSymbolTable
 70
     0
  0
ENDTAB
  0
TABLE
  2
APPID
  5
9
330
0
100
AcDbSymbolTable
 70
     2
  0
APPID
  5
12
330
9
100
AcDbSymbolTableRecord
100
AcDbRegAppTableRecord
  2
ACAD
 70
     0
  0
ENDTAB
  0
TABLE
  2
DIMSTYLE
  5
A
330
0
100
AcDbSymbolTable
 70
     1
  0
DIMSTYLE
105
27
330
A
100
AcDbSymbolTableRecord
100
AcDbDimStyleTableRecord
  2
ISO-25
 70
     0
  3

  4

  5

  6

  7

 40
1.0
 41
2.5
 42
0.625
 43
3.75
 44
1.25
 45
0.0
 46
0.0
 47
0.0
 48
0.0
140
2.5
141
2.5
142
0.0
143
0.03937007874016
144
1.0
145
0.0
146
1.0
147
0.625
 71
     0
 72
     0
 73
     0
 74
     0
 75
     0
 76
     0
 77
     1
 78
     8
170
     0
171
     3
172
     1
173
     0
174
     0
175
     0
176
     0
177
     0
178
     0
270
     2
271
     2
272
     2
273
     2
274
     3
340
11
275
     0
280
     0
281
     0
282
     0
283
     0
284
     8
285
     0
286
     0
287
     3
288
     0
  0
ENDTAB
  0
TABLE
  2
BLOCK_RECORD
  5
1
330
0
100
AcDbSymbolTable
 70
     1
  0
BLOCK_RECORD
  5
1F
330
1
100
AcDbSymbolTableRecord
100
AcDbBlockTableRecord
  2
*MODEL_SPACE
  0
BLOCK_RECORD
  5
1B
330
1
100
AcDbSymbolTableRecord
100
AcDbBlockTableRecord
  2
*PAPER_SPACE
  0
ENDTAB
  0
ENDSEC
  0
SECTION
  2
BLOCKS
  0
BLOCK
  5
20
330
1F
100
AcDbEntity
  8
0
100
AcDbBlockBegin
  2
*MODEL_SPACE
 70
     0
 10
0.0
 20
0.0
 30
0.0
  3
*MODEL_SPACE
  1

  0
ENDBLK
  5
21
330
1F
100
AcDbEntity
  8
0
100
AcDbBlockEnd
  0
BLOCK
  5
1C
330
1B
100
AcDbEntity
 67
     1
  8
0
100
AcDbBlockBegin
  2
*PAPER_SPACE
  1

  0
ENDBLK
  5
1D
330
1B
100
AcDbEntity
 67
     1
  8
0
100
AcDbBlockEnd
  0
ENDSEC
  0
SECTION
  2
ENTITIES
0
DIMENSION
5
83
100
AcDbEntity
62
256
370
-1
6
ByLayer
1
total_width
3
Standard
70
0
71
5
72
1
41
1.0
100
AcDbAlignedDimension
13
0.148223
23
0.000000
33
0.0
14
176.635730
24
0.000000
34
0.0
50
0.000000
100
AcDbRotatedDimension
0
DIMENSION
5
83
100
AcDbEntity
62
256
370
-1
6
ByLayer
1
total_height
3
Standard
70
0
71
5
72
1
41
1.0
100
AcDbAlignedDimension
13
0.000000
23
1.148800
33
0.0
14
0.000000
24
138.351706
34
0.0
50
90.000000
100
AcDbRotatedDimension
0
DIMENSION
8
Layer_1
5
83
100
AcDbEntity
62
256
370
-1
6
ByLayer
1
Layer_1_width
3
Standard
70
0
71
5
72
1
41
1.0
100
AcDbAlignedDimension
13
0.148223
23
0.000000
33
0.0
14
176.635730
24
0.000000
34
0.0
50
0.000000
100
AcDbRotatedDimension
0
DIMENSION
8
Layer_1
5
83
100
AcDbEntity
62
256
370
-1
6
ByLayer
1
Layer_1_height
3
Standard
70
0
71
5
72
1
41
1.0
100
AcDbAlignedDimension
13
0.000000
23
1.148800
33
0.0
14
0.000000
24
138.351706
34
0.0
50
90.000000
100
AcDbRotatedDimension
62
0
0
LWPOLYLINE
100
AcDbPolyline
8
Layer_1
90
61
70
0
10
90.452222
20
2.998106
30
0.0
10
84.102222
20
5.757548
30
0.0
10
75.141667
20
9.615619
30
0.0
10
68.297778
20
12.543640
30
0.0
10
68.297778
20
75.447672
30
0.0
10
68.297778
20
138.351706
30
0.0
10
69.356111
20
138.166692
30
0.0
10
78.494416
20
136.142235
30
0.0
10
88.771118
20
133.479393
30
0.0
10
95.452731
20
131.419868
30
0.0
10
101.566510
20
129.246900
30
0.0
10
107.312036
20
126.884156
30
0.0
10
112.888889
20
124.255304
30
0.0
10
117.858609
20
121.611789
30
0.0
10
121.961639
20
119.069956
30
0.0
10
125.448007
20
116.460087
30
0.0
10
128.567739
20
113.612462
30
0.0
10
130.183386
20
111.879172
30
0.0
10
131.586018
20
110.110584
30
0.0
10
132.797901
20
108.259178
30
0.0
10
133.841302
20
106.277433
30
0.0
10
134.738488
20
104.117829
30
0.0
10
135.511728
20
101.732847
30
0.0
10
136.183288
20
99.074966
30
0.0
10
136.775436
20
96.096667
30
0.0
10
137.154347
20
92.699613
30
0.0
10
137.279666
20
88.655219
30
0.0
10
137.151621
20
84.634673
30
0.0
10
136.770440
20
81.309165
30
0.0
10
136.128689
20
78.462138
30
0.0
10
135.284367
20
75.726168
30
0.0
10
134.262076
20
73.146031
30
0.0
10
133.086419
20
70.766503
30
0.0
10
131.781997
20
68.632359
30
0.0
10
130.373414
20
66.788375
30
0.0
10
128.885271
20
65.279326
30
0.0
10
127.342172
20
64.149989
30
0.0
10
126.586762
20
63.749848
30
0.0
10
125.802510
20
63.552323
30
0.0
10
122.544394
20
63.571992
30
0.0
10
118.789958
20
63.963788
30
0.0
10
117.125441
20
64.344635
30
0.0
10
115.583353
20
64.856331
30
0.0
10
114.149165
20
65.504538
30
0.0
10
112.808347
20
66.294919
30
0.0
10
111.546370
20
67.233136
30
0.0
10
110.348705
20
68.324851
30
0.0
10
108.937778
20
69.735768
30
0.0
10
108.937778
20
89.592466
30
0.0
10
108.937778
20
109.449164
30
0.0
10
107.738333
20
109.879020
30
0.0
10
104.422222
20
111.205343
30
0.0
10
100.047778
20
113.034792
30
0.0
10
96.767515
20
114.404919
30
0.0
10
95.993400
20
114.661671
30
0.0
10
95.568070
20
114.665105
30
0.0
10
95.391111
20
90.875287
30
0.0
10
95.195277
20
33.638844
30
0.0
10
94.850585
20
1.148800
30
0.0
10
90.452222
20
2.998106
30
0.0
10
90.452222
20
2.998106
30
0.0
62
0
0
LWPOLYLINE
100
AcDbPolyline
8
Layer_1
90
62
70
0
10
102.164444
20
10.985331
30
0.0
10
102.239404
20
16.817581
30
0.0
10
102.347992
20
18.060889
30
0.0
10
102.517222
20
18.469785
30
0.0
10
122.766667
20
25.519769
30
0.0
10
134.055556
20
29.494675
30
0.0
10
147.037778
20
34.047331
30
0.0
10
154.022778
20
36.470065
30
0.0
10
157.480000
20
37.817812
30
0.0
10
153.740556
20
39.641938
30
0.0
10
146.670466
20
42.793028
30
0.0
10
143.339823
20
44.284657
30
0.0
10
136.933799
20
42.766829
30
0.0
10
124.883333
20
39.941221
30
0.0
10
116.416667
20
37.958497
30
0.0
10
102.575716
20
34.778019
30
0.0
10
102.437950
20
38.455609
30
0.0
10
102.410040
20
44.763611
30
0.0
10
102.446667
20
47.899441
30
0.0
10
104.069444
20
48.529985
30
0.0
10
110.132617
20
50.705456
30
0.0
10
116.040529
20
52.431300
30
0.0
10
122.118872
20
53.791368
30
0.0
10
128.693333
20
54.869509
30
0.0
10
136.817628
20
55.840772
30
0.0
10
140.001850
20
56.046784
30
0.0
10
142.794814
20
56.060189
30
0.0
10
145.342037
20
55.876344
30
0.0
10
147.789038
20
55.490604
30
0.0
10
150.281334
20
54.898325
30
0.0
10
152.964444
20
54.094863
30
0.0
10
157.445856
20
52.380492
30
0.0
10
162.113311
20
50.145015
30
0.0
10
166.369111
20
47.701822
30
0.0
10
169.615556
20
45.364298
30
0.0
10
171.955041
20
43.269110
30
0.0
10
173.672270
20
41.500272
30
0.0
10
174.920611
20
39.882651
30
0.0
10
175.853431
20
38.241111
30
0.0
10
176.429581
20
36.781591
30
0.0
10
176.635730
20
35.472913
30
0.0
10
176.434302
20
34.266379
30
0.0
10
175.787718
20
33.113294
30
0.0
10
174.658403
20
31.964961
30
0.0
10
173.008780
20
30.772683
30
0.0
10
170.801271
20
29.487764
30
0.0
10
167.998301
20
28.061508
30
0.0
10
164.137436
20
26.246667
30
0.0
10
162.085802
20
25.385443
30
0.0
10
158.891111
20
23.977758
30
0.0
10
145.485556
20
18.743145
30
0.0
10
140.264444
20
16.789767
30
0.0
10
136.454444
20
15.395948
30
0.0
10
129.963333
20
13.122326
30
0.0
10
123.048889
20
10.719895
30
0.0
10
116.134444
20
8.335196
30
0.0
10
106.821111
20
5.168626
30
0.0
10
102.517222
20
3.742492
30
0.0
10
102.345392
20
4.016373
30
0.0
10
102.237092
20
5.155216
30
0.0
10
102.164444
20
10.985331
30
0.0
10
102.164444
20
10.985331
30
0.0
62
0
0
LWPOLYLINE
100
AcDbPolyline
8
Layer_1
90
68
70
0
10
24.553333
20
16.062463
30
0.0
10
19.793691
20
16.862977
30
0.0
10
15.595817
20
17.818480
30
0.0
10
11.938567
20
18.939139
30
0.0
10
8.800797
20
20.235118
30
0.0
10
6.161360
20
21.716584
30
0.0
10
3.999113
20
23.393702
30
0.0
10
2.292910
20
25.276637
30
0.0
10
1.021608
20
27.375556
30
0.0
10
0.302100
20
29.261188
30
0.0
10
0.148223
20
31.326667
30
0.0
10
0.272245
20
32.923224
30
0.0
10
0.664818
20
34.365101
30
0.0
10
1.373976
20
35.776712
30
0.0
10
2.447753
20
37.282467
30
0.0
10
3.593498
20
38.567650
30
0.0
10
4.985090
20
39.864406
30
0.0
10
8.468190
20
42.475376
30
0.0
10
12.821815
20
45.080848
30
0.0
10
17.970726
20
47.646292
30
0.0
10
23.839683
20
50.137181
30
0.0
10
30.353448
20
52.518985
30
0.0
10
37.436781
20
54.757175
30
0.0
10
45.014444
20
56.817223
30
0.0
10
55.174990
20
59.083369
30
0.0
10
59.174756
20
59.820792
30
0.0
10
60.900513
20
59.984671
30
0.0
10
61.062140
20
57.710195
30
0.0
10
61.177828
20
52.866501
30
0.0
10
61.210464
20
47.906513
30
0.0
10
61.122938
20
45.283157
30
0.0
10
60.853143
20
44.874658
30
0.0
10
59.859139
20
44.432400
30
0.0
10
53.198889
20
42.600310
30
0.0
10
46.848889
20
40.923190
30
0.0
10
40.922222
20
39.362716
30
0.0
10
33.239836
20
37.363101
30
0.0
10
29.536850
20
36.266694
30
0.0
10
28.673802
20
35.867576
30
0.0
10
28.201010
20
35.466717
30
0.0
10
27.620062
20
34.356393
30
0.0
10
27.034813
20
32.956007
30
0.0
10
26.764701
20
31.724425
30
0.0
10
26.814575
20
30.711093
30
0.0
10
27.189286
20
29.965455
30
0.0
10
28.094005
20
29.326790
30
0.0
10
29.582863
20
28.958300
30
0.0
10
31.953976
20
28.820913
30
0.0
10
35.505461
20
28.875558
30
0.0
10
41.539775
20
29.205657
30
0.0
10
47.163457
20
29.814224
30
0.0
10
52.707242
20
30.746904
30
0.0
10
58.501864
20
32.049342
30
0.0
10
61.394642
20
32.737778
30
0.0
10
61.518097
20
28.268071
30
0.0
10
61.338658
20
21.786686
30
0.0
10
61.070716
20
19.749378
30
0.0
10
60.826886
20
19.336515
30
0.0
10
60.423126
20
19.070309
30
0.0
10
58.825968
20
18.464038
30
0.0
10
56.348531
20
17.760689
30
0.0
10
50.235556
20
16.444874
30
0.0
10
47.774745
20
16.062594
30
0.0
10
45.338835
20
15.836743
30
0.0
10
37.112222
20
15.645409
30
0.0
10
29.108370
20
15.666454
30
0.0
10
24.553333
20
16.062463
30
0.0
10
24.553333
20
16.062463
30
0.0
  0
ENDSEC
  0
SECTION
  2
OBJECTS
  0
DICTIONARY
  5
C
330
0
100
AcDbDictionary
  3
ACAD_GROUP
350
D
  3
ACAD_MLINESTYLE
350
17
  0
DICTIONARY
  5
D
330
C
100
AcDbDictionary
  0
DICTIONARY
  5
1A
330
C
100
AcDbDictionary
  0
DICTIONARY
  5
17
330
C
100
AcDbDictionary
  3
STANDARD
350
18
  0
DICTIONARY
  5
19
330
C
100
AcDbDictionary
  0
ENDSEC
  0
EOF
