999
Inkscape export via OpenSCAD DXF Export
  0
SECTION
  2
HEADER
  9
$ACADVER
  1
AC1014
  9
$HANDSEED
  5
FFFF
  9
$MEASUREMENT
 70
     1
  0
ENDSEC
  0
SECTION
  2
TABLES
  0
TABLE
  2
VPORT
  5
8
330
0
100
AcDbSymbolTable
 70
     4
  0
VPORT
  5
2E
330
8
100
AcDbSymbolTableRecord
100
AcDbViewportTableRecord
  2
*ACTIVE
 70
     0
 10
0.0
 20
0.0
 11
1.0
 21
1.0
 12
210.0
 22
148.5
 13
0.0
 23
0.0
 14
10.0
 24
10.0
 15
10.0
 25
10.0
 16
0.0
 26
0.0
 36
1.0
 17
0.0
 27
0.0
 37
0.0
 40
341.0
 41
1.24
 42
50.0
 43
0.0
 44
0.0
 50
0.0
 51
0.0
 71
     0
 72
   100
 73
     1
 74
     3
 75
     0
 76
     0
 77
     0
 78
     0
  0
ENDTAB
  0
TABLE
  2
LTYPE
  5
5
330
0
100
AcDbSymbolTable
 70
     1
  0
LTYPE
  5
14
330
5
100
AcDbSymbolTableRecord
100
AcDbLinetypeTableRecord
  2
BYBLOCK
 70
     0
  3

 72
    65
 73
     0
 40
0.0
  0
LTYPE
  5
15
330
5
100
AcDbSymbolTableRecord
100
AcDbLinetypeTableRecord
  2
BYLAYER
 70
     0
  3

 72
    65
 73
     0
 40
0.0
  0
LTYPE
  5
16
330
5
100
AcDbSymbolTableRecord
100
AcDbLinetypeTableRecord
  2
CONTINUOUS
 70
     0
  3
Solid line
 72
    65
 73
     0
 40
0.0
  0
ENDTAB
  0
TABLE
0
TABLE
2
LAYER
5
2
330
0
100
AcDbSymbolTable
70
1
0
LAYER
5
10
330
2
100
AcDbSymbolTableRecord
100
AcDbLayerTableRecord
2
Layer_1
70
0
62
7
6
CONTINUOUS
0
ENDTAB
0
ENDSEC
  0
ENDTAB
  0
TABLE
  2
STYLE
  5
3
330
0
100
AcDbSymbolTable
 70
     1
  0
STYLE
  5
11
330
3
100
AcDbSymbolTableRecord
100
AcDbTextStyleTableRecord
  2
STANDARD
 70
     0
 40
0.0
 41
1.0
 50
0.0
 71
     0
 42
2.5
  3
txt
  4

  0
ENDTAB
  0
TABLE
  2
VIEW
  5
6
330
0
100
AcDbSymbolTable
 70
     0
  0
ENDTAB
  0
TABLE
  2
UCS
  5
7
330
0
100
AcDbSymbolTable
 70
     0
  0
ENDTAB
  0
TABLE
  2
APPID
  5
9
330
0
100
AcDbSymbolTable
 70
     2
  0
APPID
  5
12
330
9
100
AcDbSymbolTableRecord
100
AcDbRegAppTableRecord
  2
ACAD
 70
     0
  0
ENDTAB
  0
TABLE
  2
DIMSTYLE
  5
A
330
0
100
AcDbSymbolTable
 70
     1
  0
DIMSTYLE
105
27
330
A
100
AcDbSymbolTableRecord
100
AcDbDimStyleTableRecord
  2
ISO-25
 70
     0
  3

  4

  5

  6

  7

 40
1.0
 41
2.5
 42
0.625
 43
3.75
 44
1.25
 45
0.0
 46
0.0
 47
0.0
 48
0.0
140
2.5
141
2.5
142
0.0
143
0.03937007874016
144
1.0
145
0.0
146
1.0
147
0.625
 71
     0
 72
     0
 73
     0
 74
     0
 75
     0
 76
     0
 77
     1
 78
     8
170
     0
171
     3
172
     1
173
     0
174
     0
175
     0
176
     0
177
     0
178
     0
270
     2
271
     2
272
     2
273
     2
274
     3
340
11
275
     0
280
     0
281
     0
282
     0
283
     0
284
     8
285
     0
286
     0
287
     3
288
     0
  0
ENDTAB
  0
TABLE
  2
BLOCK_RECORD
  5
1
330
0
100
AcDbSymbolTable
 70
     1
  0
BLOCK_RECORD
  5
1F
330
1
100
AcDbSymbolTableRecord
100
AcDbBlockTableRecord
  2
*MODEL_SPACE
  0
BLOCK_RECORD
  5
1B
330
1
100
AcDbSymbolTableRecord
100
AcDbBlockTableRecord
  2
*PAPER_SPACE
  0
ENDTAB
  0
ENDSEC
  0
SECTION
  2
BLOCKS
  0
BLOCK
  5
20
330
1F
100
AcDbEntity
  8
0
100
AcDbBlockBegin
  2
*MODEL_SPACE
 70
     0
 10
0.0
 20
0.0
 30
0.0
  3
*MODEL_SPACE
  1

  0
ENDBLK
  5
21
330
1F
100
AcDbEntity
  8
0
100
AcDbBlockEnd
  0
BLOCK
  5
1C
330
1B
100
AcDbEntity
 67
     1
  8
0
100
AcDbBlockBegin
  2
*PAPER_SPACE
  1

  0
ENDBLK
  5
1D
330
1B
100
AcDbEntity
 67
     1
  8
0
100
AcDbBlockEnd
  0
ENDSEC
  0
SECTION
  2
ENTITIES
0
DIMENSION
5
83
100
AcDbEntity
62
256
370
-1
6
ByLayer
1
total_width
3
Standard
70
0
71
5
72
1
41
1.0
100
AcDbAlignedDimension
13
1.095112
23
0.000000
33
0.0
14
93.455810
24
0.000000
34
0.0
50
0.000000
100
AcDbRotatedDimension
0
DIMENSION
5
83
100
AcDbEntity
62
256
370
-1
6
ByLayer
1
total_height
3
Standard
70
0
71
5
72
1
41
1.0
100
AcDbAlignedDimension
13
0.000000
23
-1.512578
33
0.0
14
0.000000
24
181.959700
34
0.0
50
90.000000
100
AcDbRotatedDimension
0
DIMENSION
8
Layer_1
5
83
100
AcDbEntity
62
256
370
-1
6
ByLayer
1
Layer_1_width
3
Standard
70
0
71
5
72
1
41
1.0
100
AcDbAlignedDimension
13
1.095112
23
0.000000
33
0.0
14
93.455810
24
0.000000
34
0.0
50
0.000000
100
AcDbRotatedDimension
0
DIMENSION
8
Layer_1
5
83
100
AcDbEntity
62
256
370
-1
6
ByLayer
1
Layer_1_height
3
Standard
70
0
71
5
72
1
41
1.0
100
AcDbAlignedDimension
13
0.000000
23
-1.512578
33
0.0
14
0.000000
24
181.959700
34
0.0
50
90.000000
100
AcDbRotatedDimension
62
0
0
LWPOLYLINE
100
AcDbPolyline
8
Layer_1
90
249
70
0
10
10.310939
20
0.852139
30
0.0
10
8.793802
20
3.064921
30
0.0
10
7.385825
20
5.499931
30
0.0
10
6.093499
20
8.140067
30
0.0
10
4.923314
20
10.968227
30
0.0
10
3.881761
20
13.967310
30
0.0
10
2.975332
20
17.120214
30
0.0
10
2.210518
20
20.409838
30
0.0
10
1.593809
20
23.819079
30
0.0
10
1.240842
20
27.662804
30
0.0
10
1.095112
20
32.620075
30
0.0
10
1.165321
20
37.551291
30
0.0
10
1.460173
20
41.316856
30
0.0
10
2.332244
20
46.095387
30
0.0
10
3.515255
20
50.621945
30
0.0
10
5.014728
20
54.914684
30
0.0
10
6.836182
20
58.991757
30
0.0
10
9.633006
20
63.849651
30
0.0
10
10.936424
20
65.780626
30
0.0
10
11.660410
20
66.568992
30
0.0
10
13.317320
20
65.333982
30
0.0
10
15.594996
20
63.767697
30
0.0
10
18.110695
20
62.555699
30
0.0
10
20.672716
20
61.773283
30
0.0
10
23.089357
20
61.495745
30
0.0
10
25.138101
20
61.703820
30
0.0
10
26.952016
20
62.317798
30
0.0
10
28.519523
20
63.322309
30
0.0
10
29.829045
20
64.701981
30
0.0
10
30.869005
20
66.441446
30
0.0
10
31.627824
20
68.525332
30
0.0
10
32.093925
20
70.938270
30
0.0
10
32.255731
20
73.664888
30
0.0
10
32.000721
20
77.286443
30
0.0
10
31.261347
20
80.974660
30
0.0
10
30.097302
20
84.503207
30
0.0
10
28.568277
20
87.645751
30
0.0
10
27.223860
20
89.484908
30
0.0
10
25.322269
20
91.559227
30
0.0
10
23.249705
20
93.480432
30
0.0
10
21.392366
20
94.860245
30
0.0
10
19.389343
20
95.904189
30
0.0
10
17.302869
20
96.682929
30
0.0
10
15.220909
20
97.169757
30
0.0
10
13.231425
20
97.337967
30
0.0
10
11.093964
20
97.337967
30
0.0
10
11.093964
20
139.718339
30
0.0
10
11.134797
20
169.608640
30
0.0
10
11.232970
20
181.959700
30
0.0
10
12.082837
20
178.330370
30
0.0
10
13.788750
20
171.242398
30
0.0
10
15.935209
20
164.475312
30
0.0
10
18.456929
20
158.211352
30
0.0
10
19.838110
20
155.324994
30
0.0
10
21.288624
20
152.632757
30
0.0
10
23.714301
20
148.599558
30
0.0
10
26.122106
20
145.079827
30
0.0
10
28.826688
20
141.645568
30
0.0
10
32.142701
20
137.868787
30
0.0
10
36.197801
20
133.344969
30
0.0
10
38.649215
20
130.362469
30
0.0
10
39.953457
20
128.309164
30
0.0
10
40.567043
20
126.572933
30
0.0
10
40.652736
20
125.917211
30
0.0
10
40.109117
20
126.226878
30
0.0
10
37.972302
20
127.699193
30
0.0
10
36.290793
20
128.619731
30
0.0
10
34.825752
20
129.094392
30
0.0
10
33.338341
20
129.229079
30
0.0
10
32.078380
20
129.122216
30
0.0
10
30.969030
20
128.782354
30
0.0
10
29.944777
20
128.180577
30
0.0
10
28.940108
20
127.287974
30
0.0
10
27.858760
20
125.906527
30
0.0
10
27.104012
20
124.271649
30
0.0
10
26.633061
20
122.255847
30
0.0
10
26.403100
20
119.731629
30
0.0
10
26.512716
20
116.154876
30
0.0
10
27.164357
20
112.659900
30
0.0
10
28.365033
20
109.220467
30
0.0
10
30.121750
20
105.810346
30
0.0
10
31.786549
20
103.416498
30
0.0
10
33.613904
20
101.480487
30
0.0
10
35.550282
20
100.021280
30
0.0
10
37.542147
20
99.057845
30
0.0
10
39.535966
20
98.609148
30
0.0
10
41.478205
20
98.694158
30
0.0
10
43.315330
20
99.331841
30
0.0
10
44.993806
20
100.541164
30
0.0
10
46.160005
20
101.978761
30
0.0
10
47.007618
20
103.745140
30
0.0
10
47.535761
20
105.795549
30
0.0
10
47.743549
20
108.085239
30
0.0
10
47.630097
20
110.569457
30
0.0
10
47.194522
20
113.203455
30
0.0
10
46.435939
20
115.942480
30
0.0
10
45.353464
20
118.741783
30
0.0
10
44.800870
20
120.414502
30
0.0
10
46.850636
20
119.959622
30
0.0
10
48.803506
20
119.220977
30
0.0
10
50.690688
20
118.219734
30
0.0
10
52.499948
20
116.967665
30
0.0
10
54.219053
20
115.476538
30
0.0
10
55.835770
20
113.758123
30
0.0
10
57.337865
20
111.824192
30
0.0
10
58.713107
20
109.686513
30
0.0
10
59.949261
20
107.356856
30
0.0
10
61.131098
20
104.584882
30
0.0
10
62.019338
20
101.800335
30
0.0
10
62.617637
20
98.989466
30
0.0
10
62.929646
20
96.138523
30
0.0
10
62.998368
20
94.235745
30
0.0
10
62.898171
20
93.294611
30
0.0
10
62.774761
20
93.159817
30
0.0
10
62.597161
20
93.235621
30
0.0
10
62.063447
20
93.979272
30
0.0
10
61.567303
20
94.597169
30
0.0
10
60.919884
20
95.071788
30
0.0
10
60.163590
20
95.398315
30
0.0
10
59.340824
20
95.571936
30
0.0
10
58.493988
20
95.587839
30
0.0
10
57.665484
20
95.441210
30
0.0
10
56.897713
20
95.127237
30
0.0
10
56.233077
20
94.641106
30
0.0
10
55.584204
20
93.854010
30
0.0
10
55.090531
20
92.912323
30
0.0
10
54.755623
20
91.860849
30
0.0
10
54.583043
20
90.744387
30
0.0
10
54.576357
20
89.607740
30
0.0
10
54.739129
20
88.495709
30
0.0
10
55.074925
20
87.453097
30
0.0
10
55.587307
20
86.524705
30
0.0
10
56.306832
20
85.706862
30
0.0
10
57.219597
20
85.013441
30
0.0
10
58.309330
20
84.448897
30
0.0
10
59.559759
20
84.017689
30
0.0
10
60.954612
20
83.724273
30
0.0
10
62.477616
20
83.573109
30
0.0
10
65.842989
20
83.715360
30
0.0
10
67.353835
20
83.975798
30
0.0
10
68.751322
20
84.372672
30
0.0
10
70.067000
20
84.926879
30
0.0
10
71.332415
20
85.659316
30
0.0
10
72.579116
20
86.590879
30
0.0
10
73.838650
20
87.742467
30
0.0
10
76.522411
20
90.789303
30
0.0
10
78.010984
20
92.789190
30
0.0
10
79.284167
20
94.793209
30
0.0
10
80.352260
20
96.829602
30
0.0
10
81.225567
20
98.926614
30
0.0
10
81.914389
20
101.112490
30
0.0
10
82.429027
20
103.415475
30
0.0
10
82.779783
20
105.863811
30
0.0
10
82.976960
20
108.485745
30
0.0
10
82.982901
20
111.359852
30
0.0
10
82.744854
20
114.271050
30
0.0
10
82.268365
20
117.199703
30
0.0
10
81.558976
20
120.126173
30
0.0
10
80.622231
20
123.030821
30
0.0
10
79.463674
20
125.894010
30
0.0
10
78.088848
20
128.696101
30
0.0
10
76.503299
20
131.417458
30
0.0
10
75.490132
20
133.323765
30
0.0
10
76.332041
20
132.801667
30
0.0
10
78.140080
20
131.263825
30
0.0
10
82.289469
20
127.252665
30
0.0
10
84.071762
20
125.210415
30
0.0
10
85.701902
20
123.088018
30
0.0
10
87.178674
20
120.887728
30
0.0
10
88.500867
20
118.611801
30
0.0
10
89.667267
20
116.262490
30
0.0
10
90.676661
20
113.842050
30
0.0
10
91.527835
20
111.352736
30
0.0
10
92.219577
20
108.796802
30
0.0
10
92.903586
20
105.329058
30
0.0
10
93.316783
20
101.821553
30
0.0
10
93.455810
20
98.228381
30
0.0
10
93.317310
20
94.503635
30
0.0
10
92.897923
20
90.601405
30
0.0
10
92.194293
20
86.475786
30
0.0
10
91.203060
20
82.080868
30
0.0
10
89.920868
20
77.370745
30
0.0
10
88.331218
20
71.937967
30
0.0
10
75.847205
20
71.937967
30
0.0
10
63.363193
20
71.937967
30
0.0
10
62.074123
20
69.750745
30
0.0
10
60.785050
20
67.563523
30
0.0
10
73.600426
20
67.422412
30
0.0
10
86.415801
20
67.281301
30
0.0
10
85.514327
20
65.241029
30
0.0
10
84.612853
20
63.200757
30
0.0
10
71.699334
20
63.194915
30
0.0
10
58.785819
20
63.189073
30
0.0
10
57.517668
20
61.210630
30
0.0
10
56.249519
20
59.093964
30
0.0
10
68.902481
20
58.955740
30
0.0
10
81.731502
20
58.779684
30
0.0
10
81.720505
20
58.425469
30
0.0
10
81.425429
20
57.694882
30
0.0
10
80.140718
20
55.366765
30
0.0
10
78.192716
20
52.319677
30
0.0
10
75.896769
20
49.077962
30
0.0
10
73.130924
20
45.575515
30
0.0
10
70.120554
20
42.137711
30
0.0
10
66.882983
20
38.780223
30
0.0
10
63.435535
20
35.518720
30
0.0
10
59.795531
20
32.368874
30
0.0
10
55.980297
20
29.346354
30
0.0
10
52.007153
20
26.466832
30
0.0
10
47.893424
20
23.745977
30
0.0
10
42.009467
20
20.316813
30
0.0
10
38.068374
20
18.315740
30
0.0
10
38.286001
20
18.731698
30
0.0
10
39.100009
20
19.731767
30
0.0
10
41.115094
20
22.468176
30
0.0
10
42.938924
20
25.762961
30
0.0
10
44.427605
20
29.318540
30
0.0
10
45.437242
20
32.837334
30
0.0
10
45.749964
20
35.290849
30
0.0
10
45.751740
20
37.931436
30
0.0
10
45.463219
20
40.391796
30
0.0
10
44.905047
20
42.304629
30
0.0
10
44.150774
20
43.744807
30
0.0
10
43.305182
20
44.858884
30
0.0
10
42.271544
20
45.750072
30
0.0
10
40.953134
20
46.521584
30
0.0
10
39.421676
20
47.128840
30
0.0
10
37.921450
20
47.364631
30
0.0
10
36.324305
20
47.233280
30
0.0
10
34.502090
20
46.739107
30
0.0
10
32.577188
20
45.955888
30
0.0
10
30.747460
20
44.930225
30
0.0
10
28.909303
20
43.595444
30
0.0
10
26.959114
20
41.884871
30
0.0
10
24.734214
20
39.608140
30
0.0
10
22.666878
20
37.117845
30
0.0
10
20.763278
20
34.425137
30
0.0
10
19.029583
20
31.541169
30
0.0
10
17.471967
20
28.477093
30
0.0
10
16.096599
20
25.244062
30
0.0
10
14.909650
20
21.853229
30
0.0
10
13.917293
20
18.315745
30
0.0
10
13.155402
20
14.989630
30
0.0
10
12.682381
20
12.088456
30
0.0
10
12.409666
20
8.887526
30
0.0
10
12.248691
20
4.662139
30
0.0
10
12.081742
20
-1.512578
30
0.0
10
10.310939
20
0.852139
30
0.0
10
10.310939
20
0.852139
30
0.0
62
0
0
LWPOLYLINE
100
AcDbPolyline
8
Layer_1
90
38
70
0
10
17.247315
20
71.187287
30
0.0
10
15.958800
20
71.659025
30
0.0
10
14.800988
20
72.302617
30
0.0
10
13.786516
20
73.101742
30
0.0
10
12.928022
20
74.040082
30
0.0
10
12.238142
20
75.101318
30
0.0
10
11.729512
20
76.269129
30
0.0
10
11.414771
20
77.527196
30
0.0
10
11.306554
20
78.859199
30
0.0
10
11.383212
20
79.995975
30
0.0
10
11.611272
20
81.081465
30
0.0
10
11.985961
20
82.108135
30
0.0
10
12.502504
20
83.068453
30
0.0
10
13.156128
20
83.954884
30
0.0
10
13.942058
20
84.759895
30
0.0
10
14.855521
20
85.475952
30
0.0
10
15.891742
20
86.095521
30
0.0
10
17.537103
20
86.620228
30
0.0
10
19.539938
20
86.798375
30
0.0
10
21.533519
20
86.629145
30
0.0
10
23.151116
20
86.111721
30
0.0
10
24.424167
20
85.327955
30
0.0
10
25.489539
20
84.429026
30
0.0
10
26.362738
20
83.399513
30
0.0
10
27.059266
20
82.223994
30
0.0
10
27.657171
20
80.604432
30
0.0
10
27.693795
20
78.644964
30
0.0
10
27.497747
20
77.007226
30
0.0
10
27.079463
20
75.633521
30
0.0
10
26.394308
20
74.419155
30
0.0
10
25.397643
20
73.259434
30
0.0
10
24.584338
20
72.560066
30
0.0
10
23.668723
20
71.975429
30
0.0
10
21.617763
20
71.172512
30
0.0
10
19.419161
20
70.895021
30
0.0
10
18.318994
20
70.967167
30
0.0
10
17.247315
20
71.187296
30
0.0
10
17.247315
20
71.187287
30
0.0
  0
ENDSEC
  0
SECTION
  2
OBJECTS
  0
DICTIONARY
  5
C
330
0
100
AcDbDictionary
  3
ACAD_GROUP
350
D
  3
ACAD_MLINESTYLE
350
17
  0
DICTIONARY
  5
D
330
C
100
AcDbDictionary
  0
DICTIONARY
  5
1A
330
C
100
AcDbDictionary
  0
DICTIONARY
  5
17
330
C
100
AcDbDictionary
  3
STANDARD
350
18
  0
DICTIONARY
  5
19
330
C
100
AcDbDictionary
  0
ENDSEC
  0
EOF
