999
Inkscape export via OpenSCAD DXF Export
  0
SECTION
  2
HEADER
  9
$ACADVER
  1
AC1014
  9
$HANDSEED
  5
FFFF
  9
$MEASUREMENT
 70
     1
  0
ENDSEC
  0
SECTION
  2
TABLES
  0
TABLE
  2
VPORT
  5
8
330
0
100
AcDbSymbolTable
 70
     4
  0
VPORT
  5
2E
330
8
100
AcDbSymbolTableRecord
100
AcDbViewportTableRecord
  2
*ACTIVE
 70
     0
 10
0.0
 20
0.0
 11
1.0
 21
1.0
 12
210.0
 22
148.5
 13
0.0
 23
0.0
 14
10.0
 24
10.0
 15
10.0
 25
10.0
 16
0.0
 26
0.0
 36
1.0
 17
0.0
 27
0.0
 37
0.0
 40
341.0
 41
1.24
 42
50.0
 43
0.0
 44
0.0
 50
0.0
 51
0.0
 71
     0
 72
   100
 73
     1
 74
     3
 75
     0
 76
     0
 77
     0
 78
     0
  0
ENDTAB
  0
TABLE
  2
LTYPE
  5
5
330
0
100
AcDbSymbolTable
 70
     1
  0
LTYPE
  5
14
330
5
100
AcDbSymbolTableRecord
100
AcDbLinetypeTableRecord
  2
BYBLOCK
 70
     0
  3

 72
    65
 73
     0
 40
0.0
  0
LTYPE
  5
15
330
5
100
AcDbSymbolTableRecord
100
AcDbLinetypeTableRecord
  2
BYLAYER
 70
     0
  3

 72
    65
 73
     0
 40
0.0
  0
LTYPE
  5
16
330
5
100
AcDbSymbolTableRecord
100
AcDbLinetypeTableRecord
  2
CONTINUOUS
 70
     0
  3
Solid line
 72
    65
 73
     0
 40
0.0
  0
ENDTAB
  0
TABLE
0
TABLE
2
LAYER
5
2
330
0
100
AcDbSymbolTable
70
1
0
LAYER
5
10
330
2
100
AcDbSymbolTableRecord
100
AcDbLayerTableRecord
2
Layer_1
70
0
62
7
6
CONTINUOUS
0
ENDTAB
0
ENDSEC
  0
ENDTAB
  0
TABLE
  2
STYLE
  5
3
330
0
100
AcDbSymbolTable
 70
     1
  0
STYLE
  5
11
330
3
100
AcDbSymbolTableRecord
100
AcDbTextStyleTableRecord
  2
STANDARD
 70
     0
 40
0.0
 41
1.0
 50
0.0
 71
     0
 42
2.5
  3
txt
  4

  0
ENDTAB
  0
TABLE
  2
VIEW
  5
6
330
0
100
AcDbSymbolTable
 70
     0
  0
ENDTAB
  0
TABLE
  2
UCS
  5
7
330
0
100
AcDbSymbolTable
 70
     0
  0
ENDTAB
  0
TABLE
  2
APPID
  5
9
330
0
100
AcDbSymbolTable
 70
     2
  0
APPID
  5
12
330
9
100
AcDbSymbolTableRecord
100
AcDbRegAppTableRecord
  2
ACAD
 70
     0
  0
ENDTAB
  0
TABLE
  2
DIMSTYLE
  5
A
330
0
100
AcDbSymbolTable
 70
     1
  0
DIMSTYLE
105
27
330
A
100
AcDbSymbolTableRecord
100
AcDbDimStyleTableRecord
  2
ISO-25
 70
     0
  3

  4

  5

  6

  7

 40
1.0
 41
2.5
 42
0.625
 43
3.75
 44
1.25
 45
0.0
 46
0.0
 47
0.0
 48
0.0
140
2.5
141
2.5
142
0.0
143
0.03937007874016
144
1.0
145
0.0
146
1.0
147
0.625
 71
     0
 72
     0
 73
     0
 74
     0
 75
     0
 76
     0
 77
     1
 78
     8
170
     0
171
     3
172
     1
173
     0
174
     0
175
     0
176
     0
177
     0
178
     0
270
     2
271
     2
272
     2
273
     2
274
     3
340
11
275
     0
280
     0
281
     0
282
     0
283
     0
284
     8
285
     0
286
     0
287
     3
288
     0
  0
ENDTAB
  0
TABLE
  2
BLOCK_RECORD
  5
1
330
0
100
AcDbSymbolTable
 70
     1
  0
BLOCK_RECORD
  5
1F
330
1
100
AcDbSymbolTableRecord
100
AcDbBlockTableRecord
  2
*MODEL_SPACE
  0
BLOCK_RECORD
  5
1B
330
1
100
AcDbSymbolTableRecord
100
AcDbBlockTableRecord
  2
*PAPER_SPACE
  0
ENDTAB
  0
ENDSEC
  0
SECTION
  2
BLOCKS
  0
BLOCK
  5
20
330
1F
100
AcDbEntity
  8
0
100
AcDbBlockBegin
  2
*MODEL_SPACE
 70
     0
 10
0.0
 20
0.0
 30
0.0
  3
*MODEL_SPACE
  1

  0
ENDBLK
  5
21
330
1F
100
AcDbEntity
  8
0
100
AcDbBlockEnd
  0
BLOCK
  5
1C
330
1B
100
AcDbEntity
 67
     1
  8
0
100
AcDbBlockBegin
  2
*PAPER_SPACE
  1

  0
ENDBLK
  5
1D
330
1B
100
AcDbEntity
 67
     1
  8
0
100
AcDbBlockEnd
  0
ENDSEC
  0
SECTION
  2
ENTITIES
0
DIMENSION
5
83
100
AcDbEntity
62
256
370
-1
6
ByLayer
1
total_width
3
Standard
70
0
71
5
72
1
41
1.0
100
AcDbAlignedDimension
13
11.598298
23
0.000000
33
0.0
14
551.141883
24
0.000000
34
0.0
50
0.000000
100
AcDbRotatedDimension
0
DIMENSION
5
83
100
AcDbEntity
62
256
370
-1
6
ByLayer
1
total_height
3
Standard
70
0
71
5
72
1
41
1.0
100
AcDbAlignedDimension
13
0.000000
23
7.665551
33
0.0
14
0.000000
24
558.461964
34
0.0
50
90.000000
100
AcDbRotatedDimension
0
DIMENSION
8
Layer_1
5
83
100
AcDbEntity
62
256
370
-1
6
ByLayer
1
Layer_1_width
3
Standard
70
0
71
5
72
1
41
1.0
100
AcDbAlignedDimension
13
11.598298
23
0.000000
33
0.0
14
551.141883
24
0.000000
34
0.0
50
0.000000
100
AcDbRotatedDimension
0
DIMENSION
8
Layer_1
5
83
100
AcDbEntity
62
256
370
-1
6
ByLayer
1
Layer_1_height
3
Standard
70
0
71
5
72
1
41
1.0
100
AcDbAlignedDimension
13
0.000000
23
7.665551
33
0.0
14
0.000000
24
558.461964
34
0.0
50
90.000000
100
AcDbRotatedDimension
62
0
0
LWPOLYLINE
100
AcDbPolyline
8
Layer_1
90
427
70
0
10
268.682732
20
7.928441
30
0.0
10
257.317160
20
8.726632
30
0.0
10
246.056612
20
9.989926
30
0.0
10
234.910509
20
11.714506
30
0.0
10
223.888271
20
13.896556
30
0.0
10
212.999316
20
16.532258
30
0.0
10
202.253066
20
19.617796
30
0.0
10
191.658939
20
23.149351
30
0.0
10
181.226356
20
27.123108
30
0.0
10
170.964735
20
31.535249
30
0.0
10
160.883498
20
36.381957
30
0.0
10
150.992063
20
41.659415
30
0.0
10
141.299851
20
47.363806
30
0.0
10
131.816281
20
53.491313
30
0.0
10
122.550773
20
60.038119
30
0.0
10
113.512747
20
67.000408
30
0.0
10
104.711621
20
74.374361
30
0.0
10
98.983143
20
79.662367
30
0.0
10
91.999070
20
86.500145
30
0.0
10
85.165226
20
93.481717
30
0.0
10
79.887439
20
99.201111
30
0.0
10
73.383489
20
106.925840
30
0.0
10
67.185588
20
114.840347
30
0.0
10
61.296798
20
122.937977
30
0.0
10
55.720181
20
131.212073
30
0.0
10
50.458800
20
139.655977
30
0.0
10
45.515717
20
148.263033
30
0.0
10
40.893995
20
157.026585
30
0.0
10
36.596695
20
165.939974
30
0.0
10
32.626882
20
174.996546
30
0.0
10
28.987616
20
184.189642
30
0.0
10
25.681960
20
193.512606
30
0.0
10
22.712976
20
202.958782
30
0.0
10
20.083728
20
212.521511
30
0.0
10
17.797277
20
222.194139
30
0.0
10
15.856685
20
231.970007
30
0.0
10
14.265016
20
241.842459
30
0.0
10
13.021587
20
251.621794
30
0.0
10
12.198549
20
260.873423
30
0.0
10
11.742065
20
270.387011
30
0.0
10
11.598298
20
280.952222
30
0.0
10
11.669829
20
289.635833
30
0.0
10
11.934961
20
296.888986
30
0.0
10
12.455532
20
303.829033
30
0.0
10
13.293381
20
311.573325
30
0.0
10
14.297735
20
319.132293
30
0.0
10
15.497065
20
326.618160
30
0.0
10
16.891292
20
334.030695
30
0.0
10
18.480333
20
341.369668
30
0.0
10
20.264107
20
348.634849
30
0.0
10
22.242533
20
355.826006
30
0.0
10
24.415530
20
362.942909
30
0.0
10
26.783017
20
369.985327
30
0.0
10
29.344913
20
376.953030
30
0.0
10
32.101136
20
383.845787
30
0.0
10
35.051605
20
390.663368
30
0.0
10
38.196239
20
397.405541
30
0.0
10
41.534957
20
404.072076
30
0.0
10
45.067678
20
410.662742
30
0.0
10
48.794319
20
417.177310
30
0.0
10
52.714802
20
423.615547
30
0.0
10
59.215452
20
433.479703
30
0.0
10
66.189443
20
443.119715
30
0.0
10
73.619181
20
452.516000
30
0.0
10
81.487071
20
461.648978
30
0.0
10
89.775521
20
470.499066
30
0.0
10
98.466937
20
479.046681
30
0.0
10
107.543723
20
487.272244
30
0.0
10
116.988288
20
495.156171
30
0.0
10
124.794868
20
501.192938
30
0.0
10
132.597780
20
506.892763
30
0.0
10
138.816103
20
511.134692
30
0.0
10
140.837006
20
512.358647
30
0.0
10
141.868914
20
512.797769
30
0.0
10
142.248063
20
512.753351
30
0.0
10
142.463668
20
512.608451
30
0.0
10
142.507208
20
512.345600
30
0.0
10
142.370159
20
511.947328
30
0.0
10
141.520200
20
510.674647
30
0.0
10
139.845607
20
508.650655
30
0.0
10
133.686274
20
501.099175
30
0.0
10
127.552918
20
492.789805
30
0.0
10
121.533981
20
483.871260
30
0.0
10
115.717903
20
474.492252
30
0.0
10
110.193125
20
464.801494
30
0.0
10
105.048087
20
454.947701
30
0.0
10
100.371230
20
445.079585
30
0.0
10
96.250994
20
435.345860
30
0.0
10
92.833882
20
426.194257
30
0.0
10
89.874490
20
417.135463
30
0.0
10
87.372813
20
408.172399
30
0.0
10
85.328846
20
399.307990
30
0.0
10
83.742583
20
390.545156
30
0.0
10
82.614018
20
381.886820
30
0.0
10
81.943146
20
373.335905
30
0.0
10
81.729962
20
364.895333
30
0.0
10
81.974461
20
356.568027
30
0.0
10
82.676636
20
348.356908
30
0.0
10
83.836482
20
340.264900
30
0.0
10
85.453994
20
332.294924
30
0.0
10
87.529166
20
324.449904
30
0.0
10
90.061994
20
316.732761
30
0.0
10
93.052471
20
309.146418
30
0.0
10
96.500592
20
301.693797
30
0.0
10
99.132426
20
296.658810
30
0.0
10
101.980721
20
291.689903
30
0.0
10
105.043509
20
286.789863
30
0.0
10
108.318827
20
281.961476
30
0.0
10
111.804710
20
277.207529
30
0.0
10
115.499192
20
272.530806
30
0.0
10
119.400310
20
267.934096
30
0.0
10
123.506097
20
263.420183
30
0.0
10
126.215292
20
260.681186
30
0.0
10
129.118105
20
258.013791
30
0.0
10
132.200163
20
255.428557
30
0.0
10
135.447096
20
252.936043
30
0.0
10
138.844532
20
250.546810
30
0.0
10
142.378099
20
248.271416
30
0.0
10
146.033426
20
246.120422
30
0.0
10
149.796142
20
244.104386
30
0.0
10
155.375480
20
241.443382
30
0.0
10
160.680662
20
239.312044
30
0.0
10
165.888288
20
237.646591
30
0.0
10
171.174955
20
236.383237
30
0.0
10
174.306492
20
235.834103
30
0.0
10
177.404696
20
235.453392
30
0.0
10
180.468711
20
235.240893
30
0.0
10
183.497678
20
235.196394
30
0.0
10
186.490741
20
235.319682
30
0.0
10
189.447042
20
235.610544
30
0.0
10
192.365723
20
236.068767
30
0.0
10
195.245928
20
236.694140
30
0.0
10
198.086798
20
237.486450
30
0.0
10
200.887477
20
238.445485
30
0.0
10
203.647106
20
239.571031
30
0.0
10
206.364829
20
240.862877
30
0.0
10
209.039788
20
242.320809
30
0.0
10
211.671126
20
243.944616
30
0.0
10
214.257984
20
245.734085
30
0.0
10
216.799507
20
247.689003
30
0.0
10
220.135777
20
250.646177
30
0.0
10
223.540339
20
254.091493
30
0.0
10
226.540125
20
257.517394
30
0.0
10
228.662069
20
260.416322
30
0.0
10
230.630612
20
263.746221
30
0.0
10
232.483409
20
267.180794
30
0.0
10
235.835549
20
274.340730
30
0.0
10
238.706065
20
281.849671
30
0.0
10
241.082532
20
289.661155
30
0.0
10
242.952523
20
297.728723
30
0.0
10
244.303615
20
306.005914
30
0.0
10
245.123382
20
314.446268
30
0.0
10
245.399399
20
323.003325
30
0.0
10
245.116758
20
331.918866
30
0.0
10
244.263984
20
340.824070
30
0.0
10
242.833799
20
349.747303
30
0.0
10
240.818925
20
358.716928
30
0.0
10
238.212087
20
367.761310
30
0.0
10
235.006005
20
376.908812
30
0.0
10
231.193403
20
386.187800
30
0.0
10
226.767003
20
395.626638
30
0.0
10
223.692419
20
401.477908
30
0.0
10
220.702722
20
406.347738
30
0.0
10
217.395519
20
410.834007
30
0.0
10
213.368419
20
415.534594
30
0.0
10
209.904232
20
419.130526
30
0.0
10
206.074771
20
422.662853
30
0.0
10
201.928922
20
426.096803
30
0.0
10
197.515573
20
429.397603
30
0.0
10
192.883609
20
432.530483
30
0.0
10
188.081917
20
435.460671
30
0.0
10
183.159383
20
438.153396
30
0.0
10
178.164894
20
440.573885
30
0.0
10
176.244287
20
441.511248
30
0.0
10
175.483782
20
442.016577
30
0.0
10
191.368597
20
459.657808
30
0.0
10
207.338543
20
476.955547
30
0.0
10
208.521793
20
476.484422
30
0.0
10
210.832236
20
475.294108
30
0.0
10
216.352890
20
472.094298
30
0.0
10
221.474454
20
468.687780
30
0.0
10
226.423487
20
465.036467
30
0.0
10
231.196171
20
461.143962
30
0.0
10
235.788688
20
457.013866
30
0.0
10
240.197219
20
452.649783
30
0.0
10
244.417946
20
448.055317
30
0.0
10
248.447049
20
443.234069
30
0.0
10
252.280711
20
438.189644
30
0.0
10
255.179161
20
434.339992
30
0.0
10
255.092399
20
437.402561
30
0.0
10
254.542129
20
443.371103
30
0.0
10
253.479411
20
450.423584
30
0.0
10
251.913678
20
457.577057
30
0.0
10
249.870167
20
464.765320
30
0.0
10
247.374115
20
471.922174
30
0.0
10
244.450758
20
478.981419
30
0.0
10
241.125333
20
485.876856
30
0.0
10
237.423077
20
492.542284
30
0.0
10
233.369225
20
498.911505
30
0.0
10
231.006066
20
502.489123
30
0.0
10
255.608936
20
530.511383
30
0.0
10
280.393798
20
558.461964
30
0.0
10
287.582269
20
550.538484
30
0.0
10
304.541230
20
531.368641
30
0.0
10
328.992089
20
503.594277
30
0.0
10
329.275048
20
503.216416
30
0.0
10
329.277677
20
502.803476
30
0.0
10
328.126429
20
500.884831
30
0.0
10
324.356945
20
494.585437
30
0.0
10
320.539562
20
487.538880
30
0.0
10
317.416112
20
480.940301
30
0.0
10
314.628114
20
474.313920
30
0.0
10
312.184085
20
467.688991
30
0.0
10
310.092542
20
461.094768
30
0.0
10
308.362001
20
454.560502
30
0.0
10
307.000981
20
448.115449
30
0.0
10
306.017997
20
441.788861
30
0.0
10
305.421566
20
435.609992
30
0.0
10
305.373409
20
434.002863
30
0.0
10
305.496445
20
433.980693
30
0.0
10
305.755040
20
434.336294
30
0.0
10
308.647056
20
438.305157
30
0.0
10
311.473378
20
441.937445
30
0.0
10
314.560294
20
445.589110
30
0.0
10
317.874477
20
449.227169
30
0.0
10
321.382605
20
452.818636
30
0.0
10
325.051352
20
456.330529
30
0.0
10
328.847394
20
459.729863
30
0.0
10
332.737406
20
462.983654
30
0.0
10
336.688063
20
466.058919
30
0.0
10
341.457427
20
469.438500
30
0.0
10
346.846017
20
472.997885
30
0.0
10
351.409276
20
475.811943
30
0.0
10
352.929983
20
476.650373
30
0.0
10
353.702648
20
476.955547
30
0.0
10
358.747917
20
471.488307
30
0.0
10
369.555642
20
459.451698
30
0.0
10
380.275747
20
447.393388
30
0.0
10
385.058158
20
441.861044
30
0.0
10
383.264946
20
441.136270
30
0.0
10
380.592624
20
439.933638
30
0.0
10
376.984570
20
438.117568
30
0.0
10
370.187220
20
434.325203
30
0.0
10
365.241734
20
431.004617
30
0.0
10
360.379576
20
427.276708
30
0.0
10
355.651512
20
423.193250
30
0.0
10
351.108306
20
418.806015
30
0.0
10
346.800722
20
414.166774
30
0.0
10
342.779525
20
409.327301
30
0.0
10
339.095478
20
404.339367
30
0.0
10
335.799345
20
399.254746
30
0.0
10
333.596303
20
395.303171
30
0.0
10
331.412274
20
390.810332
30
0.0
10
329.281415
20
385.869686
30
0.0
10
327.237880
20
380.574690
30
0.0
10
325.315827
20
375.018801
30
0.0
10
323.549410
20
369.295478
30
0.0
10
321.972785
20
363.498176
30
0.0
10
320.620108
20
357.720355
30
0.0
10
318.865993
20
348.442953
30
0.0
10
317.603746
20
339.295014
30
0.0
10
316.833462
20
330.302361
30
0.0
10
316.555236
20
321.490818
30
0.0
10
316.769163
20
312.886209
30
0.0
10
317.475338
20
304.514356
30
0.0
10
318.673855
20
296.401083
30
0.0
10
320.364810
20
288.572214
30
0.0
10
322.052018
20
282.696832
30
0.0
10
324.101561
20
276.948192
30
0.0
10
326.470538
20
271.405141
30
0.0
10
329.116051
20
266.146522
30
0.0
10
331.995201
20
261.251183
30
0.0
10
335.065087
20
256.797969
30
0.0
10
338.282812
20
252.865725
30
0.0
10
341.605475
20
249.533297
30
0.0
10
344.998406
20
246.678327
30
0.0
10
348.443799
20
244.139530
30
0.0
10
351.953262
20
241.911231
30
0.0
10
355.538401
20
239.987758
30
0.0
10
359.210826
20
238.363437
30
0.0
10
362.982143
20
237.032592
30
0.0
10
366.863959
20
235.989550
30
0.0
10
370.867884
20
235.228638
30
0.0
10
374.256579
20
234.908241
30
0.0
10
378.383126
20
234.800436
30
0.0
10
382.563802
20
234.905463
30
0.0
10
386.114883
20
235.223558
30
0.0
10
391.638702
20
236.250974
30
0.0
10
397.184481
20
237.778792
30
0.0
10
402.760497
20
239.811120
30
0.0
10
408.375026
20
242.352064
30
0.0
10
414.036348
20
245.405733
30
0.0
10
419.752738
20
248.976233
30
0.0
10
425.532474
20
253.067672
30
0.0
10
431.383835
20
257.684157
30
0.0
10
434.641578
20
260.621547
30
0.0
10
438.126469
20
264.199188
30
0.0
10
441.758283
20
268.314577
30
0.0
10
445.456793
20
272.865207
30
0.0
10
449.141774
20
277.748574
30
0.0
10
452.732999
20
282.862173
30
0.0
10
456.150243
20
288.103500
30
0.0
10
459.313280
20
293.370048
30
0.0
10
462.593223
20
299.367720
30
0.0
10
465.600171
20
305.448701
30
0.0
10
468.333142
20
311.607724
30
0.0
10
470.791158
20
317.839525
30
0.0
10
472.973237
20
324.138838
30
0.0
10
474.878401
20
330.500398
30
0.0
10
476.505670
20
336.918939
30
0.0
10
477.854063
20
343.389196
30
0.0
10
478.922600
20
349.905902
30
0.0
10
479.710303
20
356.463794
30
0.0
10
480.216190
20
363.057605
30
0.0
10
480.439282
20
369.682070
30
0.0
10
480.378598
20
376.331923
30
0.0
10
480.033160
20
383.001899
30
0.0
10
479.401987
20
389.686733
30
0.0
10
478.484099
20
396.381159
30
0.0
10
477.491901
20
402.016532
30
0.0
10
476.301201
20
407.654601
30
0.0
10
474.911697
20
413.296055
30
0.0
10
473.323087
20
418.941585
30
0.0
10
471.535068
20
424.591879
30
0.0
10
469.547338
20
430.247626
30
0.0
10
467.359595
20
435.909517
30
0.0
10
464.971536
20
441.578240
30
0.0
10
462.382859
20
447.254485
30
0.0
10
459.593261
20
452.938941
30
0.0
10
456.602441
20
458.632297
30
0.0
10
453.410096
20
464.335244
30
0.0
10
450.015924
20
470.048469
30
0.0
10
446.419622
20
475.772663
30
0.0
10
442.620888
20
481.508515
30
0.0
10
438.619420
20
487.256715
30
0.0
10
433.950317
20
493.591374
30
0.0
10
428.791285
20
500.254992
30
0.0
10
423.896350
20
506.294844
30
0.0
10
420.019536
20
510.758206
30
0.0
10
419.054090
20
511.874704
30
0.0
10
418.631254
20
512.589366
30
0.0
10
418.731546
20
512.968224
30
0.0
10
419.335486
20
513.077310
30
0.0
10
420.614953
20
512.732994
30
0.0
10
422.746435
20
511.520322
30
0.0
10
426.169289
20
509.156380
30
0.0
10
431.322875
20
505.358250
30
0.0
10
441.894344
20
497.302239
30
0.0
10
451.495410
20
489.653142
30
0.0
10
460.244125
20
482.301847
30
0.0
10
468.258543
20
475.139239
30
0.0
10
475.656715
20
468.056203
30
0.0
10
482.556695
20
460.943624
30
0.0
10
489.076536
20
453.692388
30
0.0
10
495.334290
20
446.193381
30
0.0
10
500.770986
20
439.172990
30
0.0
10
505.927426
20
431.965707
30
0.0
10
510.804513
20
424.569253
30
0.0
10
515.403150
20
416.981343
30
0.0
10
519.724242
20
409.199697
30
0.0
10
523.768692
20
401.222031
30
0.0
10
527.537404
20
393.046065
30
0.0
10
531.031281
20
384.669515
30
0.0
10
534.251227
20
376.090101
30
0.0
10
537.198145
20
367.305538
30
0.0
10
539.872940
20
358.313546
30
0.0
10
542.276514
20
349.111843
30
0.0
10
544.409772
20
339.698146
30
0.0
10
546.273617
20
330.070173
30
0.0
10
547.868953
20
320.225641
30
0.0
10
549.196683
20
310.162270
30
0.0
10
550.563885
20
296.578285
30
0.0
10
550.949231
20
290.591918
30
0.0
10
551.140665
20
284.849647
30
0.0
10
551.141883
20
279.131732
30
0.0
10
550.956578
20
273.218434
30
0.0
10
550.041177
20
259.926723
30
0.0
10
549.158938
20
251.060712
30
0.0
10
548.053260
20
242.286147
30
0.0
10
546.725288
20
233.606686
30
0.0
10
545.176164
20
225.025987
30
0.0
10
543.407033
20
216.547707
30
0.0
10
541.419039
20
208.175503
30
0.0
10
539.213324
20
199.913033
30
0.0
10
536.791034
20
191.763953
30
0.0
10
534.153311
20
183.731922
30
0.0
10
531.301300
20
175.820597
30
0.0
10
528.236144
20
168.033635
30
0.0
10
524.958986
20
160.374693
30
0.0
10
521.470972
20
152.847430
30
0.0
10
517.773243
20
145.455501
30
0.0
10
513.866945
20
138.202565
30
0.0
10
509.753221
20
131.092279
30
0.0
10
504.338719
20
122.445880
30
0.0
10
498.619554
20
114.066877
30
0.0
10
492.602439
20
105.961058
30
0.0
10
486.294084
20
98.134214
30
0.0
10
479.701204
20
90.592133
30
0.0
10
472.830509
20
83.340605
30
0.0
10
465.688713
20
76.385419
30
0.0
10
458.282527
20
69.732366
30
0.0
10
450.618664
20
63.387235
30
0.0
10
442.703837
20
57.355815
30
0.0
10
434.544757
20
51.643896
30
0.0
10
426.148137
20
46.257267
30
0.0
10
417.520689
20
41.201718
30
0.0
10
408.669126
20
36.483038
30
0.0
10
399.600159
20
32.107018
30
0.0
10
390.320502
20
28.079446
30
0.0
10
384.043610
20
25.600166
30
0.0
10
377.677207
20
23.278077
30
0.0
10
371.225029
20
21.113879
30
0.0
10
364.690813
20
19.108271
30
0.0
10
358.078296
20
17.261951
30
0.0
10
351.391217
20
15.575621
30
0.0
10
344.633311
20
14.049978
30
0.0
10
337.808317
20
12.685723
30
0.0
10
330.919971
20
11.483555
30
0.0
10
323.972010
20
10.444172
30
0.0
10
316.968172
20
9.568275
30
0.0
10
309.912194
20
8.856563
30
0.0
10
302.807812
20
8.309735
30
0.0
10
295.658765
20
7.928491
30
0.0
10
288.468789
20
7.713530
30
0.0
10
281.241621
20
7.665551
30
0.0
10
268.682732
20
7.928497
30
0.0
10
268.682732
20
7.928441
30
0.0
  0
ENDSEC
  0
SECTION
  2
OBJECTS
  0
DICTIONARY
  5
C
330
0
100
AcDbDictionary
  3
ACAD_GROUP
350
D
  3
ACAD_MLINESTYLE
350
17
  0
DICTIONARY
  5
D
330
C
100
AcDbDictionary
  0
DICTIONARY
  5
1A
330
C
100
AcDbDictionary
  0
DICTIONARY
  5
17
330
C
100
AcDbDictionary
  3
STANDARD
350
18
  0
DICTIONARY
  5
19
330
C
100
AcDbDictionary
  0
ENDSEC
  0
EOF
