999
Inkscape export via OpenSCAD DXF Export
  0
SECTION
  2
HEADER
  9
$ACADVER
  1
AC1014
  9
$HANDSEED
  5
FFFF
  9
$MEASUREMENT
 70
     1
  0
ENDSEC
  0
SECTION
  2
TABLES
  0
TABLE
  2
VPORT
  5
8
330
0
100
AcDbSymbolTable
 70
     4
  0
VPORT
  5
2E
330
8
100
AcDbSymbolTableRecord
100
AcDbViewportTableRecord
  2
*ACTIVE
 70
     0
 10
0.0
 20
0.0
 11
1.0
 21
1.0
 12
210.0
 22
148.5
 13
0.0
 23
0.0
 14
10.0
 24
10.0
 15
10.0
 25
10.0
 16
0.0
 26
0.0
 36
1.0
 17
0.0
 27
0.0
 37
0.0
 40
341.0
 41
1.24
 42
50.0
 43
0.0
 44
0.0
 50
0.0
 51
0.0
 71
     0
 72
   100
 73
     1
 74
     3
 75
     0
 76
     0
 77
     0
 78
     0
  0
ENDTAB
  0
TABLE
  2
LTYPE
  5
5
330
0
100
AcDbSymbolTable
 70
     1
  0
LTYPE
  5
14
330
5
100
AcDbSymbolTableRecord
100
AcDbLinetypeTableRecord
  2
BYBLOCK
 70
     0
  3

 72
    65
 73
     0
 40
0.0
  0
LTYPE
  5
15
330
5
100
AcDbSymbolTableRecord
100
AcDbLinetypeTableRecord
  2
BYLAYER
 70
     0
  3

 72
    65
 73
     0
 40
0.0
  0
LTYPE
  5
16
330
5
100
AcDbSymbolTableRecord
100
AcDbLinetypeTableRecord
  2
CONTINUOUS
 70
     0
  3
Solid line
 72
    65
 73
     0
 40
0.0
  0
ENDTAB
  0
TABLE
0
TABLE
2
LAYER
5
2
330
0
100
AcDbSymbolTable
70
1
0
LAYER
5
10
330
2
100
AcDbSymbolTableRecord
100
AcDbLayerTableRecord
2
Layer_1
70
0
62
7
6
CONTINUOUS
0
ENDTAB
0
ENDSEC
  0
ENDTAB
  0
TABLE
  2
STYLE
  5
3
330
0
100
AcDbSymbolTable
 70
     1
  0
STYLE
  5
11
330
3
100
AcDbSymbolTableRecord
100
AcDbTextStyleTableRecord
  2
STANDARD
 70
     0
 40
0.0
 41
1.0
 50
0.0
 71
     0
 42
2.5
  3
txt
  4

  0
ENDTAB
  0
TABLE
  2
VIEW
  5
6
330
0
100
AcDbSymbolTable
 70
     0
  0
ENDTAB
  0
TABLE
  2
UCS
  5
7
330
0
100
AcDbSymbolTable
 70
     0
  0
ENDTAB
  0
TABLE
  2
APPID
  5
9
330
0
100
AcDbSymbolTable
 70
     2
  0
APPID
  5
12
330
9
100
AcDbSymbolTableRecord
100
AcDbRegAppTableRecord
  2
ACAD
 70
     0
  0
ENDTAB
  0
TABLE
  2
DIMSTYLE
  5
A
330
0
100
AcDbSymbolTable
 70
     1
  0
DIMSTYLE
105
27
330
A
100
AcDbSymbolTableRecord
100
AcDbDimStyleTableRecord
  2
ISO-25
 70
     0
  3

  4

  5

  6

  7

 40
1.0
 41
2.5
 42
0.625
 43
3.75
 44
1.25
 45
0.0
 46
0.0
 47
0.0
 48
0.0
140
2.5
141
2.5
142
0.0
143
0.03937007874016
144
1.0
145
0.0
146
1.0
147
0.625
 71
     0
 72
     0
 73
     0
 74
     0
 75
     0
 76
     0
 77
     1
 78
     8
170
     0
171
     3
172
     1
173
     0
174
     0
175
     0
176
     0
177
     0
178
     0
270
     2
271
     2
272
     2
273
     2
274
     3
340
11
275
     0
280
     0
281
     0
282
     0
283
     0
284
     8
285
     0
286
     0
287
     3
288
     0
  0
ENDTAB
  0
TABLE
  2
BLOCK_RECORD
  5
1
330
0
100
AcDbSymbolTable
 70
     1
  0
BLOCK_RECORD
  5
1F
330
1
100
AcDbSymbolTableRecord
100
AcDbBlockTableRecord
  2
*MODEL_SPACE
  0
BLOCK_RECORD
  5
1B
330
1
100
AcDbSymbolTableRecord
100
AcDbBlockTableRecord
  2
*PAPER_SPACE
  0
ENDTAB
  0
ENDSEC
  0
SECTION
  2
BLOCKS
  0
BLOCK
  5
20
330
1F
100
AcDbEntity
  8
0
100
AcDbBlockBegin
  2
*MODEL_SPACE
 70
     0
 10
0.0
 20
0.0
 30
0.0
  3
*MODEL_SPACE
  1

  0
ENDBLK
  5
21
330
1F
100
AcDbEntity
  8
0
100
AcDbBlockEnd
  0
BLOCK
  5
1C
330
1B
100
AcDbEntity
 67
     1
  8
0
100
AcDbBlockBegin
  2
*PAPER_SPACE
  1

  0
ENDBLK
  5
1D
330
1B
100
AcDbEntity
 67
     1
  8
0
100
AcDbBlockEnd
  0
ENDSEC
  0
SECTION
  2
ENTITIES
0
DIMENSION
5
83
100
AcDbEntity
62
256
370
-1
6
ByLayer
1
total_width
3
Standard
70
0
71
5
72
1
41
1.0
100
AcDbAlignedDimension
13
1.653378
23
0.000000
33
0.0
14
541.196993
24
0.000000
34
0.0
50
0.000000
100
AcDbRotatedDimension
0
DIMENSION
5
83
100
AcDbEntity
62
256
370
-1
6
ByLayer
1
total_height
3
Standard
70
0
71
5
72
1
41
1.0
100
AcDbAlignedDimension
13
0.000000
23
11.777754
33
0.0
14
0.000000
24
562.574175
34
0.0
50
90.000000
100
AcDbRotatedDimension
0
DIMENSION
8
Layer_1
5
83
100
AcDbEntity
62
256
370
-1
6
ByLayer
1
Layer_1_width
3
Standard
70
0
71
5
72
1
41
1.0
100
AcDbAlignedDimension
13
1.653378
23
0.000000
33
0.0
14
541.196993
24
0.000000
34
0.0
50
0.000000
100
AcDbRotatedDimension
0
DIMENSION
8
Layer_1
5
83
100
AcDbEntity
62
256
370
-1
6
ByLayer
1
Layer_1_height
3
Standard
70
0
71
5
72
1
41
1.0
100
AcDbAlignedDimension
13
0.000000
23
11.777754
33
0.0
14
0.000000
24
562.574175
34
0.0
50
90.000000
100
AcDbRotatedDimension
62
0
0
LWPOLYLINE
100
AcDbPolyline
8
Layer_1
90
427
70
0
10
258.737825
20
12.040644
30
0.0
10
247.372248
20
12.838835
30
0.0
10
236.111697
20
14.102129
30
0.0
10
224.965591
20
15.826710
30
0.0
10
213.943351
20
18.008760
30
0.0
10
203.054396
20
20.644462
30
0.0
10
192.308146
20
23.729999
30
0.0
10
181.714019
20
27.261555
30
0.0
10
171.281436
20
31.235311
30
0.0
10
161.019817
20
35.647452
30
0.0
10
150.938581
20
40.494160
30
0.0
10
141.047147
20
45.771618
30
0.0
10
131.354935
20
51.476010
30
0.0
10
121.871366
20
57.603517
30
0.0
10
112.605857
20
64.150323
30
0.0
10
103.567830
20
71.112611
30
0.0
10
94.766703
20
78.486564
30
0.0
10
89.038229
20
83.774571
30
0.0
10
82.054155
20
90.612348
30
0.0
10
75.220309
20
97.593921
30
0.0
10
69.942518
20
103.313315
30
0.0
10
63.438571
20
111.038043
30
0.0
10
57.240671
20
118.952551
30
0.0
10
51.351882
20
127.050181
30
0.0
10
45.775266
20
135.324276
30
0.0
10
40.513885
20
143.768181
30
0.0
10
35.570802
20
152.375237
30
0.0
10
30.949079
20
161.138788
30
0.0
10
26.651779
20
170.052178
30
0.0
10
22.681964
20
179.108749
30
0.0
10
19.042696
20
188.301846
30
0.0
10
15.737039
20
197.624810
30
0.0
10
12.768054
20
207.070985
30
0.0
10
10.138804
20
216.633715
30
0.0
10
7.852352
20
226.306342
30
0.0
10
5.911760
20
236.082211
30
0.0
10
4.320090
20
245.954663
30
0.0
10
3.076662
20
255.733998
30
0.0
10
2.253630
20
264.985627
30
0.0
10
1.797150
20
274.499216
30
0.0
10
1.653378
20
285.064429
30
0.0
10
1.724933
20
293.748040
30
0.0
10
1.990060
20
301.001189
30
0.0
10
2.510614
20
307.941236
30
0.0
10
3.348450
20
315.685540
30
0.0
10
4.352808
20
323.244507
30
0.0
10
5.552141
20
330.730373
30
0.0
10
6.946370
20
338.142908
30
0.0
10
8.535412
20
345.481879
30
0.0
10
10.319187
20
352.747058
30
0.0
10
12.297614
20
359.938214
30
0.0
10
14.470611
20
367.055115
30
0.0
10
16.838098
20
374.097532
30
0.0
10
19.399993
20
381.065234
30
0.0
10
22.156215
20
387.957990
30
0.0
10
25.106683
20
394.775571
30
0.0
10
28.251316
20
401.517745
30
0.0
10
31.590033
20
408.184282
30
0.0
10
35.122752
20
414.774951
30
0.0
10
38.849393
20
421.289522
30
0.0
10
42.769875
20
427.727765
30
0.0
10
49.270532
20
437.591915
30
0.0
10
56.244526
20
447.231923
30
0.0
10
63.674265
20
456.628206
30
0.0
10
71.542155
20
465.761183
30
0.0
10
79.830604
20
474.611271
30
0.0
10
88.522018
20
483.158888
30
0.0
10
97.598804
20
491.384452
30
0.0
10
107.043370
20
499.268380
30
0.0
10
114.849944
20
505.305147
30
0.0
10
122.652858
20
511.004976
30
0.0
10
128.871180
20
515.246908
30
0.0
10
130.892078
20
516.470864
30
0.0
10
131.923979
20
516.909987
30
0.0
10
132.303135
20
516.865569
30
0.0
10
132.518745
20
516.720667
30
0.0
10
132.562285
20
516.457814
30
0.0
10
132.425234
20
516.059540
30
0.0
10
131.575269
20
514.786851
30
0.0
10
129.900672
20
512.762850
30
0.0
10
123.741339
20
505.211371
30
0.0
10
117.607986
20
496.902003
30
0.0
10
111.589051
20
487.983458
30
0.0
10
105.772977
20
478.604449
30
0.0
10
100.248201
20
468.913692
30
0.0
10
95.103166
20
459.059899
30
0.0
10
90.426311
20
449.191784
30
0.0
10
86.306076
20
439.458060
30
0.0
10
82.888963
20
430.306460
30
0.0
10
79.929571
20
421.247668
30
0.0
10
77.427894
20
412.284606
30
0.0
10
75.383927
20
403.420198
30
0.0
10
73.797663
20
394.657365
30
0.0
10
72.669099
20
385.999030
30
0.0
10
71.998227
20
377.448115
30
0.0
10
71.785044
20
369.007543
30
0.0
10
72.029542
20
360.680235
30
0.0
10
72.731718
20
352.469115
30
0.0
10
73.891565
20
344.377105
30
0.0
10
75.509078
20
336.407127
30
0.0
10
77.584251
20
328.562104
30
0.0
10
80.117079
20
320.844957
30
0.0
10
83.107557
20
313.258610
30
0.0
10
86.555679
20
305.805984
30
0.0
10
89.187512
20
300.770997
30
0.0
10
92.035805
20
295.802093
30
0.0
10
95.098595
20
290.902055
30
0.0
10
98.373915
20
286.073671
30
0.0
10
101.859800
20
281.319727
30
0.0
10
105.554284
20
276.643007
30
0.0
10
109.455403
20
272.046298
30
0.0
10
113.561190
20
267.532386
30
0.0
10
116.270377
20
264.793390
30
0.0
10
119.173186
20
262.125994
30
0.0
10
122.255244
20
259.540760
30
0.0
10
125.502178
20
257.048247
30
0.0
10
128.899617
20
254.659014
30
0.0
10
132.433188
20
252.383620
30
0.0
10
136.088518
20
250.232625
30
0.0
10
139.851234
20
248.216589
30
0.0
10
145.430573
20
245.555585
30
0.0
10
150.735755
20
243.424248
30
0.0
10
155.943381
20
241.758794
30
0.0
10
161.230048
20
240.495441
30
0.0
10
164.361584
20
239.946306
30
0.0
10
167.459789
20
239.565596
30
0.0
10
170.523804
20
239.353097
30
0.0
10
173.552771
20
239.308598
30
0.0
10
176.545834
20
239.431885
30
0.0
10
179.502135
20
239.722747
30
0.0
10
182.420816
20
240.180971
30
0.0
10
185.301021
20
240.806344
30
0.0
10
188.141891
20
241.598654
30
0.0
10
190.942570
20
242.557688
30
0.0
10
193.702199
20
243.683235
30
0.0
10
196.419922
20
244.975080
30
0.0
10
199.094881
20
246.433013
30
0.0
10
201.726218
20
248.056820
30
0.0
10
204.313077
20
249.846288
30
0.0
10
206.854600
20
251.801207
30
0.0
10
210.190858
20
254.758380
30
0.0
10
213.595421
20
258.203696
30
0.0
10
216.595214
20
261.629598
30
0.0
10
218.717162
20
264.528526
30
0.0
10
220.685705
20
267.858425
30
0.0
10
222.538502
20
271.292998
30
0.0
10
225.890642
20
278.452935
30
0.0
10
228.761158
20
285.961878
30
0.0
10
231.137624
20
293.773364
30
0.0
10
233.007616
20
301.840934
30
0.0
10
234.358708
20
310.118127
30
0.0
10
235.178475
20
318.558482
30
0.0
10
235.454492
20
327.115540
30
0.0
10
235.171850
20
336.031081
30
0.0
10
234.319073
20
344.936285
30
0.0
10
232.888884
20
353.859518
30
0.0
10
230.874008
20
362.829143
30
0.0
10
228.267167
20
371.873524
30
0.0
10
225.061086
20
381.021027
30
0.0
10
221.248488
20
390.300015
30
0.0
10
216.822096
20
399.738853
30
0.0
10
213.747512
20
405.590119
30
0.0
10
210.757811
20
410.459945
30
0.0
10
207.450600
20
414.946210
30
0.0
10
203.423483
20
419.646794
30
0.0
10
199.959296
20
423.242726
30
0.0
10
196.129835
20
426.775052
30
0.0
10
191.983987
20
430.209001
30
0.0
10
187.570638
20
433.509801
30
0.0
10
182.938674
20
436.642681
30
0.0
10
178.136982
20
439.572868
30
0.0
10
173.214448
20
442.265592
30
0.0
10
168.219958
20
444.686080
30
0.0
10
166.299351
20
445.623447
30
0.0
10
165.538847
20
446.128789
30
0.0
10
181.423672
20
463.770019
30
0.0
10
197.393608
20
481.067765
30
0.0
10
198.576869
20
480.596638
30
0.0
10
200.887311
20
479.406323
30
0.0
10
206.407955
20
476.206504
30
0.0
10
211.529526
20
472.799991
30
0.0
10
216.478563
20
469.148680
30
0.0
10
221.251248
20
465.256177
30
0.0
10
225.843763
20
461.126083
30
0.0
10
230.252291
20
456.762001
30
0.0
10
234.473014
20
452.167536
30
0.0
10
238.502115
20
447.346289
30
0.0
10
242.335775
20
442.301864
30
0.0
10
245.234254
20
438.452209
30
0.0
10
245.147492
20
441.514779
30
0.0
10
244.597222
20
447.483320
30
0.0
10
243.534494
20
454.535800
30
0.0
10
241.968755
20
461.689270
30
0.0
10
239.925240
20
468.877531
30
0.0
10
237.429187
20
476.034384
30
0.0
10
234.505831
20
483.093627
30
0.0
10
231.180410
20
489.989063
30
0.0
10
227.478160
20
496.654491
30
0.0
10
223.424318
20
503.023711
30
0.0
10
221.061159
20
506.601318
30
0.0
10
245.664029
20
534.623591
30
0.0
10
270.448890
20
562.574175
30
0.0
10
277.637370
20
554.650693
30
0.0
10
294.596340
20
535.480839
30
0.0
10
319.047199
20
507.706489
30
0.0
10
319.330158
20
507.328632
30
0.0
10
319.332786
20
506.915692
30
0.0
10
318.181538
20
504.997031
30
0.0
10
314.412055
20
498.697644
30
0.0
10
310.594671
20
491.651098
30
0.0
10
307.471221
20
485.052518
30
0.0
10
304.683224
20
478.426135
30
0.0
10
302.239194
20
471.801203
30
0.0
10
300.147651
20
465.206977
30
0.0
10
298.417111
20
458.672710
30
0.0
10
297.056090
20
452.227657
30
0.0
10
296.073106
20
445.901072
30
0.0
10
295.476676
20
439.722209
30
0.0
10
295.428518
20
438.115077
30
0.0
10
295.551554
20
438.092903
30
0.0
10
295.810150
20
438.448498
30
0.0
10
298.702166
20
442.417378
30
0.0
10
301.528488
20
446.049663
30
0.0
10
304.615403
20
449.701325
30
0.0
10
307.929587
20
453.339380
30
0.0
10
311.437715
20
456.930846
30
0.0
10
315.106462
20
460.442738
30
0.0
10
318.902504
20
463.842073
30
0.0
10
322.792516
20
467.095867
30
0.0
10
326.743173
20
470.171137
30
0.0
10
331.512537
20
473.550710
30
0.0
10
336.901127
20
477.110095
30
0.0
10
341.464386
20
479.924158
30
0.0
10
342.985093
20
480.762590
30
0.0
10
343.757758
20
481.067765
30
0.0
10
348.803027
20
475.600522
30
0.0
10
359.610752
20
463.563909
30
0.0
10
370.330857
20
451.505599
30
0.0
10
375.113268
20
445.973262
30
0.0
10
373.320056
20
445.248465
30
0.0
10
370.647733
20
444.045839
30
0.0
10
367.039680
20
442.229768
30
0.0
10
360.242330
20
438.437401
30
0.0
10
355.296843
20
435.116815
30
0.0
10
350.434686
20
431.388907
30
0.0
10
345.706622
20
427.305449
30
0.0
10
341.163416
20
422.918215
30
0.0
10
336.855832
20
418.278976
30
0.0
10
332.834634
20
413.439506
30
0.0
10
329.150587
20
408.451577
30
0.0
10
325.854455
20
403.366961
30
0.0
10
323.651413
20
399.415378
30
0.0
10
321.467384
20
394.922535
30
0.0
10
319.336524
20
389.981888
30
0.0
10
317.292990
20
384.686894
30
0.0
10
315.370936
20
379.131008
30
0.0
10
313.604519
20
373.407688
30
0.0
10
312.027894
20
367.610390
30
0.0
10
310.675218
20
361.832570
30
0.0
10
308.921103
20
352.555168
30
0.0
10
307.658856
20
343.407228
30
0.0
10
306.888572
20
334.414576
30
0.0
10
306.610346
20
325.603033
30
0.0
10
306.824273
20
316.998424
30
0.0
10
307.530448
20
308.626571
30
0.0
10
308.728965
20
300.513298
30
0.0
10
310.419919
20
292.684429
30
0.0
10
312.107128
20
286.809043
30
0.0
10
314.156671
20
281.060401
30
0.0
10
316.525648
20
275.517347
30
0.0
10
319.171161
20
270.258727
30
0.0
10
322.050311
20
265.363387
30
0.0
10
325.120197
20
260.910173
30
0.0
10
328.337922
20
256.977929
30
0.0
10
331.660585
20
253.645501
30
0.0
10
335.053516
20
250.790530
30
0.0
10
338.498909
20
248.251733
30
0.0
10
342.008372
20
246.023435
30
0.0
10
345.593511
20
244.099962
30
0.0
10
349.265936
20
242.475640
30
0.0
10
353.037252
20
241.144795
30
0.0
10
356.919069
20
240.101754
30
0.0
10
360.922993
20
239.340842
30
0.0
10
364.311689
20
239.020444
30
0.0
10
368.438236
20
238.912640
30
0.0
10
372.618911
20
239.017666
30
0.0
10
376.169992
20
239.335762
30
0.0
10
381.693812
20
240.363178
30
0.0
10
387.239591
20
241.890996
30
0.0
10
392.815607
20
243.923324
30
0.0
10
398.430136
20
246.464268
30
0.0
10
404.091457
20
249.517937
30
0.0
10
409.807847
20
253.088437
30
0.0
10
415.587584
20
257.179876
30
0.0
10
421.438945
20
261.796361
30
0.0
10
424.696688
20
264.733750
30
0.0
10
428.181579
20
268.311392
30
0.0
10
431.813393
20
272.426781
30
0.0
10
435.511903
20
276.977413
30
0.0
10
439.196884
20
281.860782
30
0.0
10
442.788109
20
286.974383
30
0.0
10
446.205353
20
292.215712
30
0.0
10
449.368390
20
297.482263
30
0.0
10
452.648333
20
303.479930
30
0.0
10
455.655281
20
309.560907
30
0.0
10
458.388252
20
315.719928
30
0.0
10
460.846267
20
321.951728
30
0.0
10
463.028347
20
328.251041
30
0.0
10
464.933511
20
334.612600
30
0.0
10
466.560780
20
341.031142
30
0.0
10
467.909173
20
347.501400
30
0.0
10
468.977710
20
354.018108
30
0.0
10
469.765412
20
360.576001
30
0.0
10
470.271299
20
367.169814
30
0.0
10
470.494391
20
373.794281
30
0.0
10
470.433708
20
380.444136
30
0.0
10
470.088270
20
387.114113
30
0.0
10
469.457097
20
393.798948
30
0.0
10
468.539209
20
400.493374
30
0.0
10
467.547011
20
406.128746
30
0.0
10
466.356311
20
411.766815
30
0.0
10
464.966807
20
417.408269
30
0.0
10
463.378197
20
423.053798
30
0.0
10
461.590178
20
428.704091
30
0.0
10
459.602448
20
434.359839
30
0.0
10
457.414704
20
440.021729
30
0.0
10
455.026645
20
445.690452
30
0.0
10
452.437968
20
451.366697
30
0.0
10
449.648371
20
457.051153
30
0.0
10
446.657551
20
462.744510
30
0.0
10
443.465206
20
468.447457
30
0.0
10
440.071034
20
474.160683
30
0.0
10
436.474732
20
479.884878
30
0.0
10
432.675998
20
485.620731
30
0.0
10
428.674530
20
491.368932
30
0.0
10
424.005427
20
497.703589
30
0.0
10
418.846395
20
504.367207
30
0.0
10
413.951460
20
510.407057
30
0.0
10
410.074646
20
514.870412
30
0.0
10
409.109200
20
515.986912
30
0.0
10
408.686363
20
516.701570
30
0.0
10
408.786656
20
517.080423
30
0.0
10
409.390596
20
517.189508
30
0.0
10
410.670063
20
516.845180
30
0.0
10
412.801544
20
515.632511
30
0.0
10
416.224399
20
513.268580
30
0.0
10
421.377985
20
509.470462
30
0.0
10
431.949454
20
501.414449
30
0.0
10
441.550520
20
493.765352
30
0.0
10
450.299235
20
486.414058
30
0.0
10
458.313652
20
479.251452
30
0.0
10
465.711825
20
472.168418
30
0.0
10
472.611805
20
465.055841
30
0.0
10
479.131646
20
457.804606
30
0.0
10
485.389400
20
450.305599
30
0.0
10
490.826096
20
443.285204
30
0.0
10
495.982536
20
436.077919
30
0.0
10
500.859622
20
428.681462
30
0.0
10
505.458260
20
421.093551
30
0.0
10
509.779352
20
413.311904
30
0.0
10
513.823802
20
405.334238
30
0.0
10
517.592513
20
397.158272
30
0.0
10
521.086390
20
388.781723
30
0.0
10
524.306336
20
380.202309
30
0.0
10
527.253255
20
371.417748
30
0.0
10
529.928049
20
362.425757
30
0.0
10
532.331624
20
353.224055
30
0.0
10
534.464882
20
343.810359
30
0.0
10
536.328727
20
334.182387
30
0.0
10
537.924063
20
324.337856
30
0.0
10
539.251793
20
314.274485
30
0.0
10
540.618995
20
300.690498
30
0.0
10
541.004341
20
294.704130
30
0.0
10
541.195775
20
288.961857
30
0.0
10
541.196993
20
283.243941
30
0.0
10
541.011688
20
277.330640
30
0.0
10
540.096287
20
264.038927
30
0.0
10
539.214048
20
255.172915
30
0.0
10
538.108370
20
246.398350
30
0.0
10
536.780397
20
237.718890
30
0.0
10
535.231274
20
229.138191
30
0.0
10
533.462143
20
220.659911
30
0.0
10
531.474149
20
212.287707
30
0.0
10
529.268434
20
204.025236
30
0.0
10
526.846144
20
195.876157
30
0.0
10
524.208421
20
187.844126
30
0.0
10
521.356410
20
179.932801
30
0.0
10
518.291254
20
172.145839
30
0.0
10
515.014096
20
164.486897
30
0.0
10
511.526082
20
156.959633
30
0.0
10
507.828353
20
149.567704
30
0.0
10
503.922055
20
142.314768
30
0.0
10
499.808331
20
135.204482
30
0.0
10
494.393829
20
126.558084
30
0.0
10
488.674664
20
118.179081
30
0.0
10
482.657548
20
110.073262
30
0.0
10
476.349194
20
102.246417
30
0.0
10
469.756313
20
94.704336
30
0.0
10
462.885619
20
87.452808
30
0.0
10
455.743822
20
80.497623
30
0.0
10
448.337637
20
73.844570
30
0.0
10
440.673774
20
67.499438
30
0.0
10
432.758946
20
61.468018
30
0.0
10
424.599866
20
55.756099
30
0.0
10
416.203246
20
50.369470
30
0.0
10
407.575799
20
45.313922
30
0.0
10
398.724235
20
40.595242
30
0.0
10
389.655269
20
36.219222
30
0.0
10
380.375612
20
32.191650
30
0.0
10
374.098720
20
29.712370
30
0.0
10
367.732316
20
27.390281
30
0.0
10
361.280138
20
25.226082
30
0.0
10
354.745922
20
23.220474
30
0.0
10
348.133406
20
21.374155
30
0.0
10
341.446326
20
19.687824
30
0.0
10
334.688420
20
18.162182
30
0.0
10
327.863425
20
16.797927
30
0.0
10
320.975078
20
15.595758
30
0.0
10
314.027116
20
14.556376
30
0.0
10
307.023276
20
13.680479
30
0.0
10
299.967296
20
12.968767
30
0.0
10
292.862913
20
12.421939
30
0.0
10
285.713863
20
12.040695
30
0.0
10
278.523885
20
11.825733
30
0.0
10
271.296714
20
11.777754
30
0.0
10
258.737825
20
12.040701
30
0.0
10
258.737825
20
12.040644
30
0.0
  0
ENDSEC
  0
SECTION
  2
OBJECTS
  0
DICTIONARY
  5
C
330
0
100
AcDbDictionary
  3
ACAD_GROUP
350
D
  3
ACAD_MLINESTYLE
350
17
  0
DICTIONARY
  5
D
330
C
100
AcDbDictionary
  0
DICTIONARY
  5
1A
330
C
100
AcDbDictionary
  0
DICTIONARY
  5
17
330
C
100
AcDbDictionary
  3
STANDARD
350
18
  0
DICTIONARY
  5
19
330
C
100
AcDbDictionary
  0
ENDSEC
  0
EOF
