999
Inkscape export via OpenSCAD DXF Export
  0
SECTION
  2
HEADER
  9
$ACADVER
  1
AC1014
  9
$HANDSEED
  5
FFFF
  9
$MEASUREMENT
 70
     1
  0
ENDSEC
  0
SECTION
  2
TABLES
  0
TABLE
  2
VPORT
  5
8
330
0
100
AcDbSymbolTable
 70
     4
  0
VPORT
  5
2E
330
8
100
AcDbSymbolTableRecord
100
AcDbViewportTableRecord
  2
*ACTIVE
 70
     0
 10
0.0
 20
0.0
 11
1.0
 21
1.0
 12
210.0
 22
148.5
 13
0.0
 23
0.0
 14
10.0
 24
10.0
 15
10.0
 25
10.0
 16
0.0
 26
0.0
 36
1.0
 17
0.0
 27
0.0
 37
0.0
 40
341.0
 41
1.24
 42
50.0
 43
0.0
 44
0.0
 50
0.0
 51
0.0
 71
     0
 72
   100
 73
     1
 74
     3
 75
     0
 76
     0
 77
     0
 78
     0
  0
ENDTAB
  0
TABLE
  2
LTYPE
  5
5
330
0
100
AcDbSymbolTable
 70
     1
  0
LTYPE
  5
14
330
5
100
AcDbSymbolTableRecord
100
AcDbLinetypeTableRecord
  2
BYBLOCK
 70
     0
  3

 72
    65
 73
     0
 40
0.0
  0
LTYPE
  5
15
330
5
100
AcDbSymbolTableRecord
100
AcDbLinetypeTableRecord
  2
BYLAYER
 70
     0
  3

 72
    65
 73
     0
 40
0.0
  0
LTYPE
  5
16
330
5
100
AcDbSymbolTableRecord
100
AcDbLinetypeTableRecord
  2
CONTINUOUS
 70
     0
  3
Solid line
 72
    65
 73
     0
 40
0.0
  0
ENDTAB
  0
TABLE
0
TABLE
2
LAYER
5
2
330
0
100
AcDbSymbolTable
70
1
0
LAYER
5
10
330
2
100
AcDbSymbolTableRecord
100
AcDbLayerTableRecord
2
Layer_1
70
0
62
7
6
CONTINUOUS
0
ENDTAB
0
ENDSEC
  0
ENDTAB
  0
TABLE
  2
STYLE
  5
3
330
0
100
AcDbSymbolTable
 70
     1
  0
STYLE
  5
11
330
3
100
AcDbSymbolTableRecord
100
AcDbTextStyleTableRecord
  2
STANDARD
 70
     0
 40
0.0
 41
1.0
 50
0.0
 71
     0
 42
2.5
  3
txt
  4

  0
ENDTAB
  0
TABLE
  2
VIEW
  5
6
330
0
100
AcDbSymbolTable
 70
     0
  0
ENDTAB
  0
TABLE
  2
UCS
  5
7
330
0
100
AcDbSymbolTable
 70
     0
  0
ENDTAB
  0
TABLE
  2
APPID
  5
9
330
0
100
AcDbSymbolTable
 70
     2
  0
APPID
  5
12
330
9
100
AcDbSymbolTableRecord
100
AcDbRegAppTableRecord
  2
ACAD
 70
     0
  0
ENDTAB
  0
TABLE
  2
DIMSTYLE
  5
A
330
0
100
AcDbSymbolTable
 70
     1
  0
DIMSTYLE
105
27
330
A
100
AcDbSymbolTableRecord
100
AcDbDimStyleTableRecord
  2
ISO-25
 70
     0
  3

  4

  5

  6

  7

 40
1.0
 41
2.5
 42
0.625
 43
3.75
 44
1.25
 45
0.0
 46
0.0
 47
0.0
 48
0.0
140
2.5
141
2.5
142
0.0
143
0.03937007874016
144
1.0
145
0.0
146
1.0
147
0.625
 71
     0
 72
     0
 73
     0
 74
     0
 75
     0
 76
     0
 77
     1
 78
     8
170
     0
171
     3
172
     1
173
     0
174
     0
175
     0
176
     0
177
     0
178
     0
270
     2
271
     2
272
     2
273
     2
274
     3
340
11
275
     0
280
     0
281
     0
282
     0
283
     0
284
     8
285
     0
286
     0
287
     3
288
     0
  0
ENDTAB
  0
TABLE
  2
BLOCK_RECORD
  5
1
330
0
100
AcDbSymbolTable
 70
     1
  0
BLOCK_RECORD
  5
1F
330
1
100
AcDbSymbolTableRecord
100
AcDbBlockTableRecord
  2
*MODEL_SPACE
  0
BLOCK_RECORD
  5
1B
330
1
100
AcDbSymbolTableRecord
100
AcDbBlockTableRecord
  2
*PAPER_SPACE
  0
ENDTAB
  0
ENDSEC
  0
SECTION
  2
BLOCKS
  0
BLOCK
  5
20
330
1F
100
AcDbEntity
  8
0
100
AcDbBlockBegin
  2
*MODEL_SPACE
 70
     0
 10
0.0
 20
0.0
 30
0.0
  3
*MODEL_SPACE
  1

  0
ENDBLK
  5
21
330
1F
100
AcDbEntity
  8
0
100
AcDbBlockEnd
  0
BLOCK
  5
1C
330
1B
100
AcDbEntity
 67
     1
  8
0
100
AcDbBlockBegin
  2
*PAPER_SPACE
  1

  0
ENDBLK
  5
1D
330
1B
100
AcDbEntity
 67
     1
  8
0
100
AcDbBlockEnd
  0
ENDSEC
  0
SECTION
  2
ENTITIES
0
DIMENSION
5
83
100
AcDbEntity
62
256
370
-1
6
ByLayer
1
total_width
3
Standard
70
0
71
5
72
1
41
1.0
100
AcDbAlignedDimension
13
1.309259
23
0.000000
33
0.0
14
134.188691
24
0.000000
34
0.0
50
0.000000
100
AcDbRotatedDimension
0
DIMENSION
5
83
100
AcDbEntity
62
256
370
-1
6
ByLayer
1
total_height
3
Standard
70
0
71
5
72
1
41
1.0
100
AcDbAlignedDimension
13
0.000000
23
1.793266
33
0.0
14
0.000000
24
134.736144
34
0.0
50
90.000000
100
AcDbRotatedDimension
0
DIMENSION
8
Layer_1
5
83
100
AcDbEntity
62
256
370
-1
6
ByLayer
1
Layer_1_width
3
Standard
70
0
71
5
72
1
41
1.0
100
AcDbAlignedDimension
13
1.309259
23
0.000000
33
0.0
14
134.188691
24
0.000000
34
0.0
50
0.000000
100
AcDbRotatedDimension
0
DIMENSION
8
Layer_1
5
83
100
AcDbEntity
62
256
370
-1
6
ByLayer
1
Layer_1_height
3
Standard
70
0
71
5
72
1
41
1.0
100
AcDbAlignedDimension
13
0.000000
23
1.793266
33
0.0
14
0.000000
24
134.736144
34
0.0
50
90.000000
100
AcDbRotatedDimension
62
0
0
LWPOLYLINE
100
AcDbPolyline
8
Layer_1
90
101
70
0
10
63.227345
20
1.867194
30
0.0
10
59.558456
20
2.291210
30
0.0
10
56.521735
20
2.719393
30
0.0
10
53.501555
20
3.300848
30
0.0
10
47.538838
20
4.908392
30
0.0
10
41.726355
20
7.083484
30
0.0
10
36.120152
20
9.795763
30
0.0
10
30.776276
20
13.014871
30
0.0
10
25.750775
20
16.710447
30
0.0
10
21.099697
20
20.852132
30
0.0
10
18.932081
20
23.080779
30
0.0
10
16.879088
20
25.409567
30
0.0
10
13.941351
20
29.179015
30
0.0
10
11.291737
20
33.132964
30
0.0
10
8.933893
20
37.263074
30
0.0
10
6.871462
20
41.561000
30
0.0
10
5.108091
20
46.018400
30
0.0
10
3.647426
20
50.626931
30
0.0
10
2.493113
20
55.378249
30
0.0
10
1.648796
20
60.264012
30
0.0
10
1.390918
20
63.722905
30
0.0
10
1.309259
20
68.347611
30
0.0
10
1.402391
20
72.987462
30
0.0
10
1.668890
20
76.491790
30
0.0
10
2.271172
20
80.174870
30
0.0
10
3.048044
20
83.776956
30
0.0
10
3.997359
20
87.294594
30
0.0
10
5.116971
20
90.724330
30
0.0
10
6.404732
20
94.062710
30
0.0
10
7.858496
20
97.306281
30
0.0
10
9.476116
20
100.451588
30
0.0
10
11.255446
20
103.495178
30
0.0
10
13.194338
20
106.433597
30
0.0
10
15.290646
20
109.263391
30
0.0
10
17.542223
20
111.981106
30
0.0
10
19.946923
20
114.583289
30
0.0
10
22.502597
20
117.066486
30
0.0
10
25.207101
20
119.427242
30
0.0
10
28.058286
20
121.662105
30
0.0
10
31.054006
20
123.767619
30
0.0
10
34.294494
20
125.794083
30
0.0
10
37.616294
20
127.616737
30
0.0
10
41.024831
20
129.237602
30
0.0
10
44.525530
20
130.658698
30
0.0
10
48.123816
20
131.882047
30
0.0
10
51.825115
20
132.909670
30
0.0
10
55.634851
20
133.743588
30
0.0
10
59.558451
20
134.385821
30
0.0
10
63.061707
20
134.648955
30
0.0
10
67.708261
20
134.736144
30
0.0
10
72.372132
20
134.647558
30
0.0
10
75.927339
20
134.383366
30
0.0
10
81.174023
20
133.475418
30
0.0
10
86.268649
20
132.186780
30
0.0
10
91.195429
20
130.531923
30
0.0
10
95.938571
20
128.525320
30
0.0
10
100.482284
20
126.181441
30
0.0
10
104.810777
20
123.514757
30
0.0
10
108.908259
20
120.539740
30
0.0
10
112.758940
20
117.270861
30
0.0
10
116.347029
20
113.722592
30
0.0
10
119.656735
20
109.909403
30
0.0
10
122.672267
20
105.845766
30
0.0
10
125.377833
20
101.546152
30
0.0
10
127.757645
20
97.025032
30
0.0
10
129.795909
20
92.296879
30
0.0
10
131.476837
20
87.376162
30
0.0
10
132.784636
20
82.277354
30
0.0
10
133.464662
20
78.771198
30
0.0
10
133.895759
20
75.568542
30
0.0
10
134.122308
20
72.227792
30
0.0
10
134.188691
20
68.307354
30
0.0
10
134.016603
20
62.748105
30
0.0
10
133.455459
20
57.696397
30
0.0
10
132.442382
20
52.753043
30
0.0
10
130.914496
20
47.518859
30
0.0
10
129.813535
20
44.425791
30
0.0
10
128.560824
20
41.397687
30
0.0
10
127.161130
20
38.440096
30
0.0
10
125.619219
20
35.558564
30
0.0
10
123.939858
20
32.758639
30
0.0
10
122.127813
20
30.045867
30
0.0
10
120.187850
20
27.425797
30
0.0
10
118.124737
20
24.903975
30
0.0
10
115.943240
20
22.485950
30
0.0
10
113.648125
20
20.177267
30
0.0
10
111.244159
20
17.983475
30
0.0
10
108.736109
20
15.910120
30
0.0
10
106.128741
20
13.962751
30
0.0
10
103.426821
20
12.146914
30
0.0
10
100.635117
20
10.468156
30
0.0
10
97.758394
20
8.932026
30
0.0
10
92.736587
20
6.637158
30
0.0
10
87.741453
20
4.830686
30
0.0
10
82.543970
20
3.440791
30
0.0
10
76.915117
20
2.395652
30
0.0
10
73.899575
20
2.105179
30
0.0
10
69.789637
20
1.888488
30
0.0
10
65.820494
20
1.793266
30
0.0
10
63.227339
20
1.867202
30
0.0
10
63.227345
20
1.867194
30
0.0
62
0
0
LWPOLYLINE
100
AcDbPolyline
8
Layer_1
90
82
70
0
10
76.491790
20
9.506413
30
0.0
10
81.254618
20
10.383958
30
0.0
10
85.908207
20
11.639365
30
0.0
10
90.431602
20
13.262109
30
0.0
10
94.803850
20
15.241668
30
0.0
10
99.003998
20
17.567518
30
0.0
10
103.011093
20
20.229135
30
0.0
10
106.804182
20
23.215996
30
0.0
10
110.362311
20
26.517577
30
0.0
10
113.334048
20
29.734960
30
0.0
10
116.054478
20
33.147637
30
0.0
10
118.514132
20
36.737952
30
0.0
10
120.703542
20
40.488253
30
0.0
10
122.613240
20
44.380886
30
0.0
10
124.233757
20
48.398196
30
0.0
10
125.555626
20
52.522530
30
0.0
10
126.569377
20
56.736234
30
0.0
10
127.271366
20
60.994408
30
0.0
10
127.665859
20
65.245704
30
0.0
10
127.758026
20
69.476562
30
0.0
10
127.553038
20
73.673421
30
0.0
10
127.056069
20
77.822721
30
0.0
10
126.272288
20
81.910901
30
0.0
10
125.206867
20
85.924402
30
0.0
10
123.864977
20
89.849663
30
0.0
10
122.251791
20
93.673123
30
0.0
10
120.372480
20
97.381222
30
0.0
10
118.232214
20
100.960400
30
0.0
10
115.836166
20
104.397096
30
0.0
10
113.189506
20
107.677751
30
0.0
10
110.297407
20
110.788803
30
0.0
10
107.165039
20
113.716692
30
0.0
10
103.797574
20
116.447858
30
0.0
10
99.258108
20
119.552689
30
0.0
10
94.520792
20
122.184051
30
0.0
10
89.618233
20
124.344360
30
0.0
10
84.583040
20
126.036032
30
0.0
10
79.447817
20
127.261481
30
0.0
10
74.245173
20
128.023124
30
0.0
10
69.007715
20
128.323375
30
0.0
10
63.768049
20
128.164650
30
0.0
10
58.558782
20
127.549364
30
0.0
10
53.412522
20
126.479933
30
0.0
10
48.361875
20
124.958772
30
0.0
10
43.439448
20
122.988296
30
0.0
10
38.677849
20
120.570921
30
0.0
10
34.109684
20
117.709062
30
0.0
10
29.767561
20
114.405135
30
0.0
10
25.684085
20
110.661555
30
0.0
10
22.424753
20
107.112076
30
0.0
10
19.495536
20
103.357947
30
0.0
10
16.899710
20
99.420423
30
0.0
10
14.640550
20
95.320757
30
0.0
10
12.721330
20
91.080202
30
0.0
10
11.145326
20
86.720012
30
0.0
10
9.915812
20
82.261441
30
0.0
10
9.036065
20
77.725743
30
0.0
10
8.509358
20
73.134171
30
0.0
10
8.338967
20
68.507979
30
0.0
10
8.528167
20
63.868421
30
0.0
10
9.080233
20
59.236750
30
0.0
10
9.998441
20
54.634220
30
0.0
10
11.286064
20
50.082084
30
0.0
10
12.946378
20
45.601597
30
0.0
10
14.982659
20
41.214012
30
0.0
10
17.800323
20
36.353289
30
0.0
10
21.106324
20
31.758745
30
0.0
10
24.849905
20
27.474434
30
0.0
10
28.980311
20
23.544410
30
0.0
10
33.446784
20
20.012727
30
0.0
10
38.198570
20
16.923440
30
0.0
10
43.184910
20
14.320603
30
0.0
10
48.355050
20
12.248269
30
0.0
10
51.864614
20
11.154662
30
0.0
10
55.364464
20
10.276746
30
0.0
10
58.860533
20
9.613944
30
0.0
10
62.358752
20
9.165679
30
0.0
10
65.865055
20
8.931371
30
0.0
10
69.385374
20
8.910442
30
0.0
10
72.925641
20
9.102316
30
0.0
10
76.491790
20
9.506413
30
0.0
10
76.491790
20
9.506413
30
0.0
62
0
0
LWPOLYLINE
100
AcDbPolyline
8
Layer_1
90
176
70
0
10
61.447937
20
14.154099
30
0.0
10
58.786542
20
14.524881
30
0.0
10
55.733789
20
15.130056
30
0.0
10
52.672399
20
15.884517
30
0.0
10
49.985092
20
16.703156
30
0.0
10
47.420093
20
17.713301
30
0.0
10
44.534696
20
19.035969
30
0.0
10
41.769130
20
20.457384
30
0.0
10
39.563624
20
21.763773
30
0.0
10
37.772126
20
22.949845
30
0.0
10
39.704735
20
23.568265
30
0.0
10
43.065999
20
24.917129
30
0.0
10
44.462103
20
25.758251
30
0.0
10
45.949320
20
26.847319
30
0.0
10
47.242329
20
27.958529
30
0.0
10
48.055809
20
28.866078
30
0.0
10
48.247730
20
29.214350
30
0.0
10
48.111821
20
29.284791
30
0.0
10
46.339746
20
28.474156
30
0.0
10
44.633393
20
27.714194
30
0.0
10
42.954585
20
27.140084
30
0.0
10
41.308527
20
26.752181
30
0.0
10
39.700426
20
26.550839
30
0.0
10
38.135486
20
26.536412
30
0.0
10
36.618914
20
26.709253
30
0.0
10
35.155916
20
27.069718
30
0.0
10
33.751698
20
27.618159
30
0.0
10
32.095030
20
28.516010
30
0.0
10
30.454602
20
29.654944
30
0.0
10
28.822009
20
31.044112
30
0.0
10
27.188845
20
32.692664
30
0.0
10
25.546704
20
34.609751
30
0.0
10
23.887180
20
36.804525
30
0.0
10
20.482363
20
42.063735
30
0.0
10
18.757263
20
45.013572
30
0.0
10
18.169891
20
46.260206
30
0.0
10
18.299947
20
46.306823
30
0.0
10
18.710950
20
46.002041
30
0.0
10
20.371145
20
44.437481
30
0.0
10
24.064236
20
41.075518
30
0.0
10
27.370566
20
38.566162
30
0.0
10
30.447624
20
36.804027
30
0.0
10
33.452901
20
35.683729
30
0.0
10
35.906734
20
35.389666
30
0.0
10
39.669228
20
35.297092
30
0.0
10
43.638241
20
35.403968
30
0.0
10
46.711633
20
35.708254
30
0.0
10
48.216470
20
35.906302
30
0.0
10
49.510514
20
35.898551
30
0.0
10
50.642912
20
35.651540
30
0.0
10
51.662809
20
35.131808
30
0.0
10
52.619352
20
34.305895
30
0.0
10
53.561686
20
33.140340
30
0.0
10
55.600312
20
29.656461
30
0.0
10
56.958464
20
27.255047
30
0.0
10
57.748088
20
26.256228
30
0.0
10
58.042309
20
26.417269
30
0.0
10
58.383368
20
26.885441
30
0.0
10
59.172743
20
28.653460
30
0.0
10
60.049705
20
31.380858
30
0.0
10
60.947743
20
34.888210
30
0.0
10
61.840043
20
39.566797
30
0.0
10
62.548998
20
44.923623
30
0.0
10
63.064583
20
50.676572
30
0.0
10
63.376776
20
56.543527
30
0.0
10
63.475550
20
62.242373
30
0.0
10
63.350883
20
67.490994
30
0.0
10
62.992749
20
72.007273
30
0.0
10
62.391123
20
75.509095
30
0.0
10
61.800555
20
77.427971
30
0.0
10
61.007418
20
79.340967
30
0.0
10
60.048565
20
81.194252
30
0.0
10
58.960847
20
82.933996
30
0.0
10
57.781116
20
84.506371
30
0.0
10
56.546222
20
85.857547
30
0.0
10
55.293017
20
86.933693
30
0.0
10
54.058352
20
87.680981
30
0.0
10
52.150123
20
88.342360
30
0.0
10
51.807991
20
88.411915
30
0.0
10
51.699639
20
88.784211
30
0.0
10
52.200787
20
91.449562
30
0.0
10
53.353968
20
95.447413
30
0.0
10
55.031177
20
99.328560
30
0.0
10
56.773740
20
102.365900
30
0.0
10
58.030578
20
104.149567
30
0.0
10
57.385345
20
102.553352
30
0.0
10
56.724288
20
100.554375
30
0.0
10
56.497481
20
98.473728
30
0.0
10
56.680190
20
96.377207
30
0.0
10
57.247685
20
94.330610
30
0.0
10
58.175233
20
92.399735
30
0.0
10
59.438104
20
90.650378
30
0.0
10
61.011565
20
89.148337
30
0.0
10
62.870884
20
87.959410
30
0.0
10
64.086042
20
87.194995
30
0.0
10
65.025027
20
86.361789
30
0.0
10
65.767345
20
85.479594
30
0.0
10
65.771974
20
54.668468
30
0.0
10
65.776630
20
23.857345
30
0.0
10
66.415968
20
22.728456
30
0.0
10
67.088260
20
21.825258
30
0.0
10
67.434400
20
21.648924
30
0.0
10
67.859489
20
21.599567
30
0.0
10
68.606509
20
21.802671
30
0.0
10
69.191068
20
22.582942
30
0.0
10
69.478109
20
23.377191
30
0.0
10
69.641897
20
24.896397
30
0.0
10
69.757998
20
33.025165
30
0.0
10
69.966614
20
47.435790
30
0.0
10
70.114933
20
52.336295
30
0.0
10
70.179662
20
53.343655
30
0.0
10
70.207115
20
53.378275
30
0.0
10
70.230320
20
53.058918
30
0.0
10
70.701769
20
48.402251
30
0.0
10
71.766930
20
41.514857
30
0.0
10
73.109008
20
35.830930
30
0.0
10
73.886958
20
33.429736
30
0.0
10
74.737820
20
31.316772
30
0.0
10
75.662819
20
29.487826
30
0.0
10
76.663183
20
27.938685
30
0.0
10
77.645704
20
26.750454
30
0.0
10
78.268695
20
26.256234
30
0.0
10
79.154270
20
27.437599
30
0.0
10
80.768108
20
30.277901
30
0.0
10
82.787977
20
33.812945
30
0.0
10
83.466508
20
34.541032
30
0.0
10
84.278131
20
35.058327
30
0.0
10
85.669605
20
35.677138
30
0.0
10
87.147889
20
35.976340
30
0.0
10
88.948876
20
35.977541
30
0.0
10
91.308456
20
35.702353
30
0.0
10
94.299543
20
35.361393
30
0.0
10
97.034422
20
35.271364
30
0.0
10
99.516873
20
35.432317
30
0.0
10
101.750678
20
35.844302
30
0.0
10
103.587016
20
36.401028
30
0.0
10
105.439198
20
37.134812
30
0.0
10
109.106951
20
39.081233
30
0.0
10
112.585654
20
41.578918
30
0.0
10
115.707025
20
44.523217
30
0.0
10
117.111904
20
45.977323
30
0.0
10
117.696234
20
46.441843
30
0.0
10
116.127626
20
43.237943
30
0.0
10
114.484868
20
40.338010
30
0.0
10
112.751850
20
37.666898
30
0.0
10
110.943988
20
35.241131
30
0.0
10
109.076702
20
33.077230
30
0.0
10
107.165407
20
31.191719
30
0.0
10
105.225523
20
29.601121
30
0.0
10
103.272466
20
28.321958
30
0.0
10
101.321656
20
27.370752
30
0.0
10
99.501119
20
26.866330
30
0.0
10
97.094012
20
26.612997
30
0.0
10
94.944701
20
26.631200
30
0.0
10
93.012163
20
26.951686
30
0.0
10
91.118098
20
27.620554
30
0.0
10
89.084206
20
28.683904
30
0.0
10
87.306314
20
29.544831
30
0.0
10
87.901991
20
28.842329
30
0.0
10
89.520893
20
27.428916
30
0.0
10
91.456374
20
25.891287
30
0.0
10
93.001790
20
24.816139
30
0.0
10
95.903364
20
23.519328
30
0.0
10
97.393831
20
23.043162
30
0.0
10
95.480031
20
21.803374
30
0.0
10
93.087814
20
20.397962
30
0.0
10
90.317114
20
19.010629
30
0.0
10
87.376557
20
17.738522
30
0.0
10
84.474770
20
16.678789
30
0.0
10
78.807517
20
15.129091
30
0.0
10
75.972417
20
14.586163
30
0.0
10
73.125194
20
14.196629
30
0.0
10
70.257490
20
13.959572
30
0.0
10
67.360951
20
13.874075
30
0.0
10
61.447937
20
14.154099
30
0.0
10
61.447937
20
14.154099
30
0.0
62
0
0
LWPOLYLINE
100
AcDbPolyline
8
Layer_1
90
57
70
0
10
37.827345
20
37.929735
30
0.0
10
34.212795
20
38.997677
30
0.0
10
30.700576
20
40.591847
30
0.0
10
27.864321
20
42.281298
30
0.0
10
25.282300
20
44.262643
30
0.0
10
22.951450
20
46.540150
30
0.0
10
20.868705
20
49.118089
30
0.0
10
19.031000
20
52.000727
30
0.0
10
17.435272
20
55.192334
30
0.0
10
16.078454
20
58.697180
30
0.0
10
14.957482
20
62.519532
30
0.0
10
14.376612
20
65.209908
30
0.0
10
13.985392
20
67.920574
30
0.0
10
13.783808
20
70.651084
30
0.0
10
13.771846
20
73.400988
30
0.0
10
13.949495
20
76.169838
30
0.0
10
14.316739
20
78.957186
30
0.0
10
14.873566
20
81.762584
30
0.0
10
15.619962
20
84.585584
30
0.0
10
17.210819
20
88.934556
30
0.0
10
18.795518
20
92.578456
30
0.0
10
19.221936
20
93.284012
30
0.0
10
19.067354
20
92.437345
30
0.0
10
18.621742
20
89.365704
30
0.0
10
18.388021
20
86.231711
30
0.0
10
18.362675
20
83.074454
30
0.0
10
18.542186
20
79.933022
30
0.0
10
18.923037
20
76.846507
30
0.0
10
19.501712
20
73.853995
30
0.0
10
20.274692
20
70.994579
30
0.0
10
21.238461
20
68.307345
30
0.0
10
22.448622
20
65.676822
30
0.0
10
23.858877
20
63.291823
30
0.0
10
25.588394
20
60.973855
30
0.0
10
27.756335
20
58.544423
30
0.0
10
30.992600
20
55.446084
30
0.0
10
32.531410
20
54.244141
30
0.0
10
34.099539
20
53.225543
30
0.0
10
35.758641
20
52.354185
30
0.0
10
37.570366
20
51.593961
30
0.0
10
41.898296
20
50.262496
30
0.0
10
44.534797
20
49.481260
30
0.0
10
46.167779
20
48.824817
30
0.0
10
47.711665
20
47.548626
30
0.0
10
49.061657
20
45.789833
30
0.0
10
50.153962
20
43.650266
30
0.0
10
50.924787
20
41.231749
30
0.0
10
51.166398
20
40.082446
30
0.0
10
51.154767
20
39.713729
30
0.0
10
51.009459
20
39.431020
30
0.0
10
50.181658
20
38.969785
30
0.0
10
48.410678
20
38.391053
30
0.0
10
46.064596
20
37.912257
30
0.0
10
43.107648
20
37.657856
30
0.0
10
40.156383
20
37.654724
30
0.0
10
37.827345
20
37.929735
30
0.0
10
37.827345
20
37.929735
30
0.0
62
0
0
LWPOLYLINE
100
AcDbPolyline
8
Layer_1
90
58
70
0
10
89.474012
20
37.853973
30
0.0
10
86.440123
20
38.721908
30
0.0
10
85.285202
20
39.189428
30
0.0
10
84.753886
20
39.719369
30
0.0
10
84.737279
20
40.590105
30
0.0
10
85.126486
20
42.080011
30
0.0
10
85.762163
20
43.828638
30
0.0
10
86.590348
20
45.469490
30
0.0
10
87.550682
20
46.898947
30
0.0
10
88.582802
20
48.013389
30
0.0
10
89.448803
20
48.702214
30
0.0
10
90.537964
20
49.238581
30
0.0
10
95.824012
20
50.788293
30
0.0
10
98.195926
20
51.580866
30
0.0
10
100.519559
20
52.647258
30
0.0
10
102.775424
20
53.971980
30
0.0
10
104.944030
20
55.539541
30
0.0
10
107.005890
20
57.334452
30
0.0
10
108.941514
20
59.341222
30
0.0
10
110.731414
20
61.544361
30
0.0
10
112.356101
20
63.928379
30
0.0
10
113.936301
20
66.916565
30
0.0
10
115.299164
20
70.390121
30
0.0
10
116.378891
20
74.154079
30
0.0
10
117.109683
20
78.013470
30
0.0
10
117.340533
20
80.780171
30
0.0
10
117.397511
20
84.120865
30
0.0
10
117.285174
20
87.483633
30
0.0
10
117.008080
20
90.316555
30
0.0
10
116.686144
20
93.073550
30
0.0
10
117.108509
20
92.394832
30
0.0
10
117.940937
20
90.557048
30
0.0
10
119.695372
20
86.061937
30
0.0
10
120.945054
20
81.578826
30
0.0
10
121.762308
20
76.996671
30
0.0
10
122.110164
20
72.600352
30
0.0
10
121.951654
20
68.674750
30
0.0
10
121.543650
20
65.844038
30
0.0
10
121.001853
20
63.124775
30
0.0
10
120.328753
20
60.520480
30
0.0
10
119.526842
20
58.034674
30
0.0
10
118.598607
20
55.670875
30
0.0
10
117.546540
20
53.432603
30
0.0
10
116.373131
20
51.323376
30
0.0
10
115.080870
20
49.346715
30
0.0
10
113.672246
20
47.506137
30
0.0
10
112.149750
20
45.805164
30
0.0
10
110.515872
20
44.247313
30
0.0
10
108.773102
20
42.836104
30
0.0
10
106.923929
20
41.575056
30
0.0
10
104.970845
20
40.467689
30
0.0
10
102.916339
20
39.517522
30
0.0
10
100.762901
20
38.728074
30
0.0
10
97.939469
20
38.017515
30
0.0
10
94.980693
20
37.624437
30
0.0
10
92.090799
20
37.564651
30
0.0
10
89.474012
20
37.853973
30
0.0
10
89.474012
20
37.853973
30
0.0
62
0
0
LWPOLYLINE
100
AcDbPolyline
8
Layer_1
90
68
70
0
10
44.741753
20
51.660400
30
0.0
10
42.762807
20
52.155705
30
0.0
10
40.831160
20
52.840057
30
0.0
10
38.954354
20
53.704569
30
0.0
10
37.139935
20
54.740355
30
0.0
10
35.395447
20
55.938528
30
0.0
10
33.728435
20
57.290202
30
0.0
10
32.146442
20
58.786490
30
0.0
10
30.657013
20
60.418506
30
0.0
10
29.267694
20
62.177362
30
0.0
10
27.986027
20
64.054173
30
0.0
10
26.819557
20
66.040053
30
0.0
10
25.775829
20
68.126114
30
0.0
10
24.862388
20
70.303469
30
0.0
10
24.086777
20
72.563233
30
0.0
10
23.456541
20
74.896519
30
0.0
10
22.979225
20
77.294441
30
0.0
10
22.671708
20
80.736316
30
0.0
10
22.657176
20
84.922743
30
0.0
10
22.913256
20
89.080745
30
0.0
10
23.417570
20
92.437345
30
0.0
10
24.135714
20
95.221062
30
0.0
10
24.967860
20
97.803587
30
0.0
10
25.927939
20
100.210849
30
0.0
10
27.029880
20
102.468782
30
0.0
10
28.287615
20
104.603316
30
0.0
10
29.715074
20
106.640382
30
0.0
10
31.326188
20
108.605912
30
0.0
10
33.134887
20
110.525837
30
0.0
10
35.420494
20
112.657515
30
0.0
10
37.701951
20
114.466335
30
0.0
10
40.122113
20
116.055543
30
0.0
10
42.823836
20
117.528386
30
0.0
10
46.489717
20
119.208288
30
0.0
10
48.449461
20
119.868191
30
0.0
10
45.926282
20
118.071243
30
0.0
10
43.953182
20
116.673004
30
0.0
10
42.130646
20
115.200364
30
0.0
10
40.459226
20
113.653956
30
0.0
10
38.939472
20
112.034412
30
0.0
10
37.571937
20
110.342363
30
0.0
10
36.357170
20
108.578443
30
0.0
10
35.295724
20
106.743283
30
0.0
10
34.388148
20
104.837515
30
0.0
10
33.735316
20
103.072082
30
0.0
10
33.245972
20
101.225600
30
0.0
10
32.921172
20
99.324917
30
0.0
10
32.761973
20
97.396883
30
0.0
10
32.769431
20
95.468348
30
0.0
10
32.944603
20
93.566159
30
0.0
10
33.288544
20
91.717168
30
0.0
10
33.802312
20
89.948221
30
0.0
10
34.506834
20
88.144180
30
0.0
10
35.349076
20
86.421508
30
0.0
10
36.365958
20
84.732932
30
0.0
10
37.594402
20
83.031177
30
0.0
10
40.833661
20
79.399035
30
0.0
10
45.362221
20
75.146888
30
0.0
10
47.535506
20
73.069740
30
0.0
10
48.203664
20
72.093961
30
0.0
10
48.657418
20
70.923875
30
0.0
10
48.945208
20
69.382353
30
0.0
10
49.115472
20
67.292269
30
0.0
10
49.297181
20
60.757901
30
0.0
10
49.488793
20
51.374012
30
0.0
10
47.679737
20
51.404935
30
0.0
10
44.741753
20
51.660400
30
0.0
10
44.741753
20
51.660400
30
0.0
62
0
0
LWPOLYLINE
100
AcDbPolyline
8
Layer_1
90
60
70
0
10
86.510726
20
60.757901
30
0.0
10
86.765564
20
68.915390
30
0.0
10
86.968720
20
70.476293
30
0.0
10
87.300432
20
71.411790
30
0.0
10
87.942854
20
72.460750
30
0.0
10
89.133510
20
73.838331
30
0.0
10
94.262188
20
78.740073
30
0.0
10
97.008990
20
81.515796
30
0.0
10
99.181260
20
84.295564
30
0.0
10
100.879720
20
87.228016
30
0.0
10
102.205090
20
90.461790
30
0.0
10
102.562122
20
91.642983
30
0.0
10
102.763572
20
92.815817
30
0.0
10
102.862075
20
96.670678
30
0.0
10
102.719027
20
100.644878
30
0.0
10
102.456950
20
101.911353
30
0.0
10
101.977396
20
103.383698
30
0.0
10
100.961597
20
105.813659
30
0.0
10
99.737110
20
108.173797
30
0.0
10
97.896999
20
110.732005
30
0.0
10
95.390488
20
113.492799
30
0.0
10
92.567317
20
116.103685
30
0.0
10
89.777223
20
118.212168
30
0.0
10
87.959217
20
119.442346
30
0.0
10
87.323755
20
119.954012
30
0.0
10
89.957272
20
118.949408
30
0.0
10
94.491866
20
116.759133
30
0.0
10
96.589582
20
115.501447
30
0.0
10
98.571990
20
114.138227
30
0.0
10
100.437401
20
112.671596
30
0.0
10
102.184123
20
111.103676
30
0.0
10
103.810466
20
109.436590
30
0.0
10
105.314741
20
107.672462
30
0.0
10
106.695256
20
105.813415
30
0.0
10
107.950321
20
103.861572
30
0.0
10
109.078246
20
101.819055
30
0.0
10
110.077340
20
99.687988
30
0.0
10
110.945913
20
97.470494
30
0.0
10
111.682276
20
95.168695
30
0.0
10
112.284736
20
92.784716
30
0.0
10
112.751605
20
90.320678
30
0.0
10
113.166749
20
85.920805
30
0.0
10
113.124230
20
81.200240
30
0.0
10
112.648051
20
76.590744
30
0.0
10
111.762215
20
72.524081
30
0.0
10
110.955360
20
70.337099
30
0.0
10
109.755885
20
67.723237
30
0.0
10
108.354349
20
65.068487
30
0.0
10
106.941310
20
62.758842
30
0.0
10
105.072864
20
60.298376
30
0.0
10
102.970805
20
58.083396
30
0.0
10
100.677827
20
56.139354
30
0.0
10
98.236624
20
54.491701
30
0.0
10
95.689891
20
53.165889
30
0.0
10
93.080322
20
52.187369
30
0.0
10
90.450612
20
51.581593
30
0.0
10
87.843453
20
51.374012
30
0.0
10
86.316558
20
51.374012
30
0.0
10
86.510726
20
60.757901
30
0.0
10
86.510726
20
60.757901
30
0.0
62
0
0
LWPOLYLINE
100
AcDbPolyline
8
Layer_1
90
23
70
0
10
66.500434
20
93.566234
30
0.0
10
66.001429
20
95.682901
30
0.0
10
62.582388
20
95.682901
30
0.0
10
60.209384
20
95.753024
30
0.0
10
59.581218
20
95.831307
30
0.0
10
59.431456
20
95.930077
30
0.0
10
62.027901
20
96.941030
30
0.0
10
63.672286
20
97.555614
30
0.0
10
64.356234
20
97.960691
30
0.0
10
63.600647
20
98.370319
30
0.0
10
61.784024
20
98.995848
30
0.0
10
59.211817
20
99.775123
30
0.0
10
60.584580
20
99.962064
30
0.0
10
63.992579
20
100.173731
30
0.0
10
66.027811
20
100.198453
30
0.0
10
66.294347
20
101.256787
30
0.0
10
66.840501
20
103.444009
30
0.0
10
66.974707
20
103.651281
30
0.0
10
67.065797
20
102.904823
30
0.0
10
67.149289
20
98.011231
30
0.0
10
67.088947
20
91.449565
30
0.0
10
66.500434
20
93.566231
30
0.0
10
66.500434
20
93.566234
30
0.0
62
0
0
LWPOLYLINE
100
AcDbPolyline
8
Layer_1
90
22
70
0
10
68.589567
20
97.940678
30
0.0
10
68.702349
20
104.431790
30
0.0
10
69.286044
20
102.315123
30
0.0
10
69.756957
20
100.198456
30
0.0
10
72.936224
20
100.198456
30
0.0
10
75.244068
20
100.136279
30
0.0
10
76.328208
20
99.986790
30
0.0
10
75.787273
20
99.616772
30
0.0
10
74.188024
20
99.024389
30
0.0
10
72.504009
20
98.383032
30
0.0
10
71.835123
20
97.907673
30
0.0
10
72.441425
20
97.456802
30
0.0
10
73.951790
20
96.879356
30
0.0
10
76.336567
20
95.949962
30
0.0
10
76.219693
20
95.837362
30
0.0
10
75.638130
20
95.753434
30
0.0
10
73.213169
20
95.682901
30
0.0
10
69.821662
20
95.682901
30
0.0
10
69.322656
20
93.566234
30
0.0
10
68.706611
20
91.449567
30
0.0
10
68.589567
20
97.940678
30
0.0
10
68.589567
20
97.940678
30
0.0
  0
ENDSEC
  0
SECTION
  2
OBJECTS
  0
DICTIONARY
  5
C
330
0
100
AcDbDictionary
  3
ACAD_GROUP
350
D
  3
ACAD_MLINESTYLE
350
17
  0
DICTIONARY
  5
D
330
C
100
AcDbDictionary
  0
DICTIONARY
  5
1A
330
C
100
AcDbDictionary
  0
DICTIONARY
  5
17
330
C
100
AcDbDictionary
  3
STANDARD
350
18
  0
DICTIONARY
  5
19
330
C
100
AcDbDictionary
  0
ENDSEC
  0
EOF
