999
Inkscape export via OpenSCAD DXF Export
  0
SECTION
  2
HEADER
  9
$ACADVER
  1
AC1014
  9
$HANDSEED
  5
FFFF
  9
$MEASUREMENT
 70
     1
  0
ENDSEC
  0
SECTION
  2
TABLES
  0
TABLE
  2
VPORT
  5
8
330
0
100
AcDbSymbolTable
 70
     4
  0
VPORT
  5
2E
330
8
100
AcDbSymbolTableRecord
100
AcDbViewportTableRecord
  2
*ACTIVE
 70
     0
 10
0.0
 20
0.0
 11
1.0
 21
1.0
 12
210.0
 22
148.5
 13
0.0
 23
0.0
 14
10.0
 24
10.0
 15
10.0
 25
10.0
 16
0.0
 26
0.0
 36
1.0
 17
0.0
 27
0.0
 37
0.0
 40
341.0
 41
1.24
 42
50.0
 43
0.0
 44
0.0
 50
0.0
 51
0.0
 71
     0
 72
   100
 73
     1
 74
     3
 75
     0
 76
     0
 77
     0
 78
     0
  0
ENDTAB
  0
TABLE
  2
LTYPE
  5
5
330
0
100
AcDbSymbolTable
 70
     1
  0
LTYPE
  5
14
330
5
100
AcDbSymbolTableRecord
100
AcDbLinetypeTableRecord
  2
BYBLOCK
 70
     0
  3

 72
    65
 73
     0
 40
0.0
  0
LTYPE
  5
15
330
5
100
AcDbSymbolTableRecord
100
AcDbLinetypeTableRecord
  2
BYLAYER
 70
     0
  3

 72
    65
 73
     0
 40
0.0
  0
LTYPE
  5
16
330
5
100
AcDbSymbolTableRecord
100
AcDbLinetypeTableRecord
  2
CONTINUOUS
 70
     0
  3
Solid line
 72
    65
 73
     0
 40
0.0
  0
ENDTAB
  0
TABLE
0
TABLE
2
LAYER
5
2
330
0
100
AcDbSymbolTable
70
1
0
LAYER
5
10
330
2
100
AcDbSymbolTableRecord
100
AcDbLayerTableRecord
2
Layer_1
70
0
62
7
6
CONTINUOUS
0
ENDTAB
0
ENDSEC
  0
ENDTAB
  0
TABLE
  2
STYLE
  5
3
330
0
100
AcDbSymbolTable
 70
     1
  0
STYLE
  5
11
330
3
100
AcDbSymbolTableRecord
100
AcDbTextStyleTableRecord
  2
STANDARD
 70
     0
 40
0.0
 41
1.0
 50
0.0
 71
     0
 42
2.5
  3
txt
  4

  0
ENDTAB
  0
TABLE
  2
VIEW
  5
6
330
0
100
AcDbSymbolTable
 70
     0
  0
ENDTAB
  0
TABLE
  2
UCS
  5
7
330
0
100
AcDbSymbolTable
 70
     0
  0
ENDTAB
  0
TABLE
  2
APPID
  5
9
330
0
100
AcDbSymbolTable
 70
     2
  0
APPID
  5
12
330
9
100
AcDbSymbolTableRecord
100
AcDbRegAppTableRecord
  2
ACAD
 70
     0
  0
ENDTAB
  0
TABLE
  2
DIMSTYLE
  5
A
330
0
100
AcDbSymbolTable
 70
     1
  0
DIMSTYLE
105
27
330
A
100
AcDbSymbolTableRecord
100
AcDbDimStyleTableRecord
  2
ISO-25
 70
     0
  3

  4

  5

  6

  7

 40
1.0
 41
2.5
 42
0.625
 43
3.75
 44
1.25
 45
0.0
 46
0.0
 47
0.0
 48
0.0
140
2.5
141
2.5
142
0.0
143
0.03937007874016
144
1.0
145
0.0
146
1.0
147
0.625
 71
     0
 72
     0
 73
     0
 74
     0
 75
     0
 76
     0
 77
     1
 78
     8
170
     0
171
     3
172
     1
173
     0
174
     0
175
     0
176
     0
177
     0
178
     0
270
     2
271
     2
272
     2
273
     2
274
     3
340
11
275
     0
280
     0
281
     0
282
     0
283
     0
284
     8
285
     0
286
     0
287
     3
288
     0
  0
ENDTAB
  0
TABLE
  2
BLOCK_RECORD
  5
1
330
0
100
AcDbSymbolTable
 70
     1
  0
BLOCK_RECORD
  5
1F
330
1
100
AcDbSymbolTableRecord
100
AcDbBlockTableRecord
  2
*MODEL_SPACE
  0
BLOCK_RECORD
  5
1B
330
1
100
AcDbSymbolTableRecord
100
AcDbBlockTableRecord
  2
*PAPER_SPACE
  0
ENDTAB
  0
ENDSEC
  0
SECTION
  2
BLOCKS
  0
BLOCK
  5
20
330
1F
100
AcDbEntity
  8
0
100
AcDbBlockBegin
  2
*MODEL_SPACE
 70
     0
 10
0.0
 20
0.0
 30
0.0
  3
*MODEL_SPACE
  1

  0
ENDBLK
  5
21
330
1F
100
AcDbEntity
  8
0
100
AcDbBlockEnd
  0
BLOCK
  5
1C
330
1B
100
AcDbEntity
 67
     1
  8
0
100
AcDbBlockBegin
  2
*PAPER_SPACE
  1

  0
ENDBLK
  5
1D
330
1B
100
AcDbEntity
 67
     1
  8
0
100
AcDbBlockEnd
  0
ENDSEC
  0
SECTION
  2
ENTITIES
0
DIMENSION
5
83
100
AcDbEntity
62
256
370
-1
6
ByLayer
1
total_width
3
Standard
70
0
71
5
72
1
41
1.0
100
AcDbAlignedDimension
13
3.141446
23
0.000000
33
0.0
14
454.697225
24
0.000000
34
0.0
50
0.000000
100
AcDbRotatedDimension
0
DIMENSION
5
83
100
AcDbEntity
62
256
370
-1
6
ByLayer
1
total_height
3
Standard
70
0
71
5
72
1
41
1.0
100
AcDbAlignedDimension
13
0.000000
23
-2.088840
33
0.0
14
0.000000
24
518.784634
34
0.0
50
90.000000
100
AcDbRotatedDimension
0
DIMENSION
8
Layer_1
5
83
100
AcDbEntity
62
256
370
-1
6
ByLayer
1
Layer_1_width
3
Standard
70
0
71
5
72
1
41
1.0
100
AcDbAlignedDimension
13
3.141446
23
0.000000
33
0.0
14
454.697225
24
0.000000
34
0.0
50
0.000000
100
AcDbRotatedDimension
0
DIMENSION
8
Layer_1
5
83
100
AcDbEntity
62
256
370
-1
6
ByLayer
1
Layer_1_height
3
Standard
70
0
71
5
72
1
41
1.0
100
AcDbAlignedDimension
13
0.000000
23
-2.088840
33
0.0
14
0.000000
24
518.784634
34
0.0
50
90.000000
100
AcDbRotatedDimension
62
0
0
LWPOLYLINE
100
AcDbPolyline
8
Layer_1
90
21
70
0
10
176.637614
20
28.104818
30
0.0
10
139.614027
20
49.554250
30
0.0
10
124.214836
20
58.625881
30
0.0
10
129.890212
20
68.554939
30
0.0
10
135.565560
20
78.226892
30
0.0
10
137.862990
20
76.877616
30
0.0
10
184.575114
20
49.778412
30
0.0
10
221.890931
20
28.256174
30
0.0
10
227.984389
20
24.931616
30
0.0
10
229.187771
20
24.395958
30
0.0
10
229.656643
20
24.332325
30
0.0
10
276.322451
20
51.313786
30
0.0
10
322.579097
20
77.991406
30
0.0
10
328.275601
20
68.713713
30
0.0
10
334.038250
20
58.747237
30
0.0
10
330.797539
20
56.684298
30
0.0
10
320.980541
20
50.882942
30
0.0
10
281.812774
20
28.179183
30
0.0
10
229.259838
20
-2.088840
30
0.0
10
176.637614
20
28.104818
30
0.0
10
176.637614
20
28.104818
30
0.0
62
0
0
LWPOLYLINE
100
AcDbPolyline
8
Layer_1
90
150
70
0
10
196.546049
20
72.574884
30
0.0
10
164.302161
20
92.716858
30
0.0
10
167.367510
20
97.813195
30
0.0
10
170.660232
20
102.739500
30
0.0
10
175.613984
20
100.069096
30
0.0
10
187.151775
20
93.524663
30
0.0
10
200.143229
20
86.185555
30
0.0
10
202.718597
20
84.875951
30
0.0
10
203.290450
20
84.668441
30
0.0
10
203.485753
20
84.704767
30
0.0
10
208.878370
20
133.871406
30
0.0
10
212.903124
20
171.665872
30
0.0
10
213.715265
20
180.137077
30
0.0
10
213.850815
20
182.875343
30
0.0
10
192.296093
20
195.387807
30
0.0
10
171.053989
20
207.579637
30
0.0
10
165.908315
20
203.817051
30
0.0
10
113.131564
20
165.117395
30
0.0
10
91.618170
20
149.120154
30
0.0
10
96.260725
20
146.185971
30
0.0
10
107.422614
20
139.502049
30
0.0
10
123.420014
20
129.963531
30
0.0
10
122.641662
20
128.212273
30
0.0
10
120.683668
20
124.569485
30
0.0
10
118.618735
20
120.967077
30
0.0
10
117.519566
20
119.336961
30
0.0
10
51.127691
20
154.960151
30
0.0
10
51.876003
20
187.003651
30
0.0
10
53.011411
20
226.744897
30
0.0
10
53.179136
20
231.141693
30
0.0
10
56.170889
20
231.043395
30
0.0
10
62.335639
20
230.781634
30
0.0
10
65.508635
20
230.618199
30
0.0
10
65.581194
20
211.911099
30
0.0
10
65.653725
20
193.204028
30
0.0
10
110.591998
20
212.997147
30
0.0
10
155.530271
20
232.790294
30
0.0
10
155.527448
20
258.049181
30
0.0
10
155.527448
20
283.308069
30
0.0
10
110.590587
20
303.096814
30
0.0
10
65.653725
20
322.885559
30
0.0
10
65.581194
20
304.182156
30
0.0
10
65.508635
20
285.478782
30
0.0
10
62.617861
20
285.315347
30
0.0
10
56.410947
20
285.058496
30
0.0
10
53.094836
20
284.965081
30
0.0
10
53.092014
20
285.688783
30
0.0
10
52.105647
20
320.843625
30
0.0
10
51.119563
20
357.989409
30
0.0
10
51.116741
20
360.704090
30
0.0
10
84.207212
20
378.732742
30
0.0
10
117.517675
20
396.761394
30
0.0
10
118.536853
20
395.227693
30
0.0
10
120.678310
20
391.540283
30
0.0
10
122.942804
20
387.325971
30
0.0
10
123.295296
20
386.408854
30
0.0
10
123.245911
20
386.032019
30
0.0
10
107.059817
20
376.596334
30
0.0
10
91.246822
20
367.447802
30
0.0
10
92.419003
20
366.558398
30
0.0
10
168.299133
20
310.761490
30
0.0
10
170.206108
20
309.374453
30
0.0
10
192.202198
20
321.975844
30
0.0
10
214.198287
20
334.577216
30
0.0
10
214.066123
20
335.471527
30
0.0
10
208.730712
20
384.173628
30
0.0
10
203.409835
20
432.099051
30
0.0
10
187.529473
20
423.210595
30
0.0
10
171.158495
20
413.883441
30
0.0
10
170.746396
20
413.826408
30
0.0
10
170.174563
20
414.355891
30
0.0
10
167.379229
20
418.654625
30
0.0
10
165.192762
20
422.349309
30
0.0
10
164.459725
20
423.980813
30
0.0
10
196.705364
20
444.124633
30
0.0
10
228.699543
20
464.034513
30
0.0
10
230.854253
20
462.688542
30
0.0
10
262.642296
20
442.906760
30
0.0
10
292.763730
20
424.140320
30
0.0
10
292.933154
20
423.814056
30
0.0
10
292.663891
20
423.044920
30
0.0
10
290.105987
20
418.752209
30
0.0
10
286.892210
20
413.603127
30
0.0
10
270.680973
20
422.862273
30
0.0
10
254.421840
20
432.097217
30
0.0
10
243.810849
20
335.444059
30
0.0
10
243.733407
20
334.522281
30
0.0
10
265.450012
20
321.959249
30
0.0
10
280.874506
20
313.128449
30
0.0
10
287.463315
20
309.538621
30
0.0
10
327.193614
20
338.561802
30
0.0
10
366.182402
20
367.410283
30
0.0
10
355.028641
20
374.117404
30
0.0
10
335.655610
20
385.346521
30
0.0
10
334.162231
20
386.196086
30
0.0
10
336.898968
20
391.478742
30
0.0
10
339.707530
20
396.853656
30
0.0
10
372.920786
20
379.227457
30
0.0
10
406.422013
20
361.162422
30
0.0
10
406.597767
20
359.731174
30
0.0
10
406.555187
20
354.476066
30
0.0
10
405.629646
20
323.738830
30
0.0
10
404.297529
20
285.823996
30
0.0
10
404.168610
20
284.953256
30
0.0
10
401.138785
20
285.053557
30
0.0
10
395.218186
20
285.316306
30
0.0
10
392.327384
20
285.478782
30
0.0
10
392.254853
20
304.184019
30
0.0
10
392.182294
20
322.889256
30
0.0
10
347.244190
20
303.098649
30
0.0
10
302.306059
20
283.308069
30
0.0
10
302.370857
20
258.249474
30
0.0
10
302.435627
20
233.190909
30
0.0
10
347.225930
20
213.446727
30
0.0
10
392.169819
20
193.702517
30
0.0
10
392.323405
20
212.428526
30
0.0
10
392.323405
20
231.154563
30
0.0
10
398.137041
20
231.356380
30
0.0
10
404.128986
20
231.379804
30
0.0
10
405.469774
20
196.965510
30
0.0
10
406.700623
20
158.387965
30
0.0
10
406.716710
20
155.387943
30
0.0
10
373.419793
20
137.574076
30
0.0
10
339.897635
20
119.760210
30
0.0
10
336.940864
20
125.011565
30
0.0
10
334.256041
20
130.353534
30
0.0
10
350.346857
20
139.678354
30
0.0
10
361.639182
20
146.287832
30
0.0
10
366.292412
20
149.164633
30
0.0
10
338.960252
20
169.346291
30
0.0
10
291.222938
20
204.331598
30
0.0
10
286.783611
20
207.573174
30
0.0
10
265.533578
20
195.282481
30
0.0
10
243.774104
20
182.619340
30
0.0
10
243.633710
20
182.314496
30
0.0
10
243.611076
20
181.333957
30
0.0
10
244.122274
20
175.349673
30
0.0
10
248.792890
20
133.315428
30
0.0
10
254.389441
20
84.319477
30
0.0
10
270.493549
20
93.540890
30
0.0
10
286.721550
20
102.826876
30
0.0
10
287.868997
20
101.260304
30
0.0
10
290.064186
20
97.798026
30
0.0
10
292.162702
20
94.296203
30
0.0
10
293.020129
20
92.610996
30
0.0
10
261.121967
20
72.535708
30
0.0
10
229.198935
20
52.706355
30
0.0
10
219.431774
20
58.508653
30
0.0
10
196.543481
20
72.574799
30
0.0
10
196.546049
20
72.574884
30
0.0
62
0
0
LWPOLYLINE
100
AcDbPolyline
8
Layer_1
90
16
70
0
10
55.569445
20
97.824629
30
0.0
10
3.151860
20
128.085850
30
0.0
10
3.146780
20
188.834183
30
0.0
10
3.141700
20
249.582514
30
0.0
10
14.429883
20
249.582514
30
0.0
10
25.718039
20
249.582514
30
0.0
10
25.789328
20
195.489661
30
0.0
10
25.860589
20
141.396833
30
0.0
10
72.662573
20
114.374196
30
0.0
10
119.613316
20
87.202772
30
0.0
10
117.929397
20
84.060914
30
0.0
10
114.042401
20
77.312668
30
0.0
10
110.075644
20
70.597855
30
0.0
10
108.152441
20
67.556295
30
0.0
10
55.569643
20
97.824629
30
0.0
10
55.569445
20
97.824629
30
0.0
62
0
0
LWPOLYLINE
100
AcDbPolyline
8
Layer_1
90
19
70
0
10
349.361252
20
68.580000
30
0.0
10
343.585461
20
78.408671
30
0.0
10
339.217663
20
86.037900
30
0.0
10
338.813389
20
87.143588
30
0.0
10
338.883687
20
87.366508
30
0.0
10
339.069906
20
87.501786
30
0.0
10
385.834834
20
114.620548
30
0.0
10
431.978167
20
141.399458
30
0.0
10
432.049456
20
195.490987
30
0.0
10
432.120717
20
249.582514
30
0.0
10
443.408901
20
249.582514
30
0.0
10
454.697056
20
249.582514
30
0.0
10
454.691694
20
188.834183
30
0.0
10
454.686331
20
128.085850
30
0.0
10
402.587093
20
97.888072
30
0.0
10
350.243789
20
67.597443
30
0.0
10
349.883822
20
67.847760
30
0.0
10
349.361083
20
68.580000
30
0.0
10
349.361252
20
68.580000
30
0.0
62
0
0
LWPOLYLINE
100
AcDbPolyline
8
Layer_1
90
15
70
0
10
3.146949
20
328.393069
30
0.0
10
3.152312
20
388.859172
30
0.0
10
55.660773
20
419.163390
30
0.0
10
92.809888
20
440.493027
30
0.0
10
108.390552
20
449.220057
30
0.0
10
114.268902
20
439.512106
30
0.0
10
119.565846
20
430.217219
30
0.0
10
72.573786
20
402.945510
30
0.0
10
25.719224
20
375.896338
30
0.0
10
25.719224
20
321.911639
30
0.0
10
25.719224
20
267.926958
30
0.0
10
14.430335
20
267.926958
30
0.0
10
3.141446
20
267.926958
30
0.0
10
3.146808
20
328.393069
30
0.0
10
3.146949
20
328.393069
30
0.0
62
0
0
LWPOLYLINE
100
AcDbPolyline
8
Layer_1
90
16
70
0
10
432.119278
20
321.909945
30
0.0
10
432.119278
20
375.892957
30
0.0
10
386.046500
20
402.398614
30
0.0
10
339.217169
20
429.356077
30
0.0
10
338.460644
20
429.807886
30
0.0
10
344.165964
20
439.531306
30
0.0
10
348.281914
20
446.398473
30
0.0
10
350.165924
20
449.254728
30
0.0
10
402.573518
20
419.056950
30
0.0
10
454.686501
20
388.859172
30
0.0
10
454.691863
20
328.393069
30
0.0
10
454.697225
20
267.926958
30
0.0
10
443.408336
20
267.926958
30
0.0
10
432.119447
20
267.926958
30
0.0
10
432.119447
20
321.909945
30
0.0
10
432.119278
20
321.909945
30
0.0
62
0
0
LWPOLYLINE
100
AcDbPolyline
8
Layer_1
90
21
70
0
10
133.323982
20
442.972845
30
0.0
10
127.561823
20
452.780067
30
0.0
10
124.034045
20
458.889176
30
0.0
10
228.559955
20
518.784634
30
0.0
10
229.056512
20
518.708753
30
0.0
10
230.416187
20
518.087799
30
0.0
10
237.504752
20
514.206946
30
0.0
10
281.617730
20
488.863355
30
0.0
10
334.159183
20
458.523509
30
0.0
10
329.220174
20
450.028292
30
0.0
10
322.929673
20
439.555625
30
0.0
10
320.592809
20
440.646238
30
0.0
10
312.942319
20
444.886286
30
0.0
10
276.154473
20
465.943402
30
0.0
10
243.127116
20
484.846033
30
0.0
10
229.060392
20
492.695888
30
0.0
10
215.031224
20
484.832167
30
0.0
10
182.094127
20
465.955332
30
0.0
10
135.605466
20
439.235839
30
0.0
10
133.323982
20
442.972845
30
0.0
10
133.323982
20
442.972845
30
0.0
  0
ENDSEC
  0
SECTION
  2
OBJECTS
  0
DICTIONARY
  5
C
330
0
100
AcDbDictionary
  3
ACAD_GROUP
350
D
  3
ACAD_MLINESTYLE
350
17
  0
DICTIONARY
  5
D
330
C
100
AcDbDictionary
  0
DICTIONARY
  5
1A
330
C
100
AcDbDictionary
  0
DICTIONARY
  5
17
330
C
100
AcDbDictionary
  3
STANDARD
350
18
  0
DICTIONARY
  5
19
330
C
100
AcDbDictionary
  0
ENDSEC
  0
EOF
