999
Inkscape export via OpenSCAD DXF Export
  0
SECTION
  2
HEADER
  9
$ACADVER
  1
AC1014
  9
$HANDSEED
  5
FFFF
  9
$MEASUREMENT
 70
     1
  0
ENDSEC
  0
SECTION
  2
TABLES
  0
TABLE
  2
VPORT
  5
8
330
0
100
AcDbSymbolTable
 70
     4
  0
VPORT
  5
2E
330
8
100
AcDbSymbolTableRecord
100
AcDbViewportTableRecord
  2
*ACTIVE
 70
     0
 10
0.0
 20
0.0
 11
1.0
 21
1.0
 12
210.0
 22
148.5
 13
0.0
 23
0.0
 14
10.0
 24
10.0
 15
10.0
 25
10.0
 16
0.0
 26
0.0
 36
1.0
 17
0.0
 27
0.0
 37
0.0
 40
341.0
 41
1.24
 42
50.0
 43
0.0
 44
0.0
 50
0.0
 51
0.0
 71
     0
 72
   100
 73
     1
 74
     3
 75
     0
 76
     0
 77
     0
 78
     0
  0
ENDTAB
  0
TABLE
  2
LTYPE
  5
5
330
0
100
AcDbSymbolTable
 70
     1
  0
LTYPE
  5
14
330
5
100
AcDbSymbolTableRecord
100
AcDbLinetypeTableRecord
  2
BYBLOCK
 70
     0
  3

 72
    65
 73
     0
 40
0.0
  0
LTYPE
  5
15
330
5
100
AcDbSymbolTableRecord
100
AcDbLinetypeTableRecord
  2
BYLAYER
 70
     0
  3

 72
    65
 73
     0
 40
0.0
  0
LTYPE
  5
16
330
5
100
AcDbSymbolTableRecord
100
AcDbLinetypeTableRecord
  2
CONTINUOUS
 70
     0
  3
Solid line
 72
    65
 73
     0
 40
0.0
  0
ENDTAB
  0
TABLE
0
TABLE
2
LAYER
5
2
330
0
100
AcDbSymbolTable
70
1
0
LAYER
5
10
330
2
100
AcDbSymbolTableRecord
100
AcDbLayerTableRecord
2
Layer_1
70
0
62
7
6
CONTINUOUS
0
ENDTAB
0
ENDSEC
  0
ENDTAB
  0
TABLE
  2
STYLE
  5
3
330
0
100
AcDbSymbolTable
 70
     1
  0
STYLE
  5
11
330
3
100
AcDbSymbolTableRecord
100
AcDbTextStyleTableRecord
  2
STANDARD
 70
     0
 40
0.0
 41
1.0
 50
0.0
 71
     0
 42
2.5
  3
txt
  4

  0
ENDTAB
  0
TABLE
  2
VIEW
  5
6
330
0
100
AcDbSymbolTable
 70
     0
  0
ENDTAB
  0
TABLE
  2
UCS
  5
7
330
0
100
AcDbSymbolTable
 70
     0
  0
ENDTAB
  0
TABLE
  2
APPID
  5
9
330
0
100
AcDbSymbolTable
 70
     2
  0
APPID
  5
12
330
9
100
AcDbSymbolTableRecord
100
AcDbRegAppTableRecord
  2
ACAD
 70
     0
  0
ENDTAB
  0
TABLE
  2
DIMSTYLE
  5
A
330
0
100
AcDbSymbolTable
 70
     1
  0
DIMSTYLE
105
27
330
A
100
AcDbSymbolTableRecord
100
AcDbDimStyleTableRecord
  2
ISO-25
 70
     0
  3

  4

  5

  6

  7

 40
1.0
 41
2.5
 42
0.625
 43
3.75
 44
1.25
 45
0.0
 46
0.0
 47
0.0
 48
0.0
140
2.5
141
2.5
142
0.0
143
0.03937007874016
144
1.0
145
0.0
146
1.0
147
0.625
 71
     0
 72
     0
 73
     0
 74
     0
 75
     0
 76
     0
 77
     1
 78
     8
170
     0
171
     3
172
     1
173
     0
174
     0
175
     0
176
     0
177
     0
178
     0
270
     2
271
     2
272
     2
273
     2
274
     3
340
11
275
     0
280
     0
281
     0
282
     0
283
     0
284
     8
285
     0
286
     0
287
     3
288
     0
  0
ENDTAB
  0
TABLE
  2
BLOCK_RECORD
  5
1
330
0
100
AcDbSymbolTable
 70
     1
  0
BLOCK_RECORD
  5
1F
330
1
100
AcDbSymbolTableRecord
100
AcDbBlockTableRecord
  2
*MODEL_SPACE
  0
BLOCK_RECORD
  5
1B
330
1
100
AcDbSymbolTableRecord
100
AcDbBlockTableRecord
  2
*PAPER_SPACE
  0
ENDTAB
  0
ENDSEC
  0
SECTION
  2
BLOCKS
  0
BLOCK
  5
20
330
1F
100
AcDbEntity
  8
0
100
AcDbBlockBegin
  2
*MODEL_SPACE
 70
     0
 10
0.0
 20
0.0
 30
0.0
  3
*MODEL_SPACE
  1

  0
ENDBLK
  5
21
330
1F
100
AcDbEntity
  8
0
100
AcDbBlockEnd
  0
BLOCK
  5
1C
330
1B
100
AcDbEntity
 67
     1
  8
0
100
AcDbBlockBegin
  2
*PAPER_SPACE
  1

  0
ENDBLK
  5
1D
330
1B
100
AcDbEntity
 67
     1
  8
0
100
AcDbBlockEnd
  0
ENDSEC
  0
SECTION
  2
ENTITIES
0
DIMENSION
5
83
100
AcDbEntity
62
256
370
-1
6
ByLayer
1
total_width
3
Standard
70
0
71
5
72
1
41
1.0
100
AcDbAlignedDimension
13
1.818897
23
0.000000
33
0.0
14
147.727786
24
0.000000
34
0.0
50
0.000000
100
AcDbRotatedDimension
0
DIMENSION
5
83
100
AcDbEntity
62
256
370
-1
6
ByLayer
1
total_height
3
Standard
70
0
71
5
72
1
41
1.0
100
AcDbAlignedDimension
13
0.000000
23
-0.590045
33
0.0
14
0.000000
24
141.922173
34
0.0
50
90.000000
100
AcDbRotatedDimension
0
DIMENSION
8
Layer_1
5
83
100
AcDbEntity
62
256
370
-1
6
ByLayer
1
Layer_1_width
3
Standard
70
0
71
5
72
1
41
1.0
100
AcDbAlignedDimension
13
1.818897
23
0.000000
33
0.0
14
147.727786
24
0.000000
34
0.0
50
0.000000
100
AcDbRotatedDimension
0
DIMENSION
8
Layer_1
5
83
100
AcDbEntity
62
256
370
-1
6
ByLayer
1
Layer_1_height
3
Standard
70
0
71
5
72
1
41
1.0
100
AcDbAlignedDimension
13
0.000000
23
-0.590045
33
0.0
14
0.000000
24
141.922173
34
0.0
50
90.000000
100
AcDbRotatedDimension
62
0
0
LWPOLYLINE
100
AcDbPolyline
8
Layer_1
90
435
70
0
10
40.483990
20
-0.472189
30
0.0
10
50.053387
20
20.899989
30
0.0
10
59.499802
20
42.191630
30
0.0
10
57.720896
20
40.677315
30
0.0
10
56.294334
20
39.388653
30
0.0
10
56.023226
20
39.356427
30
0.0
10
55.874816
20
39.635120
30
0.0
10
55.634790
20
40.135698
30
0.0
10
55.398720
20
40.166877
30
0.0
10
55.186912
20
39.746312
30
0.0
10
55.019671
20
38.891656
30
0.0
10
54.626295
20
36.691279
30
0.0
10
54.349450
20
36.090728
30
0.0
10
53.924906
20
35.534182
30
0.0
10
53.510762
20
35.124937
30
0.0
10
53.038022
20
34.874160
30
0.0
10
51.316365
20
34.642862
30
0.0
10
49.373341
20
34.525255
30
0.0
10
50.133270
20
35.332622
30
0.0
10
50.979275
20
36.516702
30
0.0
10
51.299185
20
37.697506
30
0.0
10
51.091870
20
38.851528
30
0.0
10
50.356194
20
39.955261
30
0.0
10
49.493094
20
40.628029
30
0.0
10
48.399429
20
40.796656
30
0.0
10
47.104070
20
40.606116
30
0.0
10
45.916211
20
40.027729
30
0.0
10
44.820952
20
39.051347
30
0.0
10
43.803389
20
37.666823
30
0.0
10
43.388127
20
36.656167
30
0.0
10
43.028033
20
35.244582
30
0.0
10
42.809951
20
33.853095
30
0.0
10
42.820723
20
32.902731
30
0.0
10
42.866283
20
32.498232
30
0.0
10
42.765497
20
32.329989
30
0.0
10
42.122617
20
32.679603
30
0.0
10
41.198836
20
33.534632
30
0.0
10
40.273454
20
34.604362
30
0.0
10
39.625770
20
35.598075
30
0.0
10
39.283572
20
36.582003
30
0.0
10
39.116028
20
37.710266
30
0.0
10
39.113470
20
38.929378
30
0.0
10
39.266235
20
40.185850
30
0.0
10
39.564656
20
41.426198
30
0.0
10
39.999069
20
42.596933
30
0.0
10
40.559808
20
43.644569
30
0.0
10
41.237208
20
44.515619
30
0.0
10
42.235892
20
45.295802
30
0.0
10
43.618695
20
45.943676
30
0.0
10
45.403448
20
46.465826
30
0.0
10
47.607982
20
46.868839
30
0.0
10
51.667763
20
47.630920
30
0.0
10
52.760084
20
48.068796
30
0.0
10
53.536119
20
48.636634
30
0.0
10
54.049323
20
49.231592
30
0.0
10
54.274872
20
49.782575
30
0.0
10
54.214389
20
50.300087
30
0.0
10
53.869497
20
50.794629
30
0.0
10
53.670518
20
51.099875
30
0.0
10
53.720120
20
51.537979
30
0.0
10
54.824836
20
53.566452
30
0.0
10
56.335113
20
56.166157
30
0.0
10
57.248303
20
58.015517
30
0.0
10
57.722043
20
59.492618
30
0.0
10
57.913973
20
60.975545
30
0.0
10
57.912246
20
62.738864
30
0.0
10
57.746232
20
63.249302
30
0.0
10
57.434342
20
63.716718
30
0.0
10
56.679091
20
64.385848
30
0.0
10
55.761067
20
64.676542
30
0.0
10
54.660135
20
64.590848
30
0.0
10
53.356160
20
64.130809
30
0.0
10
52.229309
20
63.513897
30
0.0
10
51.171428
20
62.725554
30
0.0
10
50.180947
20
61.763626
30
0.0
10
49.256297
20
60.625955
30
0.0
10
47.598217
20
57.814764
30
0.0
10
46.184637
20
54.274731
30
0.0
10
45.274302
20
51.815201
30
0.0
10
45.003520
20
51.516641
30
0.0
10
44.736726
20
51.620888
30
0.0
10
39.707230
20
55.866309
30
0.0
10
35.121119
20
59.913099
30
0.0
10
36.196885
20
61.380714
30
0.0
10
38.358818
20
64.254640
30
0.0
10
39.871358
20
66.943581
30
0.0
10
40.768382
20
69.521585
30
0.0
10
41.083766
20
72.062701
30
0.0
10
40.984349
20
73.516619
30
0.0
10
40.620498
20
74.635306
30
0.0
10
39.963079
20
75.474619
30
0.0
10
38.982958
20
76.090413
30
0.0
10
37.975331
20
76.459940
30
0.0
10
37.009836
20
76.602717
30
0.0
10
35.973960
20
76.522247
30
0.0
10
34.755193
20
76.222033
30
0.0
10
33.009058
20
75.556574
30
0.0
10
31.318907
20
74.635982
30
0.0
10
29.682998
20
73.458509
30
0.0
10
28.099591
20
72.022403
30
0.0
10
26.566945
20
70.325915
30
0.0
10
25.083319
20
68.367294
30
0.0
10
23.646972
20
66.144791
30
0.0
10
22.256163
20
63.656656
30
0.0
10
21.151119
20
61.539989
30
0.0
10
20.974917
20
65.632211
30
0.0
10
20.763250
20
76.247289
30
0.0
10
20.727786
20
82.770145
30
0.0
10
23.124409
20
82.964607
30
0.0
10
25.257202
20
83.225813
30
0.0
10
27.059314
20
83.645767
30
0.0
10
28.549139
20
84.239876
30
0.0
10
29.745074
20
85.023544
30
0.0
10
30.665515
20
86.012176
30
0.0
10
31.328857
20
87.221177
30
0.0
10
31.753496
20
88.665953
30
0.0
10
31.957828
20
90.361908
30
0.0
10
31.873597
20
92.888536
30
0.0
10
31.643879
20
93.937582
30
0.0
10
31.282208
20
94.857559
30
0.0
10
30.783418
20
95.658798
30
0.0
10
30.142343
20
96.351631
30
0.0
10
29.353819
20
96.946390
30
0.0
10
28.412680
20
97.453408
30
0.0
10
27.513409
20
97.826498
30
0.0
10
26.718401
20
98.021640
30
0.0
10
24.431383
20
98.022390
30
0.0
10
22.303697
20
97.737273
30
0.0
10
20.129248
20
97.127308
30
0.0
10
17.928404
20
96.199652
30
0.0
10
15.721533
20
94.961462
30
0.0
10
13.960834
20
93.849726
30
0.0
10
14.496167
20
95.192636
30
0.0
10
17.764980
20
103.026656
30
0.0
10
20.643320
20
109.870545
30
0.0
10
22.543272
20
110.021417
30
0.0
10
27.437260
20
110.135322
30
0.0
10
42.203743
20
110.245285
30
0.0
10
56.935576
20
110.186533
30
0.0
10
61.786250
20
110.089544
30
0.0
10
63.625563
20
109.945164
30
0.0
10
63.107421
20
109.487466
30
0.0
10
61.861675
20
108.777651
30
0.0
10
60.009956
20
107.757786
30
0.0
10
58.332665
20
106.650281
30
0.0
10
56.808424
20
105.439658
30
0.0
10
55.415860
20
104.110440
30
0.0
10
53.213437
20
101.637079
30
0.0
10
51.632828
20
99.471256
30
0.0
10
50.680049
20
97.622508
30
0.0
10
50.361119
20
96.100372
30
0.0
10
50.490000
20
95.173394
30
0.0
10
50.661154
20
94.947121
30
0.0
10
50.912386
20
94.879345
30
0.0
10
51.681890
20
95.220337
30
0.0
10
52.852125
20
96.198481
30
0.0
10
54.297544
20
97.476971
30
0.0
10
55.433176
20
98.253177
30
0.0
10
56.516584
20
98.664995
30
0.0
10
57.805334
20
98.850317
30
0.0
10
59.533341
20
98.988392
30
0.0
10
58.183091
20
97.802279
30
0.0
10
57.285907
20
96.885831
30
0.0
10
56.497351
20
95.855986
30
0.0
10
55.936728
20
94.889293
30
0.0
10
55.723341
20
94.162299
30
0.0
10
56.003623
20
94.080262
30
0.0
10
56.702054
20
94.292169
30
0.0
10
58.352678
20
94.683272
30
0.0
10
59.054633
20
94.677292
30
0.0
10
59.478435
20
94.520822
30
0.0
10
59.403997
20
94.153723
30
0.0
10
58.971874
20
93.524279
30
0.0
10
58.491266
20
92.796969
30
0.0
10
58.086342
20
91.896561
30
0.0
10
57.806333
20
90.955424
30
0.0
10
57.700472
20
90.105924
30
0.0
10
57.843853
20
89.285000
30
0.0
10
58.230638
20
88.425258
30
0.0
10
58.788672
20
87.651451
30
0.0
10
59.445802
20
87.088334
30
0.0
10
60.584107
20
86.681490
30
0.0
10
62.064757
20
86.512878
30
0.0
10
63.558191
20
86.592374
30
0.0
10
64.734849
20
86.929852
30
0.0
10
65.598033
20
87.527018
30
0.0
10
66.324511
20
88.307283
30
0.0
10
66.825504
20
89.153042
30
0.0
10
67.012230
20
89.946686
30
0.0
10
66.795109
20
90.722721
30
0.0
10
66.260464
20
91.538058
30
0.0
10
65.583377
20
92.181868
30
0.0
10
64.938927
20
92.443323
30
0.0
10
64.325598
20
92.221010
30
0.0
10
63.618594
20
91.668289
30
0.0
10
62.997813
20
90.956488
30
0.0
10
62.643154
20
90.256933
30
0.0
10
62.445804
20
89.479989
30
0.0
10
61.851066
20
90.608878
30
0.0
10
61.421660
20
91.829507
30
0.0
10
61.257684
20
93.228890
30
0.0
10
61.363356
20
94.606207
30
0.0
10
61.742893
20
95.760639
30
0.0
10
62.355690
20
96.576720
30
0.0
10
63.239778
20
97.324745
30
0.0
10
64.270579
20
97.917485
30
0.0
10
65.323514
20
98.267715
30
0.0
10
66.416884
20
98.752392
30
0.0
10
67.679683
20
99.686691
30
0.0
10
69.247715
20
100.803275
30
0.0
10
71.050293
20
101.552407
30
0.0
10
73.107807
20
101.940094
30
0.0
10
75.440653
20
101.972341
30
0.0
10
78.003697
20
101.600969
30
0.0
10
79.052961
20
101.256662
30
0.0
10
79.955151
20
100.801828
30
0.0
10
80.716088
20
100.232883
30
0.0
10
81.341595
20
99.546244
30
0.0
10
81.837493
20
98.738326
30
0.0
10
82.209606
20
97.805545
30
0.0
10
82.826646
20
94.701100
30
0.0
10
83.140792
20
92.842098
30
0.0
10
83.506234
20
91.515925
30
0.0
10
84.023681
20
90.449686
30
0.0
10
84.793842
20
89.370484
30
0.0
10
85.811824
20
88.314654
30
0.0
10
86.972620
20
87.503333
30
0.0
10
88.193676
20
86.982686
30
0.0
10
89.392438
20
86.798878
30
0.0
10
90.366027
20
86.965252
30
0.0
10
91.168526
20
87.428062
30
0.0
10
91.782979
20
88.132838
30
0.0
10
92.192429
20
89.025109
30
0.0
10
92.379920
20
90.050407
30
0.0
10
92.328495
20
91.154262
30
0.0
10
92.021198
20
92.282203
30
0.0
10
91.441072
20
93.379761
30
0.0
10
91.013246
20
94.129408
30
0.0
10
90.931128
20
94.537036
30
0.0
10
91.374605
20
94.687483
30
0.0
10
92.105233
20
94.680678
30
0.0
10
92.929442
20
94.535539
30
0.0
10
93.653664
20
94.270980
30
0.0
10
94.612039
20
93.984612
30
0.0
10
94.656034
20
94.216371
30
0.0
10
94.535024
20
94.608433
30
0.0
10
93.919194
20
95.693349
30
0.0
10
93.006965
20
96.879130
30
0.0
10
92.040752
20
97.805545
30
0.0
10
90.708838
20
98.793323
30
0.0
10
91.894096
20
98.882615
30
0.0
10
93.191186
20
98.810311
30
0.0
10
94.502781
20
98.378964
30
0.0
10
95.884862
20
97.562642
30
0.0
10
97.393407
20
96.335418
30
0.0
10
99.051347
20
94.962247
30
0.0
10
99.401376
20
94.901901
30
0.0
10
99.655850
20
95.140921
30
0.0
10
99.901092
20
95.642700
30
0.0
10
99.972590
20
96.243258
30
0.0
10
99.588515
20
97.754344
30
0.0
10
98.491948
20
99.701449
30
0.0
10
96.671215
20
102.111847
30
0.0
10
94.843446
20
104.161812
30
0.0
10
93.009861
20
105.857282
30
0.0
10
91.055470
20
107.293316
30
0.0
10
88.865284
20
108.564976
30
0.0
10
86.488908
20
110.011656
30
0.0
10
92.782213
20
110.161145
30
0.0
10
107.917796
20
110.223323
30
0.0
10
124.994246
20
110.150863
30
0.0
10
128.484609
20
110.042587
30
0.0
10
129.575718
20
109.870545
30
0.0
10
133.027310
20
101.812042
30
0.0
10
136.042860
20
94.210990
30
0.0
10
134.416182
20
95.043210
30
0.0
10
132.091140
20
96.332327
30
0.0
10
129.738065
20
97.285956
30
0.0
10
127.434015
20
97.878513
30
0.0
10
125.256047
20
98.084417
30
0.0
10
123.651543
20
97.967509
30
0.0
10
122.243032
20
97.614425
30
0.0
10
121.036683
20
97.031503
30
0.0
10
120.038665
20
96.225080
30
0.0
10
119.255147
20
95.201491
30
0.0
10
118.692300
20
93.967073
30
0.0
10
118.356291
20
92.528164
30
0.0
10
118.253290
20
90.891100
30
0.0
10
118.379718
20
89.162627
30
0.0
10
118.734811
20
87.674488
30
0.0
10
119.332167
20
86.413664
30
0.0
10
120.185383
20
85.367138
30
0.0
10
121.308056
20
84.521891
30
0.0
10
122.713783
20
83.864905
30
0.0
10
124.416161
20
83.383161
30
0.0
10
126.428788
20
83.063642
30
0.0
10
129.383341
20
82.733478
30
0.0
10
129.383341
20
72.207289
30
0.0
10
129.262000
20
61.681100
30
0.0
10
127.942597
20
63.868323
30
0.0
10
126.474245
20
66.401699
30
0.0
10
125.010366
20
68.624445
30
0.0
10
123.536758
20
70.550695
30
0.0
10
122.039223
20
72.194585
30
0.0
10
120.503560
20
73.570253
30
0.0
10
118.915570
20
74.691833
30
0.0
10
117.261052
20
75.573462
30
0.0
10
115.525807
20
76.229275
30
0.0
10
114.418824
20
76.487193
30
0.0
10
113.373637
20
76.568736
30
0.0
10
112.406683
20
76.480535
30
0.0
10
111.534397
20
76.229222
30
0.0
10
110.773216
20
75.821430
30
0.0
10
110.139575
20
75.263791
30
0.0
10
109.649912
20
74.562936
30
0.0
10
109.320663
20
73.725498
30
0.0
10
109.124925
20
72.495682
30
0.0
10
109.163148
20
71.151922
30
0.0
10
109.429262
20
69.710082
30
0.0
10
109.917197
20
68.186025
30
0.0
10
110.620886
20
66.595612
30
0.0
10
111.534258
20
64.954706
30
0.0
10
112.651244
20
63.279170
30
0.0
10
113.965776
20
61.584865
30
0.0
10
115.081250
20
60.088809
30
0.0
10
115.083757
20
59.749370
30
0.0
10
114.812442
20
59.438066
30
0.0
10
109.180251
20
54.664381
30
0.0
10
105.023440
20
51.456296
30
0.0
10
104.282426
20
53.778878
30
0.0
10
103.471583
20
56.127732
30
0.0
10
102.501994
20
58.244526
30
0.0
10
101.390597
20
60.096956
30
0.0
10
100.154325
20
61.652720
30
0.0
10
98.855615
20
62.864145
30
0.0
10
97.451783
20
63.860840
30
0.0
10
96.116619
20
64.536681
30
0.0
10
95.023915
20
64.785545
30
0.0
10
94.141316
20
64.645496
30
0.0
10
93.374713
20
64.249655
30
0.0
10
92.773435
20
63.634481
30
0.0
10
92.386810
20
62.836433
30
0.0
10
92.216917
20
62.015284
30
0.0
10
92.191994
20
61.139144
30
0.0
10
92.606079
20
59.134737
30
0.0
10
93.687101
20
56.648909
30
0.0
10
95.493101
20
53.507358
30
0.0
10
96.612537
20
51.527457
30
0.0
10
96.692469
20
51.107705
30
0.0
10
96.521479
20
50.892826
30
0.0
10
96.225266
20
50.583265
30
0.0
10
96.098472
20
50.119028
30
0.0
10
96.145738
20
49.559850
30
0.0
10
96.371706
20
48.965468
30
0.0
10
96.925763
20
48.349255
30
0.0
10
97.952290
20
47.853260
30
0.0
10
99.613705
20
47.421419
30
0.0
10
102.072423
20
46.997668
30
0.0
10
105.066320
20
46.442540
30
0.0
10
107.177325
20
45.767516
30
0.0
10
108.634215
20
44.871882
30
0.0
10
109.665764
20
43.654929
30
0.0
10
110.332822
20
42.416651
30
0.0
10
110.856471
20
41.069836
30
0.0
10
111.198606
20
39.732620
30
0.0
10
111.321119
20
38.523139
30
0.0
10
111.086566
20
36.885524
30
0.0
10
110.434013
20
35.291935
30
0.0
10
109.440116
20
33.882205
30
0.0
10
108.181532
20
32.796164
30
0.0
10
107.370008
20
32.274561
30
0.0
10
107.370008
20
33.819013
30
0.0
10
107.260889
20
35.208489
30
0.0
10
106.948679
20
36.510093
30
0.0
10
106.456097
20
37.693848
30
0.0
10
105.805862
20
38.729773
30
0.0
10
105.020695
20
39.587889
30
0.0
10
104.123315
20
40.238219
30
0.0
10
103.136442
20
40.650782
30
0.0
10
102.082795
20
40.795600
30
0.0
10
101.123164
20
40.668529
30
0.0
10
100.322339
20
40.312324
30
0.0
10
99.697867
20
39.767358
30
0.0
10
99.267293
20
39.074003
30
0.0
10
99.048166
20
38.272631
30
0.0
10
99.058031
20
37.403613
30
0.0
10
99.314435
20
36.507323
30
0.0
10
99.834926
20
35.624132
30
0.0
10
100.625399
20
34.587767
30
0.0
10
99.030592
20
34.587767
30
0.0
10
97.544540
20
34.740815
30
0.0
10
97.049730
20
35.022161
30
0.0
10
96.503467
20
35.520085
30
0.0
10
95.712122
20
36.593835
30
0.0
10
95.382340
20
38.130641
30
0.0
10
95.021192
20
40.245444
30
0.0
10
94.819183
20
40.345422
30
0.0
10
94.559817
20
39.899751
30
0.0
10
94.235024
20
39.143960
30
0.0
10
92.343207
20
40.835004
30
0.0
10
90.451392
20
42.526049
30
0.0
10
91.132987
20
41.026354
30
0.0
10
109.821825
20
-0.590045
30
0.0
10
108.221444
20
0.347029
30
0.0
10
106.189337
20
1.542777
30
0.0
10
103.675597
20
2.783326
30
0.0
10
101.140532
20
3.857629
30
0.0
10
99.044452
20
4.554635
30
0.0
10
96.439172
20
4.970058
30
0.0
10
93.342834
20
5.077981
30
0.0
10
90.098695
20
4.883111
30
0.0
10
87.050008
20
4.390156
30
0.0
10
84.270531
20
3.759258
30
0.0
10
83.387997
20
3.768530
30
0.0
10
82.674115
20
4.145102
30
0.0
10
82.001773
20
5.002087
30
0.0
10
81.243857
20
6.452598
30
0.0
10
78.962854
20
11.586656
30
0.0
10
75.239050
20
19.699760
30
0.0
10
74.024903
20
17.444748
30
0.0
10
71.400876
20
11.726982
30
0.0
10
68.746653
20
5.947273
30
0.0
10
67.459911
20
3.543323
30
0.0
10
63.622383
20
4.304798
30
0.0
10
60.117616
20
4.881171
30
0.0
10
56.713737
20
5.093957
30
0.0
10
53.554699
20
4.941823
30
0.0
10
50.784452
20
4.423441
30
0.0
10
48.726819
20
3.738852
30
0.0
10
46.516815
20
2.804331
30
0.0
10
44.306324
20
1.690264
30
0.0
10
42.247230
20
0.467038
30
0.0
10
41.001675
20
-0.281065
30
0.0
10
40.483990
20
-0.472189
30
0.0
10
40.483990
20
-0.472189
30
0.0
62
0
0
LWPOLYLINE
100
AcDbPolyline
8
Layer_1
90
22
70
0
10
1.818897
20
0.523819
30
0.0
10
27.877355
20
50.580298
30
0.0
10
29.058074
20
50.014663
30
0.0
10
31.485309
20
48.585149
30
0.0
10
33.871364
20
47.077525
30
0.0
10
34.928545
20
46.277564
30
0.0
10
25.534519
20
27.881651
30
0.0
10
16.030787
20
9.325539
30
0.0
10
16.045958
20
9.202346
30
0.0
10
16.237808
20
9.105414
30
0.0
10
17.397161
20
8.978207
30
0.0
10
24.537786
20
8.905545
30
0.0
10
31.896138
20
8.832506
30
0.0
10
32.911625
20
8.684470
30
0.0
10
33.037559
20
8.566024
30
0.0
10
33.017186
20
8.411656
30
0.0
10
31.245192
20
4.364304
30
0.0
10
29.661962
20
0.810844
30
0.0
10
19.504276
20
0.624860
30
0.0
10
6.577886
20
0.448130
30
0.0
10
1.818897
20
0.523819
30
0.0
10
1.818897
20
0.523819
30
0.0
62
0
0
LWPOLYLINE
100
AcDbPolyline
8
Layer_1
90
17
70
0
10
131.653108
20
0.716393
30
0.0
10
119.952872
20
0.862211
30
0.0
10
118.194159
20
4.672211
30
0.0
10
116.418284
20
8.693878
30
0.0
10
118.934691
20
8.843368
30
0.0
10
125.008897
20
8.905545
30
0.0
10
131.086686
20
8.967722
30
0.0
10
133.611727
20
9.117211
30
0.0
10
124.030757
20
27.944801
30
0.0
10
114.454734
20
46.560726
30
0.0
10
117.997876
20
48.644073
30
0.0
10
120.561370
20
50.045479
30
0.0
10
121.749185
20
50.489262
30
0.0
10
147.727786
20
0.570535
30
0.0
10
145.540563
20
0.504726
30
0.0
10
131.653108
20
0.716393
30
0.0
10
131.653108
20
0.716393
30
0.0
62
0
0
LWPOLYLINE
100
AcDbPolyline
8
Layer_1
90
18
70
0
10
68.194273
20
129.367605
30
0.0
10
74.632230
20
141.780107
30
0.0
10
74.790981
20
141.922173
30
0.0
10
75.010004
20
141.840042
30
0.0
10
75.894071
20
140.542199
30
0.0
10
81.302741
20
130.185271
30
0.0
10
87.549919
20
117.984435
30
0.0
10
86.806075
20
117.806160
30
0.0
10
82.183972
20
117.594494
30
0.0
10
78.305714
20
117.561101
30
0.0
10
76.656655
20
120.850040
30
0.0
10
75.007597
20
124.138979
30
0.0
10
73.256236
20
120.850040
30
0.0
10
71.504875
20
117.561101
30
0.0
10
66.842262
20
117.561101
30
0.0
10
62.179646
20
117.561101
30
0.0
10
68.194273
20
129.367605
30
0.0
10
68.194273
20
129.367605
30
0.0
  0
ENDSEC
  0
SECTION
  2
OBJECTS
  0
DICTIONARY
  5
C
330
0
100
AcDbDictionary
  3
ACAD_GROUP
350
D
  3
ACAD_MLINESTYLE
350
17
  0
DICTIONARY
  5
D
330
C
100
AcDbDictionary
  0
DICTIONARY
  5
1A
330
C
100
AcDbDictionary
  0
DICTIONARY
  5
17
330
C
100
AcDbDictionary
  3
STANDARD
350
18
  0
DICTIONARY
  5
19
330
C
100
AcDbDictionary
  0
ENDSEC
  0
EOF
