999
Inkscape export via OpenSCAD DXF Export
  0
SECTION
  2
HEADER
  9
$ACADVER
  1
AC1014
  9
$HANDSEED
  5
FFFF
  9
$MEASUREMENT
 70
     1
  0
ENDSEC
  0
SECTION
  2
TABLES
  0
TABLE
  2
VPORT
  5
8
330
0
100
AcDbSymbolTable
 70
     4
  0
VPORT
  5
2E
330
8
100
AcDbSymbolTableRecord
100
AcDbViewportTableRecord
  2
*ACTIVE
 70
     0
 10
0.0
 20
0.0
 11
1.0
 21
1.0
 12
210.0
 22
148.5
 13
0.0
 23
0.0
 14
10.0
 24
10.0
 15
10.0
 25
10.0
 16
0.0
 26
0.0
 36
1.0
 17
0.0
 27
0.0
 37
0.0
 40
341.0
 41
1.24
 42
50.0
 43
0.0
 44
0.0
 50
0.0
 51
0.0
 71
     0
 72
   100
 73
     1
 74
     3
 75
     0
 76
     0
 77
     0
 78
     0
  0
ENDTAB
  0
TABLE
  2
LTYPE
  5
5
330
0
100
AcDbSymbolTable
 70
     1
  0
LTYPE
  5
14
330
5
100
AcDbSymbolTableRecord
100
AcDbLinetypeTableRecord
  2
BYBLOCK
 70
     0
  3

 72
    65
 73
     0
 40
0.0
  0
LTYPE
  5
15
330
5
100
AcDbSymbolTableRecord
100
AcDbLinetypeTableRecord
  2
BYLAYER
 70
     0
  3

 72
    65
 73
     0
 40
0.0
  0
LTYPE
  5
16
330
5
100
AcDbSymbolTableRecord
100
AcDbLinetypeTableRecord
  2
CONTINUOUS
 70
     0
  3
Solid line
 72
    65
 73
     0
 40
0.0
  0
ENDTAB
  0
TABLE
0
TABLE
2
LAYER
5
2
330
0
100
AcDbSymbolTable
70
1
0
LAYER
5
10
330
2
100
AcDbSymbolTableRecord
100
AcDbLayerTableRecord
2
Layer_1
70
0
62
7
6
CONTINUOUS
0
ENDTAB
0
ENDSEC
  0
ENDTAB
  0
TABLE
  2
STYLE
  5
3
330
0
100
AcDbSymbolTable
 70
     1
  0
STYLE
  5
11
330
3
100
AcDbSymbolTableRecord
100
AcDbTextStyleTableRecord
  2
STANDARD
 70
     0
 40
0.0
 41
1.0
 50
0.0
 71
     0
 42
2.5
  3
txt
  4

  0
ENDTAB
  0
TABLE
  2
VIEW
  5
6
330
0
100
AcDbSymbolTable
 70
     0
  0
ENDTAB
  0
TABLE
  2
UCS
  5
7
330
0
100
AcDbSymbolTable
 70
     0
  0
ENDTAB
  0
TABLE
  2
APPID
  5
9
330
0
100
AcDbSymbolTable
 70
     2
  0
APPID
  5
12
330
9
100
AcDbSymbolTableRecord
100
AcDbRegAppTableRecord
  2
ACAD
 70
     0
  0
ENDTAB
  0
TABLE
  2
DIMSTYLE
  5
A
330
0
100
AcDbSymbolTable
 70
     1
  0
DIMSTYLE
105
27
330
A
100
AcDbSymbolTableRecord
100
AcDbDimStyleTableRecord
  2
ISO-25
 70
     0
  3

  4

  5

  6

  7

 40
1.0
 41
2.5
 42
0.625
 43
3.75
 44
1.25
 45
0.0
 46
0.0
 47
0.0
 48
0.0
140
2.5
141
2.5
142
0.0
143
0.03937007874016
144
1.0
145
0.0
146
1.0
147
0.625
 71
     0
 72
     0
 73
     0
 74
     0
 75
     0
 76
     0
 77
     1
 78
     8
170
     0
171
     3
172
     1
173
     0
174
     0
175
     0
176
     0
177
     0
178
     0
270
     2
271
     2
272
     2
273
     2
274
     3
340
11
275
     0
280
     0
281
     0
282
     0
283
     0
284
     8
285
     0
286
     0
287
     3
288
     0
  0
ENDTAB
  0
TABLE
  2
BLOCK_RECORD
  5
1
330
0
100
AcDbSymbolTable
 70
     1
  0
BLOCK_RECORD
  5
1F
330
1
100
AcDbSymbolTableRecord
100
AcDbBlockTableRecord
  2
*MODEL_SPACE
  0
BLOCK_RECORD
  5
1B
330
1
100
AcDbSymbolTableRecord
100
AcDbBlockTableRecord
  2
*PAPER_SPACE
  0
ENDTAB
  0
ENDSEC
  0
SECTION
  2
BLOCKS
  0
BLOCK
  5
20
330
1F
100
AcDbEntity
  8
0
100
AcDbBlockBegin
  2
*MODEL_SPACE
 70
     0
 10
0.0
 20
0.0
 30
0.0
  3
*MODEL_SPACE
  1

  0
ENDBLK
  5
21
330
1F
100
AcDbEntity
  8
0
100
AcDbBlockEnd
  0
BLOCK
  5
1C
330
1B
100
AcDbEntity
 67
     1
  8
0
100
AcDbBlockBegin
  2
*PAPER_SPACE
  1

  0
ENDBLK
  5
1D
330
1B
100
AcDbEntity
 67
     1
  8
0
100
AcDbBlockEnd
  0
ENDSEC
  0
SECTION
  2
ENTITIES
0
DIMENSION
5
83
100
AcDbEntity
62
256
370
-1
6
ByLayer
1
total_width
3
Standard
70
0
71
5
72
1
41
1.0
100
AcDbAlignedDimension
13
1.336759
23
0.000000
33
0.0
14
201.070602
24
0.000000
34
0.0
50
0.000000
100
AcDbRotatedDimension
0
DIMENSION
5
83
100
AcDbEntity
62
256
370
-1
6
ByLayer
1
total_height
3
Standard
70
0
71
5
72
1
41
1.0
100
AcDbAlignedDimension
13
0.000000
23
-1.222768
33
0.0
14
0.000000
24
220.706346
34
0.0
50
90.000000
100
AcDbRotatedDimension
0
DIMENSION
8
Layer_1
5
83
100
AcDbEntity
62
256
370
-1
6
ByLayer
1
Layer_1_width
3
Standard
70
0
71
5
72
1
41
1.0
100
AcDbAlignedDimension
13
1.336759
23
0.000000
33
0.0
14
201.070602
24
0.000000
34
0.0
50
0.000000
100
AcDbRotatedDimension
0
DIMENSION
8
Layer_1
5
83
100
AcDbEntity
62
256
370
-1
6
ByLayer
1
Layer_1_height
3
Standard
70
0
71
5
72
1
41
1.0
100
AcDbAlignedDimension
13
0.000000
23
-1.222768
33
0.0
14
0.000000
24
220.706346
34
0.0
50
90.000000
100
AcDbRotatedDimension
62
0
0
LWPOLYLINE
100
AcDbPolyline
8
Layer_1
90
738
70
0
10
63.830059
20
-1.140892
30
0.0
10
57.999068
20
-0.522057
30
0.0
10
52.080981
20
0.570818
30
0.0
10
46.392491
20
2.067092
30
0.0
10
41.250291
20
3.896126
30
0.0
10
38.608813
20
5.100623
30
0.0
10
36.181106
20
6.445841
30
0.0
10
33.945126
20
7.951538
30
0.0
10
31.878826
20
9.637476
30
0.0
10
29.960161
20
11.523414
30
0.0
10
28.167087
20
13.629113
30
0.0
10
26.477557
20
15.974332
30
0.0
10
24.869526
20
18.578833
30
0.0
10
24.058800
20
19.989944
30
0.0
10
26.267756
20
17.939927
30
0.0
10
29.602175
20
15.161888
30
0.0
10
33.045193
20
12.970706
30
0.0
10
36.809836
20
11.250789
30
0.0
10
41.109132
20
9.886546
30
0.0
10
42.990187
20
9.423227
30
0.0
10
44.558569
20
9.163049
30
0.0
10
48.872281
20
9.014564
30
0.0
10
52.998147
20
9.119322
30
0.0
10
55.786726
20
9.632067
30
0.0
10
59.176504
20
10.768612
30
0.0
10
62.149244
20
12.275580
30
0.0
10
64.672371
20
14.133039
30
0.0
10
66.713314
20
16.321055
30
0.0
10
68.367819
20
18.922590
30
0.0
10
69.479369
20
21.640287
30
0.0
10
70.051756
20
24.427753
30
0.0
10
70.088772
20
27.238596
30
0.0
10
69.594207
20
30.026421
30
0.0
10
68.571854
20
32.744838
30
0.0
10
67.025504
20
35.347451
30
0.0
10
64.958948
20
37.787868
30
0.0
10
63.085472
20
39.470140
30
0.0
10
61.131756
20
40.795901
30
0.0
10
59.010247
20
41.815539
30
0.0
10
56.633392
20
42.579442
30
0.0
10
55.178695
20
42.850292
30
0.0
10
53.616933
20
42.955567
30
0.0
10
50.380057
20
42.704462
30
0.0
10
48.808864
20
42.365615
30
0.0
10
47.338449
20
41.896262
30
0.0
10
46.020774
20
41.305168
30
0.0
10
44.907798
20
40.601101
30
0.0
10
43.452497
20
39.222311
30
0.0
10
42.308032
20
37.572080
30
0.0
10
41.482211
20
35.699902
30
0.0
10
40.982842
20
33.655275
30
0.0
10
40.817733
20
31.487695
30
0.0
10
40.994692
20
29.246657
30
0.0
10
41.521527
20
26.981658
30
0.0
10
42.406045
20
24.742194
30
0.0
10
43.320767
20
22.845556
30
0.0
10
43.335041
20
22.683608
30
0.0
10
43.134269
20
22.735063
30
0.0
10
42.238170
20
23.358887
30
0.0
10
39.521850
20
25.855120
30
0.0
10
37.449120
20
28.267234
30
0.0
10
35.569358
20
30.942393
30
0.0
10
33.915992
20
33.800868
30
0.0
10
32.522448
20
36.762934
30
0.0
10
31.422154
20
39.748863
30
0.0
10
30.648538
20
42.678927
30
0.0
10
30.235027
20
45.473399
30
0.0
10
30.215050
20
48.052553
30
0.0
10
30.657503
20
51.341663
30
0.0
10
30.946149
20
52.261444
30
0.0
10
31.254200
20
52.586611
30
0.0
10
32.160543
20
52.184354
30
0.0
10
33.991071
20
51.334597
30
0.0
10
36.171832
20
50.812363
30
0.0
10
38.386568
20
50.665775
30
0.0
10
40.319017
20
50.942954
30
0.0
10
41.269781
20
51.345320
30
0.0
10
42.189356
20
51.958664
30
0.0
10
43.056859
20
52.754679
30
0.0
10
43.851408
20
53.705059
30
0.0
10
45.138111
20
55.955685
30
0.0
10
45.588499
20
57.199320
30
0.0
10
45.882402
20
58.484093
30
0.0
10
45.985317
20
60.055288
30
0.0
10
45.792672
20
61.582988
30
0.0
10
45.318543
20
63.045755
30
0.0
10
44.577001
20
64.422153
30
0.0
10
43.582120
20
65.690744
30
0.0
10
42.347974
20
66.830091
30
0.0
10
40.888635
20
67.818758
30
0.0
10
39.218179
20
68.635307
30
0.0
10
37.548304
20
69.165996
30
0.0
10
35.882037
20
69.403024
30
0.0
10
34.241116
20
69.352910
30
0.0
10
32.647276
20
69.022176
30
0.0
10
31.122253
20
68.417340
30
0.0
10
29.687786
20
67.544925
30
0.0
10
28.365609
20
66.411450
30
0.0
10
27.177460
20
65.023436
30
0.0
10
25.800439
20
62.840477
30
0.0
10
24.326991
20
60.020439
30
0.0
10
23.010006
20
57.084930
30
0.0
10
22.102370
20
54.555557
30
0.0
10
21.528144
20
52.181286
30
0.0
10
21.016860
20
49.412562
30
0.0
10
20.645909
20
46.727768
30
0.0
10
20.492682
20
44.605290
30
0.0
10
20.274189
20
42.003277
30
0.0
10
20.071959
20
40.874388
30
0.0
10
19.452640
20
42.426611
30
0.0
10
18.478015
20
45.203902
30
0.0
10
17.642041
20
48.275497
30
0.0
10
16.952483
20
51.580970
30
0.0
10
16.417108
20
55.059896
30
0.0
10
16.043681
20
58.651850
30
0.0
10
15.839971
20
62.296406
30
0.0
10
15.813742
20
65.933139
30
0.0
10
15.972761
20
69.501622
30
0.0
10
16.648377
20
76.406922
30
0.0
10
17.025304
20
78.864393
30
0.0
10
17.386542
20
80.338261
30
0.0
10
17.684359
20
81.121583
30
0.0
10
18.618300
20
80.409232
30
0.0
10
20.488498
20
79.263433
30
0.0
10
22.492746
20
78.605600
30
0.0
10
24.707968
20
78.420363
30
0.0
10
27.211089
20
78.692352
30
0.0
10
30.140473
20
79.457678
30
0.0
10
31.352704
20
79.970135
30
0.0
10
32.414817
20
80.581294
30
0.0
10
33.340451
20
81.300282
30
0.0
10
34.143248
20
82.136227
30
0.0
10
34.836847
20
83.098257
30
0.0
10
35.434891
20
84.195499
30
0.0
10
36.015099
20
86.058800
30
0.0
10
36.225316
20
88.226162
30
0.0
10
36.062185
20
90.389026
30
0.0
10
35.522352
20
92.238833
30
0.0
10
34.707144
20
93.633528
30
0.0
10
33.623897
20
94.886966
30
0.0
10
32.322672
20
95.950501
30
0.0
10
30.853532
20
96.775490
30
0.0
10
28.858121
20
97.429551
30
0.0
10
25.881501
20
97.675708
30
0.0
10
23.396290
20
97.671408
30
0.0
10
21.436279
20
97.371610
30
0.0
10
19.668630
20
96.688557
30
0.0
10
17.760506
20
95.534491
30
0.0
10
16.267085
20
94.368069
30
0.0
10
14.735524
20
92.884025
30
0.0
10
13.192450
20
91.119646
30
0.0
10
11.664490
20
89.112218
30
0.0
10
8.760425
20
84.517355
30
0.0
10
7.437575
20
82.004492
30
0.0
10
6.236351
20
79.397722
30
0.0
10
5.692280
20
78.127722
30
0.0
10
5.606019
20
81.373277
30
0.0
10
5.648924
20
84.980110
30
0.0
10
5.967179
20
88.579764
30
0.0
10
6.557528
20
92.160657
30
0.0
10
7.416716
20
95.711203
30
0.0
10
8.541487
20
99.219818
30
0.0
10
9.928586
20
102.674917
30
0.0
10
11.574756
20
106.064918
30
0.0
10
13.476742
20
109.378234
30
0.0
10
16.708064
20
114.069496
30
0.0
10
18.164980
20
115.931271
30
0.0
10
18.990309
20
116.766001
30
0.0
10
19.379870
20
116.636982
30
0.0
10
19.769364
20
116.007168
30
0.0
10
20.581217
20
114.773486
30
0.0
10
21.920358
20
113.307245
30
0.0
10
23.427230
20
111.963454
30
0.0
10
24.742280
20
111.097122
30
0.0
10
26.934000
20
110.329895
30
0.0
10
29.197684
20
109.984976
30
0.0
10
31.382966
20
110.071111
30
0.0
10
33.339484
20
110.597047
30
0.0
10
34.489060
20
111.277371
30
0.0
10
35.763237
20
112.337924
30
0.0
10
36.953989
20
113.584036
30
0.0
10
37.853293
20
114.821041
30
0.0
10
38.474183
20
116.025500
30
0.0
10
38.906973
20
117.203533
30
0.0
10
39.151446
20
118.361611
30
0.0
10
39.207384
20
119.506209
30
0.0
10
39.074567
20
120.643797
30
0.0
10
38.752779
20
121.780850
30
0.0
10
38.241801
20
122.923839
30
0.0
10
37.541414
20
124.079237
30
0.0
10
36.130411
20
125.841475
30
0.0
10
34.532763
20
127.279626
30
0.0
10
32.759372
20
128.390372
30
0.0
10
30.821140
20
129.170398
30
0.0
10
28.728969
20
129.616387
30
0.0
10
26.493760
20
129.725024
30
0.0
10
24.126415
20
129.492992
30
0.0
10
21.637836
20
128.916975
30
0.0
10
19.473399
20
128.101825
30
0.0
10
16.915972
20
126.873624
30
0.0
10
14.355865
20
125.435713
30
0.0
10
12.183391
20
123.991438
30
0.0
10
9.327347
20
121.494023
30
0.0
10
5.631185
20
117.855915
30
0.0
10
1.336759
20
113.405499
30
0.0
10
1.873328
20
115.381055
30
0.0
10
3.226869
20
119.751003
30
0.0
10
4.842441
20
123.962716
30
0.0
10
6.601346
20
127.735347
30
0.0
10
8.384889
20
130.788046
30
0.0
10
11.337708
20
134.700878
30
0.0
10
14.901227
20
138.738843
30
0.0
10
18.591968
20
142.389514
30
0.0
10
21.926453
20
145.140463
30
0.0
10
24.211775
20
146.573071
30
0.0
10
27.020639
20
148.041070
30
0.0
10
30.032479
20
149.389357
30
0.0
10
32.926726
20
150.462827
30
0.0
10
36.469702
20
151.550434
30
0.0
10
36.830461
20
151.511364
30
0.0
10
36.769353
20
151.180583
30
0.0
10
36.307911
20
149.063048
30
0.0
10
36.070807
20
146.586079
30
0.0
10
36.077153
20
144.156056
30
0.0
10
36.346059
20
142.179356
30
0.0
10
36.879957
20
140.974113
30
0.0
10
37.793805
20
139.933766
30
0.0
10
39.023088
20
139.080056
30
0.0
10
40.503295
20
138.434727
30
0.0
10
42.169914
20
138.019518
30
0.0
10
43.958430
20
137.856174
30
0.0
10
45.804332
20
137.966435
30
0.0
10
47.643107
20
138.372043
30
0.0
10
50.056478
20
139.360678
30
0.0
10
51.022187
20
139.971520
30
0.0
10
51.838651
20
140.671491
30
0.0
10
52.514425
20
141.469179
30
0.0
10
53.058064
20
142.373168
30
0.0
10
53.478122
20
143.392043
30
0.0
10
53.783154
20
144.534390
30
0.0
10
54.013275
20
145.934353
30
0.0
10
54.071843
20
147.188408
30
0.0
10
53.955752
20
148.431349
30
0.0
10
53.661897
20
149.797973
30
0.0
10
53.183093
20
151.386910
30
0.0
10
52.633442
20
152.642178
30
0.0
10
51.931821
20
153.714697
30
0.0
10
50.997104
20
154.755387
30
0.0
10
48.958260
20
156.328915
30
0.0
10
46.191449
20
157.794321
30
0.0
10
42.868828
20
159.106748
30
0.0
10
39.162552
20
160.221341
30
0.0
10
35.244779
20
161.093241
30
0.0
10
31.287667
20
161.677594
30
0.0
10
27.463371
20
161.929542
30
0.0
10
23.944048
20
161.804229
30
0.0
10
20.291020
20
161.323091
30
0.0
10
16.543945
20
160.642211
30
0.0
10
13.348491
20
159.894455
30
0.0
10
11.350328
20
159.212689
30
0.0
10
11.193842
20
159.193389
30
0.0
10
11.329527
20
159.429887
30
0.0
10
12.304058
20
160.494946
30
0.0
10
15.852280
20
163.765998
30
0.0
10
18.412378
20
165.814848
30
0.0
10
21.132512
20
167.756787
30
0.0
10
23.972125
20
169.570045
30
0.0
10
26.890655
20
171.232853
30
0.0
10
29.847543
20
172.723444
30
0.0
10
32.802230
20
174.020047
30
0.0
10
35.714156
20
175.100896
30
0.0
10
38.542762
20
175.944220
30
0.0
10
41.484248
20
176.543321
30
0.0
10
44.855724
20
176.962615
30
0.0
10
48.474518
20
177.203344
30
0.0
10
52.157956
20
177.266749
30
0.0
10
55.723366
20
177.154073
30
0.0
10
58.988076
20
176.866556
30
0.0
10
61.769412
20
176.405440
30
0.0
10
63.884703
20
175.771968
30
0.0
10
64.798592
20
175.390121
30
0.0
10
63.553484
20
172.949989
30
0.0
10
62.661337
20
170.989829
30
0.0
10
62.074479
20
169.215804
30
0.0
10
61.801804
20
167.662344
30
0.0
10
61.852206
20
166.363876
30
0.0
10
62.114358
20
165.409845
30
0.0
10
62.538762
20
164.440815
30
0.0
10
63.787709
20
162.562788
30
0.0
10
65.425819
20
160.939856
30
0.0
10
67.279867
20
159.782078
30
0.0
10
68.994635
20
159.248945
30
0.0
10
70.872630
20
159.070978
30
0.0
10
72.824176
20
159.220326
30
0.0
10
74.759594
20
159.669140
30
0.0
10
76.589208
20
160.389571
30
0.0
10
78.223340
20
161.353769
30
0.0
10
79.572313
20
162.533885
30
0.0
10
80.546451
20
163.902068
30
0.0
10
81.006754
20
165.083801
30
0.0
10
81.383935
20
166.621523
30
0.0
10
81.640148
20
168.321765
30
0.0
10
81.737547
20
169.991055
30
0.0
10
81.414459
20
173.215373
30
0.0
10
80.520675
20
177.015785
30
0.0
10
79.197550
20
180.902165
30
0.0
10
77.586434
20
184.384388
30
0.0
10
76.262978
20
186.274851
30
0.0
10
74.314638
20
188.457584
30
0.0
10
72.121128
20
190.541436
30
0.0
10
70.062161
20
192.135260
30
0.0
10
67.967655
20
193.412985
30
0.0
10
65.799194
20
194.553023
30
0.0
10
63.533449
20
195.563264
30
0.0
10
61.147094
20
196.451595
30
0.0
10
55.919241
20
197.894085
30
0.0
10
49.929014
20
198.943600
30
0.0
10
47.349548
20
199.362355
30
0.0
10
46.401236
20
199.655430
30
0.0
10
50.623569
20
200.469007
30
0.0
10
58.608948
20
201.646835
30
0.0
10
62.514281
20
201.897748
30
0.0
10
68.204503
20
202.001250
30
0.0
10
74.790898
20
201.874456
30
0.0
10
80.087510
20
201.240048
30
0.0
10
84.333965
20
200.487180
30
0.0
10
87.566398
20
199.749376
30
0.0
10
90.023234
20
198.895159
30
0.0
10
92.734694
20
197.711076
30
0.0
10
95.465143
20
196.309102
30
0.0
10
97.978948
20
194.801213
30
0.0
10
100.010510
20
193.229986
30
0.0
10
102.485721
20
191.037044
30
0.0
10
104.577035
20
188.990640
30
0.0
10
105.456911
20
187.859027
30
0.0
10
104.747536
20
187.559782
30
0.0
10
103.043386
20
187.162014
30
0.0
10
100.138969
20
186.362564
30
0.0
10
98.911491
20
185.824705
30
0.0
10
97.825275
20
185.188985
30
0.0
10
96.873901
20
184.451078
30
0.0
10
96.050949
20
183.606656
30
0.0
10
95.350000
20
182.651392
30
0.0
10
94.764634
20
181.580957
30
0.0
10
94.159331
20
179.812999
30
0.0
10
94.032217
20
177.328833
30
0.0
10
94.157903
20
174.910759
30
0.0
10
94.678573
20
173.349127
30
0.0
10
95.761794
20
171.644623
30
0.0
10
97.156361
20
170.333336
30
0.0
10
98.919490
20
169.374129
30
0.0
10
101.108394
20
168.725861
30
0.0
10
102.405336
20
168.534932
30
0.0
10
103.713832
20
168.497575
30
0.0
10
106.333198
20
168.861152
30
0.0
10
108.901909
20
169.771745
30
0.0
10
111.355387
20
171.184503
30
0.0
10
113.629049
20
173.054577
30
0.0
10
115.658316
20
175.337119
30
0.0
10
117.378607
20
177.987279
30
0.0
10
118.725340
20
180.960209
30
0.0
10
119.576767
20
183.652083
30
0.0
10
120.104977
20
186.275211
30
0.0
10
120.344361
20
189.072437
30
0.0
10
120.329308
20
192.286611
30
0.0
10
119.987908
20
196.362473
30
0.0
10
119.269929
20
199.938909
30
0.0
10
118.146223
20
203.122925
30
0.0
10
116.587637
20
206.021528
30
0.0
10
114.214812
20
209.072583
30
0.0
10
110.583616
20
213.117363
30
0.0
10
106.729087
20
217.052496
30
0.0
10
103.686266
20
219.774612
30
0.0
10
102.739055
20
220.706346
30
0.0
10
103.248341
20
220.684504
30
0.0
10
104.375663
20
220.352114
30
0.0
10
107.917550
20
218.990876
30
0.0
10
112.230996
20
217.093004
30
0.0
10
116.182281
20
215.128870
30
0.0
10
120.129881
20
212.845880
30
0.0
10
124.036989
20
210.317949
30
0.0
10
127.821002
20
207.613234
30
0.0
10
131.399315
20
204.799892
30
0.0
10
134.689324
20
201.946081
30
0.0
10
137.608426
20
199.119960
30
0.0
10
140.074016
20
196.389685
30
0.0
10
142.003492
20
193.823415
30
0.0
10
143.721117
20
190.850496
30
0.0
10
145.318657
20
187.387226
30
0.0
10
146.631856
20
183.829794
30
0.0
10
147.496457
20
180.574388
30
0.0
10
147.954517
20
178.438268
30
0.0
10
147.894638
20
178.208056
30
0.0
10
147.395395
20
178.091320
30
0.0
10
144.150966
20
178.120842
30
0.0
10
140.555419
20
178.120606
30
0.0
10
139.407311
20
177.954695
30
0.0
10
138.229580
20
177.640736
30
0.0
10
137.064765
20
177.200252
30
0.0
10
136.039698
20
176.624889
30
0.0
10
135.148706
20
175.906989
30
0.0
10
134.386118
20
175.038891
30
0.0
10
133.746261
20
174.012934
30
0.0
10
133.223464
20
172.821459
30
0.0
10
132.506362
20
169.911313
30
0.0
10
132.371746
20
168.501364
30
0.0
10
132.394665
20
167.078010
30
0.0
10
132.875975
20
164.320894
30
0.0
10
133.315800
20
163.052031
30
0.0
10
133.876028
20
161.899564
30
0.0
10
134.547377
20
160.895945
30
0.0
10
135.320563
20
160.073622
30
0.0
10
136.753067
20
159.073088
30
0.0
10
138.438792
20
158.322702
30
0.0
10
140.301361
20
157.826582
30
0.0
10
142.264397
20
157.588847
30
0.0
10
144.251524
20
157.613613
30
0.0
10
146.186364
20
157.904999
30
0.0
10
147.992541
20
158.467122
30
0.0
10
149.593678
20
159.304101
30
0.0
10
150.658842
20
160.163139
30
0.0
10
151.778953
20
161.345039
30
0.0
10
154.049999
20
164.465449
30
0.0
10
156.138789
20
168.241368
30
0.0
10
157.777296
20
172.248833
30
0.0
10
158.790498
20
175.557820
30
0.0
10
159.403147
20
178.379971
30
0.0
10
159.704949
20
181.276275
30
0.0
10
159.785614
20
184.807722
30
0.0
10
159.680555
20
188.498407
30
0.0
10
159.303087
20
191.685962
30
0.0
10
158.559774
20
194.904442
30
0.0
10
157.357180
20
198.687899
30
0.0
10
156.373364
20
202.091767
30
0.0
10
156.964469
20
201.975720
30
0.0
10
158.073290
20
201.269606
30
0.0
10
159.434372
20
200.167741
30
0.0
10
160.782257
20
198.864440
30
0.0
10
162.083860
20
197.319813
30
0.0
10
163.539868
20
195.328141
30
0.0
10
166.678276
20
190.403407
30
0.0
10
169.723843
20
184.889732
30
0.0
10
172.202927
20
179.586611
30
0.0
10
174.403410
20
173.525590
30
0.0
10
175.231067
20
170.592156
30
0.0
10
175.880370
20
167.706222
30
0.0
10
176.353847
20
164.854875
30
0.0
10
176.654024
20
162.025204
30
0.0
10
176.783428
20
159.204296
30
0.0
10
176.744588
20
156.379237
30
0.0
10
176.381256
20
151.529728
30
0.0
10
176.145374
20
149.928366
30
0.0
10
175.909972
20
149.191339
30
0.0
10
173.714433
20
149.931230
30
0.0
10
171.698259
20
150.668967
30
0.0
10
170.022995
20
151.106166
30
0.0
10
168.510730
20
151.276749
30
0.0
10
166.983554
20
151.214638
30
0.0
10
164.982974
20
150.851465
30
0.0
10
163.196181
20
150.214347
30
0.0
10
161.639585
20
149.320606
30
0.0
10
160.329591
20
148.187560
30
0.0
10
159.282606
20
146.832529
30
0.0
10
158.515038
20
145.272834
30
0.0
10
158.043294
20
143.525792
30
0.0
10
157.883781
20
141.608725
30
0.0
10
158.059913
20
139.835000
30
0.0
10
158.566846
20
138.202065
30
0.0
10
159.378106
20
136.735346
30
0.0
10
160.467216
20
135.460267
30
0.0
10
161.807700
20
134.402253
30
0.0
10
163.373081
20
133.586728
30
0.0
10
165.136884
20
133.039117
30
0.0
10
167.072632
20
132.784844
30
0.0
10
168.817787
20
132.804042
30
0.0
10
170.332055
20
133.094066
30
0.0
10
171.824182
20
133.718406
30
0.0
10
173.502918
20
134.740551
30
0.0
10
174.787620
20
135.717530
30
0.0
10
176.152844
20
136.952111
30
0.0
10
178.924112
20
139.953344
30
0.0
10
181.415229
20
143.262779
30
0.0
10
183.224701
20
146.398945
30
0.0
10
184.331693
20
149.293879
30
0.0
10
185.440087
20
153.128956
30
0.0
10
186.496708
20
157.697774
30
0.0
10
187.448385
20
162.793934
30
0.0
10
187.658786
20
163.690397
30
0.0
10
188.001467
20
163.217267
30
0.0
10
188.458052
20
161.956900
30
0.0
10
188.983933
20
159.959541
30
0.0
10
189.840159
20
155.456611
30
0.0
10
190.268356
20
149.823076
30
0.0
10
190.328106
20
143.098965
30
0.0
10
190.038763
20
136.414633
30
0.0
10
189.419682
20
130.900435
30
0.0
10
188.525078
20
126.916806
30
0.0
10
187.257139
20
122.599992
30
0.0
10
185.970732
20
119.043769
30
0.0
10
185.431498
20
117.892685
30
0.0
10
185.020723
20
117.341915
30
0.0
10
184.035370
20
117.538486
30
0.0
10
182.015508
20
118.226899
30
0.0
10
179.561458
20
119.024196
30
0.0
10
177.489594
20
119.396749
30
0.0
10
175.666351
20
119.355934
30
0.0
10
173.958163
20
118.913128
30
0.0
10
172.439057
20
118.214396
30
0.0
10
171.117044
20
117.342430
30
0.0
10
170.002298
20
116.305204
30
0.0
10
169.104996
20
115.110692
30
0.0
10
168.652217
20
114.310637
30
0.0
10
168.396939
20
113.604747
30
0.0
10
168.269144
20
111.592659
30
0.0
10
168.358085
20
110.288027
30
0.0
10
168.601964
20
109.071351
30
0.0
10
168.998245
20
107.946638
30
0.0
10
169.544388
20
106.917896
30
0.0
10
170.237856
20
105.989134
30
0.0
10
171.076111
20
105.164359
30
0.0
10
172.056615
20
104.447578
30
0.0
10
173.176830
20
103.842800
30
0.0
10
174.813732
20
103.364194
30
0.0
10
177.586891
20
103.248539
30
0.0
10
180.712612
20
103.245491
30
0.0
10
183.231336
20
104.493198
30
0.0
10
185.144889
20
105.610479
30
0.0
10
187.037811
20
107.063528
30
0.0
10
188.924656
20
108.870464
30
0.0
10
190.819979
20
111.049411
30
0.0
10
192.738335
20
113.618487
30
0.0
10
194.694279
20
116.595816
30
0.0
10
196.702368
20
119.999518
30
0.0
10
198.777154
20
123.847713
30
0.0
10
200.280695
20
126.692320
30
0.0
10
200.714801
20
127.362790
30
0.0
10
200.969909
20
127.509136
30
0.0
10
201.070602
20
127.114180
30
0.0
10
201.041461
20
126.160746
30
0.0
10
200.692012
20
122.509734
30
0.0
10
199.841867
20
116.336588
30
0.0
10
198.552622
20
110.089235
30
0.0
10
196.849662
20
103.873409
30
0.0
10
194.758372
20
97.794843
30
0.0
10
193.154020
20
93.910808
30
0.0
10
191.105405
20
89.404776
30
0.0
10
188.933839
20
84.958354
30
0.0
10
186.960631
20
81.253155
30
0.0
10
183.992587
20
76.388317
30
0.0
10
180.415180
20
71.062910
30
0.0
10
176.680388
20
65.923766
30
0.0
10
173.240189
20
61.617713
30
0.0
10
169.180954
20
57.191727
30
0.0
10
163.840173
20
51.900104
30
0.0
10
157.269917
20
45.792679
30
0.0
10
149.522259
20
38.919285
30
0.0
10
144.056681
20
34.162763
30
0.0
10
138.092259
20
36.070139
30
0.0
10
126.847886
20
39.810110
30
0.0
10
117.938555
20
43.143945
30
0.0
10
110.435357
20
46.447292
30
0.0
10
103.409386
20
50.095799
30
0.0
10
98.329248
20
53.060288
30
0.0
10
94.327337
20
55.801813
30
0.0
10
90.686618
20
58.864969
30
0.0
10
86.690059
20
62.794351
30
0.0
10
83.175498
20
66.613214
30
0.0
10
80.670279
20
69.674232
30
0.0
10
79.022512
20
72.197002
30
0.0
10
77.613370
20
74.784706
30
0.0
10
76.437220
20
77.456413
30
0.0
10
75.488425
20
80.231193
30
0.0
10
74.761353
20
83.128115
30
0.0
10
74.250367
20
86.166248
30
0.0
10
73.949833
20
89.364662
30
0.0
10
73.854118
20
92.742425
30
0.0
10
74.050661
20
97.355742
30
0.0
10
74.642465
20
101.522132
30
0.0
10
75.653050
20
105.359079
30
0.0
10
77.105936
20
108.984068
30
0.0
10
78.610786
20
111.760365
30
0.0
10
80.400483
20
114.347853
30
0.0
10
82.447521
20
116.723272
30
0.0
10
84.724391
20
118.863363
30
0.0
10
87.203587
20
120.744867
30
0.0
10
89.857602
20
122.344524
30
0.0
10
92.658928
20
123.639076
30
0.0
10
95.580059
20
124.605263
30
0.0
10
98.300721
20
125.122868
30
0.0
10
102.071170
20
125.237508
30
0.0
10
105.867168
20
125.106192
30
0.0
10
107.100903
20
124.876334
30
0.0
10
108.443299
20
124.470643
30
0.0
10
110.192168
20
123.793557
30
0.0
10
111.795807
20
122.970172
30
0.0
10
113.262100
20
121.992931
30
0.0
10
114.598931
20
120.854277
30
0.0
10
115.814184
20
119.546653
30
0.0
10
116.915744
20
118.062502
30
0.0
10
117.911494
20
116.394266
30
0.0
10
118.809318
20
114.534388
30
0.0
10
119.661791
20
112.377757
30
0.0
10
120.186669
20
110.465493
30
0.0
10
120.449829
20
108.471009
30
0.0
10
120.517147
20
106.067722
30
0.0
10
120.300740
20
102.638233
30
0.0
10
120.015779
20
101.157122
30
0.0
10
119.592021
20
99.775136
30
0.0
10
119.013745
20
98.449802
30
0.0
10
118.265231
20
97.138646
30
0.0
10
116.194611
20
94.388977
30
0.0
10
113.307003
20
91.533031
30
0.0
10
111.897321
20
90.328762
30
0.0
10
111.219028
20
89.911346
30
0.0
10
111.714684
20
91.827612
30
0.0
10
112.192775
20
94.046277
30
0.0
10
112.349982
20
96.525696
30
0.0
10
112.186733
20
98.923118
30
0.0
10
111.703451
20
100.895788
30
0.0
10
111.004049
20
102.300324
30
0.0
10
110.088246
20
103.508522
30
0.0
10
108.971071
20
104.512983
30
0.0
10
107.667556
20
105.306304
30
0.0
10
106.192729
20
105.881086
30
0.0
10
104.561620
20
106.229927
30
0.0
10
102.789259
20
106.345425
30
0.0
10
100.890677
20
106.220181
30
0.0
10
98.800364
20
105.841790
30
0.0
10
97.013510
20
105.262491
30
0.0
10
95.464413
20
104.454967
30
0.0
10
94.087369
20
103.391905
30
0.0
10
92.356640
20
101.424709
30
0.0
10
91.689741
20
100.326073
30
0.0
10
91.151246
20
99.140627
30
0.0
10
90.447758
20
96.478953
30
0.0
10
90.222745
20
93.378982
30
0.0
10
90.330528
20
90.949728
30
0.0
10
90.654463
20
88.770108
30
0.0
10
91.210187
20
86.811976
30
0.0
10
92.013338
20
85.047187
30
0.0
10
93.079555
20
83.447595
30
0.0
10
94.424476
20
81.985056
30
0.0
10
96.063738
20
80.631425
30
0.0
10
98.012981
20
79.358555
30
0.0
10
101.432270
20
77.654220
30
0.0
10
104.973385
20
76.500806
30
0.0
10
108.659403
20
75.892687
30
0.0
10
112.513401
20
75.824238
30
0.0
10
115.053349
20
76.032313
30
0.0
10
117.201510
20
76.415979
30
0.0
10
119.241625
20
77.043758
30
0.0
10
121.457432
20
77.984172
30
0.0
10
123.680041
20
79.145658
30
0.0
10
125.719908
20
80.492381
30
0.0
10
127.702521
20
82.117038
30
0.0
10
129.753366
20
84.112323
30
0.0
10
132.133561
20
86.855984
30
0.0
10
134.159186
20
89.764906
30
0.0
10
135.827545
20
92.831230
30
0.0
10
137.135943
20
96.047095
30
0.0
10
138.081684
20
99.404642
30
0.0
10
138.662073
20
102.896009
30
0.0
10
138.874414
20
106.513337
30
0.0
10
138.716012
20
110.248765
30
0.0
10
138.381207
20
112.873157
30
0.0
10
137.861284
20
115.470265
30
0.0
10
137.164683
20
118.028235
30
0.0
10
136.299847
20
120.535214
30
0.0
10
135.275215
20
122.979349
30
0.0
10
134.099230
20
125.348786
30
0.0
10
132.780331
20
127.631674
30
0.0
10
131.326960
20
129.816158
30
0.0
10
129.747559
20
131.890385
30
0.0
10
128.050567
20
133.842502
30
0.0
10
126.244426
20
135.660657
30
0.0
10
124.337578
20
137.332996
30
0.0
10
122.338462
20
138.847665
30
0.0
10
120.255521
20
140.192812
30
0.0
10
118.097194
20
141.356584
30
0.0
10
115.871924
20
142.327128
30
0.0
10
112.791942
20
143.440482
30
0.0
10
110.318746
20
144.080308
30
0.0
10
107.771676
20
144.373047
30
0.0
10
104.470067
20
144.445138
30
0.0
10
100.525255
20
144.350274
30
0.0
10
98.120067
20
144.075491
30
0.0
10
93.568278
20
142.727212
30
0.0
10
89.028249
20
140.903401
30
0.0
10
84.577625
20
138.655915
30
0.0
10
80.294047
20
136.036613
30
0.0
10
76.255160
20
133.097353
30
0.0
10
72.538607
20
129.889993
30
0.0
10
69.222031
20
126.466389
30
0.0
10
66.383075
20
122.878401
30
0.0
10
63.971440
20
118.822311
30
0.0
10
61.420562
20
113.556954
30
0.0
10
59.198618
20
108.131055
30
0.0
10
57.773782
20
103.593341
30
0.0
10
57.323470
20
101.283466
30
0.0
10
56.988689
20
98.768567
30
0.0
10
56.669889
20
93.398729
30
0.0
10
56.825732
20
88.033889
30
0.0
10
57.084254
20
85.525238
30
0.0
10
57.464568
20
83.224110
30
0.0
10
58.521899
20
78.939477
30
0.0
10
59.973715
20
74.477661
30
0.0
10
61.779373
20
69.920426
30
0.0
10
63.898230
20
65.349538
30
0.0
10
66.289643
20
60.846760
30
0.0
10
68.912969
20
56.493856
30
0.0
10
71.727567
20
52.372591
30
0.0
10
74.692792
20
48.564729
30
0.0
10
76.635456
20
46.449298
30
0.0
10
79.261094
20
43.891919
30
0.0
10
85.795354
20
38.098672
30
0.0
10
92.763708
20
32.479700
30
0.0
10
95.931961
20
30.140164
30
0.0
10
98.634288
20
28.329715
30
0.0
10
102.303130
20
26.283869
30
0.0
10
106.802572
20
24.135346
30
0.0
10
111.725855
20
22.066213
30
0.0
10
116.666222
20
20.258535
30
0.0
10
118.984601
20
19.480050
30
0.0
10
117.869411
20
18.148083
30
0.0
10
116.371127
20
16.492541
30
0.0
10
114.663960
20
14.849611
30
0.0
10
110.697903
20
11.655747
30
0.0
10
106.121097
20
8.674807
30
0.0
10
101.083401
20
6.015107
30
0.0
10
96.020943
20
3.839301
30
0.0
10
90.802857
20
2.028499
30
0.0
10
85.327543
20
0.551463
30
0.0
10
79.493401
20
-0.623042
30
0.0
10
76.469684
20
-0.926008
30
0.0
10
72.088164
20
-1.138528
30
0.0
10
67.493429
20
-1.222768
30
0.0
10
63.830067
20
-1.140892
30
0.0
10
63.830059
20
-1.140892
30
0.0
  0
ENDSEC
  0
SECTION
  2
OBJECTS
  0
DICTIONARY
  5
C
330
0
100
AcDbDictionary
  3
ACAD_GROUP
350
D
  3
ACAD_MLINESTYLE
350
17
  0
DICTIONARY
  5
D
330
C
100
AcDbDictionary
  0
DICTIONARY
  5
1A
330
C
100
AcDbDictionary
  0
DICTIONARY
  5
17
330
C
100
AcDbDictionary
  3
STANDARD
350
18
  0
DICTIONARY
  5
19
330
C
100
AcDbDictionary
  0
ENDSEC
  0
EOF
